<?xml version="1.0" encoding="utf-8"?>
<!-- Generator: Adobe Illustrator 18.1.1, SVG Export Plug-In . SVG Version: 6.00 Build 0)  -->
<svg version="1.1" id="Layer_1" xmlns="http://www.w3.org/2000/svg" xmlns:xlink="http://www.w3.org/1999/xlink" x="0px" y="0px"
	 viewBox="0 0 30 30" style="enable-background:new 0 0 30 30;" xml:space="preserve">
<path d="M26.9,13.8H7l5.1-5.1c0.2-0.2,0.2-0.6,0-0.9l-0.8-0.8c-0.2-0.2-0.6-0.2-0.9,0l-6.6,6.6c-0.1,0-0.2,0.1-0.3,0.2l-0.8,0.8
	c-0.1,0.1-0.2,0.3-0.2,0.5c0,0.2,0,0.4,0.2,0.5l0.8,0.8c0.1,0.1,0.2,0.1,0.3,0.2l6.6,6.6c0.2,0.2,0.6,0.2,0.9,0l0.8-0.8
	c0.2-0.2,0.2-0.6,0-0.9L7,16.2h19.9c0.3,0,0.6-0.3,0.6-0.6v-1.2C27.5,14.1,27.2,13.8,26.9,13.8z"/>
</svg>
