<?xml version="1.0" encoding="utf-8"?>
<!-- Generator: Adobe Illustrator 18.1.1, SVG Export Plug-In . SVG Version: 6.00 Build 0)  -->
<svg version="1.1" id="Layer_1" xmlns="http://www.w3.org/2000/svg" xmlns:xlink="http://www.w3.org/1999/xlink" x="0px" y="0px"
	 viewBox="0 0 30 30" style="enable-background:new 0 0 30 30; fill: #000033" class="color-icon-calendar" xml:space="preserve">
<style type="text/css">
	.st0{fill:#FFFFFF;stroke:#000000;stroke-miterlimit:10;}
</style>
<g>
	<path d="M9.9,19.8H5.4c-0.6,0-1-0.5-1-1v-4.4c0-0.6,0.4-1,1-1h4.4c0.6,0,1,0.4,1,1v4.4C10.9,19.3,10.4,19.8,9.9,19.8z"/>
	<path d="M17.2,19.8h-4.4c-0.6,0-1-0.5-1-1v-4.4c0-0.6,0.4-1,1-1h4.4c0.5,0,1,0.4,1,1v4.4C18.2,19.3,17.8,19.8,17.2,19.8z"/>
	<path d="M24.6,19.8h-4.4c-0.6,0-1-0.5-1-1v-4.4c0-0.6,0.4-1,1-1h4.4c0.5,0,1,0.4,1,1v4.4C25.6,19.3,25.1,19.8,24.6,19.8z"/>
	<path d="M9.9,27H5.4c-0.6,0-1-0.5-1-1v-4.4c0-0.5,0.4-1,1-1h4.4c0.6,0,1,0.5,1,1V26C10.9,26.5,10.4,27,9.9,27z"/>
	<path d="M17.2,27h-4.4c-0.6,0-1-0.5-1-1v-4.4c0-0.5,0.4-1,1-1h4.4c0.5,0,1,0.5,1,1V26C18.2,26.5,17.8,27,17.2,27z"/>
	<path d="M24.6,27h-4.4c-0.6,0-1-0.5-1-1v-4.4c0-0.5,0.4-1,1-1h4.4c0.5,0,1,0.5,1,1V26C25.6,26.5,25.1,27,24.6,27z"/>
	<path d="M24.2,6.2h-4.3v2.3c0,0.5-0.4,0.9-0.9,0.9h-0.7c-0.5,0-0.9-0.4-0.9-0.9V6.2h-4.6v2.3c0,0.5-0.4,0.9-0.9,0.9h-0.7
		c-0.5,0-0.9-0.4-0.9-0.9V6.2H5.8C5,6.2,4.4,6.8,4.4,7.6v2.6c0,0.8,0.6,1.4,1.4,1.4h18.4c0.8,0,1.4-0.6,1.4-1.4V7.6
		C25.6,6.8,25,6.2,24.2,6.2z"/>
	<path class="st0" d="M11.5,3L11.5,3c0.7,0,1.3,0.6,1.3,1.3v3.9c0,0.7-0.6,1.3-1.3,1.3h0c-0.7,0-1.3-0.6-1.3-1.3V4.3
		C10.2,3.6,10.8,3,11.5,3z"/>
	<path class="st0" d="M18.5,3L18.5,3c0.7,0,1.3,0.6,1.3,1.3v3.9c0,0.7-0.6,1.3-1.3,1.3h0c-0.7,0-1.3-0.6-1.3-1.3V4.3
		C17.2,3.6,17.8,3,18.5,3z"/>
</g>
</svg>
