<?xml version="1.0" encoding="utf-8"?>
<!-- Generator: Adobe Illustrator 18.1.1, SVG Export Plug-In . SVG Version: 6.00 Build 0)  -->
<svg version="1.1" id="Layer_1" xmlns="http://www.w3.org/2000/svg" xmlns:xlink="http://www.w3.org/1999/xlink" x="0px" y="0px"
	 viewBox="0 0 30 30" style="enable-background:new 0 0 30 30; fill: #00cc00" xml:space="preserve">
<path d="M2.7,17.1l7,7c0.3,0.3,0.9,0.3,1.2,0L11,24l0.5-0.5L27.3,7.7c0.3-0.3,0.3-0.9,0-1.2l-0.6-0.6c-0.3-0.3-0.9-0.3-1.2,0
	L11,20.4l0,0l-0.1,0.1c-0.3,0.3-0.8,0.3-1.1,0.1l-5.2-5.2c-0.3-0.3-0.9-0.3-1.2,0l-0.6,0.6C2.4,16.2,2.4,16.8,2.7,17.1z"/>
</svg>
