<?xml version="1.0" encoding="utf-8"?>
<!-- Generator: Adobe Illustrator 16.0.0, SVG Export Plug-In . SVG Version: 6.00 Build 0)  -->
<!DOCTYPE svg PUBLIC "-//W3C//DTD SVG 1.1//EN" "http://www.w3.org/Graphics/SVG/1.1/DTD/svg11.dtd">
<svg version="1.1" id="Layer_1" xmlns="http://www.w3.org/2000/svg" xmlns:xlink="http://www.w3.org/1999/xlink" x="0px" y="0px"
	 width="400px" height="400px" viewBox="0 0 400 400" enable-background="new 0 0 400 400" xml:space="preserve">
<path d="M293.342,88.858c0,7.61-7.215,13.78-16.114,13.78h-152.41c-8.902,0-16.117-6.169-16.117-13.78V45.602
	c0-7.61,7.215-13.78,16.117-13.78h152.41c8.899,0,16.114,6.169,16.114,13.78V88.858z"/>
<path d="M236.006,31.821c0,9.272-3.25,16.789-7.263,16.789h-55.446c-4.009,0-7.261-7.516-7.261-16.789l0,0
	c0-9.272,3.251-16.789,7.261-16.789h55.446C232.757,15.033,236.006,22.55,236.006,31.821L236.006,31.821z"/>
<path d="M337.047,49.526h-22.463v49.113c0,10.3-7.595,18.651-16.966,18.651H109.422c-9.369,0-16.966-8.351-16.966-18.651V49.526
	h-27.46c-9.37,0-16.966,8.35-16.966,18.65v299.077c0,10.3,7.595,18.65,16.966,18.65h272.051c9.369,0,16.966-8.351,16.966-18.65
	V68.176C354.012,57.876,346.416,49.526,337.047,49.526z"/>
<g>
	
		<rect x="176.788" y="129.65" transform="matrix(-0.7515 -0.6598 0.6598 -0.7515 192.3975 562.6841)" fill="#FFFFFF" stroke="#000000" stroke-width="1.327" stroke-miterlimit="10" width="50.782" height="230.91"/>
	<polygon fill="#FFFFFF" stroke="#000000" stroke-width="1.327" stroke-miterlimit="10" points="142.184,351.443 106.787,353.62 
		104.61,318.223 	"/>
	<path fill="#FFFFFF" stroke="#000000" stroke-width="1.327" stroke-miterlimit="10" d="M129.526,394.968"/>
</g>
</svg>
