<?xml version="1.0" encoding="utf-8"?>
<!-- Generator: Adobe Illustrator 18.1.1, SVG Export Plug-In . SVG Version: 6.00 Build 0)  -->
<svg version="1.1" id="Layer_1" xmlns="http://www.w3.org/2000/svg" xmlns:xlink="http://www.w3.org/1999/xlink" x="0px" y="0px"
	 viewBox="0 0 30 30" style="enable-background:new 0 0 30 30; fill: #00cc00" xml:space="preserve">
<g>
	<circle cx="7.3" cy="13" r="2.6"/>
	<circle cx="22.7" cy="13" r="2.6"/>
	<circle cx="15" cy="12" r="3.9"/>
	<path d="M17.9,15.2c-0.8,0.7-1.8,1.2-2.9,1.2s-2.2-0.4-2.9-1.2c-2.6,1.1-4.3,3.7-4.3,6.6h14.5C22.3,18.8,20.5,16.3,17.9,15.2z"/>
	<path d="M10.5,15.9c-0.4-0.3-0.8-0.6-1.3-0.8c-0.5,0.5-1.2,0.8-1.9,0.8s-1.4-0.3-1.9-0.8c-1.7,0.7-2.9,2.4-2.9,4.4h5.4
		C8.4,18.1,9.3,16.8,10.5,15.9z"/>
	<path d="M22.1,19.5h5.4c0-2-1.2-3.7-2.9-4.4c-0.5,0.5-1.2,0.8-1.9,0.8s-1.4-0.3-1.9-0.8c-0.5,0.2-0.9,0.5-1.3,0.8
		C20.7,16.8,21.6,18.1,22.1,19.5z"/>
</g>
</svg>
