<?xml version="1.0" encoding="utf-8"?>
<!-- Generator: Adobe Illustrator 16.0.0, SVG Export Plug-In . SVG Version: 6.00 Build 0)  -->
<!DOCTYPE svg PUBLIC "-//W3C//DTD SVG 1.1//EN" "http://www.w3.org/Graphics/SVG/1.1/DTD/svg11.dtd">
<svg version="1.1" id="Layer_1" xmlns="http://www.w3.org/2000/svg" xmlns:xlink="http://www.w3.org/1999/xlink" x="0px" y="0px"
	 width="400px" height="400px" viewBox="97.64 220.945 400 400" enable-background="new 97.64 220.945 400 400"
	 xml:space="preserve">
<g id="Layer_1_1_">
	<polyline points="140.106,569.145 141.698,516.687 135.309,510.527 131.314,597.509 218.076,590.159 448.598,350.542 
		442.03,344.205 423.145,326.023 204.836,552.924 192.131,540.67 410.387,313.801 384.935,289.281 166.668,516.194 153.92,503.928 
		378.21,270.816 454.589,344.289 479.671,318.175 473.314,312.069 396.935,238.597 390.829,244.955 147.563,497.822 
		141.456,504.181 147.815,510.287 160.52,522.541 166.92,528.656 173.026,522.3 384.99,302.008 397.703,314.22 185.773,534.563 
		179.624,540.912 186.015,547.069 198.73,559.282 205.078,565.43 211.236,559.041 423.156,338.738 435.913,350.962 211.625,584.074 
		211.646,583.99 159.316,587.631 	"/>
</g>
</svg>
