<?xml version="1.0" encoding="utf-8"?>
<!-- Generator: Adobe Illustrator 18.1.1, SVG Export Plug-In . SVG Version: 6.00 Build 0)  -->
<svg version="1.1" id="Layer_1" xmlns="http://www.w3.org/2000/svg" xmlns:xlink="http://www.w3.org/1999/xlink" x="0px" y="0px"
	 viewBox="0 0 30 30" style="enable-background:new 0 0 30 30;" xml:space="preserve">
<path d="M10.4,27.2l11.4-11.4c0.4-0.4,0.4-1,0-1.4l-0.1-0.1l-0.6-0.6L10.3,2.8c-0.4-0.4-1-0.4-1.4,0L8.2,3.5c-0.4,0.4-0.4,1,0,1.4
	l9.3,9.3l0,0l0.1,0.1c0.4,0.4,0.4,0.9,0.1,1.3l-9.4,9.4c-0.4,0.4-0.4,1,0,1.4L9,27.2C9.4,27.6,10,27.6,10.4,27.2z"/>
</svg>
