<?xml version="1.0" encoding="utf-8"?>
<!-- Generator: Adobe Illustrator 18.1.1, SVG Export Plug-In . SVG Version: 6.00 Build 0)  -->
<svg version="1.1" id="Layer_1" xmlns="http://www.w3.org/2000/svg" xmlns:xlink="http://www.w3.org/1999/xlink" x="0px" y="0px"
	 viewBox="0 0 1000 1000" enable-background="new 0 0 1000 1000" xml:space="preserve">
<g>
	<path d="M55.1,585.8l252.8,252.8c12,12,31.6,12,43.6,0l3.8-3.8l18-18l570.5-570.5c12-12,12-31.6,0-43.6L922,180.9
		c-12-12-31.6-12-43.6,0L355,704.3l0,0l-3.8,3.8c-11.1,11.1-28.5,11.8-40.6,2.4L120.5,520.4c-12-12-31.6-12-43.6,0l-21.8,21.8
		C43.1,554.2,43.1,573.8,55.1,585.8z"/>
	<path d="M58.2,268.8c0-24.8,5.4-44.8,16.3-60.1s25.9-22.9,45.2-22.9c9.3,0,17.5,2,24.6,6c7.1,4,13,9.7,17.9,17.2l3.5-20.3h29.1
		v155.8c0,20.1-6.2,35.6-18.6,46.5s-30,16.4-52.7,16.4c-7.6,0-15.8-1.1-24.6-3.2c-8.8-2.2-16.7-5-23.8-8.6l7.5-27.5
		c5.8,3,12.1,5.3,19.1,7c7,1.7,14.1,2.5,21.5,2.5c12.7,0,21.9-2.7,27.8-8.1c5.9-5.4,8.8-13.8,8.8-25v-16c-4.9,6.2-10.7,11-17.4,14.2
		c-6.7,3.2-14.3,4.8-23,4.8c-19.1,0-34.1-7-44.9-20.9c-10.8-13.9-16.3-32.2-16.3-54.9V268.8z M93.2,271.8c0,14.3,2.9,25.8,8.6,34.3
		c5.7,8.6,14.6,12.9,26.6,12.9c7.5,0,13.8-1.6,18.9-4.7c5.1-3.1,9.3-7.6,12.5-13.5v-68.3c-3.3-5.7-7.5-10.1-12.6-13.3
		c-5.1-3.2-11.3-4.8-18.5-4.8c-12,0-20.9,5-26.7,15.1c-5.8,10.1-8.7,23.1-8.7,39.2V271.8z"/>
	<path d="M210.3,265.2c0-23.1,6.3-42.1,19-57c12.9-14.9,30.3-22.3,52.3-22.3c22.4,0,39.9,7.4,52.6,22.3c12.8,14.8,19.2,33.8,19.2,57
		v3c0,23.4-6.4,42.5-19.2,57.3c-12.7,14.7-30.1,22-52.3,22c-22.3,0-39.8-7.4-52.6-22.2c-12.7-14.8-19-33.8-19-57.2V265.2z
		 M245.3,268.1c0,15.1,3,27.5,8.9,37.1c5.9,9.5,15.1,14.2,27.6,14.2c12.2,0,21.3-4.7,27.4-14.2c6.1-9.6,9.2-22,9.2-37.1v-3
		c0-14.9-3.1-27.1-9.2-36.7c-6-9.7-15.3-14.5-27.6-14.5c-12.2,0-21.3,4.8-27.4,14.5c-5.9,9.7-8.9,21.9-8.9,36.7V268.1z"/>
	<path d="M471.3,150.8v37.9h27.9v25.9h-27.9v86.1c0,6.4,1.4,11,4.2,13.8c2.8,2.7,6.5,4.1,11.1,4.1c1.9,0,3.8-0.2,5.6-0.5
		c1.8-0.3,3.6-0.8,5.2-1.4l3.7,25.6c-3,1.6-6.5,2.9-10.7,3.8c-4.1,0.9-8.4,1.4-12.8,1.4c-12.9,0-22.9-3.8-30.2-11.3
		s-10.9-19.4-10.9-35.5v-86.1h-23.8v-25.9h23.8v-37.9H471.3z"/>
	<path d="M509.1,265.2c0-23.1,6.3-42.1,19-57c12.9-14.9,30.3-22.3,52.3-22.3c22.4,0,39.9,7.4,52.6,22.3c12.8,14.8,19.2,33.8,19.2,57
		v3c0,23.4-6.4,42.5-19.2,57.3c-12.7,14.7-30.1,22-52.3,22c-22.3,0-39.8-7.4-52.6-22.2c-12.7-14.8-19-33.8-19-57.2V265.2z
		 M544.1,268.1c0,15.1,3,27.5,8.9,37.1c5.9,9.5,15.1,14.2,27.6,14.2c12.2,0,21.3-4.7,27.4-14.2c6.1-9.6,9.2-22,9.2-37.1v-3
		c0-14.9-3.1-27.1-9.2-36.7c-6-9.7-15.3-14.5-27.6-14.5c-12.2,0-21.3,4.8-27.4,14.5c-5.9,9.7-8.9,21.9-8.9,36.7V268.1z"/>
</g>
</svg>
