<?xml version="1.0" encoding="utf-8"?>
<!-- Generator: Adobe Illustrator 18.1.1, SVG Export Plug-In . SVG Version: 6.00 Build 0)  -->
<svg version="1.1" id="Layer_1" xmlns="http://www.w3.org/2000/svg" xmlns:xlink="http://www.w3.org/1999/xlink" x="0px" y="0px"
	 viewBox="0 0 300 300" enable-background="new 0 0 300 300" style=" fill: #00cc00"  xml:space="preserve">
<g>
	<path d="M225.4,21.1c-0.1,0.7-0.7,1-1.1,1.5C224.3,21.8,224.8,21.4,225.4,21.1z"/>
	<path d="M246.4,171.5c-0.1-0.5-0.1-0.9,0.2-1.3C246.9,170.7,246.8,171.1,246.4,171.5z"/>
	<path d="M33.8,262.4c0.2,0.4,0.5,0.8,0.7,1.2C34.1,263.3,33.7,263,33.8,262.4z"/>
	<path d="M244.6,31.8c0.1-0.3,0.3-0.5,0.4-0.8C245.1,31.4,244.9,31.6,244.6,31.8z"/>
	<path d="M30,257.2c0.1,0.2,0.3,0.4,0.4,0.6C30,257.8,29.9,257.5,30,257.2z"/>
	<path d="M261.5,63.3c0.1-0.2,0.1-0.3,0.2-0.5C261.7,63,261.6,63.2,261.5,63.3z"/>
	<path d="M203.7,200.2c0.1-0.1,0.1-0.2,0.2-0.3c0,0,0.1,0,0.2,0C204,200.1,203.9,200.2,203.7,200.2z"/>
	<path d="M20,243c0,0.1,0.1,0.2,0.1,0.3c0,0-0.2-0.1-0.2-0.1L20,243z"/>
	<path d="M23.4,247.8c0.1,0.1,0.1,0.2,0.2,0.4C23.5,248,23.4,247.9,23.4,247.8z"/>
	<path d="M26,251.2c0.1,0.2,0.2,0.5,0.2,0.7C26.1,251.6,26,251.4,26,251.2z"/>
	<path d="M26.9,252.6c0.1,0.1,0.1,0.3,0.1,0.4C27,252.9,26.9,252.8,26.9,252.6z"/>
	<path d="M28.9,255.4c0.1,0.2,0.1,0.3,0.2,0.5C29,255.7,28.9,255.5,28.9,255.4z"/>
	<path d="M29.7,256.7c0.3,0,0.3,0.1,0.3,0.4C29.9,257,29.8,256.8,29.7,256.7z"/>
	<path d="M32.9,260.9c0.1,0.2,0.2,0.4,0.2,0.6C33.1,261.3,33,261.1,32.9,260.9z"/>
	<g>
		<path d="M173.3,89.7C173.3,89.7,173.4,89.7,173.3,89.7C173.4,89.7,173.3,89.7,173.3,89.7z"/>
		<path d="M246.4,171.5c0.1-0.1,0.2-0.2,0.3-0.3c0.2-0.3,0.2-0.6-0.1-1c0,0,0,0,0,0c0.5-0.5,0.6-1.1,0.8-1.7c1.1-3.5,2.3-7.1,4.7-10
			c1.4-1.7,2.2-3.5,2.7-5.6c3.9-5.6,9.2-10.2,12.7-16.1c1-1.8,0.9-2.8-1-3.7c-0.7-0.3-1.3-0.6-2-0.8c-0.5-0.2-1-0.3-1.6-0.5
			c-1-0.3-2.1-0.5-3.1-0.6c-0.5-0.1-1-0.1-1.6-0.1c-2.1,0-4.1,0.4-6.1,1.7c-3.4,2.1-6.9,4-10.3,6.1c-1.1,0.7-2.3,1.4-3.4,2.1
			c-1,0.6-1.9,1.3-2.7,2c-0.9,0.7-1.7,1.5-2.5,2.3c-1.3,1.3-2.5,2.7-3.7,4.2c-0.3,0.3-0.5,0.6-0.7,1c0,0,0,0,0,0
			c-0.2,0.2-0.4,0.4-0.6,0.6c-2.4,2.7-4.5,5.9-8.3,6.9c-3.7,1.4-7.4,2.8-10.7,5.1c-0.3,0-0.6,0.1-0.9,0.2c-0.9,0.3-1.6,0.9-2.2,1.6
			c-0.1,0.1-0.3,0.1-0.3,0.3l0,0c-0.4,0-0.7,0.1-1,0.3c-0.5,0.3-0.9,0.7-1.4,0.9c-0.3-0.1-0.5-0.3-0.6-0.5c-0.1-0.2,0-0.5,0.2-0.8
			c1.2-2.2,2.3-4.5,3.4-6.7c4.3-8.1,8.9-16.1,12.8-24.4c3.6-7.7,8.1-14.8,13-21.7c0.7-0.9,1.3-1.9,2-2.8c2-2.8,4.1-5.6,5.6-8.7
			c0.4-0.5,0.8-1,1.2-1.5c2.4-3.6,5.1-7,7.1-10.8c3.3-6.3,6.1-12.8,9.5-19c0.1-0.2,0.2-0.3,0.3-0.5c0.8-1.1,2.2-2,2.1-3.6
			c0.6-0.7,1.2-1.5,1.8-2.2c0.1-0.2,0.1-0.3,0.2-0.5c0,0,0,0,0,0c3.7-4.6,5.5-10.1,8-15.3c1.8-3.5,1.1-7.3,1.4-11
			c0.2-3.2-0.6-6-3.4-7.6c-2.5-1.4-5.3-1.3-8,0c-1.3,0.6-2.5,1.4-3.5,2.3c-3.2,2.6-5.5,6-7.8,9.5c0,0,0,0,0,0c0,0,0,0,0,0
			c0,0,0,0,0,0c-0.5,0.7-1.2,1.2-1.7,1.9c-0.1,0.2-0.2,0.5-0.3,0.8c-0.3,0.3-0.6,0.6-0.8,0.9c-0.2,0.3-0.5,0.6-0.7,1
			c-2.8,5-5.7,10-8.6,15c-0.9,1.6-1.9,3-3,4.5c-1.8,2.4-3.7,4.7-5.5,7c-0.6,0.6-1.2,1.2-1.8,1.7c-0.3,0.3-0.6,0.6-0.9,0.9
			c-0.3,0.3-0.6,0.6-0.9,1c-1.1,1.2-2,2.5-2.7,4.1c-2.8,4.3-5.6,8.5-8.5,12.8c-1,1.4-1.9,2.8-2.9,4.2c-2.2,3.1-4.3,6.3-6.7,9.2
			c-1.5,1.8-3,3.4-4.8,4.9c0,0,0,0,0,0l0,0c0,0,0,0,0,0c0,0,0,0,0,0c-0.3-0.2-0.7-0.2-1-0.1c-0.3,0.1-0.7,0.2-1,0.2
			c-0.8-0.4-1.6-0.8-2.4-1.2l-0.1-0.2c0,0-0.2,0-0.2,0c-0.3-0.4-0.6-0.9-0.9-1.3c0.5-1,1-2,1.6-3c5.3-8.9,12.2-16.7,18.2-25.1
			c2.6-3.5,5.9-6.6,7-11.1c0.9-2.8,2.9-5,4.1-7.6c2-1.4,2.9-3.7,4.2-5.6c5.5-7.9,12.2-14.9,16.4-23.6c0.1,0,0.2-0.1,0.2-0.1
			c0.2-0.2,0.3-0.4,0.1-0.7c0,0,0-0.1,0-0.1c4.2-5.2,5.3-11.1,3.6-17.4c-1.1-4.4-4.5-6-8.9-4.3c-1.1,0.4-2.2,1.1-3.3,1.5
			c-2,0.8-3.7,1.9-5.2,3.2c-1.5,1.4-2.7,3-3.8,4.9c-0.7,0.8-1.3,1.5-2,2.3c-0.1,0.1-0.3,0.2-0.4,0.3c-0.1,0.1-0.3,0.2-0.4,0.3
			c-0.2,0.2-0.3,0.5-0.3,0.9c-2.1,2.3-3.9,4.9-5.6,7.5c-1,1.6-2,3.1-3.1,4.7c-4,4.8-7.6,9.9-12.1,14.3c-2.2,2.1-4.5,4.1-6.2,6.6
			c-3.4,5-7,9.8-10.2,14.9c-1.5,2.4-3.3,4.6-4.9,7c-1,1.4-1.9,2.8-2.6,4.4c-0.3,0.4-0.6,0.8-0.9,1.2c-0.3,0.2-0.5,0.4-0.7,0.6
			c-0.6,0.7-1,1.5-1.3,2.4c-0.9,1.1-1.9,2.2-2.8,3.3c-0.3,0.4-0.6,0.8-0.8,1.2c0-0.1,0-0.3,0.1-0.4c0,0.1-0.1,0.3-0.1,0.4
			c-0.1,0.1-0.3,0.2-0.4,0.3c-0.1,0.1-0.2,0.2-0.4,0.4c-0.2,0.2-0.4,0.5-0.6,0.7c0,0,0,0.1-0.1,0.1c-0.5,0.5-1,1-1.8,1.1
			c-0.4-0.8-0.6-1.7-0.4-2.5c0-0.3,0.1-0.6,0.2-0.9c0.1-0.4,0.3-0.7,0.6-1c4.9-6.5,8.4-13.9,14-19.9c0.9-1,1.8-2,2.5-3.2
			c0.7-1.2,1.2-2.4,1.5-3.8c0.1-0.2,0.3-0.3,0.4-0.4c0.1-0.1,0.3-0.3,0.5-0.4c0.3-0.3,0.6-0.5,0.8-0.9c2.9-5.7,7.1-10.4,11.5-15.1
			c2.4-2.6,4.9-5.2,6.8-8.2c4-4.3,7.4-9,7.8-15.2c0.2-2.4-0.4-4.5-2.4-6c-2.2-1.7-4.4-1.2-6.7-0.2c-1.4,0.6-2.8,1.3-4.2,1.9
			c-1,0.4-2,0.9-3,1.4c-1.6,0.8-3.1,1.9-4.3,3.3c-0.1,0.1-0.3,0.2-0.4,0.4c-0.1,0.1-0.2,0.2-0.3,0.3c-2.8,1.8-5.1,4-7.3,6.4
			c-1.3,1.4-2.6,2.9-3.9,4.3c-2.1,2.4-4,5-6.6,7c0-0.1,0-0.3-0.1-0.4c1-1.1,1.2-2.1,1-3.2c-0.2-0.6-0.5-1.3-0.9-1.9
			c-1.3-1.9-3.4-2-5.3-1.3c-3.6,1.3-6.9,3.1-10.5,4.4c-4.8,1.7-9.2,4-13.3,6.9c0,0,0,0,0,0l0,0c0,0,0,0,0,0
			c-0.3,0.2-0.5,0.4-0.8,0.6c-1.3,0.6-2.3,1.5-3.3,2.5c-2.5,2.7-5.2,5.1-8.4,7c-3,1.9-5.3,4.5-7.3,7.4c-4.2,6.3-8.4,12.5-12.5,18.8
			c-2.6,3.4-5.4,6.7-7.9,10.2c-5.2,7.2-9.5,14.9-13.9,22.6c-4.8,8.3-10.4,16.2-14.2,25c-0.2,0.4-0.4,0.9-0.6,1.3
			c-1.4,3-3,5.9-3.2,9.4l0,0c-1.9,3.3-2.8,7-4,10.6c-0.1,0.2-0.1,0.3-0.2,0.5c-0.5,1.1-1.1,2.2-0.7,3.5c0,0,0,0,0,0
			c-1,1.2-1.6,2.6-1.5,4.2c-0.2,0.2-0.3,0.4-0.5,0.7c-0.5,0.5-0.6,1.1-0.6,1.8c-2,3.1-4.2,6.1-6.6,9c-0.8,1-1.6,1.9-2.4,2.8
			c-11.2,12.5-24.9,21.9-38,32.1c-3.8,3-8.2,5.1-11.9,8.1c-1.2,1-1.5,1.8-0.7,3.1c0.7,1.1,1.3,2.3,2,3.4c2,3.4,4.2,6.7,6.7,9.8
			c0.3,0.4,0.7,0.8,1,1.2c0,0.2,0.1,0.4,0.1,0.6c0.3,0.8,1,1.3,1.6,1.8c0,0,0,0,0,0l0,0c0,0,0,0,0,0c0,0,0,0.1,0,0.1l-0.1,0.2
			c0,0,0.2,0.1,0.2,0.1c1.1,1.5,2.2,3,3.3,4.5c0.1,0.1,0.1,0.2,0.2,0.4c0.4,0.9,1,1.6,1.7,2.3c0.2,0.2,0.5,0.5,0.7,0.7
			c0.1,0.2,0.2,0.5,0.2,0.7c0.2,0.2,0.4,0.5,0.6,0.7c0,0,0.1,0.1,0.1,0.1c0,0,0,0,0,0c0.1,0.1,0.1,0.2,0.1,0.4
			c0.4,0.9,1.1,1.6,1.9,2.3c0.1,0.2,0.1,0.3,0.2,0.5c0.2,0.3,0.4,0.6,0.7,0.9c0.1,0.1,0.2,0.3,0.3,0.4c0,0,0,0.1,0,0.1
			c-0.1,0.4,0,0.6,0.4,0.6c0.4,0.9,1.1,1.7,1.8,2.4c0.2,0.2,0.5,0.5,0.7,0.7c0.1,0.2,0.2,0.4,0.2,0.6c0.2,0.3,0.4,0.6,0.7,0.8
			c0,0.2,0,0.3,0,0.4c0,0.1,0.1,0.1,0.1,0.2c0,0,0,0.1,0.1,0.1c0.1,0.2,0.3,0.3,0.6,0.5c2.6,3.5,5.1,7,7.7,10.4
			c0.9,1.1,1.7,2.3,2.6,3.4c2.1,2.6,3.8,5.6,6.6,7.7l0.1,0.1l0.2,0.1c0.1,0.1,0.3,0.1,0.4,0.1c0.1,0,0.3-0.1,0.4-0.2
			c0.1,0,0.2-0.1,0.2-0.2c0.6-0.1,1.1-0.3,1.5-0.6c0.2-0.1,0.4-0.3,0.6-0.5c1-0.8,1.7-1.9,2.6-2.8c1.1-0.7,2-1.7,2.9-2.8
			c0.3-0.3,0.7-0.7,1-1c1.1-1,2.1-2.1,3.2-3.1c0.2,0,0.3-0.1,0.5-0.1c0.5-0.2,0.8-0.5,1-1c0.6-0.3,1.1-0.7,1.5-1.2
			c0.1-0.2,0.3-0.3,0.4-0.5c0.8-0.3,1.4-0.8,2-1.3c1-0.9,1.9-1.9,2.8-2.8c0.5-0.4,1-0.9,1.5-1.3c0.4-0.2,0.9-0.4,1.2-0.7
			c6.8-6,14.4-10.9,22.2-15.4c6.3-3.6,12.6-7.2,18.1-12c5.6-4.9,12-8,18.8-10.5c10.8-4,21.7-7.6,32-12.8c7.4-3.7,15-6.6,22.9-9
			c2.8-0.8,5.7-1.4,8.3-2.8c0.4,0,0.8-0.1,1.1-0.2c1.1-0.3,2-0.9,2.8-1.6c0.7-0.2,1.4-0.4,1.9-0.9c0.2,0,0.3-0.1,0.4-0.3
			c0.8-0.5,1.5-1.1,2.3-1.6c1.3-0.9,2.5-1.8,3.5-3.1c2.2-1.7,4.4-3.3,6.6-5c0.7-0.5,1.4-1.1,2.2-1.5c5.1-3.1,10.6-5.5,16.2-7.4
			C240.1,179.6,244.5,177,246.4,171.5z M140.7,83.2c4.8-7,8.4-15,14.8-21c1.5-1.4,3.1-2.6,4.7-3.8c0.2-0.3,0.5-0.6,1-0.5
			c0.2,0,0.3-0.1,0.4-0.2c0.2,0.2,0.3,0.5,0.5,0.7c-0.1,0-0.2,0.1-0.2,0.2c-3.1,4.9-6.1,9.8-9.2,14.6c-3.1,4.7-5.8,9.6-9.9,13.5
			C140.2,85.9,139.5,85,140.7,83.2z"/>
		<path d="M173.4,89.7c0.1-0.1,0.3-0.2,0.4-0.3C173.6,89.5,173.5,89.5,173.4,89.7z"/>
		<path d="M173,90.1c0-0.2,0.1-0.3,0.2-0.4C173.2,89.9,173.1,90,173,90.1z"/>
	</g>
</g>
</svg>
