<?xml version="1.0" encoding="utf-8"?>
<!-- Generator: Adobe Illustrator 15.1.0, SVG Export Plug-In . SVG Version: 6.00 Build 0)  -->
<!DOCTYPE svg PUBLIC "-//W3C//DTD SVG 1.1//EN" "http://www.w3.org/Graphics/SVG/1.1/DTD/svg11.dtd">
<svg version="1.1" id="Layer_1" xmlns="http://www.w3.org/2000/svg" xmlns:xlink="http://www.w3.org/1999/xlink" x="0px" y="0px"
	 width="400px" height="400px" viewBox="0 0 400 400" enable-background="new 0 0 400 400" xml:space="preserve">
<g>
	<path fill="#00CC00" d="M60.637,61.51C21.242,100.906,2.133,152.905,3.306,204.528c2.741-42.066,20.178-83.353,52.329-115.504
		c57.018-57.017,142.771-67.785,210.642-32.304c16.206,7.585,31.396,18.063,44.78,31.448l26.657-26.657
		C261.199-15.003,137.15-15.003,60.637,61.51z"/>
	<path fill="#00CC00" d="M132.852,344.154c-16.207-7.585-31.395-18.065-44.781-31.448l-26.656,26.656
		c76.514,76.514,200.564,76.516,277.078,0.002c39.396-39.396,58.503-91.396,57.33-143.02
		c-2.742,42.067-20.177,83.354-52.328,115.505C286.477,368.867,200.724,379.634,132.852,344.154z"/>
</g>
<rect x="77.961" y="178.031" fill="#00CC00" width="244.078" height="44.875"/>
<rect x="178.171" y="78.46" fill="#00CC00" width="44.875" height="244.079"/>
</svg>
