<?xml version="1.0" encoding="utf-8"?>
<!-- Generator: Adobe Illustrator 18.1.1, SVG Export Plug-In . SVG Version: 6.00 Build 0)  -->
<svg version="1.1" id="Layer_1" xmlns="http://www.w3.org/2000/svg" xmlns:xlink="http://www.w3.org/1999/xlink" x="0px" y="0px"
	 viewBox="0 0 30 30" style="enable-background:new 0 0 30 30;" xml:space="preserve">
<g>
	<path d="M15.1,10.2c-0.5,0-0.9,0.2-1.3,0.5c-0.3,0.3-0.5,0.7-0.5,1.2c0,0.5,0.2,0.9,0.5,1.2c0.4,0.3,0.8,0.5,1.3,0.5
		c0.5,0,0.9-0.2,1.2-0.5c0.3-0.3,0.5-0.8,0.5-1.2c0-0.5-0.2-0.9-0.5-1.2C16,10.3,15.6,10.2,15.1,10.2z"/>
	<path d="M15,2.5C8.1,2.5,2.5,8.1,2.5,15S8.1,27.5,15,27.5S27.5,21.9,27.5,15S21.9,2.5,15,2.5z M16.4,24.6v-9.6h-0.7L11,15.5v0.7
		c1.2,0,1.9,0.1,2.2,0.4c0.3,0.3,0.4,0.8,0.4,1.7v6.4C8.9,24,5.2,20,5.2,15c0-5.4,4.4-9.8,9.8-9.8s9.8,4.4,9.8,9.8
		C24.8,19.9,21.1,23.9,16.4,24.6z"/>
</g>
</svg>
