<?xml version="1.0" encoding="utf-8"?>
<!-- Generator: Adobe Illustrator 18.1.1, SVG Export Plug-In . SVG Version: 6.00 Build 0)  -->
<svg version="1.1" id="Layer_1" xmlns="http://www.w3.org/2000/svg" xmlns:xlink="http://www.w3.org/1999/xlink" x="0px" y="0px"
	 viewBox="0 0 30 30" style="enable-background:new 0 0 30 30;" xml:space="preserve">
<g>
	<path d="M23.1,23.8c-1,0-1.8,0.8-1.8,1.8c0,1,0.8,1.8,1.8,1.8c1,0,1.8-0.8,1.8-1.8C24.9,24.6,24.1,23.8,23.1,23.8z M23.1,26.6
		c-0.6,0-1-0.5-1-1c0-0.6,0.5-1,1-1c0.6,0,1,0.5,1,1C24.1,26.2,23.7,26.6,23.1,26.6z"/>
	<circle cx="13.3" cy="16.6" r="1.8"/>
	<path d="M27.1,19.5h-3.3c0.3-0.9,0.4-1.9,0.4-2.9c0-6-4.9-10.8-10.8-10.8c-1.5,0-3,0.3-4.3,0.9L7.5,3c0-0.2-0.2-0.4-0.4-0.4H5.2
		C4.9,2.5,4.8,2.7,4.8,3v0c0,0.2,0.2,0.4,0.4,0.4h1L7,7.9c-2.7,2-4.5,5.2-4.5,8.8c0,6,4.9,10.8,10.8,10.8c4.7,0,8.6-3,10.2-7.1h3.6
		c0.2,0,0.4-0.2,0.4-0.4C27.5,19.7,27.3,19.5,27.1,19.5z M11.3,20.5c0.1,0,0.3,0.2,0.4,0.4c0.1,0.1,0.1,0.4,0.1,0.8v3.5
		c-4.1-0.7-7.2-4.3-7.2-8.6c0-4.8,3.9-8.7,8.7-8.7s8.7,3.9,8.7,8.7c0,4.3-3,7.8-7.1,8.6v-5.7L8.5,20v0.3
		C9.9,20.4,10.9,20.4,11.3,20.5z M15,26.4v-0.9c4.2-0.8,7.4-4.5,7.4-8.9c0-5-4.1-9.1-9.1-9.1s-9.1,4.1-9.1,9.1
		c0,4.5,3.3,8.2,7.6,8.9v0.9c-4.8-0.7-8.4-4.9-8.4-9.8c0-5.5,4.5-10,10-10c5.5,0,10,4.5,10,10C23.3,21.5,19.7,25.6,15,26.4z"/>
</g>
</svg>
