<?xml version="1.0" encoding="utf-8"?>
<!-- Generator: Adobe Illustrator 18.1.1, SVG Export Plug-In . SVG Version: 6.00 Build 0)  -->
<svg version="1.1" id="Layer_1" xmlns="http://www.w3.org/2000/svg" xmlns:xlink="http://www.w3.org/1999/xlink" x="0px" y="0px"
	 viewBox="0 0 30 30" style="enable-background:new 0 0 30 30; fill: #00cc00" xml:space="preserve">
<g>
	<path d="M8.3,18.4H3.5c-0.5,0-1-0.5-1-1v-4.8c0-0.6,0.5-1,1-1h4.8c0.6,0,1,0.4,1,1v4.8C9.3,18,8.9,18.4,8.3,18.4z"/>
	<path d="M17.4,18.4h-4.8c-0.6,0-1-0.5-1-1v-4.8c0-0.6,0.4-1,1-1h4.8c0.6,0,1,0.4,1,1v4.8C18.4,18,18,18.4,17.4,18.4z"/>
	<path d="M26.5,18.4h-4.8c-0.6,0-1-0.5-1-1v-4.8c0-0.6,0.4-1,1-1h4.8c0.5,0,1,0.4,1,1v4.8C27.5,18,27,18.4,26.5,18.4z"/>
</g>
</svg>
