<?xml version="1.0" encoding="utf-8"?>
<!-- Generator: Adobe Illustrator 18.1.1, SVG Export Plug-In . SVG Version: 6.00 Build 0)  -->
<svg version="1.1" id="Layer_1" xmlns="http://www.w3.org/2000/svg" xmlns:xlink="http://www.w3.org/1999/xlink" x="0px" y="0px"
	 viewBox="0 0 600 600" enable-background="new 0 0 600 600" xml:space="preserve">
<path fill="#00CC00" stroke="#000033" stroke-width="6" stroke-miterlimit="10" d="M350.6,300l164-164c13.9-13.9,13.9-36.7,0-50.6
	l0,0c-13.9-13.9-36.7-13.9-50.6,0l-164,164l-164-164c-13.9-13.9-36.7-13.9-50.6,0l0,0c-13.9,13.9-13.9,36.7,0,50.6l164,164l-164,164
	c-13.9,13.9-13.9,36.7,0,50.6l0,0c13.9,13.9,36.7,13.9,50.6,0l164-164l164,164c13.9,13.9,36.7,13.9,50.6,0l0,0
	c13.9-13.9,13.9-36.7,0-50.6L350.6,300z"/>
</svg>
