<?xml version="1.0" encoding="utf-8"?>
<!-- Generator: Adobe Illustrator 18.1.1, SVG Export Plug-In . SVG Version: 6.00 Build 0)  -->
<svg version="1.1" id="Layer_1" xmlns="http://www.w3.org/2000/svg" xmlns:xlink="http://www.w3.org/1999/xlink" x="0px" y="0px"
	 viewBox="0 0 30 30" style="enable-background:new 0 0 30 30; fill: #00cc00" xml:space="preserve">
<g>
	<path d="M12.5,20.5c0-1.6,0.2-2.8,0.6-3.5c0.4-0.7,1.2-1.6,2.4-2.6c0.9-0.9,1.6-1.7,2.1-2.5c0.5-0.8,0.8-1.7,0.8-2.6
		c0-1.1-0.3-1.9-0.9-2.5c-0.6-0.6-1.4-0.9-2.5-0.9c-0.9,0-1.7,0.3-2.4,0.8c-0.7,0.5-1,1.3-1,2.3h-4L7.5,8.9c0-2,0.6-3.6,2-4.7
		c1.4-1.1,3.2-1.7,5.4-1.7c2.4,0,4.2,0.6,5.5,1.8c1.3,1.2,2,2.9,2,5c0,1.4-0.4,2.8-1.2,4c-0.8,1.2-1.9,2.3-3.1,3.4
		c-0.6,0.6-1,1.1-1.2,1.6c-0.2,0.5-0.2,1.3-0.2,2.2H12.5z M16.7,27.5h-4.2v-3.9h4.2V27.5z"/>
</g>
</svg>
