<?xml version="1.0" encoding="utf-8"?>
<!-- Generator: Adobe Illustrator 18.1.1, SVG Export Plug-In . SVG Version: 6.00 Build 0)  -->
<svg version="1.1" id="Layer_1" xmlns="http://www.w3.org/2000/svg" xmlns:xlink="http://www.w3.org/1999/xlink" x="0px" y="0px"
	 viewBox="0 0 300 300" enable-background="new 0 0 300 300" style=" fill: #00cc00" xml:space="preserve">
<g>
	<path d="M248.1,40c0.3-0.5,0.7-1,1-1.5c0.5-0.9,0.2-1.4-0.8-1.4c-0.6,0-1.2,0.1-1.8,0.1c-6,0.2-11.9,1.2-17.7,2.8
		c-3.5,1-6.9,2.2-9.9,4.2c-5,3.3-10,6.7-14.9,10c-0.7,0.5-1.4,1.1-2.1,1.5c-1.8,0.9-3.6,1.8-5.5,2.5c-0.6,0.2-1.1,0.3-1.7,0.3
		c-1.4,0-2.9,0-4.3-0.2c-0.7-0.1-1.5-0.1-2,0.5c-0.7,1-1.5,1.8-2.3,2.7c-0.4,0.4-0.4,0.8,0,1.2c0.8,0.8,1.5,1.7,2.6,2.1
		c1.1,0.5,1.2,0.9,0.9,2c-0.5,1.9-0.5,2,1.1,3.1c0.1,0,0.1,0.1,0.2,0.1c0.8,0.5,1,0.5,1.8-0.2c0.4-0.4,0.8-0.8,1.2-1.1
		c0.2-0.2,0.5-0.2,0.8,0c0.3,0.2,0.5,0.4,0.4,0.8c0,0.2-0.1,0.3-0.2,0.5c-0.7,2-0.6,2.2,1.2,3.4c0.1,0,0.1,0.1,0.2,0.1
		c0.7,0.4,1.2,0.4,1.8-0.2c0.3-0.3,0.6-0.7,1-1c0.4-0.4,0.8-0.2,1.2,0.1c0.4,0.3,0.3,0.6,0.1,1c-0.4,0.8-0.8,1.6-1.2,2.4
		c-0.7,1.3-1.2,2.6-1.2,4.1c0,1.3-0.5,2.5-1,3.6c-1,2.5-2.1,4.9-3.2,7.4c-2.8,5.9-6.7,11-11.6,15.4c-3.8,3.4-7.8,6.3-12,9.2
		c-23.1,16.3-46.2,32.5-69.3,48.8c-23.1,16.2-46.1,32.5-69.2,48.7c-5.6,3.9-11.3,7.7-16.6,12.1c-1.6,1.3-3.1,2.8-4,4.6
		c-3.2,6.3-3.7,12.7-0.7,19.2c4.4,9.2,15.6,12.3,22.9,9.4c3.4-1.3,6.5-3.2,9.4-5.4c28.9-22.3,57.8-44.7,86.7-67
		c18.3-14.2,36.6-28.4,55-42.5c5.1-3.9,10-8.1,15.4-11.6c5.6-3.5,11.5-6.3,17.9-7.8c6.1-1.4,12.3-2,18.6-2.5
		c7.7-0.7,15.4-0.9,23.1-1.5c3.2-0.2,6.3-0.9,9.1-2.7c0.7-0.4,1.4-0.8,2.1-1.2c2.8-1.7,5.6-3.4,8.5-4.9c1.3-0.7,2.4-1.7,3.2-2.9
		c0.5-0.7,0.9-1.5,1.3-2.3c2.6-4.7,4.7-9.6,5.8-14.8c1.2-5.7,1.2-11.4,0.4-17.2c-0.6-4.8-2.2-9.4-4.5-13.7c-0.3-0.5-0.6-1-1.1-1.3
		c-0.4,0.3-0.5,0.7-0.8,1c-4.1,6.9-8.5,13.6-12.5,20.5c-1.1,1.9-2.4,3.8-3.6,5.7c-0.4,0.6-0.8,0.8-1.6,0.8c-2.6-0.1-5.2-0.2-7.8-0.2
		c-1.2,0-2.3-0.3-3.3-0.9c-4.3-2.5-8.6-5-13-7.5c-2.4-1.4-4.7-2.7-7.1-4.1c-0.8-0.5-1.8-0.9-2.3-1.9c0.1-0.8-0.3-1.5-0.9-2
		c-0.1-0.2-0.3-0.4-0.4-0.6c0.1-0.4,0-0.7-0.2-1.1c-0.5-0.9-0.3-1.7,0.1-2.5c0.4-0.6,0.6-1.2,1-1.9L248.1,40z"/>
</g>
</svg>
