<?xml version="1.0" encoding="utf-8"?>
<!-- Generator: Adobe Illustrator 18.1.1, SVG Export Plug-In . SVG Version: 6.00 Build 0)  -->
<svg version="1.1" xmlns="http://www.w3.org/2000/svg" xmlns:xlink="http://www.w3.org/1999/xlink" x="0px" y="0px"
	 viewBox="0 0 1000 1000" enable-background="new 0 0 1000 1000" xml:space="preserve">
<g id="Layer_1" display="none">
	<circle display="inline" fill="#8B8BA2" stroke="#8B8BA2" stroke-miterlimit="10" cx="423.3" cy="145.4" r="76.8"/>
	<path display="inline" fill="#8B8BA2" stroke="#8B8BA2" stroke-miterlimit="10" d="M763.8,784.5l-53.6-8.8l0.9-198.8
		c0-19.5-10.4-25-33.3-33.3c-1.5-0.6-5.2-1.9-6.8-1.6l-200.7-39V283.6c0-25.9-21-47-47-47c-25.9,0-47,21-47,47v257.8
		c0,25.9,10,41,36,41c2.7,0,16.3-0.2,18.8-0.7L643,615L657,797.9c0,14.7,11.9,26.6,26.6,26.6h80.3c11,0,20-8.9,20-20
		C783.8,793.5,774.8,784.5,763.8,784.5z"/>
	<g display="inline">
		<path fill="#000033" d="M413.5,536c-109.2,0-197.7,88.5-197.7,197.7s88.5,197.7,197.7,197.7s197.7-88.5,197.7-197.7
			S522.6,536,413.5,536z M413.5,914.7c-99.9,0-180.9-81-180.9-180.9s81-180.9,180.9-180.9s180.9,81,180.9,180.9
			S513.4,914.7,413.5,914.7z"/>
		<circle fill="#000033" cx="413.5" cy="733.8" r="38.1"/>
		<path fill="#000033" d="M667.7,821.3c-28.4,0-51.4,23-51.4,51.4c0,28.4,23,51.4,51.4,51.4s51.4-23,51.4-51.4
			C719.1,844.4,696.1,821.3,667.7,821.3z M667.7,904.2c-17.4,0-31.4-14.1-31.4-31.4c0-17.4,14.1-31.4,31.4-31.4
			c17.4,0,31.4,14.1,31.4,31.4C699.1,890.1,685.1,904.2,667.7,904.2z"/>
		<path fill="none" stroke="#000033" stroke-width="12" stroke-linecap="round" stroke-linejoin="round" stroke-miterlimit="10" d="
			M364.9,343v249.1c0,0,215.2-10.1,273.3,38.8c51.5,43.4,30.5,198,30.5,198"/>
	</g>
	<path display="inline" fill="#FFFFFF" stroke="#8B8BA2" stroke-width="2" stroke-miterlimit="10" d="M383.8,468.5l60.3-8.3
		l1.9-137.9c0.6-0.7,1.3-1.4,1.9-2.1c12.6-15.9,9.9-39.1-6-51.7c-15.9-12.6-39.1-9.9-51.7,6c-4.3,5.4-6.7,11.6-7.6,17.9l0,0l0,0.3
		c-0.4,3.2-0.4,6.4,0,9.5L383.8,468.5z"/>
	<polygon display="inline" fill="#FFFFFF" stroke="#8B8BA2" stroke-width="2" stroke-miterlimit="10" points="444.1,460.2 
		431.1,639.7 404.4,661.9 382.8,460 	"/>
	
		<ellipse transform="matrix(-1 9.866467e-003 -9.866467e-003 -1 844.77 1338.7312)" display="inline" fill="#FFFFFF" stroke="#8B8BA2" stroke-width="2" stroke-miterlimit="10" cx="419.1" cy="671.4" rx="23.4" ry="34.2"/>
	<g display="inline">
		<g>
			
				<line fill="none" stroke="#ED1C24" stroke-width="6" stroke-linecap="round" stroke-linejoin="round" x1="364.9" y1="581.1" x2="370.9" y2="581.1"/>
			
				<line fill="none" stroke="#ED1C24" stroke-width="6" stroke-linecap="round" stroke-linejoin="round" stroke-dasharray="11.7808,11.7808" x1="382.6" y1="581.1" x2="730.2" y2="581.1"/>
			
				<line fill="none" stroke="#ED1C24" stroke-width="6" stroke-linecap="round" stroke-linejoin="round" x1="736.1" y1="581.1" x2="742.1" y2="581.1"/>
		</g>
	</g>
	
		<line display="inline" fill="none" stroke="#ED1C24" stroke-width="9" stroke-linecap="round" stroke-linejoin="round" stroke-miterlimit="10" x1="364.9" y1="581.1" x2="742.1" y2="633.3"/>
	<g display="inline">
		<path fill="none" stroke="#ED1C24" stroke-width="7" stroke-linecap="round" stroke-linejoin="round" stroke-miterlimit="10" d="
			M342.2,628.1c-15,25.1-32.9,42.1-65.8,52.9"/>
		
			<polyline fill="none" stroke="#ED1C24" stroke-width="7" stroke-linecap="round" stroke-linejoin="round" stroke-miterlimit="10" points="
			343.5,645.9 345.4,626.1 326.1,631.8 		"/>
	</g>
</g>
<g id="Layer_2" display="none">
	<circle display="inline" fill="#8B8BA2" stroke="#8B8BA2" stroke-miterlimit="10" cx="423.3" cy="162.5" r="76.8"/>
	<path display="inline" fill="#8B8BA2" stroke="#8B8BA2" stroke-miterlimit="10" d="M763.8,767.5l-53.6-8.8l0.9-214.8
		c0-19.5-15.8-35.3-35.3-35.3c-1.6,0-3.2,0.1-4.8,0.4l-200.7,15.1V304.8c0-25.9-21-47-47-47c-25.9,0-47,21-47,47v257.8
		c0,25.9,10,41,36,41c2.7,0,16.3-0.2,18.8-0.7L643,582L657,780.9c0,14.7,11.9,26.6,26.6,26.6h80.3c11,0,20-8.9,20-20
		C783.8,776.5,774.8,767.5,763.8,767.5z"/>
	<g display="inline">
		<path fill="#000033" d="M413.5,519c-109.2,0-197.7,88.5-197.7,197.7s88.5,197.7,197.7,197.7s197.7-88.5,197.7-197.7
			S522.6,519,413.5,519z M413.5,897.7c-99.9,0-180.9-81-180.9-180.9s81-180.9,180.9-180.9s180.9,81,180.9,180.9
			S513.4,897.7,413.5,897.7z"/>
		<circle fill="#000033" cx="413.5" cy="716.8" r="38.1"/>
		<path fill="#000033" d="M667.7,804.3c-28.4,0-51.4,23-51.4,51.4c0,28.4,23,51.4,51.4,51.4s51.4-23,51.4-51.4
			C719.1,827.4,696.1,804.3,667.7,804.3z M667.7,887.2c-17.4,0-31.4-14.1-31.4-31.4c0-17.4,14.1-31.4,31.4-31.4
			c17.4,0,31.4,14.1,31.4,31.4C699.1,873.1,685.1,887.2,667.7,887.2z"/>
		<path fill="none" stroke="#000033" stroke-width="12" stroke-linecap="round" stroke-linejoin="round" stroke-miterlimit="10" d="
			M365.8,381.6v249.1c0,0,214.2-65.7,272.3-16.8c51.5,43.4,30.5,198,30.5,198"/>
	</g>
	<path display="inline" fill="#FFFFFF" stroke="#8B8BA2" stroke-width="2" stroke-miterlimit="10" d="M383.8,489.7l60.3-8.3
		l1.9-137.9c0.6-0.7,1.3-1.4,1.9-2.1c12.6-15.9,9.9-39.1-6-51.7c-15.9-12.6-39.1-9.9-51.7,6c-4.3,5.4-6.7,11.6-7.6,17.9l0,0l0,0.3
		c-0.4,3.2-0.4,6.4,0,9.5L383.8,489.7z"/>
	<polygon display="inline" fill="#FFFFFF" stroke="#8B8BA2" stroke-width="2" stroke-miterlimit="10" points="444.1,481.4 
		431.1,660.9 404.4,683.1 382.8,481.1 	"/>
	
		<ellipse transform="matrix(-1 9.866467e-003 -9.866467e-003 -1 844.979 1381.0955)" display="inline" fill="#FFFFFF" stroke="#8B8BA2" stroke-width="2" stroke-miterlimit="10" cx="419.1" cy="692.6" rx="23.4" ry="34.2"/>
	<g display="inline">
		<g>
			
				<line fill="none" stroke="#ED1C24" stroke-width="6" stroke-linecap="round" stroke-linejoin="round" x1="742.1" y1="564.1" x2="736.1" y2="564.1"/>
			
				<line fill="none" stroke="#ED1C24" stroke-width="6" stroke-linecap="round" stroke-linejoin="round" stroke-dasharray="11.7808,11.7808" x1="724.3" y1="564.1" x2="376.7" y2="564.1"/>
			
				<line fill="none" stroke="#ED1C24" stroke-width="6" stroke-linecap="round" stroke-linejoin="round" x1="370.9" y1="564.1" x2="364.9" y2="564.1"/>
		</g>
	</g>
	
		<line display="inline" fill="none" stroke="#ED1C24" stroke-width="9" stroke-linecap="round" stroke-linejoin="round" stroke-miterlimit="10" x1="742.1" y1="564.1" x2="364.9" y2="616.3"/>
	<g display="inline">
		<path fill="none" stroke="#ED1C24" stroke-width="7" stroke-linecap="round" stroke-linejoin="round" stroke-miterlimit="10" d="
			M342.2,594.8c-15-25.1-32.9-42.1-65.8-52.9"/>
		
			<polyline fill="none" stroke="#ED1C24" stroke-width="7" stroke-linecap="round" stroke-linejoin="round" stroke-miterlimit="10" points="
			343.5,577 345.4,596.8 326.1,591.1 		"/>
	</g>
</g>
<g id="Layer_3" display="none">
	<g display="inline">
		<g>
			<path fill="#000033" d="M612.2,708.3l-3-0.9c-5.3-1.6-8.4-7.2-6.9-12.5l62.4-214.2c1.6-5.3,7.2-8.4,12.5-6.9l3,0.9
				c5.3,1.6,8.4,7.2,6.9,12.5l-62.4,214.2C623.2,706.7,617.5,709.8,612.2,708.3z"/>
			<path fill="#000033" d="M843.6,743.8l-3.1-0.1c-5.6-0.2-9.9-4.9-9.7-10.5l8.8-222.9c0.2-5.6,4.9-9.9,10.5-9.7l3.1,0.1
				c5.6,0.2,9.9,4.9,9.7,10.5l-8.8,222.9C853.9,739.6,849.1,744,843.6,743.8z"/>
			<path fill="#000033" d="M815.5,567.1L692,547c-8.1-1.3-13.7-9.1-12.4-17.2l22-135.3c1.3-8.1,9.1-13.7,17.2-12.4l123.6,20.1
				c8.1,1.3,13.7,9.1,12.4,17.2l-22,135.3C831.4,562.9,823.7,568.5,815.5,567.1z"/>
			<path fill="#000033" d="M815.6,567.2L691.9,547c-8.1-1.3-13.6-9-12.3-17.1l0.7-4.6c1.3-8.1,9-13.6,17.1-12.3l123.8,20.2
				c8.1,1.3,13.6,9,12.3,17.1l-0.7,4.6C831.4,562.9,823.7,568.5,815.6,567.2z"/>
			<g>
				<path fill="#FFFFFF" d="M691.9,498.3c-0.1,0-0.1,0-0.2,0l-2.8-0.5c-0.7-0.1-1.2-0.8-1.1-1.5l3.8-23.4c0-0.3,0-0.5-0.2-0.7
					c-0.2-0.2-0.4-0.4-0.7-0.4l-17.9-2.9c-0.3-0.1-0.7-0.2-0.9-0.5s-0.3-0.6-0.2-1l2.2-13.5c0.1-0.6,0.7-1.1,1.3-1.1
					c0.1,0,0.1,0,0.2,0l23,3.8c0.3,0.1,0.7,0.2,0.9,0.5c0.2,0.3,0.3,0.6,0.2,1l-2.2,13.5c0,0,0,0,0,0c0,0,0,0,0,0.1l-4.2,25.6
					C693.1,497.9,692.5,498.3,691.9,498.3L691.9,498.3z"/>
				<path fill="#000033" d="M675.2,453.7C675.3,453.7,675.3,453.7,675.2,453.7l23.1,3.8c0.1,0,0.2,0.1,0.2,0.1
					c0,0.1,0.1,0.1,0.1,0.2l-2.2,13.4c0,0,0,0.1,0,0.1c0,0,0,0.1,0,0.1l-4.2,25.6c0,0.2-0.2,0.3-0.3,0.3c0,0,0,0-0.1,0l-2.8-0.5
					c-0.1,0-0.2-0.1-0.2-0.1c0-0.1-0.1-0.1-0.1-0.2l3.8-23.4c0.2-1.1-0.6-2.1-1.7-2.3l-17.9-2.9c-0.2,0-0.3-0.2-0.3-0.4l2.2-13.5
					C674.9,453.8,675.1,453.7,675.2,453.7 M675.2,451.7c-1.1,0-2.1,0.8-2.3,2l-2.2,13.5c-0.2,1.3,0.7,2.5,1.9,2.7l17.9,2.9
					l-3.8,23.4c-0.2,1.3,0.7,2.5,1.9,2.7l2.8,0.5c0.1,0,0.3,0,0.4,0c1.1,0,2.1-0.8,2.3-2l4.2-25.6c0,0,0-0.1,0-0.1l2.2-13.5
					c0.2-1.3-0.7-2.5-1.9-2.7l-23-3.8C675.5,451.7,675.4,451.7,675.2,451.7L675.2,451.7z"/>
			</g>
			<g>
				<path fill="#FFFFFF" d="M834.3,521.5c-0.1,0-0.1,0-0.2,0l-2.8-0.5c-0.3-0.1-0.7-0.2-0.9-0.5s-0.3-0.6-0.2-1l4.2-25.6
					c0,0,0-0.1,0-0.2l2.2-13.5c0.1-0.6,0.7-1.1,1.3-1.1c0.1,0,0.1,0,0.2,0l23,3.8c0.7,0.1,1.2,0.8,1.1,1.5L860,498
					c-0.1,0.6-0.7,1.1-1.3,1.1c-0.1,0-0.1,0-0.2,0l-17.9-2.9c-0.1,0-0.1,0-0.2,0c-0.5,0-0.9,0.3-1,0.8l-3.8,23.4
					C835.5,521.1,835,521.5,834.3,521.5z"/>
				<path fill="#000033" d="M837.9,480.2C837.9,480.2,837.9,480.2,837.9,480.2l23.1,3.8c0.2,0,0.3,0.2,0.3,0.4l-2.2,13.5
					c0,0.2-0.2,0.3-0.3,0.3c0,0,0,0-0.1,0l-17.9-2.9c-0.1,0-0.2,0-0.3,0c-1,0-1.8,0.7-2,1.7l-3.8,23.4c0,0.2-0.2,0.3-0.3,0.3
					c0,0,0,0-0.1,0l-2.8-0.5c-0.1,0-0.2-0.1-0.2-0.1c0-0.1-0.1-0.1-0.1-0.2l4.2-25.6c0,0,0-0.1,0-0.1c0,0,0-0.1,0-0.1l2.2-13.4
					C837.6,480.3,837.7,480.2,837.9,480.2 M837.9,478.2c-1.1,0-2.1,0.8-2.3,2l-2.2,13.5c0,0,0,0.1,0,0.1l-4.2,25.6
					c-0.2,1.3,0.7,2.5,1.9,2.7l2.8,0.5c0.1,0,0.3,0,0.4,0c1.1,0,2.1-0.8,2.3-2l3.8-23.4l17.9,2.9c0.1,0,0.3,0,0.4,0
					c1.1,0,2.1-0.8,2.3-2l2.2-13.5c0.2-1.3-0.7-2.5-1.9-2.7l-23-3.8C838.1,478.2,838,478.2,837.9,478.2L837.9,478.2z"/>
			</g>
			<path fill="#FFFFFF" stroke="#8B8BA2" stroke-width="2" stroke-miterlimit="10" d="M906.7,449.4l-38,3.1l-44.1-57.1
				c-0.6-0.1-1.1-0.2-1.7-0.4c-11.9-3.4-18.7-15.7-15.4-27.6c3.4-11.9,15.7-18.7,27.6-15.4c4,1.1,7.4,3.3,10.1,6.1l0,0l0.1,0.2
				c1.3,1.4,2.4,3,3.4,4.7L906.7,449.4z"/>
			<polygon fill="#FFFFFF" stroke="#8B8BA2" stroke-width="2" stroke-miterlimit="10" points="868.6,451.7 858.9,560.5 872.7,576.4 
				906.7,449.4 			"/>
			
				<ellipse transform="matrix(-0.9885 -0.151 0.151 -0.9885 1637.6777 1275.3662)" fill="#FFFFFF" stroke="#8B8BA2" stroke-width="2" stroke-miterlimit="10" cx="867.3" cy="575.5" rx="14.2" ry="20.7"/>
			<path fill="#FFFFFF" stroke="#8B8BA2" stroke-width="2" stroke-miterlimit="10" d="M643.3,406.5l35,15l60-40.1
				c0.6,0.1,1.1,0.1,1.7,0.2c12.3,0.6,22.8-9,23.3-21.3c0.6-12.3-9-22.8-21.3-23.3c-4.2-0.2-8.1,0.8-11.5,2.6l0,0l-0.2,0.1
				c-1.7,0.9-3.3,2.1-4.7,3.4L643.3,406.5z"/>
			<polygon fill="#FFFFFF" stroke="#8B8BA2" stroke-width="2" stroke-miterlimit="10" points="678.7,420.7 653.4,527 635.2,537.7 
				643.3,406.5 			"/>
			
				<ellipse transform="matrix(0.9854 0.1705 -0.1705 0.9854 101.2048 -101.3422)" fill="#FFFFFF" stroke="#8B8BA2" stroke-width="2" stroke-miterlimit="10" cx="640.7" cy="538.6" rx="14.2" ry="20.7"/>
			<circle fill="#8B8BA2" stroke="#8B8BA2" stroke-miterlimit="10" cx="799.4" cy="275.9" r="46.6"/>
			<g>
				<path fill="#000033" d="M705.8,680.6l-40.6-6.6c-4.9-0.8-8.3-5.5-7.5-10.4l0.5-2.8c0.8-4.9,5.5-8.3,10.4-7.5l40.6,6.6
					c4.9,0.8,8.3,5.5,7.5,10.4l-0.5,2.8C715.4,678,710.7,681.4,705.8,680.6z"/>
				<path fill="#000033" d="M800.6,696l-40.6-6.6c-4.9-0.8-8.3-5.5-7.5-10.4l0.5-2.8c0.8-4.9,5.5-8.3,10.4-7.5l40.6,6.6
					c4.9,0.8,8.3,5.5,7.5,10.4l-0.5,2.8C810.2,693.5,805.5,696.8,800.6,696z"/>
				<path fill="#8B8BA2" stroke="#8B8BA2" stroke-miterlimit="10" d="M805.4,664.1l24.1-148c1.2-7.3-3.8-14.2-11.1-15.4l-0.9-0.2
					l-1.6-0.3c0.4-1.1,0.7-2.3,0.9-3.6l22.6-138.7c1.8-11.3-5.9-22-17.2-23.9l-63-10.3c-11.3-1.8-22,5.9-23.9,17.2l-22.6,138.7
					c-0.2,1.2-0.3,2.5-0.2,3.7l-1.9-0.3l-0.6-0.1c-7.3-1.2-14.2,3.8-15.4,11.1l-24.1,148c-4.5,1.6-8,5.5-8.8,10.5l-1.4,8.8
					c-1.2,7.3,3.8,14.2,11.1,15.4l6.9,1.1l8.8,1.4l6.9,1.1c7.3,1.2,14.2-3.8,15.4-11.1l1.4-8.8c0.8-5-1.3-9.8-5-12.8l17.8-109.5
					l64.3,10.5l-17.8,109.5c-4.5,1.6-8,5.5-8.8,10.5l-1.4,8.8c-1.2,7.3,3.8,14.2,11.1,15.4l6.9,1.1l8.8,1.4l6.9,1.1
					c7.3,1.2,14.2-3.8,15.4-11.1l1.4-8.8C811.3,671.9,809.2,667,805.4,664.1z"/>
			</g>
		</g>
		
			<polygon fill="none" stroke="#00CC00" stroke-width="10" stroke-linecap="round" stroke-linejoin="round" stroke-miterlimit="10" points="
			520.4,697.4 959,767.8 520.4,767.8 		"/>
	</g>
	<g display="inline">
		<g>
			<path fill="#000033" d="M144.6,702l-2.5-0.5c-5.4-1.2-8.9-6.5-7.8-12l44.9-212.1c1.2-5.4,6.5-8.9,12-7.8l2.5,0.5
				c5.4,1.2,8.9,6.5,7.8,12l-44.9,212.1C155.5,699.7,150.1,703.2,144.6,702z"/>
			<path fill="#000033" d="M314.8,738l-2.5-0.5c-5.4-1.2-8.9-6.5-7.8-12l44.9-212.1c1.2-5.4,6.5-8.9,12-7.8l2.5,0.5
				c5.4,1.2,8.9,6.5,7.8,12l-44.9,212.1C325.6,735.7,320.2,739.2,314.8,738z"/>
			<path fill="#000033" d="M322.4,568.7l-118.6-25.1c-8.1-1.7-13.3-9.7-11.6-17.8l27.5-129.9c1.7-8.1,9.7-13.3,17.8-11.6l118.6,25.1
				c8.1,1.7,13.3,9.7,11.6,17.8l-27.5,129.9C338.5,565.2,330.5,570.4,322.4,568.7z"/>
			<path fill="#000033" d="M322.5,568.7l-118.7-25.1c-8-1.7-13.2-9.7-11.5-17.7l0.8-3.7c1.7-8,9.7-13.2,17.7-11.5l118.7,25.1
				c8,1.7,13.2,9.7,11.5,17.7l-0.8,3.7C338.5,565.2,330.5,570.4,322.5,568.7z"/>
			<path fill="#000033" d="M210.6,674.1l-38.7-8.2c-4.9-1-8-5.8-7-10.7l0.5-2.2c1-4.9,5.9-8,10.7-7l38.7,8.2c4.9,1,8,5.8,7,10.7
				l-0.5,2.2C220.3,672,215.4,675.1,210.6,674.1z"/>
			<path fill="#000033" d="M302.1,693.4l-38.7-8.2c-4.9-1-8-5.8-7-10.7l0.5-2.2c1-4.9,5.9-8,10.7-7l38.7,8.2c4.9,1,8,5.8,7,10.7
				l-0.5,2.2C311.8,691.3,306.9,694.5,302.1,693.4z"/>
			<g>
				<path fill="#FFFFFF" d="M205.7,496.1c-0.1,0-0.2,0-0.3,0l-2.7-0.6c-0.3-0.1-0.6-0.3-0.8-0.6c-0.2-0.3-0.2-0.6-0.2-1l4.8-22.6
					c0.1-0.5-0.2-1.1-0.8-1.2l-17.3-3.7c-0.7-0.1-1.1-0.8-1-1.5l2.8-13.1c0.1-0.6,0.6-1,1.2-1c0.1,0,0.2,0,0.3,0l22.2,4.7
					c0.7,0.1,1.1,0.8,1,1.5l-2.8,13.1c0,0,0,0,0,0c0,0,0,0,0,0.1l-5.2,24.7C206.8,495.7,206.3,496.1,205.7,496.1L205.7,496.1z"/>
				<path fill="#000033" d="M191.5,452C191.5,452,191.5,452,191.5,452l22.3,4.7c0.1,0,0.2,0.2,0.2,0.3l-2.7,13c0,0,0,0.1,0,0.1
					c0,0,0,0.1,0,0.1l-5.2,24.7c0,0.1-0.2,0.2-0.3,0.2c0,0,0,0-0.1,0l-2.7-0.6c-0.1,0-0.1-0.1-0.2-0.1c0,0-0.1-0.1,0-0.2l4.8-22.6
					c0.2-1.1-0.5-2.1-1.5-2.4l-17.3-3.7c-0.1,0-0.1-0.1-0.2-0.1c0,0-0.1-0.1,0-0.2l2.8-13.1C191.2,452.1,191.4,452,191.5,452
					 M191.5,450c-1,0-2,0.7-2.2,1.8l-2.8,13.1c-0.3,1.2,0.5,2.4,1.8,2.7l17.3,3.7l-4.8,22.6c-0.3,1.2,0.5,2.4,1.8,2.7l2.7,0.6
					c0.2,0,0.3,0,0.5,0c1,0,2-0.7,2.2-1.8l5.2-24.7c0,0,0-0.1,0-0.1l2.8-13.1c0.3-1.2-0.5-2.4-1.8-2.7l-22.2-4.7
					C191.8,450,191.6,450,191.5,450L191.5,450z"/>
			</g>
			<g>
				<path fill="#FFFFFF" d="M343.2,525.2c-0.1,0-0.2,0-0.3,0l-2.7-0.6c-0.7-0.1-1.1-0.8-1-1.5l5.2-24.7c0,0,0-0.1,0-0.2l2.8-13
					c0.1-0.6,0.6-1,1.2-1c0.1,0,0.2,0,0.3,0L371,489c0.7,0.1,1.1,0.8,1,1.5l-2.8,13.1c-0.1,0.6-0.6,1-1.2,1c-0.1,0-0.2,0-0.3,0
					l-17.3-3.7c-0.1,0-0.1,0-0.2,0c-0.5,0-0.9,0.3-1,0.8l-4.8,22.6C344.3,524.8,343.8,525.2,343.2,525.2z"/>
				<path fill="#000033" d="M348.5,485.2C348.5,485.2,348.5,485.2,348.5,485.2l22.3,4.7c0.1,0,0.2,0.2,0.2,0.3l-2.8,13.1
					c0,0.1-0.2,0.2-0.3,0.2c0,0,0,0-0.1,0l-17.3-3.7c-0.1,0-0.3,0-0.4,0c-0.9,0-1.8,0.6-2,1.6l-4.8,22.6c0,0.1-0.2,0.2-0.3,0.2
					c0,0,0,0-0.1,0l-2.7-0.6c-0.1,0-0.1-0.1-0.2-0.1c0,0-0.1-0.1,0-0.2l5.2-24.7c0,0,0-0.1,0-0.1c0,0,0-0.1,0-0.1l2.7-13
					C348.2,485.3,348.4,485.2,348.5,485.2 M348.5,483.2c-1,0-2,0.7-2.2,1.8l-2.8,13.1c0,0,0,0.1,0,0.1l-5.2,24.7
					c-0.3,1.2,0.5,2.4,1.8,2.7l2.7,0.6c0.2,0,0.3,0,0.5,0c1,0,2-0.7,2.2-1.8l4.8-22.6l17.3,3.7c0.2,0,0.3,0,0.5,0c1,0,2-0.7,2.2-1.8
					l2.8-13.1c0.3-1.2-0.5-2.4-1.8-2.7l-22.2-4.7C348.8,483.3,348.6,483.2,348.5,483.2L348.5,483.2z"/>
			</g>
		</g>
		<path fill="#FFFFFF" stroke="#8B8BA2" stroke-width="2" stroke-miterlimit="10" d="M416.8,458.4l-37.1,1.3l-40.3-57.6
			c-0.5-0.1-1.1-0.3-1.6-0.5c-11.4-3.8-17.5-16.2-13.7-27.6c3.8-11.4,16.2-17.5,27.6-13.7c3.8,1.3,7.1,3.6,9.5,6.4l0,0l0.1,0.2
			c1.2,1.4,2.2,3,3,4.7L416.8,458.4z"/>
		<polygon fill="#FFFFFF" stroke="#8B8BA2" stroke-width="2" stroke-miterlimit="10" points="379.7,458.8 365.2,564.3 378,580.4 
			416.8,458.4 		"/>
		
			<ellipse transform="matrix(-0.9803 -0.1974 0.1974 -0.9803 623.7422 1220.7253)" fill="#FFFFFF" stroke="#8B8BA2" stroke-width="2" stroke-miterlimit="10" cx="372.7" cy="579.3" rx="13.8" ry="20.2"/>
		<path fill="#FFFFFF" stroke="#8B8BA2" stroke-width="2" stroke-miterlimit="10" d="M162.6,404.6l33.4,16.2l60.2-36.3
			c0.5,0.1,1.1,0.2,1.6,0.2c12,1.1,22.6-7.7,23.7-19.6c1.1-12-7.7-22.6-19.6-23.7c-4-0.4-7.9,0.4-11.3,2l0,0l-0.2,0.1
			c-1.7,0.8-3.3,1.9-4.7,3.1L162.6,404.6z"/>
		<polygon fill="#FFFFFF" stroke="#8B8BA2" stroke-width="2" stroke-miterlimit="10" points="196.4,420 166.8,522.3 148.7,531.8 
			162.6,404.6 		"/>
		
			<ellipse transform="matrix(0.9762 0.2167 -0.2167 0.9762 119.1641 -20.6934)" fill="#FFFFFF" stroke="#8B8BA2" stroke-width="2" stroke-miterlimit="10" cx="153.9" cy="533" rx="13.8" ry="20.2"/>
		<circle fill="#8B8BA2" stroke="#8B8BA2" stroke-miterlimit="10" cx="320.4" cy="284.7" r="45.4"/>
		<path fill="#8B8BA2" stroke="#8B8BA2" stroke-miterlimit="10" d="M308.5,662.6l30.2-142.9c1.5-7-3-14-10.1-15.5l-0.9-0.2l-1.6-0.3
			c0.4-1.1,0.8-2.2,1.1-3.4l28.3-133.9c2.3-10.9-4.7-21.7-15.6-24l-60.8-12.9c-10.9-2.3-21.7,4.7-24,15.6l-28.3,133.9
			c-0.3,1.2-0.4,2.4-0.4,3.6l-1.9-0.4l-0.6-0.1c-7-1.5-14,3-15.5,10.1l-30.2,142.9c-4.4,1.3-8.1,5-9.1,9.8l-1.8,8.5
			c-1.5,7,3,14,10.1,15.5l6.7,1.4l8.5,1.8l6.7,1.4c7,1.5,14-3,15.5-10.1l1.8-8.5c1-4.8-0.8-9.6-4.3-12.7l22.4-105.7l62.1,13.1
			l-22.4,105.7c-4.4,1.3-8.1,5-9.1,9.8l-1.8,8.5c-1.5,7,3,14,10.1,15.5l6.7,1.4l8.5,1.8l6.7,1.4c7,1.5,14-3,15.5-10.1l1.8-8.5
			C313.8,670.5,312,665.7,308.5,662.6z"/>
		
			<polygon fill="none" stroke="#00CC00" stroke-width="10" stroke-linecap="round" stroke-linejoin="round" stroke-miterlimit="10" points="
			45.8,699.2 473.1,767.8 45.8,767.8 		"/>
		<g>
			<path fill="none" stroke="#00CC00" stroke-width="7" stroke-linecap="round" stroke-linejoin="round" stroke-miterlimit="10" d="
				M113.5,671.7c-15-25.1-44.6-39.4-75-33.7"/>
			
				<polyline fill="none" stroke="#00CC00" stroke-width="7" stroke-linecap="round" stroke-linejoin="round" stroke-miterlimit="10" points="
				114.9,653.8 116.8,673.6 97.5,667.9 			"/>
		</g>
	</g>
</g>
<g id="Layer_4" display="none">
	<circle display="inline" fill="#8B8BA2" stroke="#8B8BA2" stroke-miterlimit="10" cx="355.3" cy="162.2" r="76.8"/>
	<path display="inline" fill="#8B8BA2" stroke="#8B8BA2" stroke-miterlimit="10" d="M759.2,767.2l-53.6-8.8l-62.5-214.8
		c0-19.5-15.8-35.3-35.3-35.3c-1.6,0-3.2,0.1-4.8,0.4l-200.7,15.1V304.5c0-25.9-21-47-47-47c-25.9,0-47,21-47,47v248.8
		c0,25.9,21,47,47,47c2.7,0,5.3-0.2,7.8-0.7L575,581.7l77.3,198.8c0,14.7,11.9,26.6,26.6,26.6h80.3c11,0,20-8.9,20-20
		C779.2,776.2,770.2,767.2,759.2,767.2z"/>
	<path display="inline" fill="#000033" d="M416.9,518.8c-109.2,0-197.7,88.5-197.7,197.7s88.5,197.7,197.7,197.7
		s197.7-88.5,197.7-197.7S526.1,518.8,416.9,518.8z M416.9,897.4c-99.9,0-180.9-81-180.9-180.9s81-180.9,180.9-180.9
		s180.9,81,180.9,180.9S516.8,897.4,416.9,897.4z"/>
	<circle display="inline" fill="#000033" cx="416.9" cy="716.5" r="38.1"/>
	<path display="inline" fill="#000033" d="M635.7,804.1c-28.4,0-51.4,23-51.4,51.4c0,28.4,23,51.4,51.4,51.4s51.4-23,51.4-51.4
		C687.1,827.1,664.1,804.1,635.7,804.1z M635.7,886.9c-17.4,0-31.4-14.1-31.4-31.4c0-17.4,14.1-31.4,31.4-31.4
		c17.4,0,31.4,14.1,31.4,31.4C667.1,872.8,653.1,886.9,635.7,886.9z"/>
	
		<path display="inline" fill="none" stroke="#000033" stroke-width="12" stroke-linecap="round" stroke-linejoin="round" stroke-miterlimit="10" d="
		M297.8,381.3v236.1c0,0,226.6-53.3,272.3-3.8s64.5,195.4,64.5,195.4"/>
	<path display="inline" fill="#FFFFFF" stroke="#8B8BA2" stroke-width="2" stroke-miterlimit="10" d="M315.8,489.4l60.3-8.3
		l1.9-137.9c0.6-0.7,1.3-1.4,1.9-2.1c12.6-15.9,9.9-39.1-6-51.7c-15.9-12.6-39.1-9.9-51.7,6c-4.3,5.4-6.7,11.6-7.6,17.9l0,0l0,0.3
		c-0.4,3.2-0.4,6.4,0,9.5L315.8,489.4z"/>
	<polygon display="inline" fill="#FFFFFF" stroke="#8B8BA2" stroke-width="2" stroke-miterlimit="10" points="376.1,481.1 
		363.1,660.6 336.4,682.8 314.8,480.9 	"/>
	
		<ellipse transform="matrix(-1 9.866467e-003 -9.866467e-003 -1 708.9795 1381.1953)" display="inline" fill="#FFFFFF" stroke="#8B8BA2" stroke-width="2" stroke-miterlimit="10" cx="351.1" cy="692.3" rx="23.4" ry="34.2"/>
	<g display="inline">
		<g>
			
				<line fill="none" stroke="#ED1C24" stroke-width="6" stroke-linecap="round" stroke-linejoin="round" x1="416.9" y1="774.6" x2="416.9" y2="768.6"/>
			
				<line fill="none" stroke="#ED1C24" stroke-width="6" stroke-linecap="round" stroke-linejoin="round" stroke-dasharray="11.9296,11.9296" x1="416.9" y1="756.6" x2="416.9" y2="261.6"/>
			
				<line fill="none" stroke="#ED1C24" stroke-width="6" stroke-linecap="round" stroke-linejoin="round" x1="416.9" y1="255.6" x2="416.9" y2="249.6"/>
		</g>
	</g>
</g>
<g id="Layer_5">
	<circle fill="#8B8BA2" stroke="#8B8BA2" stroke-miterlimit="10" cx="463.3" cy="162.2" r="76.8"/>
	<path fill="#8B8BA2" stroke="#8B8BA2" stroke-miterlimit="10" d="M803.8,767.2l-53.6-8.8l0.9-214.8c0-19.5-15.8-35.3-35.3-35.3
		c-1.6,0-3.2,0.1-4.8,0.4l-200.7,15.1V304.5c0-25.9-21-47-47-47c-25.9,0-47,21-47,47v248.8c0,25.9,21,47,47,47
		c2.7,0,5.3-0.2,7.8-0.7L683,581.7L697,780.6c0,14.7,11.9,26.6,26.6,26.6h80.3c11,0,20-8.9,20-20
		C823.8,776.2,814.8,767.2,803.8,767.2z"/>
	<path fill="#000033" d="M372,518.8c-109.2,0-197.7,88.5-197.7,197.7S262.8,914.2,372,914.2s197.7-88.5,197.7-197.7
		S481.2,518.8,372,518.8z M372,897.4c-99.9,0-180.9-81-180.9-180.9s81-180.9,180.9-180.9s180.9,81,180.9,180.9
		S471.9,897.4,372,897.4z"/>
	<circle fill="#000033" cx="372" cy="716.5" r="38.1"/>
	<path fill="#000033" d="M707.7,804.1c-28.4,0-51.4,23-51.4,51.4c0,28.4,23,51.4,51.4,51.4s51.4-23,51.4-51.4
		C759.1,827.1,736.1,804.1,707.7,804.1z M707.7,886.9c-17.4,0-31.4-14.1-31.4-31.4c0-17.4,14.1-31.4,31.4-31.4
		c17.4,0,31.4,14.1,31.4,31.4C739.1,872.8,725.1,886.9,707.7,886.9z"/>
	<path fill="none" stroke="#000033" stroke-width="12" stroke-linecap="round" stroke-linejoin="round" stroke-miterlimit="10" d="
		M405.8,381.3v236.1c0,0,226.6-53.3,272.3-3.8s30.5,198,30.5,198"/>
	<path fill="#FFFFFF" stroke="#8B8BA2" stroke-width="2" stroke-miterlimit="10" d="M423.8,489.4l60.3-8.3l1.9-137.9
		c0.6-0.7,1.3-1.4,1.9-2.1c12.6-15.9,9.9-39.1-6-51.7c-15.9-12.6-39.1-9.9-51.7,6c-4.3,5.4-6.7,11.6-7.6,17.9l0,0l0,0.3
		c-0.4,3.2-0.4,6.4,0,9.5L423.8,489.4z"/>
	<polygon fill="#FFFFFF" stroke="#8B8BA2" stroke-width="2" stroke-miterlimit="10" points="484.1,481.1 471.1,660.6 444.4,682.8 
		422.8,480.9 	"/>
	
		<ellipse transform="matrix(-1 9.866467e-003 -9.866467e-003 -1 924.9742 1380.1298)" fill="#FFFFFF" stroke="#8B8BA2" stroke-width="2" stroke-miterlimit="10" cx="459.1" cy="692.3" rx="23.4" ry="34.2"/>
	<g>
		<g>
			
				<line fill="none" stroke="#ED1C24" stroke-width="6" stroke-linecap="round" stroke-linejoin="round" x1="372" y1="774.6" x2="372" y2="768.6"/>
			
				<line fill="none" stroke="#ED1C24" stroke-width="6" stroke-linecap="round" stroke-linejoin="round" stroke-dasharray="11.9296,11.9296" x1="372" y1="756.6" x2="372" y2="261.6"/>
			
				<line fill="none" stroke="#ED1C24" stroke-width="6" stroke-linecap="round" stroke-linejoin="round" x1="372" y1="255.6" x2="372" y2="249.6"/>
		</g>
	</g>
</g>
<g id="Layer_6" display="none">
	<circle display="inline" fill="#8B8BA2" stroke="#8B8BA2" stroke-miterlimit="10" cx="423.3" cy="162.5" r="76.8"/>
	<path display="inline" fill="#8B8BA2" stroke="#8B8BA2" stroke-miterlimit="10" d="M763.8,767.5l-53.6-8.8l0.9-214.8
		c0-19.5-15.8-35.3-35.3-35.3c-1.6,0-3.2,0.1-4.8,0.4l-200.7,15.1V304.8c0-25.9-21-47-47-47c-25.9,0-47,21-47,47v248.8
		c0,25.9,21,47,47,47c2.7,0,5.3-0.2,7.8-0.7L643,582L657,780.9c0,14.7,11.9,26.6,26.6,26.6h80.3c11,0,20-8.9,20-20
		C783.8,776.5,774.8,767.5,763.8,767.5z"/>
	<g display="inline">
		<path fill="#000033" d="M413.5,519c-109.2,0-197.7,88.5-197.7,197.7s88.5,197.7,197.7,197.7s197.7-88.5,197.7-197.7
			S522.6,519,413.5,519z M413.5,897.7c-99.9,0-180.9-81-180.9-180.9s81-180.9,180.9-180.9s180.9,81,180.9,180.9
			S513.4,897.7,413.5,897.7z"/>
		<circle fill="#000033" cx="413.5" cy="716.8" r="38.1"/>
		<path fill="#000033" d="M667.7,804.3c-28.4,0-51.4,23-51.4,51.4c0,28.4,23,51.4,51.4,51.4s51.4-23,51.4-51.4
			C719.1,827.4,696.1,804.3,667.7,804.3z M667.7,887.2c-17.4,0-31.4-14.1-31.4-31.4c0-17.4,14.1-31.4,31.4-31.4
			c17.4,0,31.4,14.1,31.4,31.4C699.1,873.1,685.1,887.2,667.7,887.2z"/>
		<path fill="none" stroke="#000033" stroke-width="12" stroke-linecap="round" stroke-linejoin="round" stroke-miterlimit="10" d="
			M365.8,381.6v236.1c0,0,226.6-53.3,272.3-3.8s30.5,198,30.5,198"/>
	</g>
	<path display="inline" fill="#FFFFFF" stroke="#8B8BA2" stroke-width="2" stroke-miterlimit="10" d="M383.8,489.7l60.3-8.3
		l1.9-137.9c0.6-0.7,1.3-1.4,1.9-2.1c12.6-15.9,9.9-39.1-6-51.7c-15.9-12.6-39.1-9.9-51.7,6c-4.3,5.4-6.7,11.6-7.6,17.9l0,0l0,0.3
		c-0.4,3.2-0.4,6.4,0,9.5L383.8,489.7z"/>
	<polygon display="inline" fill="#FFFFFF" stroke="#8B8BA2" stroke-width="2" stroke-miterlimit="10" points="444.1,481.4 
		431.1,660.9 404.4,683.1 382.8,481.1 	"/>
	
		<ellipse transform="matrix(-1 9.866467e-003 -9.866467e-003 -1 844.979 1381.0955)" display="inline" fill="#FFFFFF" stroke="#8B8BA2" stroke-width="2" stroke-miterlimit="10" cx="419.1" cy="692.6" rx="23.4" ry="34.2"/>
	<g display="inline">
		<g>
			
				<line fill="none" stroke="#ED1C24" stroke-width="6" stroke-linecap="round" stroke-linejoin="round" x1="413.5" y1="774.9" x2="413.5" y2="768.9"/>
			
				<line fill="none" stroke="#ED1C24" stroke-width="6" stroke-linecap="round" stroke-linejoin="round" stroke-dasharray="11.9296,11.9296" x1="413.5" y1="756.9" x2="413.5" y2="261.8"/>
			
				<line fill="none" stroke="#ED1C24" stroke-width="6" stroke-linecap="round" stroke-linejoin="round" x1="413.5" y1="255.9" x2="413.5" y2="249.9"/>
		</g>
	</g>
</g>
<g id="Layer_7" display="none">
	<g display="inline">
		<circle fill="#8B8BA2" stroke="#8B8BA2" stroke-miterlimit="10" cx="421.5" cy="154.3" r="78.5"/>
		<path fill="#8B8BA2" stroke="#8B8BA2" stroke-miterlimit="10" d="M769.6,772.6l-54.8-9l0.9-219.5c0-19.9-16.2-36.1-36.1-36.1
			c-1.7,0-3.3,0.2-4.9,0.4l-205.1,15.5V299.8c0-26.5-21.5-48-48-48c-26.5,0-48,21.5-48,48V554c0,26.5,21.5,48,48,48
			c2.7,0,5.4-0.2,8-0.7L646.1,583l14.2,203.2c0,15,12.2,27.2,27.2,27.2h82.1c11.3,0,20.4-9.1,20.4-20.4S780.8,772.6,769.6,772.6z"/>
		<g>
			<path fill="#000033" d="M411.5,518.7c-111.6,0-202.1,90.5-202.1,202.1s90.5,202.1,202.1,202.1s202.1-90.5,202.1-202.1
				S523.1,518.7,411.5,518.7z M411.5,905.6c-102.1,0-184.9-82.8-184.9-184.9s82.8-184.9,184.9-184.9s184.9,82.8,184.9,184.9
				S513.6,905.6,411.5,905.6z"/>
			<circle fill="#000033" cx="411.5" cy="720.8" r="38.9"/>
			<path fill="#000033" d="M671.3,810.3c-29,0-52.5,23.5-52.5,52.5s23.5,52.5,52.5,52.5s52.5-23.5,52.5-52.5
				S700.3,810.3,671.3,810.3z M671.3,895c-17.7,0-32.1-14.4-32.1-32.1c0-17.7,14.4-32.1,32.1-32.1c17.7,0,32.1,14.4,32.1,32.1
				C703.5,880.6,689.1,895,671.3,895z"/>
			
				<path fill="none" stroke="#000033" stroke-width="12" stroke-linecap="round" stroke-linejoin="round" stroke-miterlimit="10" d="
				M362.8,378.2v241.3c0,0,231.6-54.5,278.3-3.9c46.7,50.6,31.1,202.4,31.1,202.4"/>
		</g>
		<path fill="#FFFFFF" stroke="#8B8BA2" stroke-width="2" stroke-miterlimit="10" d="M430.6,478.1l50.5-36.2l-40.7-114.5
			c0.3-0.9,0.7-1.8,1-2.7c6-19.9-5.2-40.9-25.1-46.9c-19.9-6-40.9,5.2-46.9,25.1c-2,6.7-2.1,13.6-0.5,19.9l0,0l0.1,0.3
			c0.8,3.2,2,6.2,3.6,9L430.6,478.1z"/>
		<polygon fill="#FFFFFF" stroke="#8B8BA2" stroke-width="2" stroke-miterlimit="10" points="481.1,441.9 562.6,575.2 556.9,619.4 
			429.8,477.9 		"/>
		
			<ellipse transform="matrix(3.276401e-002 0.9995 -0.9995 3.276401e-002 1147.2449 6.729)" fill="#FFFFFF" stroke="#8B8BA2" stroke-width="2" stroke-miterlimit="10" cx="570.1" cy="596.1" rx="27.5" ry="30.1"/>
	</g>
</g>
<g id="Layer_8" display="none">
	<g display="inline">
		<circle fill="#8B8BA2" stroke="#8B8BA2" stroke-miterlimit="10" cx="423.3" cy="162.1" r="76.7"/>
		<path fill="#8B8BA2" stroke="#8B8BA2" stroke-miterlimit="10" d="M763.5,766.5l-53.6-8.8l0.9-214.5c0-19.5-15.8-35.3-35.3-35.3
			c-1.6,0-3.2,0.1-4.8,0.4l-200.4,15.1v-219c0-25.9-21-46.9-46.9-46.9c-25.9,0-46.9,21-46.9,46.9v248.5c0,25.9,21,46.9,46.9,46.9
			c2.7,0,5.3-0.2,7.8-0.7l211.7-17.9l13.9,198.6c0,14.7,11.9,26.5,26.5,26.5h80.2c11,0,19.9-8.9,19.9-19.9S774.5,766.5,763.5,766.5z
			"/>
		<g>
			<path fill="#000033" d="M413.5,518.2c-109.1,0-197.5,88.4-197.5,197.5s88.4,197.5,197.5,197.5S611,824.8,611,715.7
				S522.6,518.2,413.5,518.2z M413.5,896.4c-99.8,0-180.7-80.9-180.7-180.7S313.7,535,413.5,535s180.7,80.9,180.7,180.7
				S513.3,896.4,413.5,896.4z"/>
			<circle fill="#000033" cx="413.5" cy="715.7" r="38"/>
			<path fill="#000033" d="M667.4,803.2c-28.4,0-51.4,23-51.4,51.4s23,51.4,51.4,51.4s51.4-23,51.4-51.4S695.8,803.2,667.4,803.2z
				 M667.4,886c-17.3,0-31.4-14.1-31.4-31.4c0-17.3,14.1-31.4,31.4-31.4c17.3,0,31.4,14.1,31.4,31.4
				C698.8,871.9,684.8,886,667.4,886z"/>
			
				<path fill="none" stroke="#000033" stroke-width="12" stroke-linecap="round" stroke-linejoin="round" stroke-miterlimit="10" d="
				M365.9,381v235.8c0,0,226.3-53.3,272-3.8s30.4,197.8,30.4,197.8"/>
		</g>
		<path fill="#FFFFFF" stroke="#8B8BA2" stroke-width="2" stroke-miterlimit="10" d="M432.1,478.6l49.4-35.3l-39.8-111.9
			c0.3-0.9,0.7-1.7,1-2.6c5.9-19.4-5.1-39.9-24.5-45.8c-19.4-5.9-40,5.1-45.8,24.5c-2,6.6-2,13.2-0.5,19.5l0,0l0.1,0.3
			c0.8,3.1,2,6,3.5,8.8L432.1,478.6z"/>
		<polygon fill="#FFFFFF" stroke="#8B8BA2" stroke-width="2" stroke-miterlimit="10" points="481.5,443.2 561.2,573.5 555.6,616.7 
			431.3,478.4 		"/>
		
			<ellipse transform="matrix(3.276401e-002 0.9995 -0.9995 3.276401e-002 1143.51 6.2032)" fill="#FFFFFF" stroke="#8B8BA2" stroke-width="2" stroke-miterlimit="10" cx="568.6" cy="593.9" rx="26.9" ry="29.5"/>
	</g>
	<circle display="inline" fill="#ED1C24" cx="387.6" cy="291.8" r="21.7"/>
	<circle display="inline" fill="#ED1C24" cx="375.4" cy="531.8" r="21.7"/>
	<circle display="inline" fill="#ED1C24" cx="387.6" cy="588.7" r="21.7"/>
	<circle display="inline" fill="#ED1C24" cx="445" cy="595.9" r="21.7"/>
	<circle display="inline" fill="#ED1C24" cx="459.8" cy="545.3" r="21.7"/>
	<circle display="inline" fill="#ED1C24" cx="657" cy="753.8" r="21.7"/>
	<circle display="inline" fill="#ED1C24" cx="689.1" cy="803.2" r="21.7"/>
</g>
<g id="Layer_9" display="none">
	<g display="inline">
		<circle fill="#8B8BA2" stroke="#8B8BA2" stroke-miterlimit="10" cx="751.5" cy="276.4" r="51.7"/>
		<path fill="#8B8BA2" stroke="#8B8BA2" stroke-miterlimit="10" d="M945.7,679.8l-36.1-6l0.6-144.6c0-13.1-10.6-23.8-23.8-23.8
			c-1.1,0-2.2,0.1-3.2,0.2l-135.1,10.2l19-147.6c0-17.5-14.2-31.6-31.6-31.6s-31.6,14.2-31.6,31.6l-19,167.5
			c0,17.5,14.2,31.6,31.6,31.6c1.8,0,3.6-0.2,5.3-0.4l142.6-12.1l9.4,133.8c0,9.9,8,17.9,17.9,17.9h54c7.4,0,13.4-6,13.4-13.4
			S953.1,679.8,945.7,679.8z"/>
		<g>
			<path fill="#000033" d="M709.9,512.5c-73.5,0-133.1,59.6-133.1,133.1s59.6,133.1,133.1,133.1s133.1-59.6,133.1-133.1
				S783.4,512.5,709.9,512.5z M709.9,767.4c-67.2,0-121.8-54.5-121.8-121.8s54.5-121.8,121.8-121.8s121.8,54.5,121.8,121.8
				S777.1,767.4,709.9,767.4z"/>
			<circle fill="#000033" cx="709.9" cy="645.6" r="25.6"/>
			<path fill="#000033" d="M881,704.6c-19.1,0-34.6,15.5-34.6,34.6c0,19.1,15.5,34.6,34.6,34.6c19.1,0,34.6-15.5,34.6-34.6
				C915.6,720.1,900.1,704.6,881,704.6z M881,760.3c-11.7,0-21.2-9.5-21.2-21.2c0-11.7,9.5-21.2,21.2-21.2
				c11.7,0,21.2,9.5,21.2,21.2C902.1,750.9,892.7,760.3,881,760.3z"/>
			
				<path fill="none" stroke="#000033" stroke-width="12" stroke-linecap="round" stroke-linejoin="round" stroke-miterlimit="10" d="
				M677.8,420V579c0,0,152.5-35.9,183.3-2.6c30.8,33.3,20.5,133.3,20.5,133.3"/>
		</g>
		<path fill="#FFFFFF" stroke="#8B8BA2" stroke-width="2" stroke-miterlimit="10" d="M615.5,421.6l39.5,16.3l68.7-41
			c0.6,0.1,1.2,0.2,1.9,0.3c13.6,1.3,25.7-8.6,27.1-22.3c1.3-13.6-8.6-25.7-22.3-27.1c-4.6-0.4-9,0.4-12.9,2.3l0,0l-0.2,0.1
			c-1.9,0.9-3.7,2.1-5.4,3.5L615.5,421.6z"/>
		<polygon fill="#FFFFFF" stroke="#8B8BA2" stroke-width="2" stroke-miterlimit="10" points="655.1,437.9 672.8,513.7 658.4,539.3 
			615.5,421.6 		"/>
		
			<ellipse transform="matrix(-0.3055 0.9522 -0.9522 -0.3055 1377.246 54.7929)" fill="#FFFFFF" stroke="#8B8BA2" stroke-width="2" stroke-miterlimit="10" cx="668.6" cy="529.6" rx="18.1" ry="19.8"/>
	</g>
	<circle display="inline" fill="#8B8BA2" stroke="#8B8BA2" stroke-miterlimit="10" cx="215.7" cy="272.5" r="51.7"/>
	<path display="inline" fill="#8B8BA2" stroke="#8B8BA2" stroke-miterlimit="10" d="M474.1,688.8l-29.7-17.5l7.1-144.6
		c0-13.1-10.6-23.8-23.8-23.8c-1.1,0-2.2,0.1-3.2,0.2l-129.9,10.2L228,361.9c0-7.2-3.3-13.2-8.3-17.7c-6.5-7.6-16.1-12.4-26.8-12.4
		c-19.5,0-35.2,15.8-35.2,35.2c0,7.4,2.3,14.3,6.2,20l62.5,146.2c0,17.5,14.2,31.6,31.6,31.6c1.8,0,3.6-0.2,5.3-0.4l142.6-12.1
		l2.8,133.8c0,9.9,8,17.9,17.9,17.9l47.6,11.5c7.4,0,13.4-6,13.4-13.4S481.5,688.8,474.1,688.8z"/>
	<g display="inline">
		<path fill="#000033" d="M171.7,512.5c-73.5,0-133.1,59.6-133.1,133.1s59.6,133.1,133.1,133.1s133.1-59.6,133.1-133.1
			S245.2,512.5,171.7,512.5z M171.7,767.4C104.5,767.4,50,712.9,50,645.6s54.5-121.8,121.8-121.8s121.8,54.5,121.8,121.8
			S239,767.4,171.7,767.4z"/>
		<circle fill="#000033" cx="171.7" cy="645.6" r="25.6"/>
		<path fill="#000033" d="M390.3,704.6c-19.1,0-34.6,15.5-34.6,34.6c0,19.1,15.5,34.6,34.6,34.6c19.1,0,34.6-15.5,34.6-34.6
			C424.9,720.1,409.4,704.6,390.3,704.6z M390.3,760.3c-11.7,0-21.2-9.5-21.2-21.2c0-11.7,9.5-21.2,21.2-21.2
			c11.7,0,21.2,9.5,21.2,21.2C411.4,750.9,402,760.3,390.3,760.3z"/>
		<path fill="none" stroke="#000033" stroke-width="12" stroke-linecap="round" stroke-linejoin="round" stroke-miterlimit="10" d="
			M144.5,420L187.1,579c0,0,152.5-35.9,183.3-2.6s20.5,133.3,20.5,133.3"/>
		<path fill="#000033" d="M205.5,580.1l-17.9,4.5c-5.3,1.3-10.8-1.9-12.1-7.3l-44.8-179.6c-1.3-5.3,1.9-10.8,7.3-12.1l17.9-4.5
			c5.3-1.3,10.8,1.9,12.1,7.3L212.8,568C214.1,573.3,210.8,578.8,205.5,580.1z"/>
	</g>
	<path display="inline" fill="#FFFFFF" stroke="#8B8BA2" stroke-width="2" stroke-miterlimit="10" d="M167.1,487.7l40.6-5.6
		l1.3-92.8c0.4-0.5,0.9-0.9,1.3-1.4c8.5-10.7,6.7-26.3-4-34.8c-10.7-8.5-26.3-6.7-34.8,4c-2.9,3.6-4.5,7.8-5.1,12.1l0,0l0,0.2
		c-0.3,2.1-0.3,4.3,0,6.4L167.1,487.7z"/>
	<polygon display="inline" fill="#FFFFFF" stroke="#8B8BA2" stroke-width="2" stroke-miterlimit="10" points="207.8,482.1 
		199,602.9 181,617.9 166.5,481.9 	"/>
	
		<ellipse transform="matrix(-1 9.866467e-003 -9.866467e-003 -1 387.9648 1246.5905)" display="inline" fill="#FFFFFF" stroke="#8B8BA2" stroke-width="2" stroke-miterlimit="10" cx="190.9" cy="624.3" rx="15.8" ry="23"/>
	<g display="inline">
		<path fill="none" stroke="#ED1C24" stroke-width="7" stroke-linecap="round" stroke-linejoin="round" stroke-miterlimit="10" d="
			M159.8,317.6c-25.2-21.7-62.3-26.6-93.1-9.5"/>
		
			<polyline fill="none" stroke="#ED1C24" stroke-width="7" stroke-linecap="round" stroke-linejoin="round" stroke-miterlimit="10" points="
			154.9,297.8 164,318.5 141.1,319.3 		"/>
	</g>
	<g display="inline">
		<path fill="none" stroke="#ED1C24" stroke-width="7" stroke-linecap="round" stroke-linejoin="round" stroke-miterlimit="10" d="
			M210.1,542.7c-33.7,16.8-49.2,51-35.4,86.8"/>
		
			<polyline fill="none" stroke="#ED1C24" stroke-width="7" stroke-linecap="round" stroke-linejoin="round" stroke-miterlimit="10" points="
			183.9,540.5 212.3,539 207.6,561.4 		"/>
	</g>
	<g display="inline">
		<path fill="none" stroke="#ED1C24" stroke-width="7" stroke-linecap="round" stroke-linejoin="round" stroke-miterlimit="10" d="
			M462.2,659.7c27.5-18.7,41.9-53.3,33.3-87.5"/>
		
			<polyline fill="none" stroke="#ED1C24" stroke-width="7" stroke-linecap="round" stroke-linejoin="round" stroke-miterlimit="10" points="
			482.6,660.1 460.2,663.5 465.4,641.2 		"/>
	</g>
</g>
<g id="Layer_10" display="none">
	
		<polygon display="inline" fill="none" stroke="#00CC00" stroke-width="10" stroke-linecap="round" stroke-linejoin="round" stroke-miterlimit="10" points="
		444.1,667.7 45.6,791.1 444.1,791.1 	"/>
	<g display="inline">
		<path fill="#00CC00" d="M954.4,179v603.1H727.8V179H954.4 M959.4,174H722.8v613.1h236.7V174L959.4,174z"/>
	</g>
	<polygon display="inline" fill="#00CC00" points="540.6,207.1 722.8,174 722.8,787.1 540.6,824.2 	"/>
	<circle display="inline" fill="#FFFFFF" stroke="#00CC00" stroke-miterlimit="10" cx="582.4" cy="557.9" r="17.3"/>
	<path display="inline" fill="#FFFFFF" stroke="#00CC00" stroke-width="6" stroke-linecap="round" stroke-miterlimit="10" d="
		M572.2,560.4c0-7.4,5.5-13.4,12.2-13.4"/>
	<g display="inline">
		<g>
			<path fill="#000033" d="M743,792.2h-1c-5.6,0-10.1-4.5-10.1-10.1V581.2c0-5.6,4.5-10.1,10.1-10.1h1c5.6,0,10.1,4.5,10.1,10.1
				v200.8C753.1,787.6,748.5,792.2,743,792.2z"/>
			<path fill="#000033" d="M905.2,792.2h-1c-5.6,0-10.1-4.5-10.1-10.1V581.2c0-5.6,4.5-10.1,10.1-10.1h1c5.6,0,10.1,4.5,10.1,10.1
				v200.8C915.3,787.6,910.8,792.2,905.2,792.2z"/>
			<path fill="#000033" d="M879.1,636.2h-111c-8.3,0-15-6.8-15-15V499.4c0-8.3,6.8-15,15-15h111c8.3,0,15,6.8,15,15v121.8
				C894.1,629.4,887.3,636.2,879.1,636.2z"/>
			<path fill="#000033" d="M879.2,636.2H768c-8.2,0-14.9-6.7-14.9-14.9v-1.5c0-8.2,6.7-14.9,14.9-14.9h111.2
				c8.2,0,14.9,6.7,14.9,14.9v1.5C894.1,629.5,887.4,636.2,879.2,636.2z"/>
			<path fill="#000033" d="M797.8,753.9h-35.7c-5,0-9-4.1-9-9V744c0-5,4.1-9,9-9h35.7c5,0,9,4.1,9,9v0.9
				C806.9,749.9,802.8,753.9,797.8,753.9z"/>
			<path fill="#000033" d="M885.1,753.9h-35.7c-5,0-9-4.1-9-9V744c0-5,4.1-9,9-9h35.7c5,0,9,4.1,9,9v0.9
				C894.1,749.9,890,753.9,885.1,753.9z"/>
			<g>
				<path fill="#FFFFFF" d="M756.7,592.5c-0.6,0-1.1-0.5-1.1-1.1v-21.5c0-0.6-0.4-1-1-1h-16.5c-0.6,0-1.1-0.5-1.1-1.1v-12.5
					c0-0.6,0.5-1.1,1.1-1.1h21.2c0.6,0,1.1,0.5,1.1,1.1v12.5c0,0,0,0,0,0c0,0,0,0,0,0.1l0,23.6c0,0.6-0.5,1.1-1.1,1.1H756.7z"/>
				<path fill="#000033" d="M759.3,555.1c0.1,0,0.1,0.1,0.1,0.1v12.4c0,0,0,0.1,0,0.1c0,0,0,0.1,0,0.1v23.5c0,0.1-0.1,0.1-0.1,0.1
					h-2.6c-0.1,0-0.1-0.1-0.1-0.1v-21.5c0-1.1-0.9-2-2-2h-16.5c-0.1,0-0.1-0.1-0.1-0.1v-12.5c0-0.1,0.1-0.1,0.1-0.1H759.3
					 M759.3,553.1h-21.2c-1.2,0-2.1,1-2.1,2.1v12.5c0,1.2,1,2.1,2.1,2.1h16.5v21.5c0,1.2,1,2.1,2.1,2.1h2.6c1.2,0,2.1-1,2.1-2.1
					v-23.5c0,0,0-0.1,0-0.1v-12.5C761.5,554.1,760.5,553.1,759.3,553.1L759.3,553.1z"/>
			</g>
			<g>
				<path fill="#FFFFFF" d="M887.9,592.5c-0.6,0-1.1-0.5-1.1-1.1v-23.5c0,0,0-0.1,0-0.2l0-12.4c0-0.6,0.5-1.1,1.1-1.1H909
					c0.6,0,1.1,0.5,1.1,1.1v12.5c0,0.6-0.5,1.1-1.1,1.1h-16.5c-0.6,0-1,0.4-1,1v21.5c0,0.6-0.5,1.1-1.1,1.1H887.9z"/>
				<path fill="#000033" d="M909,555.1c0.1,0,0.1,0.1,0.1,0.1v12.5c0,0.1-0.1,0.1-0.1,0.1h-16.5c-1.1,0-2,0.9-2,2v21.5
					c0,0.1-0.1,0.1-0.1,0.1h-2.6c-0.1,0-0.1-0.1-0.1-0.1v-23.5c0,0,0-0.1,0-0.1c0,0,0-0.1,0-0.1v-12.4c0-0.1,0.1-0.1,0.1-0.1H909
					 M909,553.1h-21.2c-1.2,0-2.1,1-2.1,2.1v12.5c0,0,0,0.1,0,0.1v23.5c0,1.2,1,2.1,2.1,2.1h2.6c1.2,0,2.1-1,2.1-2.1v-21.5H909
					c1.2,0,2.1-1,2.1-2.1v-12.5C911.2,554.1,910.2,553.1,909,553.1L909,553.1z"/>
			</g>
		</g>
		<path fill="#FFFFFF" stroke="#8B8BA2" stroke-width="2" stroke-miterlimit="10" d="M945,517.3l-33.6,8.3l-47.9-44.8
			c-0.5,0-1,0-1.5-0.1c-11.1-1.3-19.1-11.4-17.8-22.5c1.3-11.1,11.4-19.1,22.5-17.8c3.8,0.4,7.1,1.9,10,4l0,0l0.1,0.1
			c1.4,1.1,2.6,2.3,3.7,3.7L945,517.3z"/>
		<path fill="#FFFFFF" stroke="#8B8BA2" stroke-width="2" stroke-miterlimit="10" d="M705.4,552.5l-14.2-29.4l40.8-51.3
			c0-0.5,0-1,0-1.6c0.4-11.2,9.8-20,21-19.5c11.2,0.4,20,9.8,19.5,21c-0.1,3.8-1.3,7.3-3.2,10.2l0,0l-0.1,0.1c-1,1.5-2.1,2.8-3.4,4
			L705.4,552.5z"/>
		<polygon fill="#FFFFFF" stroke="#8B8BA2" stroke-width="2" stroke-miterlimit="10" points="694.8,520.6 616.3,544.4 602.9,564.4 
			704.8,552.5 		"/>
		<polygon fill="#FFFFFF" stroke="#8B8BA2" stroke-width="2" stroke-miterlimit="10" points="911.2,524.9 918.3,623.9 933.1,636.1 
			945,517.3 		"/>
		
			<ellipse transform="matrix(-1 9.866467e-003 -9.866467e-003 -1 1862.3656 1263.0514)" fill="#FFFFFF" stroke="#8B8BA2" stroke-width="2" stroke-miterlimit="10" cx="928.1" cy="636.1" rx="12.9" ry="18.8"/>
		
			<ellipse transform="matrix(-9.866360e-003 -1 1 -9.866360e-003 51.1046 1157.6385)" fill="#FFFFFF" stroke="#8B8BA2" stroke-width="2" stroke-miterlimit="10" cx="598.7" cy="553.5" rx="12.9" ry="18.8"/>
		<circle fill="#8B8BA2" stroke="#8B8BA2" stroke-miterlimit="10" cx="784.8" cy="377.4" r="42.3"/>
		<path fill="#8B8BA2" stroke="#8B8BA2" stroke-miterlimit="10" d="M885.7,724.6V588.4c0-6.7-5.5-12.2-12.2-12.2h-0.9
			c-0.9-0.7-1.8-1.3-2.8-1.9c2.8-4.1,4.3-9.3,3.6-14.6l-20.2-116.3c-1.5-11.4-12.1-19.5-23.5-18l-58.5,7.7
			c-11.4,1.5-19.5,12.1-18,23.5l20.2,116.3c0.2,1.1,0.4,2.2,0.7,3.3h-0.6c-6.7,0-12.2,5.5-12.2,12.2v136.2
			c-3.8,2.1-6.4,6.1-6.4,10.7v8.1c0,6.7,5.5,12.2,12.2,12.2h6.4h8.1h6.4c6.7,0,12.2-5.5,12.2-12.2v-8.1c0-4.6-2.6-8.6-6.4-10.7
			V623.8h59.2v100.8c-3.8,2.1-6.4,6.1-6.4,10.7v8.1c0,6.7,5.5,12.2,12.2,12.2h6.4h8.1h6.4c6.7,0,12.2-5.5,12.2-12.2v-8.1
			C892,730.7,889.5,726.7,885.7,724.6z"/>
	</g>
	<g display="inline">
		<circle fill="#8B8BA2" stroke="#8B8BA2" stroke-miterlimit="10" cx="111.5" cy="336.3" r="42.3"/>
		<path fill="#8B8BA2" stroke="#8B8BA2" stroke-miterlimit="10" d="M382.7,606.5l-29.8,3.3l-31.7-114.1c-2.9-10.4-13.7-16.4-24-13.5
			c-0.9,0.2-1.7,0.6-2.5,0.9l-104.2,38l-32.8-116.4c-3.9-13.8-18.2-21.8-31.9-17.9c-13.8,3.9-21.8,18.2-17.9,31.9l37.2,132
			c3.9,13.8,18.2,21.8,31.9,17.9c1.4-0.4,2.8-0.9,4.1-1.5l109.8-41.2l37.1,103.4c2.2,7.8,10.3,12.3,18.1,10.1l42.6-12
			c5.8-1.6,9.3-7.7,7.6-13.6C394.6,608.2,388.5,604.8,382.7,606.5z"/>
		<g>
			<path fill="#000033" d="M159.6,527c-57.9,16.3-91.7,76.5-75.4,134.5s76.5,91.7,134.5,75.4c57.9-16.3,91.7-76.5,75.4-134.5
				C277.7,544.4,217.5,510.6,159.6,527z M216.2,727.9c-53,14.9-108.1-15.9-123-69s15.9-108.1,69-123c53-14.9,108.1,15.9,123,69
				C300.1,657.9,269.2,713,216.2,727.9z"/>
			<circle fill="#000033" cx="189.1" cy="631.9" r="21"/>
			<path fill="#000033" d="M337.1,640.4c-15.1,4.2-23.8,19.9-19.6,35c4.2,15.1,19.9,23.8,35,19.6c15.1-4.2,23.8-19.9,19.6-35
				C367.9,644.9,352.2,636.1,337.1,640.4z M349.5,684.3c-9.2,2.6-18.8-2.8-21.4-12c-2.6-9.2,2.8-18.8,12-21.4
				c9.2-2.6,18.8,2.8,21.4,12C364.1,672.2,358.7,681.7,349.5,684.3z"/>
			
				<path fill="none" stroke="#000033" stroke-width="12" stroke-linecap="round" stroke-linejoin="round" stroke-miterlimit="10" d="
				M113.8,461.2l35.3,125.3c0,0,112.3-62.2,143.9-42.7s45.8,100.5,45.8,100.5"/>
		</g>
		<path fill="#FFFFFF" stroke="#8B8BA2" stroke-width="2" stroke-miterlimit="10" d="M66.4,483.3L98.1,494l37.3-54
			c0.5-0.1,1-0.3,1.5-0.4c10.6-3.6,16.2-15.2,12.6-25.8c-3.6-10.6-15.2-16.2-25.8-12.6c-3.6,1.2-6.6,3.4-8.9,6.1l0,0l-0.1,0.1
			c-1.1,1.4-2.1,2.8-2.8,4.4L66.4,483.3z"/>
		<polygon fill="#FFFFFF" stroke="#8B8BA2" stroke-width="2" stroke-miterlimit="10" points="98.1,494 99,565.9 83.8,584.6 
			65.7,483.6 		"/>
		
			<ellipse transform="matrix(-0.4986 0.8668 -0.8668 -0.4986 645.3362 782.0095)" fill="#FFFFFF" stroke="#8B8BA2" stroke-width="2" stroke-miterlimit="10" cx="96.5" cy="577.6" rx="14.8" ry="16.3"/>
	</g>
</g>
<g id="Layer_11" display="none">
	<circle display="inline" fill="#8B8BA2" stroke="#8B8BA2" stroke-miterlimit="10" cx="456.1" cy="322.6" r="40.3"/>
	<path display="inline" fill="#8B8BA2" stroke="#8B8BA2" stroke-miterlimit="10" d="M634.9,640.4l-28.2-4.6l0.5-112.8
		c0-10.3-8.3-18.6-18.6-18.6c-0.9,0-1.7,0.1-2.5,0.2l-105.4,7.9V397.4c0-13.6-11-24.7-24.7-24.7c-13.6,0-24.7,11-24.7,24.7V528
		c0,13.6,11,24.7,24.7,24.7c1.4,0,2.8-0.1,4.1-0.3l111.3-9.4l7.3,104.4c0,7.7,6.2,14,14,14h42.2c5.8,0,10.5-4.7,10.5-10.5
		S640.7,640.4,634.9,640.4z"/>
	<circle display="inline" fill="#8B8BA2" stroke="#8B8BA2" stroke-miterlimit="10" cx="138.7" cy="322.6" r="40.3"/>
	<path display="inline" fill="#8B8BA2" stroke="#8B8BA2" stroke-miterlimit="10" d="M317.5,640.4l-28.2-4.6l0.5-112.8
		c0-10.3-8.3-18.6-18.6-18.6c-0.9,0-1.7,0.1-2.5,0.2l-105.4,7.9V397.4c0-13.6-11-24.7-24.7-24.7c-13.6,0-24.7,11-24.7,24.7V528
		c0,13.6,11,24.7,24.7,24.7c1.4,0,2.8-0.1,4.1-0.3l111.3-9.4l7.3,104.4c0,7.7,6.2,14,14,14h42.2c5.8,0,10.5-4.7,10.5-10.5
		S323.3,640.4,317.5,640.4z"/>
	<circle display="inline" fill="#8B8BA2" stroke="#8B8BA2" stroke-miterlimit="10" cx="779.9" cy="322.6" r="40.3"/>
	<path display="inline" fill="#8B8BA2" stroke="#8B8BA2" stroke-miterlimit="10" d="M958.8,640.4l-28.2-4.6l0.5-112.8
		c0-10.3-8.3-18.6-18.6-18.6c-0.9,0-1.7,0.1-2.5,0.2l-105.4,7.9V397.4c0-13.6-11-24.7-24.7-24.7c-13.6,0-24.7,11-24.7,24.7V528
		c0,13.6,11,24.7,24.7,24.7c1.4,0,2.8-0.1,4.1-0.3l111.3-9.4l7.3,104.4c0,7.7,6.2,14,14,14h42.2c5.8,0,10.5-4.7,10.5-10.5
		S964.5,640.4,958.8,640.4z"/>
	<g display="inline">
		<path fill="#000033" d="M450.9,509.9c-57.3,0-103.8,46.5-103.8,103.8s46.5,103.8,103.8,103.8s103.8-46.5,103.8-103.8
			S508.2,509.9,450.9,509.9z M450.9,708.7c-52.5,0-95-42.5-95-95s42.5-95,95-95s95,42.5,95,95S503.4,708.7,450.9,708.7z"/>
		<circle fill="#000033" cx="450.9" cy="613.7" r="20"/>
		<path fill="#000033" d="M584.4,659.7c-14.9,0-27,12.1-27,27s12.1,27,27,27s27-12.1,27-27S599.3,659.7,584.4,659.7z M584.4,703.2
			c-9.1,0-16.5-7.4-16.5-16.5c0-9.1,7.4-16.5,16.5-16.5c9.1,0,16.5,7.4,16.5,16.5C600.9,695.8,593.5,703.2,584.4,703.2z"/>
		<path fill="none" stroke="#000033" stroke-width="12" stroke-linecap="round" stroke-linejoin="round" stroke-miterlimit="10" d="
			M425.9,437.7v124c0,0,119-28,143-2s16,104,16,104"/>
	</g>
	<g display="inline">
		<path fill="#000033" d="M133.5,509.9c-57.3,0-103.8,46.5-103.8,103.8s46.5,103.8,103.8,103.8s103.8-46.5,103.8-103.8
			S190.9,509.9,133.5,509.9z M133.5,708.7c-52.5,0-95-42.5-95-95s42.5-95,95-95s95,42.5,95,95S186,708.7,133.5,708.7z"/>
		<circle fill="#000033" cx="133.5" cy="613.7" r="20"/>
		<path fill="#000033" d="M267,659.7c-14.9,0-27,12.1-27,27s12.1,27,27,27s27-12.1,27-27S281.9,659.7,267,659.7z M267,703.2
			c-9.1,0-16.5-7.4-16.5-16.5c0-9.1,7.4-16.5,16.5-16.5c9.1,0,16.5,7.4,16.5,16.5C283.5,695.8,276.2,703.2,267,703.2z"/>
		<path fill="none" stroke="#000033" stroke-width="12" stroke-linecap="round" stroke-linejoin="round" stroke-miterlimit="10" d="
			M108.5,437.7v124c0,0,119-28,143-2s16,104,16,104"/>
	</g>
	<g display="inline">
		<path fill="#000033" d="M774.8,509.9c-57.3,0-103.8,46.5-103.8,103.8s46.5,103.8,103.8,103.8s103.8-46.5,103.8-103.8
			S832.1,509.9,774.8,509.9z M774.8,708.7c-52.5,0-95-42.5-95-95s42.5-95,95-95s95,42.5,95,95S827.2,708.7,774.8,708.7z"/>
		<circle fill="#000033" cx="774.8" cy="613.7" r="20"/>
		<path fill="#000033" d="M908.3,659.7c-14.9,0-27,12.1-27,27s12.1,27,27,27s27-12.1,27-27S923.2,659.7,908.3,659.7z M908.3,703.2
			c-9.1,0-16.5-7.4-16.5-16.5c0-9.1,7.4-16.5,16.5-16.5c9.1,0,16.5,7.4,16.5,16.5C924.8,695.8,917.4,703.2,908.3,703.2z"/>
		<path fill="none" stroke="#000033" stroke-width="12" stroke-linecap="round" stroke-linejoin="round" stroke-miterlimit="10" d="
			M749.8,437.7v124c0,0,119-28,143-2s16,104,16,104"/>
	</g>
	
		<path display="inline" fill="none" stroke="#00CC00" stroke-width="7" stroke-linecap="round" stroke-linejoin="round" stroke-miterlimit="10" d="
		M174.5,525.1c-49-22.7-107-1.3-129.7,47.6"/>
	
		<polyline display="inline" fill="none" stroke="#00CC00" stroke-width="7" stroke-linecap="round" stroke-linejoin="round" stroke-miterlimit="10" points="
		170.9,505.3 181.9,530 154.6,531 	"/>
	<g display="inline">
		<path fill="none" stroke="#00CC00" stroke-width="7" stroke-linecap="round" stroke-linejoin="round" stroke-miterlimit="10" d="
			M548.3,621.7c3.2-39.7-18.1-78.9-56.4-96.6c-49-22.7-107-1.3-129.7,47.6"/>
		
			<polyline fill="none" stroke="#00CC00" stroke-width="7" stroke-linecap="round" stroke-linejoin="round" stroke-miterlimit="10" points="
			563.9,603 550.3,626.4 533.5,604.9 		"/>
	</g>
	<g display="inline">
		<path fill="none" stroke="#00CC00" stroke-width="7" stroke-linecap="round" stroke-linejoin="round" stroke-miterlimit="10" d="
			M705.5,544.2c9.7,38.6,42.6,68.9,84.5,73.3c30.3,3.2,58.9-7.9,79-27.8"/>
		
			<polyline fill="none" stroke="#00CC00" stroke-width="7" stroke-linecap="round" stroke-linejoin="round" stroke-miterlimit="10" points="
			696.7,566.9 702,540.4 724.9,555.4 		"/>
	</g>
	<path display="inline" fill="#FFFFFF" stroke="#8B8BA2" stroke-width="2" stroke-miterlimit="10" d="M460.7,489l26-18.6l-20.9-58.8
		c0.2-0.5,0.4-0.9,0.5-1.4c3.1-10.2-2.7-21-12.9-24.1c-10.2-3.1-21,2.7-24.1,12.9c-1,3.5-1.1,7-0.2,10.2l0,0l0.1,0.2
		c0.4,1.6,1,3.2,1.8,4.6L460.7,489z"/>
	<polygon display="inline" fill="#FFFFFF" stroke="#8B8BA2" stroke-width="2" stroke-miterlimit="10" points="486.7,470.4 
		528.6,538.9 525.6,561.6 460.3,488.9 	"/>
	
		<ellipse transform="matrix(3.276401e-002 0.9995 -0.9995 3.276401e-002 1064.3522 -0.4949)" display="inline" fill="#FFFFFF" stroke="#8B8BA2" stroke-width="2" stroke-miterlimit="10" cx="532.4" cy="549.7" rx="14.1" ry="15.5"/>
	<path display="inline" fill="#FFFFFF" stroke="#8B8BA2" stroke-width="2" stroke-miterlimit="10" d="M59.3,445.7l26.4,18l48.1-39.8
		c0.5,0,1,0,1.5,0c10.7-0.6,18.8-9.7,18.2-20.4c-0.6-10.7-9.7-18.8-20.4-18.2c-3.6,0.2-6.9,1.4-9.7,3.3l0,0l-0.1,0.1
		c-1.4,0.9-2.6,2.1-3.7,3.3L59.3,445.7z"/>
	<polygon display="inline" fill="#FFFFFF" stroke="#8B8BA2" stroke-width="2" stroke-miterlimit="10" points="85.7,463.8 
		67.9,529.9 49.2,543.1 58.7,445.8 	"/>
	
		<ellipse transform="matrix(-0.715 0.6991 -0.6991 -0.715 484.9518 882.4014)" display="inline" fill="#FFFFFF" stroke="#8B8BA2" stroke-width="2" stroke-miterlimit="10" cx="62.6" cy="540" rx="14.1" ry="15.5"/>
	<path display="inline" fill="#FFFFFF" stroke="#8B8BA2" stroke-width="2" stroke-miterlimit="10" d="M759.2,494.5l31.7-4.4l1-72.4
		c0.3-0.4,0.7-0.7,1-1.1c6.6-8.4,5.2-20.5-3.1-27.1c-8.4-6.6-20.5-5.2-27.1,3.1c-2.2,2.8-3.5,6.1-4,9.4l0,0l0,0.2
		c-0.2,1.7-0.2,3.3,0,5L759.2,494.5z"/>
	<polygon display="inline" fill="#FFFFFF" stroke="#8B8BA2" stroke-width="2" stroke-miterlimit="10" points="790.9,490.1 
		784,584.4 770,596.1 758.6,490 	"/>
	
		<ellipse transform="matrix(-1 9.866467e-003 -9.866467e-003 -1 1561.3153 1194.3873)" display="inline" fill="#FFFFFF" stroke="#8B8BA2" stroke-width="2" stroke-miterlimit="10" cx="777.7" cy="601" rx="12.3" ry="18"/>
</g>
<g id="Layer_12" display="none">
	<g display="inline">
		<g>
			<path fill="#FFFFFF" d="M235.9,392.2c-1.1,0-2-0.9-2-2v-20.4c0-1.1,0.9-2,2-2h132.5c1.1,0,2,0.9,2,2v20.4c0,1.1-0.9,2-2,2H235.9z
				"/>
			<path fill="#000033" d="M368.4,368.8c0.5,0,1,0.5,1,1v20.4c0,0.5-0.5,1-1,1H235.9c-0.5,0-1-0.5-1-1v-20.4c0-0.5,0.5-1,1-1H368.4
				 M368.4,366.8H235.9c-1.7,0-3,1.4-3,3v20.4c0,1.6,1.3,3,3,3h132.5c1.6,0,3-1.4,3-3v-20.4C371.4,368.1,370.1,366.8,368.4,366.8
				L368.4,366.8z"/>
		</g>
		<g>
			<path fill="#000033" d="M260.9,388.7c-98.3,0-178,79.7-178,178s79.7,178,178,178s178-79.7,178-178S359.3,388.7,260.9,388.7z
				 M260.9,729.6c-90,0-162.9-72.9-162.9-162.9S171,403.8,260.9,403.8s162.9,72.9,162.9,162.9S350.9,729.6,260.9,729.6z"/>
			<circle fill="#000033" cx="260.9" cy="566.7" r="34.3"/>
			<path fill="#000033" d="M489.8,645.6c-25.6,0-46.3,20.7-46.3,46.3s20.7,46.3,46.3,46.3c25.6,0,46.3-20.7,46.3-46.3
				S515.4,645.6,489.8,645.6z M489.8,720.2c-15.6,0-28.3-12.7-28.3-28.3c0-15.6,12.7-28.3,28.3-28.3c15.6,0,28.3,12.7,28.3,28.3
				C518.2,707.5,505.5,720.2,489.8,720.2z"/>
			
				<path fill="none" stroke="#000033" stroke-width="22" stroke-linecap="round" stroke-linejoin="round" stroke-miterlimit="10" d="
				M218.1,264.9v212.6c0,0,204-48,245.2-3.4s27.4,178.3,27.4,178.3"/>
		</g>
	</g>
	<g display="inline">
		<g>
			<path fill="#000033" d="M644.2,744.4h-3.5c-8.3,0-15-6.8-15-15V410c0-8.3,6.8-15,15-15h3.5c8.3,0,15,6.8,15,15v319.5
				C659.2,737.7,652.4,744.4,644.2,744.4z"/>
			<path fill="#000033" d="M900.7,744.4h-3.5c-8.3,0-15-6.8-15-15V410c0-8.3,6.8-15,15-15h3.5c8.3,0,15,6.8,15,15v319.5
				C915.7,737.7,908.9,744.4,900.7,744.4z"/>
			<path fill="#8B8BA2" d="M867.1,497.8H674.2c-8.3,0-15-6.8-15-15v-210c0-8.3,6.8-15,15-15h192.9c8.3,0,15,6.8,15,15v210
				C882.1,491.1,875.4,497.8,867.1,497.8z"/>
			<path fill="#000033" d="M867.1,497.8H674.2c-8.3,0-15-6.8-15-15v-19.5c0-8.3,6.8-15,15-15h192.9c8.3,0,15,6.8,15,15v19.5
				C882.1,491.1,875.4,497.8,867.1,497.8z"/>
			<path fill="#8B8BA2" d="M734.2,683.9h-65c-5.5,0-10-4.5-10-10v-10c0-5.5,4.5-10,10-10h65c5.5,0,10,4.5,10,10v10
				C744.2,679.4,739.7,683.9,734.2,683.9z"/>
			<path fill="#8B8BA2" d="M872.1,683.9h-65c-5.5,0-10-4.5-10-10v-10c0-5.5,4.5-10,10-10h65c5.5,0,10,4.5,10,10v10
				C882.1,679.4,877.6,683.9,872.1,683.9z"/>
		</g>
		<g>
			<path fill="#FFFFFF" d="M665,429.3c-1.3,0-2.3-1.1-2.3-2.3v-34c0-0.6-0.4-1-1-1h-26c-1.3,0-2.3-1.1-2.3-2.3v-19.7
				c0-1.3,1.1-2.3,2.3-2.3h33.5c1.3,0,2.3,1.1,2.3,2.3v19.7c0,0,0,0.1,0,0.1l0,37.3c0,1.3-1.1,2.3-2.3,2.3H665z"/>
			<path fill="#000033" d="M669.1,368.5c0.7,0,1.3,0.6,1.3,1.3v19.6c0,0.1,0,0.1,0,0.2c0,0,0,0.1,0,0.1v37.2c0,0.7-0.6,1.3-1.3,1.3
				H665c-0.7,0-1.3-0.6-1.3-1.3v-34c0-1.1-0.9-2-2-2h-26c-0.7,0-1.3-0.6-1.3-1.3v-19.7c0-0.7,0.6-1.3,1.3-1.3H669.1 M669.1,366.5
				h-33.5c-1.8,0-3.3,1.5-3.3,3.3v19.7c0,1.8,1.5,3.3,3.3,3.3h26v34c0,1.8,1.5,3.3,3.3,3.3h4.1c1.8,0,3.3-1.5,3.3-3.3v-37.2
				c0-0.1,0-0.1,0-0.2v-19.7C672.4,368,670.9,366.5,669.1,366.5L669.1,366.5z"/>
		</g>
		<g>
			<path fill="#FFFFFF" d="M872.3,429.3c-1.3,0-2.3-1.1-2.3-2.3v-37.2c0,0,0-0.2,0-0.2l0-19.7c0-1.3,1.1-2.3,2.3-2.3h33.5
				c1.3,0,2.3,1.1,2.3,2.3v19.7c0,1.3-1.1,2.3-2.3,2.3h-26c-0.6,0-1,0.4-1,1v34c0,1.3-1.1,2.3-2.3,2.3H872.3z"/>
			<path fill="#000033" d="M905.7,368.5c0.7,0,1.3,0.6,1.3,1.3v19.7c0,0.7-0.6,1.3-1.3,1.3h-26c-1.1,0-2,0.9-2,2v34
				c0,0.7-0.6,1.3-1.3,1.3h-4.1c-0.7,0-1.3-0.6-1.3-1.3v-37.2c0,0,0-0.1,0-0.1c0-0.1,0-0.1,0-0.2v-19.6c0-0.7,0.6-1.3,1.3-1.3H905.7
				 M905.7,366.5h-33.5c-1.8,0-3.3,1.5-3.3,3.3v19.7c0,0.1,0,0.1,0,0.2v37.2c0,1.8,1.5,3.3,3.3,3.3h4.1c1.8,0,3.3-1.5,3.3-3.3v-34
				h26c1.8,0,3.3-1.5,3.3-3.3v-19.7C909.1,368,907.6,366.5,905.7,366.5L905.7,366.5z"/>
		</g>
	</g>
</g>
</svg>
