<svg id="Layer_1" data-name="Layer 1" xmlns="http://www.w3.org/2000/svg" viewBox="0 0 359.52 366.49"><defs><style>.cls-1{fill:#ed1c24;}.cls-2{fill:#fddd07;}.cls-3{fill:#fff;}</style></defs><title>Posture</title><rect class="cls-1" y="1.47" width="359.52" height="359.52"/><rect class="cls-2" x="191.25" y="288.74" width="47.6" height="247.28" transform="translate(536.02 61.75) rotate(90)"/><rect class="cls-2" y="1.47" width="47.6" height="299.13"/><rect class="cls-2" x="225.48" y="253.01" width="47.6" height="108.03"/><path class="cls-3" d="M287.75,135.57c-.45,12.33,1.33,36.24-2.66,53-6.36,26.68-14,52.56-9.26,77.89,3.18,16.91,7.64,29.28,11.75,31.5L364,315.44c62.58,3.88,71.11,33.41,71,53.34,0,0-1.32,71.69-4.81,87.33-1.5,6.73-3.65,28.77-4.77,45.95H377.27l-1.51-31.9c-25.62-62.17-3-87.78-8.21-85.76-22.94,8.9-78.26,4.45-112.67,2.5-41.66,2.25-43.29,4.82-54.61,1.86L165,379.17c-31.8-20.69-35.8-69.76-15.66-105.56A474.55,474.55,0,0,1,137.06,209c-4.5-37.14,7.13-72.49,7.13-72.49.08-.29.15-.58.23-.89Z" transform="translate(-91.41 -135.57)"/></svg>