<svg id="Layer_1" data-name="Layer 1" xmlns="http://www.w3.org/2000/svg" viewBox="0 0 408.05 408.05"><defs><style>.cls-1{fill:#fddd07;}.cls-2{fill:#231f20;stroke:#000;stroke-miterlimit:10;}.cls-3{fill:#ed1c24;}.cls-4{fill:#fff;}</style></defs><title>Push</title><rect class="cls-1" x="0.5" y="0.5" width="407.05" height="407.05"/><path class="cls-2" d="M488.1,299.31c-116.66,23.4-221.35,77.46-306.26,169.14H81.05V358.5C192.68,243,336.53,171,488.1,146.86Z" transform="translate(-80.55 -60.9)"/><path class="cls-3" d="M81.05,449.41C187.7,321,333.22,234.65,488.1,207.11V177.19c-154.88,27.54-300.4,108.05-407,236.47Z" transform="translate(-80.55 -60.9)"/><path class="cls-4" d="M283.05,334.1a19.88,19.88,0,0,1-7.53-1.51l-.42-.17c-13.26-5.34-48.48-19.53-67.81-36.34-9-7.79-40.59-42.89-48.5-67.42-.95-2.94-4.47-6.23-8.19-9.7a75.09,75.09,0,0,1-8.43-8.78,28.53,28.53,0,0,1-3.94-7.93c-1.22-3.27-2.47-6.64-5.32-9.76-21.43-23.5-48.22-47.12-52-49.92l-.1-.07V61.15H189.72l.07.05c3.91,2.89,14.25,15.56,25.2,29,12.64,15.48,27,33,32.45,36.64,10.21,6.69,32.65,11.2,46.07,13.89l5.22,1.06c1.92.4,4.55.69,7.88,1.06,20.29,2.23,62.51,6.88,102.46,53.17l.25.28-38.72,13-.09-.06c-.26-.14-25.6-14.56-29-14.56a.34.34,0,0,0-.18,0c0,.36,1.34,2.38,15.41,12.59,28,15.22,48.09,32.87,53.74,47.2a19.66,19.66,0,0,1-.72,16.75,14.4,14.4,0,0,1-9.73,7.44c-13.33,2.48-14.94,8.12-16.65,14.1-1.38,4.83-2.81,9.83-10.32,13.54-3.93,1.94-8.08,2.23-12.48,2.54-6.73.47-13.7.95-19.87,7.9-9.13,10.27-19.89,11.46-27.19,11.46-2.24,0-4.31-.12-6.41-.25-.27,0-.54,0-.8,0-3.5,0-6.88,1.39-10.46,2.86C291.85,332.41,287.75,334.1,283.05,334.1Z" transform="translate(-80.55 -60.9)"/><path class="cls-4" d="M189.64,61.4c8.48,6.26,47.49,59,57.67,65.63,11.66,7.65,38.69,12.34,51.37,15,13.58,2.83,63.7.26,110.2,54.14L370.63,209s-25.62-14.6-29.16-14.6c-1.69,0,1.62,3.31,15.08,13.07,27.55,15,48,32.79,53.65,47.09,4.55,11.53-1.78,22.27-10.26,23.85-24.16,4.5-10.28,19.39-27,27.67-10.06,5-22.25-1-32.43,10.49-8.62,9.7-18.67,11.38-27,11.38-2.29,0-4.44-.13-6.4-.25-.27,0-.54,0-.81,0-7.43,0-14.32,6.18-23.22,6.18a19.78,19.78,0,0,1-7.44-1.49C262.34,327,227,312.85,207.45,295.89c-8.79-7.64-40.46-42.62-48.43-67.31-1.69-5.26-11-11.19-16.66-18.55-4.15-5.4-4-11.94-9.26-17.71-21.26-23.3-48.06-47-52-49.95v-81H189.64m.17-.5H80.55v81.72l.2.15c3.79,2.8,30.55,26.4,52,49.88,2.81,3.09,4.06,6.44,5.27,9.69a29.08,29.08,0,0,0,4,8,74.86,74.86,0,0,0,8.46,8.81c3.7,3.45,7.19,6.72,8.12,9.6,7.93,24.58,39.6,59.72,48.57,67.53,19.37,16.84,54.61,31,67.88,36.38l.42.17a20.06,20.06,0,0,0,7.63,1.53c4.75,0,8.87-1.7,12.86-3.34,3.55-1.46,6.91-2.84,10.36-2.84.26,0,.52,0,.78,0,2.11.13,4.18.25,6.43.25,7.35,0,18.18-1.2,27.38-11.55,6.1-6.87,13-7.35,19.7-7.81,4.22-.3,8.59-.6,12.57-2.57,7.61-3.75,9.05-8.81,10.45-13.69,1.69-5.9,3.28-11.47,16.45-13.93a14.58,14.58,0,0,0,9.91-7.56,19.88,19.88,0,0,0,.73-17C405,240,384.88,222.29,356.82,207c-11.72-8.5-14.52-11.24-15.12-12.12,3.49.49,21.76,10.57,28.68,14.51l.2.11.21-.07L409,196.64l.71-.24-.49-.56c-40-46.37-82.3-51-102.63-53.26-3.32-.36-5.94-.65-7.85-1.05l-5.22-1.06c-13.4-2.69-35.82-7.19-46-13.86C242.13,123,227.82,105.49,215.19,90c-11-13.43-21.32-26.12-25.25-29l-.13-.1Z" transform="translate(-80.55 -60.9)"/><path class="cls-4" d="M398.33,230s12.82,5.32,21.33,2.81,5.61-11.13,5.61-11.13Z" transform="translate(-80.55 -60.9)"/></svg>