<svg id="Layer_1" data-name="Layer 1" xmlns="http://www.w3.org/2000/svg" viewBox="0 0 359.52 359.52"><defs><style>.cls-1{fill:#ed1c24;}.cls-2,.cls-4{fill:none;}.cls-3{fill:#fddd07;}.cls-4{stroke:#231f20;stroke-miterlimit:10;stroke-width:6px;}.cls-5{fill:#231f20;}</style></defs><title>Safety</title><rect class="cls-1" width="359.52" height="359.52"/><line class="cls-2" y1="179.76" x2="359.52" y2="179.76"/><line class="cls-2" x1="179.76" x2="179.76" y2="359.52"/><rect class="cls-3" x="149.21" y="194.66" width="243.38" height="243.38" transform="translate(-235.76 147.17) rotate(-45)"/><rect class="cls-4" x="167.46" y="212.91" width="206.87" height="206.87" transform="translate(-235.76 147.17) rotate(-45)"/><path class="cls-5" d="M288.82,333q-1.24,12.36-11.62,12.36h-9.64q-10.38,0-11.62-12.36l-7.67-79.62q-.74-7.65-.74-9.89,0-16.8,24.73-16.81T297,243.49c0,3.14-.16,6.43-.49,9.89ZM272,400.25a22.32,22.32,0,0,1-16.32-6.92,23.3,23.3,0,0,1,0-33.14A22.32,22.32,0,0,1,272,353.27a23.49,23.49,0,0,1,0,47Z" transform="translate(-91.41 -137.04)"/></svg>