<svg xmlns="http://www.w3.org/2000/svg" xmlns:xlink="http://www.w3.org/1999/xlink" version="1.1" id="Layer_1" x="0px" y="0px" viewBox="0 0 600 600" enable-background="new 0 0 600 600" xml:space="preserve"  width="100%" height="100%"><rect id="svgEditorBackground" x="0" y="0" width="600" height="600" style="stroke: none; fill: none;"/>
<g>
	<path fill="yellow" stroke="black" stroke-width="4" d="M542.5,480.6l-223.60000000000002,-416.3c-10.300000000000011,-19.1,-27,-19.1,-37.30000000000001,0l-223.69999999999996,416.3c-10.300000000000004,19.100000000000023,-29.3,69.39999999999998,0,69.39999999999998s456.4,0,484.6,0c28.299999999999955,0,10.299999999999955,-50.30000000000001,0,-69.39999999999998ZM329.7,513.4h-59.30000000000001v-57.10000000000002h59.30000000000001v57.10000000000002ZM329.7,393.6h-59.30000000000001v-213.64878048780514h59.30000000000001v213.64878048780514Z"/>
</g>
<rect x="271.545" y="178.862" stroke="black" id="e2_rectangle" style="stroke-width: 1px; vector-effect: non-scaling-stroke;" width="59.3491" height="213.819" fill="black" rx="0" ry="0" /><rect x="269.919" y="456.098" stroke="black" id="e3_rectangle" style="stroke-width: 1px; vector-effect: non-scaling-stroke;" width="60.1622" height="57.7234" fill="black"  rx="0" ry="0"/></svg>