<?xml version="1.0" encoding="utf-8"?>
<!-- Generator: Adobe Illustrator 21.1.0, SVG Export Plug-In . SVG Version: 6.00 Build 0)  -->
<svg version="1.1" id="Layer_1" xmlns="http://www.w3.org/2000/svg" xmlns:xlink="http://www.w3.org/1999/xlink" x="0px" y="0px" viewBox="0 0 720 720" style="enable-background:new 0 0 720 720;" xml:space="preserve">
	<style type="text/css">
		.st0{stroke:#FFFFFF;stroke-width:4.3168;stroke-miterlimit:10; fill: lightgrey}
		.st1{stroke:#FFFFFF;stroke-width:6.6856;stroke-miterlimit:10; fill: lightgrey}
		.st2{fill:none;stroke:#FFFFFF;stroke-width:7.76;stroke-miterlimit:10;}
		.selected { fill: #D72328 }
		.selected2 {stroke: #D72328}

	</style>
	<path class="st0 footrest" d="M672.9,517.6h-92.1c-11.9,0-21.6-9.7-21.6-21.6v0c0-11.9,9.7-21.6,21.6-21.6h92.1c11.9,0,21.6,9.7,21.6,21.6v0
		C694.4,507.8,684.7,517.6,672.9,517.6z"/>

	<path class="st0 frame" d="M601.4,565.2l-20.2-2.5l10-40.9c0,0,1-8.3,1.2-18c0.2-9.8-9.8-29-9.8-29l-94.9-128.9c0,0-5.4-9.7-11.6-16.1
		c-6.3-6.5-11.2-7.5-11.2-7.5l-179.1-2.7c0,0-28.6,1.8-43.8-13.9c-15.2-15.6-20.4-45.8-20.4-45.8l-37.9-160
		c-2.4-10.2,3.9-20.5,14.2-23l0,0c10.3-2.4,20.5,3.9,23,14.2l38.2,161.4c0,0,0.9,12.6,10.3,22.3c9.4,9.7,15.5,6.6,15.5,6.6
		l186.4,2.8c0,0,15-0.7,27,11.6c12,12.3,16.3,21.2,16.3,21.2l96.3,131.8l11.9,25.1c0,0,5.7,21.6,5.3,46.1c-0.2,10.7-4.7,33-9.8,54.7
		L601.4,565.2z"/>

	<path class="st0 cushion" d="M522.6,258.2c0.2-14.7-11.5-26.8-26.3-27.1l-184-2.8c-14.7-0.2-26.8,11.5-27.1,26.3l0,0
		c-0.2,14.7,11.5,26.8,26.2,27.1l184,2.8C510.3,284.7,522.4,273,522.6,258.2L522.6,258.2z"/>

	<path class="st0 backrest" d="M236.7,41.7c-14.3,3.5-23.1,17.9-19.7,32.2l30.8,129.8c3.5,14.3,17.9,23.1,32.2,19.6l0,0
		c14.3-3.4,23.1-17.9,19.7-32.2L268.9,61.4C265.4,47.1,251,38.3,236.7,41.7L236.7,41.7z"/>

	<g class="power-add-on">
		<path class="st0" d="M293.7,425.2c-13.4,6.1-19.4,21.9-13.3,35.3l54.3,121.8c6.1,13.4,21.8,19.4,35.3,13.3l0,0
			c13.4-6,19.4-21.8,13.4-35.3l-54.3-121.9C322.9,425.2,307.1,419.2,293.7,425.2L293.7,425.2z"/>
		<path class="st1" d="M371.2,503.8c46,0,83.3,37.3,83.3,83.2c0,46-37.3,83.2-83.3,83.2c-46,0-83.2-37.3-83.2-83.2
			C287.9,541,325.2,503.8,371.2,503.8z M323.2,587c0,26.5,21.5,47.9,47.9,47.9c26.5,0,48-21.5,48-47.9c0-26.5-21.5-47.9-48-47.9
			C344.7,539.1,323.2,560.5,323.2,587z"/>
	</g>

	<g class="wheels">
		<path class="st0" d="M282,156.8c141.4,0,256,114.6,256,256c0,141.4-114.6,256-256,256c-141.4,0-256-114.6-256-256
			C26,271.4,140.6,156.8,282,156.8z M77.2,412.8c0,113.1,91.7,204.8,204.8,204.8c113.1,0,204.8-91.7,204.8-204.8
			C486.7,299.7,395,208,282,208C168.9,208,77.2,299.7,77.2,412.8z"/>
		<path class="st0" d="M584.8,562.7c29.7,0,53.8,24.1,53.8,53.7c0,29.7-24.1,53.7-53.8,53.7c-29.7,0-53.7-24.1-53.7-53.7
			C531,586.8,555.1,562.7,584.8,562.7z M553.8,616.5c0,17.1,13.9,31,30.9,31c17.1,0,31-13.9,31-31c0-17.1-13.9-31-31-31
			C567.7,585.5,553.8,599.4,553.8,616.5z"/>
	</g>
	<circle class="st0" cx="282" cy="412.8" r="58"/>

	<path class="st2" d="M282.9,178.2c129.6,0,234.6,105,234.6,234.6c0,129.6-105,234.6-234.6,234.6c-129.6,0-234.6-105-234.6-234.6
		C48.2,283.2,153.3,178.2,282.9,178.2z"/>

</svg>
