<?xml version="1.0" encoding="utf-8"?>
<!-- Generator: Adobe Illustrator 18.1.1, SVG Export Plug-In . SVG Version: 6.00 Build 0)  -->
<svg version="1.1" xmlns="http://www.w3.org/2000/svg" xmlns:xlink="http://www.w3.org/1999/xlink" x="0px" y="0px"
	 viewBox="0 0 1000 1000" enable-background="new 0 0 1000 1000" xml:space="preserve">
<g id="Layer_2" display="none">
	<g id="Layer_7" display="inline">
		
			<image overflow="visible" enable-background="new    " width="1440" height="1440" xlink:href="../../../../../../../Desktop/9880.jpg"  transform="matrix(0.6945 0 0 0.6945 0 0)">
		</image>
	</g>
</g>
<g id="Layer_3_1_" display="none">
	<rect display="inline" fill="#000033" width="1000" height="1000"/>
</g>
<g id="Layer_1">
	<g>
		<path d="M268.7,846.8c-9.1,0-15.8-3.3-16.1-3.4c-0.6-0.3-0.9-0.9-0.8-1.5l3.1-25.3c0.1-0.8,0.7-1.3,1.5-1.3h26.1l230-45.7v-32.1
			l-88.3-4.5c-1,0.3-4.5,1.1-9.5,1.1c-2.1,0-4.2-0.2-6.3-0.5c-2.6-0.4-4.5-1.6-5.6-3.5c-2.3-4.2,0.3-10.3,0.4-10.5
			c0.2-0.5,0.6-0.8,1.1-0.9l20-3.3c0.1,0,0.2,0,0.2,0c0.3,0,0.7,0.1,0.9,0.3c0.3,0.3,0.5,0.6,0.6,1.1l0.5,7l73-15.6l98.9-21.3
			l114.1-29.1l0.8-3.6c0.1-0.6,0.6-1,1.2-1.1l15.8-3.4c0.1,0,0.2,0,0.3,0c0.4,0,0.8,0.2,1.1,0.4c0.2,0.2,3.9,4,0.1,11
			c-3.4,6.2-13.9,7.7-15.6,7.9l-154.9,65.1l-0.6,35.1l233.9,40.4c0,0,29.9-0.7,29.9-0.7c0.6,0,1.1,0.3,1.3,0.8
			c0.3,0.5,6.6,12.4,4,20.1c-0.8,2.4-2.4,4.2-4.7,5.3c-4.1,1.9-10.2,2.9-18.1,2.9c-6.5,0-11.9-0.7-12.6-0.8l-153.9-3.3
			c-0.1,0-0.1,0-0.2,0L544,816.9l-111.7,19.3c-0.1,0-0.2,0-0.3,0c-1.3,0-133.2,0.1-148,7.2C279.3,845.6,274.1,846.8,268.7,846.8z"/>
		<path fill="#FFFFFF" d="M730.8,650.8c0,0,3.2,3.2-0.2,9.2c-3.3,6-14.7,7.1-14.7,7.1l-156,65.5l-0.7,37.3l235.3,40.7l30-0.7
			c0,0,10,18.7,0,23.3c-4.7,2.2-11.5,2.8-17.5,2.8c-6.8,0-12.5-0.8-12.5-0.8l-154-3.3L544,815.3l-112,19.3c0,0-133.3,0-148.7,7.3
			c-5.1,2.4-10.1,3.3-14.6,3.3c-8.9,0-15.4-3.3-15.4-3.3l3.1-25.3h26.2l231.3-46v-34.8l-90-4.6c0,0-3.8,1.1-9.3,1.1
			c-1.8,0-3.9-0.1-6.1-0.5c-8.7-1.3-4-12-4-12l20-3.3l0.7,8.7l74.7-16l98.9-21.3L714,658.7l1-4.5L730.8,650.8 M730.8,647.8
			c-0.2,0-0.4,0-0.6,0.1l-15.8,3.4c-1.1,0.2-2,1.1-2.3,2.3l-0.6,2.7l-113.2,28.9l-98.9,21.3l-71.3,15.3l-0.4-5.2
			c-0.1-0.8-0.5-1.6-1.1-2.1c-0.5-0.4-1.2-0.6-1.8-0.6c-0.2,0-0.3,0-0.5,0l-20,3.3c-1,0.2-1.8,0.8-2.3,1.8c-0.3,0.7-3,7.1-0.4,11.9
			c0.9,1.6,2.8,3.7,6.7,4.3c2.1,0.3,4.3,0.5,6.5,0.5c4.7,0,8.3-0.8,9.6-1.1l86.7,4.4v29.4l-228.6,45.5h-25.9c-1.5,0-2.8,1.1-3,2.6
			l-3.1,25.3c-0.2,1.3,0.5,2.5,1.6,3.1c0.3,0.1,7.3,3.6,16.7,3.6c5.6,0,11-1.2,15.9-3.6c12.1-5.8,110.5-7,147.4-7c0.2,0,0.3,0,0.5,0
			L544,818.4l96.2,16.6c0.1,0,0.3,0,0.4,0l153.8,3.3c1,0.1,6.4,0.8,12.7,0.8c8.1,0,14.4-1,18.8-3c2.7-1.2,4.5-3.4,5.5-6.2
			c2.7-8.2-3.4-20-4.1-21.3c-0.5-1-1.5-1.6-2.6-1.6c0,0,0,0-0.1,0l-29.7,0.7l-232.5-40.2l0.6-32.8l153.8-64.6
			c2.6-0.3,12.8-2,16.5-8.6c3.5-6.3,1.4-11-0.3-12.7C732.4,648.1,731.6,647.8,730.8,647.8L730.8,647.8z"/>
	</g>
	<g>
		<g>
			<polygon points="155.9,416.4 142.7,375.8 151,364.6 169.3,417.9 			"/>
			<path fill="#FFFFFF" d="M150.8,365.6l17.7,51.7l-12.3-1.4l-13-40.1L150.8,365.6 M151.2,363.5l-9,12.2l13.3,41.2l14.5,1.7
				L151.2,363.5L151.2,363.5z"/>
		</g>
		<g>
			<polygon points="155.3,374.1 169.7,371.9 182.6,405.3 166.8,407.8 			"/>
			<path fill="#FFFFFF" d="M169.4,372.4l12.6,32.4l-14.8,2.3L156,374.5L169.4,372.4 M170,371.3l-15.3,2.3l11.8,34.7l16.8-2.7
				L170,371.3L170,371.3z"/>
		</g>
	</g>
	<g>
		<g>
			<polygon points="297,399 283.9,358.4 292,347.2 310.4,400.6 			"/>
			<path fill="#FFFFFF" d="M291.8,348.3l17.9,51.7l-12.3-1.4l-13-40.1L291.8,348.3 M292.2,346.2l-8.8,12.2l13.3,41.2l14.5,1.7
				L292.2,346.2L292.2,346.2z"/>
		</g>
		<g>
			<polygon points="296.3,356.7 310.8,354.4 323.8,387.9 308,390.4 			"/>
			<path fill="#FFFFFF" d="M310.5,354.9l12.6,32.6l-14.8,2.3L297,357.1L310.5,354.9 M311.2,353.8l-15.5,2.5l12,34.7l16.8-2.7
				L311.2,353.8L311.2,353.8z"/>
		</g>
	</g>
	<g>
		<path d="M303.8,597.8c-1.3,0-2-0.1-2.4-0.2c-18.8-5.5-103.7-146-111.8-162.1c-3.1-6.2-11.2-11.7-18.4-16.5
			c-4.6-3.1-11.6-7.8-11.5-9.8c0-0.2,0.4-0.7,1.8-1.5c12.8-6.4,220.3-34.1,268.3-34.1c2.1,0,3.9,0.1,5.4,0.2
			c29.7,2.2,66.6,13.2,88.5,79.6c15.5,46.8,22.1,67.1,22.1,71.2c-0.7,0.2-2.7,0.9-7.3,2.5C406.3,572.7,322.9,597.8,303.8,597.8z"/>
		<path fill="#FFFFFF" d="M429.8,376.2c2.1,0,3.8,0.1,5.2,0.2c12.8,0.9,27.8,3.3,42.9,13.3c18.7,12.4,33.3,34.1,43.3,64.6
			c13.3,40.1,20.4,61.9,21.7,68.7c-1.1,0.4-2.8,1-5.4,1.9c-178,61.3-222.9,70.5-233.8,70.5c-1.2,0-1.7-0.1-1.7-0.1
			c-1.9-0.6-13.7-6.9-59.1-76.9c-24.4-37.7-47.8-77.3-51.1-83.9c-3.4-6.8-11.8-12.5-19.2-17.5c-3.1-2.1-7.6-5.1-9.6-7.1
			c6.5-2.6,52.1-10.2,119.3-19C336.7,383.7,404,376.2,429.8,376.2C429.8,376.2,429.8,376.2,429.8,376.2 M429.8,371.2
			c-49.1,0-256.3,27.8-269.4,34.3c-13.6,6.8,20.3,17.8,27,31.1C194,449.9,280,594,300.7,600c0.8,0.2,1.8,0.3,3.1,0.3
			c33.7,0,239.7-72.4,242.9-73.3c3.3-1,3.3-1.7-20.7-74.4c-24-72.7-66.6-79.6-90.7-81.3C433.8,371.2,431.9,371.2,429.8,371.2
			L429.8,371.2z"/>
	</g>
	<path stroke="#FFFFFF" stroke-width="5" stroke-linecap="round" stroke-linejoin="round" stroke-miterlimit="10" d="M792.7,394.7
		c4.7,0,8.5,21.7,6.8,27.7c-1.4,5-9.1,0.7-16.1,13c-4.6,8.1,1.1,31.1-11,47.2S718,516.2,706,518.3c-12,2.2-140.6,11.1-150,8.7
		c-16.4-4.1-36.3-47.4-36.7-75C518.9,416,753.3,394.7,792.7,394.7z"/>
	<path stroke="#FFFFFF" stroke-width="5" stroke-linecap="round" stroke-linejoin="round" stroke-miterlimit="10" d="M792.7,394.7
		c4.5-1.2,8.5,21.7,6.8,27.7c-1.4,5-9.1,0.7-16.1,13c-4.6,8.1,1.1,31.1-11,47.2S718,516.2,706,518.3c-12,2.2-74.6,11.5-84,9.1
		c-16.4-4.1,123.3-27.4,133-53.1C767.7,440.6,751.7,405.3,792.7,394.7z"/>
	<g id="Layer_5" display="none">
		<g display="inline">
			<path d="M805.8,561.2c-102-13.5-170.3,6.8-222.8,11.3c6-10.7,9.3-22.8,9.3-36c0-13-3.3-25.2-9.3-35.8c5.5-2,11.7-3.5,18.5-4.2
				c42.2-3.8,195-0.7,219.3-135.5C845.2,226.2,674,83.8,517.2,77C411.5,72.3,348,161.5,395.5,276.3C434.7,371,486,420,516.3,462.8
				c-25.8,0.8-48.2,14.7-60.8,35.3c-4.7-3.8-9.2-8.5-13.3-14.3c-24.3-34.7-98.2-168.5-227-122.2C86.3,408.2,48.5,627.5,121,766.8
				c48.8,94,157.8,104.3,233.5,5.7c62.2-81,79-149.8,101-197.5c12.8,21,36,35.2,62.3,35.5c-1,6.2-2.7,12.5-5.8,19.2
				c-17.8,38.5-97,169.2,7.7,257.7s313.5,11.3,398-121C974.5,677,929.2,577.5,805.8,561.2z"/>
		</g>
	</g>
	<g id="Layer_6" display="none">
		<g display="inline">
			<path fill="#FFFFFF" d="M281.8,830.2c36-29.7,60-65.5,71.5-106.7c7.2-25.8,10.3-52.7,13.2-76.3c4-33,7.5-61.7,19.5-76.8
				c40-50.2,58.5-57.7,65.8-57.7c1,0,2-0.7,2.3-1.5c10.7-26.7,36.2-44,64.8-44.3c1,0,1.8-0.5,2.2-1.3c0.3-0.8,0.3-1.8-0.3-2.7
				c-9.2-12-19.5-25.7-33.8-43.7C375.5,278.8,375.7,214.3,382,183c7.7,46,26.7,84.7,56.7,115.2c18.8,19,40.5,35.3,59.5,49.7
				c26.7,20,49.7,37.2,56.7,55.3c21.7,55.2,21.5,76.7,17.5,85c-0.5,0.8-0.3,2,0.3,2.7c11.3,12.8,17.5,29.3,17.5,46.5
				c0,12.3-3.3,24.7-9.5,35.3c-0.5,0.8-0.5,1.8,0,2.7c0.5,0.7,1.3,1.2,2.2,1.2c0.2,0,0.2,0,0.3,0c13.8-1.7,30.8-4,53.5-7.3
				c44.3-6.7,84.2-10,118.3-10c87,0,121,21.2,138.7,37.2c-14.8-5.7-43.2-14.8-78.3-14.8c-16.8,0-33.7,2.2-49.7,6.3
				c-25.8,6.7-50.8,17.3-72.8,26.7c-27.5,11.8-51.3,21.8-69.8,21.8l0,0c-2.2,0-4.3-0.2-6.3-0.5c-59.3-8.8-77.7-20-82.7-27.8
				c-0.5-0.7-1.3-1.2-2.2-1.2c-0.2,0-0.3,0-0.3,0c-4,0.7-8,1-11.8,1c-25.5,0-49-13.8-61.7-36c-0.5-0.8-1.3-1.3-2.2-1.3h-0.2
				c-1,0-1.8,0.7-2.2,1.5c-5.2,12.5-11.7,28-20,48.8C368.2,788,312.2,820.2,281.8,830.2z M519.8,498.8c-21.2,0-38.5,17.2-38.5,38.5
				c0,21.2,17.2,38.5,38.5,38.5c21.2,0,38.5-17.2,38.5-38.5C558.3,516.2,541,498.8,519.8,498.8z"/>
			<path d="M382.7,197.8c9,40.2,27.3,74.3,54.5,102c18.8,19.2,40.7,35.5,59.8,49.8c26.3,19.8,49,36.8,55.8,54.3
				c22.5,57.2,20.7,76.7,17.5,83c-0.8,1.8-0.5,4,0.7,5.5c10.8,12.5,16.8,28.3,16.8,44.8c0,12-3.2,23.7-9.2,34
				c-1,1.7-0.8,3.7,0.2,5.3c1,1.3,2.5,2.2,4.2,2.2c0.2,0,0.3,0,0.7,0c14.5-1.8,31-4,53.5-7.3c44.3-6.7,84-10,117.8-10
				c43.8,0,79.2,5.5,105.2,16.5c8.2,3.5,14.7,7.2,20.2,10.7c-16-5-38.7-10-65-10c-17.2,0-34,2.2-50.3,6.3c-26,6.8-51,17.5-73.2,26.8
				c-27.3,11.7-50.8,21.7-69,21.7c-2.2,0-4.2-0.2-6-0.5c-61.5-9.2-77.2-20.7-80.8-26.7c-1-1.5-2.5-2.3-4.2-2.3c-0.3,0-0.5,0-0.8,0
				c-3.8,0.7-7.7,1-11.3,1c-24.5,0-47.3-13.3-59.3-34.7c-0.8-1.5-2.5-2.5-4.3-2.5c-0.2,0-0.2,0-0.3,0c-1.8,0.2-3.5,1.3-4.3,3
				c-5.2,12.5-11.7,28-20,49c-31.8,80.8-65.2,139.3-98.8,173.5c-14.5,14.8-27.3,23.3-38,28.5c30.3-28,50.8-60.8,61-98.2
				c7.2-26,10.3-53,13.3-76.7c4-32.7,7.3-60.8,19-75.5c39.3-49.3,57-56.8,64-56.8c2,0,3.8-1.2,4.7-3.2
				c10.3-25.7,34.8-42.5,62.5-42.8c1.8,0,3.7-1.2,4.5-2.8c0.8-1.7,0.7-3.7-0.5-5.2c-9.2-12-19.5-25.7-33.8-43.7
				c-54.2-68-88-126-100.8-172.3C382.8,225.2,381.8,209.8,382.7,197.8 M519.8,578.3c22.5,0,41-18.3,41-41s-18.3-41-41-41
				s-41,18.3-41,41S497.3,578.3,519.8,578.3 M382.8,170.5c0,0-0.2,0-0.2,0.3c-7.3,27-25.7,88.5,102.7,249.8
				c15.2,19.2,26,33.2,33.8,43.7c-30.5,0.3-56.5,19.2-67.2,45.8c-11.3,0-32,13.5-67.8,58.7C362.5,596,367.8,661.7,351,723
				c-21.2,76.8-82.5,113.2-80,113.2h0.2c27-7.2,89.5-22,165-213.7c8.5-21.3,15-37,20-48.8c12.5,22.2,36.3,37.3,63.8,37.3
				c4.2,0,8.2-0.3,12.2-1c6.2,9.7,28.5,20.5,84.3,28.8c2.2,0.3,4.5,0.5,6.8,0.5c34.5,0,85.7-33.8,143.3-48.7
				c17.3-4.5,33.8-6.2,49.2-6.2c50.5,0,86.8,19,88.8,19c0.2,0,0.2-0.2,0-0.3c-15.2-15.2-44.5-46-149-46c-32,0-70.8,2.8-118.7,10
				c-23.5,3.5-40.7,5.7-53.5,7.3c6.2-10.8,9.8-23.2,9.8-36.5c0-18.5-6.8-35.3-18-48.2c5-10.5,3-35.2-17.3-87
				c-12.7-32.3-72.2-60.7-116.8-105.8C385.7,240.5,384.2,170.5,382.8,170.5L382.8,170.5z M519.8,573.3c-19.8,0-36-16.2-36-36
				s16.2-36,36-36s36,16.2,36,36S539.7,573.3,519.8,573.3L519.8,573.3z"/>
		</g>
	</g>
	<g id="Layer_4" display="none">
		<rect display="inline" fill="#000033" width="1000" height="1000"/>
	</g>
	<g id="Layer_3" display="none">
		<path display="inline" fill="#D6D6D4" d="M471.3,962c-0.2-1.2-1.2-1-2-1 M667.2,833c-2.7,2-5.8,1.2-7.5-2.3c2.2-0.3,8.7-0.2,9.7,0
			c4.3,0.8,10.8,1.5,13.8,1.8c1,0,1.3-0.7,1-1.7c0.5-0.2,0.8-0.3,1.3-0.3c10,0.2,19.8-0.7,29.8,0.3c0.7,0,1.5,0.3,1.7-0.5
			c0.2-1-0.5-1.2-1.2-1.3c-2.2-0.3-4.3-1.2-6.5-0.7c-4.5,1-6.8-1.2-8.7-4.8c-1-1.8-1.5-3.3,0.5-5.2c2-1.8,2.5-4.3,1-6.7
			c-1.3-2-5.2-3.3-1.7-6.5c0,0,0-0.2-0.2-0.3c-1.5-3.5,0.8-2.8,2.7-2.5c2.2,0.5,3.8-0.3,5.5-1.5c-3.5,0-6.7-2.2-10-2.3
			c-5.8-0.2-11.2-2.2-17-2.7c-7-0.5-14-1.8-21-3.3c-4.2-0.8-8.5-0.5-12.2-1.7c-5.2-1.7-10.5-2-15.8-3c-5.8-1-11.7-2.7-17.7-3
			c-5-0.3-9.5-2.2-14.5-2.7c-5.8-0.5-11.5-1.3-17.2-2.3c-3-0.5-3.3,0.8-3.3,2.7c0.2,3.7,0.5,7.3,5,8.7c0.8,0.3,2.2,0.3,2.5,1.7
			c-4.7-0.7-8.3-3.8-12.5-5.7c-2.7-1.2-4-5.8-2.3-8c0.2-0.3,0.8-0.3,1.3-0.3c0.8,0,1.7,0,2.5,0c0.7,0,1.5,0.2,1.7-0.7
			c0.2-1.2-1-1.3-1.7-1.3c-2.3-0.2-4.7-0.2-6.8-0.3c-1.7-0.2-3.5-1.3-4.7-0.2c-2.5,2-3.2,0.5-4-1.5c6.2-0.3,12.2,0.2,18.3,0.8
			c6.3,0.7,12.3,2.2,18.7,2.8c4.3,0.5,9.5-0.2,13.5,2.7c0.5,0.3,1.3,0.5,2,0.5c7.3,0.3,14.5,2.3,21.7,3.2c4.3,0.5,8.7,1,12.8,2
			c7,1.7,14.5,1,21.2,4.2c2.3,1.2,5.2,0.5,7.5,0.7c9.3,0.8,18.3,2.8,27.5,4.2c9,1.3,18.2,2.8,27.2,4.7c4.5,1,9,1.5,13.5,2.2
			c6.3,1,12.8,1.8,19.3,3c4.3,0.8,8.8,1.2,13.3,1.7c5.8,0.7,11.7,1,17.7,1.5c3.5,0.3,7,0,10.3-0.5c1.2-0.2,2-0.5,2.5,0.8
			c0.7,1.3,1.8,1.8,2.8,1.3c3.2-1.2,6.5-0.3,9.8-0.7c3.7-0.3,5.7,1.2,5.3,5c-0.3,5.2,2.2,9.8,1.7,15c0,0.7,0.7,6-7.5,9.5
			c0,0-21,0.3-28.8-2S667.2,833,667.2,833z M273.3,847.8c-5.3-0.3-9,0-10,0c-3.3,0-7.7-3.2-8.3-3.5c-3.5-1.7-2.7-4.5-2.5-7.7
			c0.3-5.7,1.8-11.2,2.3-16.7c0.2-2.3,1.3-3.3,3.5-3.3c7.3,0.2,14.7-0.8,22,0c2,0.2,4,0,5.5-1.5c0.5-0.3,1-0.5,1.5-0.2
			c0.5,0.3,0.8,1,0.3,1.5c-2.8,3.7-0.7,8-1.5,12c-0.7,3.2,0.2,6.7-0.7,10c-0.3,1.3-0.2,3,1.8,3c1.8,0.2,2.3-1.2,2.3-2.8
			c0-5.2,0-10.2,0-15.3c0-7.5,0.8-8,8-9c7.2-1.2,14.5-1.5,21.5-3.8c1.8-0.7,3.8-0.8,5.8-0.8c5.7-0.3,11.2-1.3,16.5-3.3
			c0.5-0.2,1.2-0.3,1.7-0.2c5.3,0.8,10.2-1.5,15.2-2.5c8.3-1.5,16.7-3,25-4.5c5.5-1,11-2.2,16.5-3.3c6.7-1.3,13.2-2.7,19.8-3.7
			c4.8-0.8,9.5-2.3,14.5-2.8c7.3-0.8,14.5-3,21.7-4.3c4.8-0.8,9.7-1.7,14.5-2.3c-0.3,2.3,0.7,3.2,2.7,2c3-1.7,7,0.7,9.5-2.7
			c4.3,1.3,8.3-1.5,12.5-1.7c1,0,1.8-0.2,2.5,0.7c1.7,2.2-1,4.5,0.5,6.8c0.3,0.5-1.3,1.5-2.2,1.8c-4,2.2-8.3,4.2-12.3,6.3
			c-16,8.8-71,36.8-87.3,45.2 M273.3,834c1.7,1.2,0.7,2.7,1,4.2c0.2,0.8,0,2,1.3,2c1,0.2,1.7-0.5,2.3-1.3c0.7-1,0.5-2,0.5-3
			c0.2-4.2-0.2-8.3,0.3-12.5c0.3-2.3-0.3-3.3-2.3-3.5c-2.2-0.3-2.7,1.2-2.8,3c-0.2,2.7,0.3,5.3-0.3,8c-2.3-2.8-0.5-6.2-1.2-9.2
			c-0.2-0.8,1.8-2.5-0.7-2.5c-1.7,0-1.5,1.3-1.5,2.7c0,7.2,0.2,14.3,0,21.5c0,1.7,0.8,2.8,2,2.7c3.2-0.5,6.2,2.8,9.2,0.3
			c0.3-0.3,0.5-0.8,0.7-1.2c1.7-3.2,1.8-6.8,2.3-10.3c0.5-4.2,0.5-8.3,0-12.5c-0.2-1.3-0.3-3.3-2.5-3.2c-2.2,0.2-1.3,2-1.3,3.3
			c-0.5,5.8-1,11.7-0.7,17.7c0.2,2.3-1.3,2.7-3.2,2.7c-1.8,0-3.7,0.2-3.7-2.3C273,838,272.3,835.8,273.3,834z M813.5,813.8
			c-1.8-1.7-3.7-2.8-5.3,0.2c-2.3-0.3-3,0.2-2.7,3c0.5,4.3,0,8.8-1.3,13.2c-0.7-4.2-1.5-8.3-1.2-12.5c0.3-3.5-0.8-4-3.7-3.8
			c0.3-1.3-0.2-2-1.7-2.2c-2.3-0.2-4.5,0-6,2.2c-0.7-1.3-1.3-2-3.2-1.5c-1.8,0.5-1.7,1.7-1.7,2.8c0,5,0,9.8,0,14.8
			c-0.2,3.8,0.5,4.8,4.5,5.2c3.5,1.3,7,3.7,10.5,3.5c6.2-0.3,12.2-0.2,18.3-0.3c4.3-0.2,7.5-4.8,6.2-9c-1.5-5.2-1.7-10.5-2.5-15.7
			c-0.3-1.5-1-2-2.3-2c-1.2,0.2-2.5,0.5-3.7,0.7c0,1.3,1.3,1.5,1.5,2.7c0.7,5.7,1.5,11.3,2,17.2c0.3,2.8-1,3.7-4.2,3
			c0.7-6.8-1.2-13.3-1.3-20.2C815.8,813.7,814.8,813.3,813.5,813.8z M256.3,830.2c0,3.2-0.7,5.3-1.7,7.5c-1.2,2.5-0.2,4,1.8,5.8
			c2.8,2.7,6,1.8,9.5,2c-0.8-1.5-2-2-3-2.3c-2.8-0.7-4-2.2-4.3-5.2C258.5,835.8,259.5,832.8,256.3,830.2z M266.5,820.8
			c0.8,6.8-1,13.2-0.5,19.5c0,0.7,0.5,1.2,1.2,1c1.2-0.2,1-1.2,1-2c0-5.3,0-10.8,0-16.2C268,822.7,268.3,821.7,266.5,820.8z
			 M722,833.8c0-0.2,0-0.3,0-0.5c-5.3-0.5-10.5-0.8-15.8-1.3c-0.7,0-1.7-0.2-1.7,0.7c-0.2,1.2,1,1,1.7,1
			C711.5,834,716.8,833.8,722,833.8z M784.8,835.5c-2.8-1.8-8.5-1.8-11.3-0.2C777.3,836.5,781,835.8,784.8,835.5z"/>
		<path display="inline" fill="#FFFFFF" d="M503.5,408.3c2.8,1.7,4.7,4,5.2,7.3c-1.7-0.3-1.7-2.7-4-2.8c1.2,2.2,2,3.8,3,5.7
			c4,7.7,8.3,15.2,11.7,23c0.5,1,1.3,2.5,0.2,3.2c-3.8,1.7-1.2,4.3-1,6.5c0,0.8,0.5,2,1.7,1.8c1-0.2,1.2-1.2,1.2-1.8
			c-0.2-2.3,1-3.8,2.5-5.3c0.8-1,1.2-2.3,0.8-3.5c0.5-0.2,1-0.2,1.3-0.5c3.2-3.7,7.3-5.5,12-7c5.2-1.5,9.5-4.8,14.8-6.3
			c5.2-1.5,10.5-2.8,15.7-3.7c7-1.2,13.8-3,21-4c4.8-0.7,9.7-1.2,14.3-2c4-0.8,8.3-1.3,12.3-2.2c5.7-1,11.3-1.8,17-2.5
			c6.7-0.8,13.2-1.7,19.7-3c5.7-1.2,11.7-1.3,17.3-2.5c7.2-1.5,14.5-1.7,21.7-3.2c4.8-1,9.8-0.8,14.7-1.7c11.2-1.8,22.3-4,33.7-5.3
			c11.8-1.3,23.7-3.8,35.7-3.8c4.5,0,9-0.5,13.5-0.5c4,0,5.8,1.5,6.7,5.5s3.5,7.3,3.5,11.5c0,3.3,1.3,6.3,2.3,9.3
			c0.8,2.7,0,4.3-2.5,5.3c-2,0.8-4,2-6.2,2.2c-5.2,0.5-7,4.2-8.3,8.2c-2.5,7.8-3.5,16-4.5,24.2c-0.7,5.2-1.3,10.5-3.5,15.3
			c-1,2.2-1.3,4.3-1.2,6.7c-2-0.5-3.2,0.2-4.3,2c-2.8,4.2-6.5,7.2-11.7,9c2.3-3.3,2.2-3.8,1.2-3.8c-3.5,0.2-1.2-2.2-1.3-3.3
			c-5.2,1.3-9.8,3.2-14.3,4.8c-10.3,3.8-20.7,6.8-31.3,9.5c-13.7,3.3-27.3,6.8-41,9.8c-13.5,3-26.5,7.5-40,10.5
			c-0.7,0.2-1.5,0.3-1.3,1.2c0.2,0.8,1,0.8,1.7,0.8c4,0,8,0.7,12,1.5c0.8,0.2,1.5,0.2,2.3,0c9.2-2.2,18.3-4.2,27.5-6.5
			c13.3-3.3,26.7-6.2,40-9.8c9.2-2.5,18.8-3.8,27.8-7.3c8.2-3.3,17-4,25.5-6.3c3.7-1,7.2-2.8,11-3.5c2.2-0.3,2.2-1.7,1.2-3.2
			c0.2,0,0.3,0,0.3,0c3.8,4.2,8,1.2,12.2,0.7c9.3-1.2,18.7-2.5,28-3.7c8.5-1.2,17-0.5,25.5-1c8.2-0.5,16.3,1.5,24.3,4
			c4.3,1.3,8.8,2.5,13,4.3c8.8,3.8,17,8.5,23.7,15.5c3.8,4,7.8,7.8,12.5,11.2c3.8,2.7,6.2,7.3,8.5,11.5c9.8,17.7,8.5,35.5,1.3,53.5
			c-0.3,0.7-0.7,0.8-1.3,0.8c-0.2-1.2,0.2-2,0.7-3c2.7-6.2,3.8-12.7,4.8-19.2c0.8-4.7-0.2-9.3-0.8-14c-0.7-5.5-2.7-10.2-4.8-15
			c-0.7-1.5-1.3-3.3-3-4.3c-0.2,0.3-0.5,0.5-0.5,0.7c0.3,2,0.3,4.2,1,6.2c3.7,10.3,3,21.2,0.7,31.3c-4.3,18.2-16.2,30-34.2,35.5
			c-6.7,2-13.5,3.7-20.2,5.8c-5.5,1.8-11.2,3.5-16.8,4.3c-11,1.7-21.8,4.5-32.8,6.2c-8.2,1.3-16.3,3.3-24.5,4.7
			c-5.2,0.8-10.5,0.8-15.7,2.3c-3.8,1.2-7.7,2.2-11.7,2.3c-7.2,0.3-14.2,2.7-21.5,1.5c-0.2,0-0.2,0-0.3,0
			c-8.3,1.5-16.5-0.7-24.8-0.5c-0.8,0-1.7-0.3-2.3-0.5c-4-1.3-8.2-2.3-12.5-0.7c-0.8,0.3-1.8,0.3-2.7,0c-3.2-1.2-6.3-2.3-9.2-4
			c-8.3-5-16-11-22.5-18.2c-1.3-1.5-1.7-2.8-1-4.7c6.3,3.7,10.8,10.2,17.8,12.8c-3.2-4-6.8-7.7-10.5-10.8
			c-5.3-4.5-9.5-10.2-14.8-14.5c-1.8-1.5-3-3.7-4.7-5.2c-3.5-3.3-6.8-6.7-10.7-9.5c-7.2-5.3-13.7-11.7-21.2-16.7
			c-0.7-0.5-1.7-0.8-1.2-1.8c0.5-1,1.7-0.3,2.2,0c3.8,2.5,7.7,4.8,11.3,7.5c1,0.7,1.8,2,2.8,1.2c1-0.8,1-2.3,0-3.7
			c-2.2-3.2-4-6.7-5.8-10c-1.2-2.3-2.8-4.8-5.2-6.7c-2.8-2.3-5.8-4-8.8-5.8c-2-1.3-3.8-2.7-6.3-3.2c-2.7-0.7-5.3-0.5-8-1.5
			c-4.5-1.8-8.7-4.3-13.5-5.3c-6.8-1.3-13.5-2.3-20.3-2.8c-7.5-0.5-15-0.2-22.5-0.2c-1,0-2-0.2-2.7,0.2c-1.3,0.8-2.2,2.5-3.8,0.3
			c-1-1.2-3.7-0.2-4-2.7c2,0.5,3.7-0.3,4.5-2c0.8-1.7-1.7-1.8-2-3c-0.3-0.7-0.8-1-1.3-1.7c-5.7-7.7-10.7-15.8-14-24.8
			c-0.5-1.3-1.2-4-2.5-3.5c-1.7,0.7-1.2,3.3-0.5,4.8c1.7,3.8,2.8,7.8,3.5,11.8c0.7,3.7,2,7.5,0,11.3c-0.7,1.3-0.3,3.3-0.8,5
			c-0.3,1.3,0.2,2.5,2.2,2.2c2-0.3,4.2-0.7,6.2,0.3c1.3,4.2,0.2,5.5-4.5,5c-2.5-0.3-4.8,0.3-7,1.3c-1.7,0.8-3.3,1.2-5.2,1.5
			c-2.5,0.5-6-0.2-7.3,2.7c-1,2.2-2.5,2.3-4.2,1.7c-2-0.7-3.5-0.2-4.2,1.7c-0.5,1.3-1.2,1.3-2.3,1c-1-0.3-1.8-1-3-0.5
			c0,1.3,1,1.7,1.8,2.2c8.8,4.5,18.3,3,27.5,2.5c2.8-0.2,5.7-0.8,8.7-0.5c1.7,0.2,3.5,0.2,5.2-0.2c4.7-0.8,9.3-1.3,14-1.2
			c7.8,0.2,15.5-0.5,23.3,0.7c8.8,1.3,17.3,3.7,25.7,6.2c5.8,1.8,11.3,5.2,16.5,8.3c4,2.5,8.3,4.8,11.5,8.7c-3,1.8-0.2,2.8,0.7,3.7
			c2.8,2.7,6,5,8.8,7.7c8.7,8.3,16,17.8,24,26.8c10.8,12,22,23.8,38.3,28.8c5.3,1.7,10.8,3,16.5,2.8c3.2-0.2,6.2-1.7,9.5-1.2
			c3.5,0.5,6.8,1.2,10.8,0.2c5.3-1.3,11.2-0.7,16.7-0.8c1.3,0,2.7,0.7,4.2,1c-3.5,1.2-7,1-10.5,1.5c-4.8,0.8-9.8,0.5-14.7,1.2
			c-8.7,1-17.3,0.3-26,0.8c-4.3,0.2-8.7-2.2-12.8-3.5c-7.8-2.5-13.7-8.2-19.3-13.5c-11.2-10.5-20.5-22.5-30.7-33.8
			c-5.8-6.5-11.8-13.2-18.5-18.7c-8.2-6.5-17.2-11.8-27.2-15.5c-4.8-1.8-9.5-3.8-14.3-5.5c-8.8-3-17.8-3.3-26.8-3.7
			c-7.2-0.3-14.5,0-21.7,1c-9.2,1.2-18.5,0.3-27.7,0.7c-5.3,0.2-10-1.2-14.8-3.2c-2-0.8-4.7-1.7-5-4.7c-0.2-1.5,0.2-3.8-0.7-4.3
			c-1-0.7-3,0.2-4.7,0.3c-0.3,0-0.7,0.2-1,0.2c-2,0.5-3,0-1.8-2.2c0.7-1.2,1.2-2.5-0.8-2.8c-2-0.2-2.8-1.2-2.8-3.2
			c0-1-0.7-1.7-1.7-1.8c-3.8-0.7-5.8-3.5-7.7-6.3c-5.7-8-8-18-14.7-25.5c-1-1.2,0-5.7,1.2-6.5c3.7-2.5,5.3-8.8,2.5-12.3
			c-1.5-1.8-3.5-4.7-6.2-4.2c-5.2,0.8-10.5,1.2-15.5,3c-5.7,2.2-11.7,3.5-17.7,4.7c-4.2,0.8-8.5-0.5-12.3,1.8
			c-1.2,0.7-2.5,1.2-3.8,1.3c-6.2,0.7-11.8,2.5-16.8,6c-1.5,1-3,2.7-4.2,4.3c-0.8,1-0.5,2.3,0.7,2.5c3.8,0.3,7.7,2,11.5,0.5
			c0.7-0.3,1.7-1,2.2-0.2c0.5,1-0.5,1.3-1.3,1.5c-5.2,1.7-10.3,3.2-15.5,5c-5.5,1.8-11,3.8-16.3,6c-7.5,3-16.5,18.2-15.2,26.2
			c0.8,4.8-1.2,8.8-1.7,13.3c-0.2,2-2.8,2-4.3,1.7c-2-0.5-0.8-2-0.2-3c2.2-4.3,2.7-9.2,2.5-13.8c-0.3-9.3-3.8-17.2-10.8-23.7
			c-1.2-1-3-2-2.8-4c0.2-2.8-2.2-4.8-2.5-7.5c0-0.7-1.7-1.2-1.2-2.2c0.8-1.3,2-0.7,3.2-0.3c2.5,0.7,4.8,0.2,6.8-1.5
			c0.8-0.7,1.8-1.7,1.3-3c-0.5-1.3-1.8-0.8-2.7-0.8c-3.8,0-7.7,1-11.5,1.7c-5.5,1-11.2,2-16.7,2.3c-12,0.8-23.5,4.5-35.3,6
			c-6.5,0.8-13.2,1.7-19.7,2.3c-2.5,0.2-3.5,1-3.5,3.5c0.2,3-2.3,4.5-4.5,4.5c-3.2,0-6.5-0.2-9.3-2c0-1.2,2.7-0.8,1.7-2.3
			c-0.8-1.3-2.5-1-3.7-0.3c-1.7,1-3.5,1.3-5.3,1.5c-6.3,0.2-12.8,0.2-19.2,1.5c-4.5,1-9.2,1-13.7,1.2c-2.2,0.2-2.2,1-1.7,2.7
			c0.7,2.3,2.8,3.7,3.5,5.8c2.7,7.7,7.2,14.5,10.2,22c3.5,8.5,7.8,16.5,11.8,24.7c1.2,2.3,1.5,5,2.8,7.3c2.8,5.5,5.8,11,8.3,16.5
			c4.5,9.5,8.2,19.5,13.2,28.7c3.7,6.8,5.8,14.3,10.2,20.8c0.3,0.5,0.3,1.2,0.3,1.7c0.2,7.2,2.8,12.3,10.5,13.7c1.2,0.2,2.3,1,1.7,2
			c-2,3.7-1.7,8.3-4.3,11.8c-0.3-3.5,1.8-6.7,2-10.2c0-1.5,0-2.3-1.5-2.7c-6-1.7-8.3-6.3-9.8-12.2c-1.2-4.2-3.3-8.2-5.5-12.2
			c-4.5-8.3-8.2-17.2-12.5-25.7c-5-10-10-20-14.3-30.2c-3.8-9.2-9-17.5-12.8-26.7c-3.2-7.8-7.3-15.2-11.2-22.8
			c-2.2-4.3-4.2-8.7-6-13c-1.3-3-3.3-5-6.5-5.7c-1.3-0.3-2.5-0.7-3.5-1.3c-1.3-0.8-1.2-2.2-0.8-3.3c0.3-1.3,1.5-0.7,2.3-0.3
			c3.3,1.2,6.3-0.8,9.3-1.5c10.5-2.5,21.2-4.2,31.8-6.3c8-1.7,16.5-1.7,24.5-3.2c7.8-1.5,15.8-1.5,23.7-3c5.8-1,11.7-1.2,17.5-1.8
			c9.7-1.2,19.5-0.5,29.2-2.7c0.3,0,0.7,0,1,0c14.2-0.2,28.3-2.3,42.5-3.7c12-1.2,23.8-3.5,35.8-4.5c12.7-1,25.2-3.2,37.8-2.2
			c4.2,0.3,7.7-2,11.7-2.3c0.3,0,0.8-0.5,1-0.8c0.2-0.8-0.5-0.8-1.2-1c-3.8-0.3-3.5-1.5-1-3.5c1.5-1.2,2.2-3.3,4-4.3
			c0.7-0.3,0.5-1.2,0.2-1.8c-2.8-6.5-3.5-9.8-12.8-9.7c-1.5,0-3,0.3-4.8-0.7c3.2-2.2,6.8-1.3,10-2.3c3.2-1,6.5-1.2,10.3-1.2
			c-1.2-2-2.5-2-3.8-2c-11.8-0.3-23.5,0.8-35,2.7c-4.8,0.7-9.8,0.7-14.8,0.8c-10,0.5-19.8,1.8-29.8,3c-7.2,0.8-14.3,2-21.5,2.7
			c-6.3,0.7-12.7,1.8-19,2.7c-6.3,0.8-12.8,1.3-19.2,2c-3,0.3-6,1-9,0.7c-1.7-0.2-2.3-0.3-1.3-2.3c1.5-3-0.3-6.2-1.2-9
			c-1.5-4.8-3-9.7-6.2-14c-3-4.2-5.2-8.8-8.3-13c-2.8-3.8-5.8-7.8-11.5-8.5c1.7,2.3,3.2,5,5.2,7c2.2,2.2,3.2,5,4.7,7.5
			c4.5,7.7,7.5,15.7,9.2,24.3c0.5,2.3,0,4.7,1.3,7c1,1.7-1.3,2.7-2.7,2.7c-6.3,0-12.5,1.8-18.8,2.3c-7.3,0.5-14.5,2-21.8,3
			c-10.2,1.3-20,3.8-30.3,4.2c-2.5,0.2-5.7,0.7-7.8,2.8c-0.5,0.5-1.5,0.5-1.5,0.2c-0.7-2.3-3-0.7-4.2-1.7c0.2-1,2.2-2,0.8-3
			c-1.5-1.2-1.5-3-2.3-4.5c-6-10.5-11.3-21.5-18.5-31.5c-4.7-6.7-10-12.7-16.8-17.2c-4.2-2.8-8.7-3.5-13.5-3.5c-3,0-5.3,2-8.2,2.2
			c1.8-2.2,1.3-4,0.3-6.5c-2.8-7.2-5-14.7-6.5-22.3c-0.3-1.3-0.7-2.2-2-2.2c-1.3,0-2.5-0.2-2.8-1.8c5.7,0.8,11.3,0.7,17,0.7
			c0.8,0,1.5,0.3,1.8,1.3c1.8,7.2,5.5,13.8,7.5,21c0.7,2.5,2.3,3.7,4.7,4c1.2,0.2,2.5,0.3,3.7,0.8c3.5,1.3,5.8-0.2,7.8-2.8
			c1.8,0.5,4,1.3,5.7,0.5c6.2-3.5,13.3-4,20-5.8c2-0.5,4.2-1.3,6.5-0.7c2.5,0.8,5,0.7,7.5-0.2c4.3-1.3,8.8-1.7,13.3-1.5
			c1.7,0,3.2,0,4.8-0.3c10.2-1.8,20.3-3.3,30.7-3.8c6.5-0.3,13-1.3,19.5-2c2.2-0.2,2.5-1.2,1.7-3.3c-1.2-3.3-2.8-6.5-2.5-10.2
			c2.8,3.3,2.8,7.8,4.5,11.7c0.8,2,1.5,3.2,3.8,2.8c7-0.8,13.8-1.5,20.8-2.5c4.3-0.7,4.7-1.7,2.7-5.7c-1.8-3.8-3.2-7.7-4-11.7
			c3,1.8,2.7,5.3,3.8,8c0.8,1.8,2.2,3.5,2.2,5.7c0,0.8,1.8,1,3,1c6.8,0.2,13.5-1.3,20.3-1.8c7.7-0.5,15.3-1.5,23-2.5
			c4.2-0.5,8.3-1.3,12.5-2c12.7-2.2,25.5-3.5,38.5-2.7c4.5,0.3,8.8-1.3,13.2-2.2c8.8-1.7,17.5-1.2,26,1.2
			c9.8,2.7,18.3,7.8,26.2,14.5c6.5,5.7,12.3,11.7,17.5,18.5C503.2,406,503.7,407,503.5,408.3 M492.5,508c-1.3-5.5-1-11.8-2.8-18
			c-1.8-6.3-2.5-12.8-7-18.2c-0.7-0.8-1-2-2.3-1.3c-1,0.5-0.5,1.7-0.2,2.5c1.3,3.7,0,6.5-3.5,6.7c-4.3,0.2-7.7,0.2-6,5.8
			c-2.8,4-3,8.2-0.8,12.5c0.7,1.2-1,2.5,0.2,4c2.8,3.5,4.8,7.5,7,11.3c2,3.5,4.5,3.8,7,0.7c1-1.3,2-3,3.8-2.5c2,0.5,1,2.5,1.2,3.8
			c0.2,0.8,0,1.8,1,1.8c1.2,0,1.5-0.8,1.7-1.8C491.8,513.2,492.2,510.8,492.5,508z M231.3,491.3c-1.5,0.7-3.7,0.5-5.7,1
			c-4.3,1.2-8.7,2-13,2.7c-5.5,1-10.8,2-16,3.7c-0.5,0.2-1.2,0.3-1.2,1c0,0.3,0.7,0.8,1,0.8c4-0.7,8.2-0.5,12.2-0.3
			c1.2,0,2.8-0.8,4.2-0.8c8.3,0.8,16.5-1,24.8-1.7c5.2-0.3,10.2-2.7,15.7-2.3c6.8,0.3,13.2-3,19.8-3.3c0.5,0,1-0.5,1.3-1
			c1-0.8,2.2-1,3.2-0.7c1.5,0.5,2.7,0.2,4-0.3c2.5-0.8,5.3-1.7,7.5-1.7c5.3,0.2,9.8-3.3,15.2-2.5c0.8,0.2,1.8,0,1.5-1.2
			c-0.2-0.8-1-0.5-1.7-0.5c-5.7-0.5-11.2,0.2-16.8,0.3c-7.5,0.3-14.8,1.3-22.3,1.8c-4.8,0.3-9.8,1.5-14.8,2.7
			c-5.5,1.3-11.5,0.2-16.8,2.5C233,491.8,232.3,491.5,231.3,491.3z M505.5,492c1.2-0.8,0.7-1.8,0.5-2.7c-2.3-13.5-7-26-14-37.7
			c-2.2-3.7-5.3-6.8-9.3-8.8c-0.5-0.3-1.3-0.8-1.8,0c-0.5,0.7,0.2,1.2,0.5,1.8c1.3,2.7,4,3.8,6,6c5.7,6,7,14.2,10.5,21.3
			C501.2,478.3,501.3,485.8,505.5,492z M914.3,581.7c1,0.2,1.2-0.7,1.7-1.2c3.7-5.2,6.7-10.7,8.2-17c1.5-6.3,1.2-12.8,2-19.2
			c0.2-0.7-0.3-1.3-1-1.5c-0.5,0-0.8,0.3-0.8,1c0.2,4.8-2.2,9.2-2.7,13.8c-0.5,4.2-1,8.3-2.3,12.5
			C917.8,573.8,915,577.2,914.3,581.7z"/>
		<path display="inline" fill="#00CB00" d="M674.2,600.5c-0.7,1.8-0.3,3.2,1,4.7c6.5,7.3,14.2,13.3,22.5,18.2c2.8,1.7,6,2.7,9.2,4
			c0.8,0.3,1.8,0.3,2.7,0c4.3-1.7,8.3-0.7,12.5,0.7c0.8,0.2,1.5,0.5,2.3,0.5c8.3-0.2,16.5,2.2,24.8,0.5c0.2,0,0.2,0,0.3,0
			c7.3,1.3,14.3-1,21.5-1.5c4-0.2,7.8-1.2,11.7-2.3c5.2-1.7,10.5-1.5,15.7-2.3c8.2-1.3,16.3-3.3,24.5-4.7c11-1.7,21.8-4.5,32.8-6.2
			c5.7-0.8,11.3-2.5,16.8-4.3c6.7-2.2,13.5-3.8,20.2-5.8c18-5.5,29.8-17.3,34.2-35.5c2.5-10.3,3.2-21-0.7-31.3c-0.7-2-0.7-4-1-6.2
			c0-0.2,0.2-0.3,0.5-0.7c1.7,1,2.3,2.8,3,4.3c2.2,4.8,4.2,9.5,4.8,15c0.5,4.7,1.5,9.5,0.8,14c-1.2,6.5-2.3,13-4.8,19.2
			c-0.3,1-0.8,1.8-0.7,3l0,0c-1.2,0.3-1.3,1.2-1.2,2.2l0,0c-1.2,0.2-1.5,0.8-1.2,2c-0.3,0.5-0.7,1-1,1.5c-4.2,4.2-8.5,8.2-11.8,13
			c-0.2,0.2-0.5,0.5-0.7,0.7c-1,0-1.8,0.3-2.2,1.3c-0.7,0.3-1.3,0.7-2,1c-4.3,1.2-8.7,2.5-12.5,4.8c-0.5,0.2-0.8,0.2-1.3,0.3
			c-2.2-0.2-4,0.5-5.7,1.8c-0.5,0-0.8,0.2-1.3,0.2c-1.7-0.8-2.3,0.3-3.2,1.3c-1,0-2.2,0-3,0.5c-2-0.2-3.7,0.2-5,1.8
			c-4.8,0.5-9.3,2.7-14.2,3.8c-2.8,0.7-5.5,1.3-8.3,2c-10.3,2.3-20.3,5.2-30.8,6.3c-1.2-0.3-2.2,0.3-2.8,1.2
			c-1.8,0.3-3.8-0.5-5.5,0.8c-2.3,0.2-4.8,0.2-7,1.3c-1.2,0-2.3,0-3.3,0.7c-1-0.8-1.8-0.7-2.5,0.5c-0.3,0-0.7,0-1.2,0
			c-0.5-0.5-1-0.2-1.7-0.2c-7.8,1.7-15.8,2.5-23.8,3.5c-6.5,0.8-13,1.7-19.7,2c-11.7,0.5-23.5,1.8-35.2,2.7
			c-1.8,0.2-3.7,0.2-5.3,1.3c-1.5,1.2-3.2,1.5-4.8,1.3c-2.3-0.2-4.5,0.3-6.8,1c-7.5,2.2-15,4.3-22.5,6.3c-9.2,2.5-18.5,4.7-27.8,7
			c-1.8,0.5-3.8,0.3-5.7,1.2c-5,2.3-10.3,2.8-15.5,3.8c-1.7,0.3-4.5,0.3-4.3,1.8c0.2,2,3,1.2,4.3,0.8c10.3-1.8,20.7-2.3,31.2-3.8
			c15-2.2,30-4.7,45-6.7c0.8-0.2,1.7-0.7,2,0.3c0.3,1.2-0.5,1.7-1.5,1.8c-4.5,0.3-8.8,1.8-13.2,2.8c-8.5,2.2-17,4.3-25.5,6.3
			c-10,2.5-19.8,5.3-29.8,7.3c-8.7,1.8-17.2,4.2-25.7,6.5c-1,0.3-1.8,0.7-1.8,2.3c6.5-0.3,12.5-2,18.5-3.5c5.5-1.3,11-3.2,16.7-4
			c3.7-0.7,7.3-2.2,11.2-2.2c1.2,0,3.2-1.8,3.7-0.3c0.5,2.2-2,1.3-3.3,1.8c-1.8,0.7-3.8,1-5.7,1.7c-2.7,0.8-5.7,2-8.2,1.8
			c-4.7-0.2-8.5,2.3-13,3c-5.7,0.8-11.2,3.5-16.8,4c-5.7,0.5-10.7,3-16.3,3.5c0.5,1.3,1.3,1.5,2,1.2c2.8-1.2,6-0.7,8.8-1.5
			c13.5-4,27.3-6.8,41-9.8c20.8-4.8,41.3-10,62.2-15c3.3-0.8,7.2-3.8,10.8,0.2c0.8,0.8,2.5-0.2,3.2-1.5c0.5-0.8,0.5-1.8,0.8-2.5
			c0.8-1.2,1.2-2.3-0.2-3.3c-1.3-1-3-1.2-4.2-0.2c-4.8,3.5-10.7,4.5-16.2,6.3c-6,2-12,3.8-18.2,5c-3.8,0.8-7.5,2-11.3,2.7
			c-0.7,0.2-1.5,0.2-1.7-0.8c-0.2-0.8,0.7-1,1.3-1.2c3.2-0.8,6.2-1.8,9.3-2.5c6.2-1.2,12-3.7,18.3-4.8c3.3-0.7,7.2-1,9-5
			c1-2.3,3.3-3.3,6.3-2.3c1.8,0.7,4,0.3,5.8-1.2c2-1.7,4-1.5,5.8,0.5c0,0.7,0.2,1.3,0.2,2c-1,7.8-2.8,10-9.7,11.3
			c-1.3,0.3-2.7,0.5-4,0.7c-1.2,0.2-2.3,0.2-3,1.3c-12,5.3-24,10.5-36,15.8c-2.2-1-3.3,1-4.8,1.7c-0.3,0.2-0.5,0.2-0.8,0.3
			c-1.3,0-2.3,0.7-3.3,1.3c-1.2,0-2.2,0.7-3,1.5c-0.5,0.2-0.8,0.2-1.3,0.3c-0.5,0.3-1,0.7-1.7,1c-2.3,0-4.2,1-6,2.3
			c-0.7,0.3-1.3,0.5-2,0.8c-0.8-0.2-1.3,0.3-1.8,1c-1,0.3-2.3,0.2-3,1.2c-0.7-0.2-1.3,0.2-1.7,0.8l-0.2,0.2l0,0
			c-0.3,0-0.7,0.2-1,0.2c-2.2,1.2-5,1-6.8,3c-0.5,0-0.8,0.2-1.3,0.2c-1.2,0-1.8,1-2.8,1.5c-0.8,0.5-1.7,1-2.5,1.3
			c-3.7,1-7.3,2.3-10.5,4.7c-0.3,0.2-0.5,0.3-0.8,0.5c-1.5,0.5-3.2,0-4.2,1.5c-0.2,0-0.3,0-0.5,0.2c-2.3,0-4.2,0.8-6,2.2
			c-0.5,0.2-1,0.5-1.5,0.7c-0.8,0.3-1.7,0.8-2.3,1.2c-0.3,0.2-0.7,0.2-1,0.3c-2,0.5-4.2,0.8-5.7,2.7h-0.2c-0.7,0.2-1.2,0.3-1.8,0.5
			c-0.3,0.2-0.5,0.2-0.8,0.3c-2,0.7-4.2,1-5.8,2.7h-0.2l-0.2,0.2c-1.8,0-3.5,0.3-4.8,1.8c-1.2,0.2-2.3,0.3-3,1.3
			c-0.7,0.2-1.2,0.3-1.8,0.7c-0.3,0.2-0.5,0.2-0.8,0.3c-1,0-1.8,0.2-2.2,1.2h-0.2c-1-0.2-1.8,0-2.2,1c-4.5,1-8.5,3.3-12.7,5
			c-0.7-0.2-1.2,0-1.5,0.7c-0.5,0-1,0.2-1.3,0.2c-0.3-0.8-0.5-1.7-0.8-2.7c-0.2-0.5-0.3-0.8-1-0.8c-0.8,0-0.8,0.5-1,1.2
			c-2.3,12.3-2.8,24.7-2.5,37c0,3.2-1.7,5-4.8,4.7c-1.3-0.2-1.8-0.5-1.5-2c0.8-3.3,0.3-6.8,0.3-10.3c0-6.3,0-6.3-6-6
			c0-0.2-0.2-0.3-0.3-0.5c0.2-1.2-0.7-2.8,1.3-3c4.2-0.7,5.7-3,5-7c0-0.5,0-1,0.2-1.3c1.2-2.8,0.2-4.2-3-3.8
			c-0.8,0.2-1.8,0.2-2.7,0.2c-1.2,0-2.2,0-3.3,0c-3,0-6.2,0-9.2,0.2c-1.8-0.3-3.5-0.5-5.3,0.2c-2-0.8-4.2-0.3-6.2-0.3
			c-2.7-0.2-3.5,0.7-2,3.2c1.5,2.5,2,5-0.8,7.3c3.7,0.7,6.8,1.7,10.3,0.8c0.3,0.3,0.5,0.5,0.8,0.8c0.3,1.2,0.7,2,1.8,0.7
			c0.7,0.2,1.2-0.2,1.3-0.8c1.7-0.2,3.2-0.3,4.8-0.3c4.3,0,4.5,0.2,4,4.3c-0.3,5.3-0.3,10.5,0.2,15.8c-0.8,2-7,3.5-8.2,2
			c-0.7-0.8,0-1.3,0.7-1.7c1.7-0.5,1.5-1.7,1.5-3c0-2.8,0-5.8,0-8.7c0-4.5-1.8-6-6.3-5.2c-3.7,0.7-7.3,0.5-11,0.7
			c-2.2,0-3.3-1.2-3.3-3.2c0-3.8-0.2-7.5-0.7-11.3c-0.5-4.2-1.3-5-5.8-4.7c-6.2-0.5-12.5-0.3-18.7-0.3c-2.5-0.7-5.2-0.8-7.7-0.2
			c-2.5,0-4.8-0.2-7.3-0.2c-3.7-2-7.7-1.2-11.5-0.8c-1.8,0-3.7,0-5.5-0.2c-3.2-1.2-6.5-1-9.8-0.3c-2.7-0.7-5.5-0.5-8.3-0.3
			c-3.7-1.3-7.3-1.2-11.2-0.3c-2.3,0-4.5-1-6.8-0.2c-2.3,0.5-5-0.3-6.5,2.2c-0.3,0-0.8,0.2-1.2,0.2c-0.5-0.7-1-0.5-1.3,0
			c-1.7-0.2-3.2-0.3-4.8,0c-0.3-0.5-0.8-0.7-1.5-0.5c-0.2-0.8-0.3-1.5-0.5-2.3c0.8-0.2,1.7-0.8,2.2-0.5c3.7,1.5,6.7-0.8,9.8-1.3
			c1.7-0.3,3.2-1.5,2.8-3.7c1.2-0.3,2.5-0.5,3.7-0.8c0.3,0.2,0.7,0.5,0.8,0.5c6.7-1,13.5-2,20.2-3.2c7.2-1.2,14.2-2.3,21.3-3.7
			c4.7-0.8,9.3-1.8,13.8-3.7c0.5-0.2,1-0.2,1.3-0.3c0.7,0.5,1.2,0.3,1.3-0.5c0.5-0.2,1-0.2,1.5-0.3c0.5,0.5,1,0.3,1.3-0.3
			c0.5-0.2,1-0.2,1.3-0.3c0.7,0.5,1.2,0.3,1.3-0.3c0.7-0.2,1.3-0.3,2-0.5c0.8,0.5,1.5,0.7,2.2-0.3c0.5-0.2,0.8-0.2,1.3-0.3
			c0.8,0.5,1.5,0.5,2-0.5c1.2,0.2,2.7,0.3,3.3-0.8c0.7-1-1-0.8-1.3-1.5c0.5-2.2,0.2-3.5-2.5-2.5c-0.7,0.3-1.5,0.2-1.7-0.7
			c-0.3-0.8,0.5-0.8,1-1c1.5-0.2,2.8-0.7,2.5-2.5c-0.3-2-2.2-1.7-3.7-1.7c-7.7,0.2-15.2,1.7-22.7,3.3c-3.5,0.8-7.3,0.7-10.3,3
			c-0.5,0-0.8,0.2-1.3,0.2c-1-0.3-2.2-0.8-2.8,0.5c-0.8,0.2-1.8,0.2-2.7,0.3c-0.8-0.3-1.7-0.7-2.2,0.5c-0.5,0-0.8,0.2-1.3,0.2
			c-1.7-0.3-3.3-1-4.2,1.2c-0.5,0-0.8,0.2-1.3,0.2c-1.8-0.5-3.3,0-4.7,1.5c-1.3,0-2.5,0-3.8,0.5c-1.8-0.3-3.7-0.2-5.3,0.3
			c-5.2,1.3-10.5,1.8-15.5,3.7c-0.2-0.3-0.3-0.7-0.7-1c-0.2,0.2-0.2,0.2-0.3,0.3c0.3,0.2,0.7,0.3,1,0.7c1.3,4,2.3,4.5,4.8,2.2
			c1.2,0,2.3-0.2,3.5-0.2c0.7,0.8,1,1.8,0.8,3c-1.2,0.7-2.2,1.7-3.7,1.3c-2.7-0.5-4,0.7-4.7,3.2c-3.7,0-7.7-1.7-10.2,2.8
			c-0.5,1-2.2,0-2.5-1.3c-0.2-1,0-2,0-3.2c-0.2-2.7-2.3-5.2-3.8-4.2c-2.7,2-6,0.8-8.8,2.2c-5,2.5-10.5,2.8-15.8,4.5
			c-7.3,2.3-15,3.5-22.2,6.3c-3.8,1.5-7.7,2-11.7,2.2c-3.2,0.2-6.5,0.2-9.2,2.2c-1.3,0-2.7,0.2-4.2,0.2c-3.3-0.3-6.7-0.3-9.8,0.2
			c-0.5,0-1-0.2-1.3-0.2c-1.7-1.5-3.5-1.5-5.5-1.2c-0.5-0.2-0.8-0.2-1.3-0.3c-0.5-0.8-1.3-0.8-2.2-0.5c-5.2-2.2-10.2-4.5-14.8-7.7
			c-11.5-8-20.3-18-26.2-30.8c-1-4.2-2.7-8.2-2.8-12.3c-0.3-5.3-1.3-10.8-0.2-16.2c0.2-0.7-0.2-1.7-1-2.2c0-0.8,0.2-1.8,0.2-2.7
			c2.7-3.5,2.3-8,4.3-11.8c0.5-1-0.5-1.8-1.7-2c-7.7-1.3-10.3-6.5-10.5-13.7c0-0.5,0-1.2-0.3-1.7c-4.3-6.5-6.5-14-10.2-20.8
			c-5-9.3-8.8-19.2-13.2-28.7c-2.7-5.7-5.5-11.2-8.3-16.5c-1.3-2.3-1.7-5-2.8-7.3c-4-8.2-8.5-16.2-11.8-24.7
			c-3-7.5-7.5-14.3-10.2-22c-0.8-2.2-2.8-3.7-3.5-5.8c-0.5-1.7-0.5-2.5,1.7-2.7c4.5-0.3,9.3-0.3,13.7-1.2c6.3-1.3,12.7-1.3,19.2-1.5
			c1.8,0,3.7-0.5,5.3-1.5c1.2-0.8,2.8-1.2,3.7,0.3c1,1.5-1.7,1.2-1.7,2.3c2.8,1.7,6.3,1.8,9.3,2c2.2,0,4.7-1.5,4.5-4.5
			c-0.2-2.5,1-3.3,3.5-3.5c6.7-0.5,13.2-1.3,19.7-2.3c11.8-1.7,23.3-5.2,35.3-6c5.7-0.3,11.2-1.3,16.7-2.3c3.8-0.7,7.5-1.7,11.5-1.7
			c1,0,2.2-0.3,2.7,0.8c0.5,1.3-0.5,2.2-1.3,3c-2,1.7-4.3,2.2-6.8,1.5c-1-0.3-2.3-1-3.2,0.3c-0.7,1,1,1.5,1.2,2.2
			c0.3,2.7,2.5,4.7,2.5,7.5c0,2,1.8,2.8,2.8,4c7,6.3,10.5,14.3,10.8,23.7c0.2,4.7-0.3,9.5-2.5,13.8c-0.5,1-1.7,2.5,0.2,3
			c1.5,0.3,4.2,0.3,4.3-1.7c0.5-4.5,2.5-8.5,1.7-13.3c-1.3-8,7.7-23.2,15.2-26.2c5.3-2.2,10.8-4.2,16.3-6c5.2-1.8,10.3-3.3,15.5-5
			c0.8-0.3,1.8-0.7,1.3-1.5c-0.5-0.8-1.3-0.2-2.2,0.2c-3.8,1.5-7.7-0.2-11.5-0.5c-1.3-0.2-1.5-1.5-0.7-2.5c1.2-1.7,2.7-3.3,4.2-4.3
			c5-3.3,10.7-5.3,16.8-6c1.3-0.2,2.7-0.7,3.8-1.3c3.8-2.3,8.3-1,12.3-1.8c6-1.2,11.8-2.7,17.7-4.7c5-1.8,10.3-2,15.5-3
			c2.8-0.5,4.7,2.5,6.2,4.2c2.8,3.5,1.2,9.8-2.5,12.3c-1.3,0.8-2.3,5.3-1.2,6.5c6.7,7.5,9,17.3,14.7,25.5c2,2.8,4,5.8,7.7,6.3
			c1.2,0.2,1.7,0.7,1.7,1.8c0,2,0.8,3,2.8,3.2c2.2,0.2,1.5,1.5,0.8,2.8c-1.2,2.3-0.2,2.7,1.8,2.2c0.3,0,0.7-0.2,1-0.2
			c1.7-0.2,3.5-1,4.7-0.3c0.8,0.5,0.7,2.8,0.7,4.3c0.3,3,3,3.8,5,4.7c4.7,1.8,9.5,3.3,14.8,3.2c9.2-0.3,18.7,0.5,27.7-0.7
			c7.3-1,14.5-1.3,21.7-1c9,0.3,18,0.7,26.8,3.7c4.8,1.7,9.5,3.7,14.3,5.5c10,3.7,19,9,27.2,15.5c6.8,5.5,12.7,12.2,18.5,18.7
			c10.2,11.3,19.5,23.5,30.7,33.8c5.8,5.3,11.5,11,19.3,13.5c4.3,1.3,8.5,3.7,12.8,3.5c8.7-0.5,17.3,0.2,26-0.8
			c4.8-0.5,9.8-0.3,14.7-1.2c3.5-0.5,7-0.3,10.5-1.5c-1.3-0.3-2.7-1-4.2-1c-5.7,0-11.3-0.5-16.7,0.8c-3.8,1-7.2,0.3-10.8-0.2
			c-3.3-0.5-6.3,1.2-9.5,1.2c-5.7,0.2-11.2-1.3-16.5-2.8c-16.3-4.8-27.3-16.8-38.3-28.8c-8-8.8-15.5-18.3-24-26.8
			c-2.8-2.7-6-5-8.8-7.7c-1-0.8-3.8-1.8-0.7-3.7c1,0.8,2.2,1.7,3.2,2.5c-0.2,0.3-0.2,0.5,0.3,0.3c10.3,8.3,19.7,17.7,28.7,27.5
			c-0.2,1,0.3,1.5,1.3,1.2c0.3,0.3,0.5,0.5,0.8,0.8c0.3,2.3,1.5,3.8,4.2,3.8C673.8,600.5,673.8,600.5,674.2,600.5z M607.8,676.8
			c-3.2-1.5-1.8,1.5-2.7,2.7c-1.8,0.7-1.8,2-1.2,3.7c0.7,1.3,1.7,1,2.5,0.7c1.8-0.8,2.3-2,1.3-3.8c0-0.3,0-0.7,0-1
			C609.3,678,609.5,677.3,607.8,676.8z M328.2,571.3c-0.3,0.2-0.7,0.2-1,0.3c-0.5,0-1,0-1.3,0.2c-1.2,0.7-3,1.2-2.5,2.7
			c0.5,1.2,2.3,0.5,3.5,0.3c4-0.8,8-1.5,12-2.8c1.7-0.5,4-0.5,4.8-2.7c0.2-0.7,0.3-1.2,0.5-1.8c3-5,4.3-10.5,5.3-16
			c0.2-1.2,0.7-2.8-1-3.3c-1.5-0.5-2.5,0.8-3.3,1.8c-3.2,4.2-6.8,7.7-10.5,11.3c-1.8,2-5.2,3.7-0.8,6.5c0.2,0,0,0.5,0,0.7
			c-0.3,0.2-0.7,0.3-1,0.5c-1-0.3-1.3,0.2-1.8,0.8c-0.3,0.2-0.7,0.2-1,0.3C329,570,328.5,570.5,328.2,571.3z M532.7,733.3
			c0.5,0.8,1.5,0.5,2.2,0.7c3,1,5.5-2.8,8.5-0.8c0.3,0.3,1-0.5,0.8-1.2c-1-7-0.5-14.2-3-21c-1.5,0.7-1,2.2-2.2,2.8
			c-1.8-2.3-4.2-2.7-6.8-1.8c-0.5,0-1,0-1.5,0c-0.7-1-2-0.8-2.5-0.3c-2.5,2.5-8.2,2-7.3,7.8c0.2,0.8-0.2,1.8-0.7,2.7
			c-0.8,1.5,0,4.7-2.2,4.3c-1.7-0.2-0.3-3-0.7-4.7c-0.2-0.5,0-1-0.2-1.3c-1.2-2-1.5-4.7-4.8-4.2c-0.2,1.3,2.3,2.7,0.2,3.7
			c-1.8,0.8-2.5-0.7-3-2.3c-0.5-2.2-2.3-1.5-3.7-1.3c-11.2,0.8-21.8,4-32.7,5.8c-10.7,1.8-21.3,3.5-32,5.3c-2,0.3-4.3-0.2-6.7,2.3
			c5,0,9.2-0.2,13.3,0c6.7,0.5,13.3-1,20-0.3c9.7,0.8,19.3,1,29,0.7c5.5-0.2,11.2-0.5,16.5,1c5.5,1.7,11,1.7,16.5,2
			C530.8,733.5,531.7,733.5,532.7,733.3z M334.2,585.2c-0.8-1.8-2.2-1-3.2-0.5c-6,3.5-12.2,7-18,10.7c-10,6.2-19,13.7-26.7,22.7
			c-3.3,3.8-5,8.7-7.5,13.2c-0.5,0.8-0.7,2,0.2,2.5c1,0.5,1.3-0.7,1.8-1.2c2.8-3.2,5.5-6.5,8.7-9.3c8.7-7.8,18-14.8,27.2-21.8
			c2-1.5,2.8-4.3,5.3-5.3c4.8-2,7.8-6.3,11.7-9.7C333.7,586.2,333.8,585.7,334.2,585.2z M576.5,717.7c1.8,0.3,4.2,2.2,4.8,0.2
			c1.3-4.2,6.3-3.7,8.2-7.7c0.8-2,3.7-4,5-6.3c0.5-0.8,1.2-1.2,2-1c3.8,0.5,7.5-1.7,11.5-1c1.3,0.3,4-0.5,3.7-2.7
			c-0.5-2.3,0-3.3,2.2-3.8c0.5-0.2,1.3-0.8,1-1.5c-0.3-0.8-1.2-0.7-1.8-0.5c-2.7,1.5-6,1.3-8.8,2.8c-1.5,0.8-3,0.7-4.7,0.7
			c-4.5,0-9.2,0.2-12.8,3.8c-5.8,5.8-11.8,11.7-18.2,17c-3,2.5-3.3,5.2-3.3,8.3c0,1.3,0.8,2.2,2,1.5c0.8-0.5,3-0.7,2-2.3
			c-2-3.5,0.3-5.2,2.5-6.8c1.2-0.8,2.7-1.3,3.7-2.5c1-1,2.2-1.3,3.5-1c0.5,0.2,0.7,0.5,0.7,1C579.3,717.3,577.5,716.2,576.5,717.7z
			 M700.5,671.8c-4.2-0.2-7.8,1.3-11.7,2.5c-3.7,1-7.5,2-11.2,3.2c-0.7,0.2-1.7,0.5-1.7,1.5c0,0.3,0.2,1,0.5,1.2
			c1.2,0.7,1.2-0.5,1.7-1.2c0.5-0.7,1.3-0.7,2-0.5c1.8,0.7,3.2,0,4.8-0.5c1.7-0.5,3.3-1.3,5.2-1.8C693.5,675,697,673.3,700.5,671.8z
			 M455.7,489.7c-0.7-3-0.5-6-1.8-8c-1.3-2-3.2,2.3-5.3,1c-0.5-0.3-1,0.3-0.8,1.2c0,0.2,0.2,0.5,0.3,0.5
			C451,485.3,452.5,488.5,455.7,489.7z M524,687c-1.5,0-2.2,0.7-2.3,2c-0.2,1.7,2.3,4.5,3.7,4.3c1.7-0.3,2.7-1.8,2.7-3.2
			C528.2,687.5,525.5,687.8,524,687z M599.7,680.5c-2.7-0.7-2.5,1.3-2.8,2.8c-0.3,1.7,1,1.8,2,2c2.3,0.2,2.7-1.7,3-3.3
			C602.2,679.8,600.5,680.7,599.7,680.5z M607.3,671.5c-1-0.8-1.3-2.5-3-2.5c-1.2,0-1.7,1-1.3,2c0.3,1.2,0.3,2.8,2.2,2.5
			C606.2,673.3,607,672.7,607.3,671.5z M413.7,717.7c-0.2-0.8-0.7-1.5-1.5-1.5c-1,0-1.7,0.7-1.5,1.8c0.2,1,0.8,1.3,1.7,1.3
			C413.5,719.2,413.8,718.7,413.7,717.7z M504.2,705.3c2,0.2,4,0.7,6.3-0.8C507.8,704.2,505.8,703.8,504.2,705.3z"/>
		<path display="inline" fill="#FFFFFF" d="M80.5,120.5c0.5-1.5,1.8-1.3,2.8-1c2.8,1,5.2,0.5,7.5-1.2c2.7-1.8,5.8-1.3,8.7-1.7
			c6.2-0.8,12.3-0.8,18.5-1.5c8-1,16-0.2,23.8-0.7c7.2-0.5,14.2-1.5,21.2-2.2c5-0.5,10.2-0.8,15.2-1.3c13-1.2,26-0.8,38.8-2.7
			c0.3,0,0.7,0,1,0c12.2,0.3,24.2-1,36.3-0.8c11.2,0.3,22.2-2,33.3-3.2c13.3-1.3,26.7-2.8,40-1.5c13.3,1.3,26.8,3.7,39.2,9.3
			c8.3,3.8,16,8.7,23.3,14.5c9.5,7.5,15.5,17.5,21.7,27.5c6.2,9.8,11.3,20.2,15.3,31.2c2.5,7,4.3,14.3,6.8,21.2
			c2.7,7,4.2,14.3,5.8,21.5c2.2,9.7,4.7,19.2,6,29c1.3,9.7,3,19.5,1.5,29.2c-1.3,8-2.8,16-6.2,23.8c-4.7,11.2-12.5,19.2-22,26
			c-5.3,3.8-11.7,6.3-18,8.3c-8.7,2.7-17.7,4.2-26.3,6.7c-6.8,2-13.8,3-20.8,4c-12.5,1.8-25,3.3-37.3,5.3c-0.8,0.2-1.5,0.5-2.3,0.7
			c-0.3-1.2,0.2-1.8,1.2-2.2c0.7-0.2,1.5-0.3,1.2-1.3c-0.5-0.8-1.5-0.8-2.2-0.3c-3,2.3-5.5,1.7-8-0.7c-0.7-0.5-1.3,0-2-0.2
			c-2.7-0.5-4.5,1.7-7.3,1.2c-5.3-1.2-10.5-0.5-15.5,1.7c-0.7,0.3-1.3,0.8-1.2,1.5c0.2,1,1.2,0.5,1.7,0.7c1.7,0.2,4-1,4,2.2
			c-1.5-0.3-2.8-1.2-4.3-0.5c-4.8,2-10.2,1.3-15.3,2.3c-6.8,1.3-13.7,2.5-20.7,3.3c-7.2,1-14.3,2.2-21.5,2.2
			c-5.8,0-11.7,0.2-17.3,0.2c-8.3,0-16.7,1.2-25,2.2c-3.2,0.5-6.7-0.5-9.5,1.8c-0.7-1.7-1.5-2.5-3.5-2.3c-4.7,0.3-9.3,0.2-14.2-0.5
			c-4.7-0.7-6.5-2.3-6-6.5c0.8-7,0.8-14,2.2-20.8c1.3-7.2,0.2-14.5,0.8-21.7c0.3-4-2-8.7,2.5-11.8c0.8,0.5,0.8,1.3,0.8,2.2
			c0,5.7-0.3,11.3,0.7,16.8c0.2,0.8,0.2,2-0.3,2.7c-2.2,3.3,1.3,5.5,1.2,8.5c0.7-5.2,0.8-10.3,1.2-15.5c0.3-8.2,0-16.2-1.8-24.3
			c-0.8-3.3-0.2-7-1.2-10.7c-1.3-4.3-2-9-3.2-13.3c-2-7.5-4-14.8-5.8-22.3c-1-4-2.8-7.8-3.7-11.8c-1-6-4-11.2-5.3-17
			c-1.3-6-3.8-11.5-6-17.3c-3-8.2-5.7-16.3-9.3-24.3c-2.8-6.2-5.5-12.3-9-18.3c-2.8-4.8-6-9.7-7.7-15.2c-0.5-1.7-2.7-2.7-3.7-4.5
			c-0.5-1-1.3,0-2,0.5c-3-2.8-4.7-6.7-6.7-10.3c-2.7-4.7-6.7-8.8-6-15c0.2-0.7-0.7-1.5-1.5-0.2c-1.3,1.8-2.5,1.7-3-0.7
			C82.3,120.8,81.3,121,80.5,120.5z M165,274c-0.7-1,0.3-1.8,0.3-2.7c0.3-3.2,3.3-6,1.5-9.5c-0.7-1.2-1-2.3-0.8-3.7
			c0.2-2-0.7-3.5-2.3-4.3c-2.7-1.5-3.5-3.8-3.3-6.7c0.5-9.2-0.8-18.5-0.8-27.7c0-2.5,0.8-6.2-2.5-7.7c-5.5-2.5-5.2-8.7-8.3-12.7
			c-0.2-0.2,0-0.8,0.3-1.3c1.8-3.3-0.2-5.8-2.5-7c-3.5-1.7-5-4.5-6.3-7.5c-1.2-2.5-2.5-4.5-4.3-6.5c-2.2-2.3-2.7-5.7-4.8-8.3
			c-2.7-3.2-5-6.8-7.5-10.2c-0.5-0.7-1.2-1.7-2.2-1.3c-1,0.3-1.3,1.5-1.7,2.5c-0.2,0.7,0,1.3,0.2,2c0.2,0.7,0.5,1.3-0.3,1.8
			c-0.8,0.3-1.2-0.3-1.7-0.8c-1.8-1.7-2.7-3.8-4-5.8c-0.7-1.2-1.3-2.5-3.5-1.7c2,2.7,3,5.5,4.3,8.3c3.2,6.5,6.3,13,9.5,19.5
			c3.7,7.5,5.8,15.7,9,23.3c4.7,11.5,8.2,23.3,12,35c3,9.8,5.8,19.7,8.8,29.5c0.7,2.2,0.7,4.3,1.3,6.3c1.3,4,4.2,7.2,4,11.8
			c0,4.5,0.5,9.3,1.8,13.8c0.5,2,1.7,2.5,2.8,1.2c1.5-1.7,3.3-3.2,3.8-5.7c0.2-1,0.3-1.8-0.7-2.5c-0.8-0.5-1.5-0.2-2,0.7
			c-0.3,0.5-0.8,1.2-1.7,0.5c-0.5-0.5-1-1.2-0.7-1.8c0.3-1.2,0.7-2.5,1.7-3.3c1-0.8,1.7-1.8,1.5-3.3c-0.5-4,1.8-7.3,2.7-11
			c0.3-1.5,1.2-2.5,0-4C167.3,272.2,166.2,274.3,165,274z M164.3,330.2c-0.8-1.7,0-3.3,0.8-4.5c2-3,4.3-5.7,7.2-7.8
			c1.2-1,2-1.8,2.3-3.2c0.3-2.2,1.3-4.2,2.7-6c0.5-0.8,1.7-1.7,0.3-2.7c-1.2-0.8-2-0.3-3,0.7c-3,3.3-6.2,6.5-9,10
			c-1.2,1.5-2.8,3.2-3,4.8c-0.7,4.7,0.2,9.5-0.8,14.2c-0.2,0.5-0.2,1.2,0.5,1.5c0.7,0.3,1.2-0.3,1.3-0.8c1.5-3.5,4.7-5.3,7-8.2
			c1.5-1.8,2.8-4,4.2-6C170.3,323.7,168.2,327.8,164.3,330.2z"/>
		<path display="inline" fill="#00CB00" d="M663.7,830.8c7.2,4.8,15.3,7.8,23,11.8c3,1.5,6,3,9,4.5c1.5,0.8,3.3,1.3,2.3,3.8
			c-0.5,1.2,0.8,1.3,1.8,1.5c4,0.7,8,0.7,12,0.2c3.3-0.3,6.7-0.3,10-0.3c1.8,0,3,0.8,3,2.7c0,4.2,1.5,8.2,1,12.3
			c-0.2,1.2,0.2,2.2,0.7,3.3c2.3,6.2-0.7,10.7-7.3,10.7c-5.2,0-10.5-0.2-15.7,0c-4.7,0.2-7.8-1.7-9.8-5.8c-0.3-0.5-0.7-0.8-1.2-1
			c-13.2-2.7-25.7-7.8-38.7-11.3c-8.7-2.3-17-5.3-25.7-8c-13.3-4-26.7-8-40.2-11.8c-8.8-2.5-17.7-5-26.5-7.5
			c-2.5-0.7-3.7-0.2-3.8,2.7c-0.2,5-1.3,10-2.8,14.8c-0.2,0.7-0.7,1.3-1.2,1.7c-6.2,3-4.5,8.7-4.5,13.7c0,3.7,0.7,7.3-0.3,11
			c-0.3,1-0.5,2.2-1.8,2.2c-3.7,0.2-7.2,1.7-10.8,2.2c-2.5,0.3-3.3-1.3-3.3-3c0.3-3.7-0.2-7.3,0.7-10.8c0.8-3.3,1.2-6.8-0.5-10.2
			c-0.2-0.2-0.3-0.5-0.2-0.7c2.5-6.3-3.2-10.8-3.8-16.7c-0.2-2.3,0.2-3,2.3-3c3.5,0,7.2,0.2,10.7-1.3c-2.3-1-5-1-7.3-0.3
			c-3.8,1-7.5,0.3-11.3,0.5c-0.2,0-0.3,0-0.3,0c-6.8-5.8-12.3,1-18.2,2.3c-10.5,2.3-20.7,6.2-31,9.3c-14.3,4.5-28.5,9-42.8,13.3
			c-8.3,2.5-16.8,4.8-25.2,7.5c-8.5,2.7-17,5.7-25.5,8.8c-1.7,0.7-3.3,2.2-4.5,3.7c-2,2.3-4.5,3.2-7.5,3c-5.7-0.5-11.3,0.8-17-0.7
			c-4.5-1.2-6.7-4.5-6-9c0.7-5.2,2-10.5,2-15.8c0-2.5,1.2-3.3,3.5-3.7c6-0.8,12-0.3,18-0.7c2.5-0.2,6,1,6.2-3.8c0-1,3-2,4.8-2.8
			c18.7-8.8,36.7-18.5,55-27.8c16.3-8.3,32.7-16.5,48.7-25.3c4-2.2,8.3-4.2,12.3-6.3c0.8-0.5,2.5-1.3,2.2-1.8
			c-1.5-2.3,1.2-4.8-0.5-6.8c-0.7-0.8-1.7-0.7-2.5-0.7c-4.2,0-8.2,3-12.5,1.7c-2.5,3.2-6.5,0.8-9.5,2.7c-2,1.2-3,0.5-2.7-2
			c4.7,0.3,9-2.2,13.7-1.7c1.2,0.2,2.2,0.3,2.2-1.3c0.8-0.2,1.8-0.3,2.7-0.5c1,1,1.3,0.2,1.8-0.7c1-0.2,2-0.3,3-0.5
			c2.8,2.2,4.8-0.3,7-1.3c0.7,0,1.3,0,2,0c0.5,0.7,1.2,0.7,1.8,0.7c2.7-0.3,5.3-1.2,8,0c0.3,0.2,0.8-0.2,1.2-0.3
			c1.7-1.3,3.7-1.5,5.7-1.8l0.2,0.2c0,0.2-0.2,0.2-0.2,0.3l0.2,0.2c0-0.2,0-0.3,0-0.5c1.8,0,3.5,0,5.3,0c2,1.2,4,1.8,6.2,1
			c1.7,0.2,3.3,0.2,4.8,0.3c4.2,1.8,8,0.3,11.7-1.3c1.8,0.2,3.7,0.2,5.5-0.3c2.3-0.2,4.7-0.2,7-0.3c0.2,0.2,0.3,0.2,0.5,0.2
			c0.8,1.8,1.5,3.5,4,1.5c1.3-1,3.2,0,4.7,0.2c2.3,0.3,4.7,0.2,6.8,0.3c0.7,0,1.8,0.3,1.7,1.3c-0.2,0.8-1,0.7-1.7,0.7
			c-0.8,0-1.7-0.2-2.5,0c-0.5,0-1,0.2-1.3,0.3c-1.7,2.3-0.5,6.8,2.3,8c4.2,1.8,7.8,4.8,12.5,5.7c0.3,0.2,0.7,0.3,1.2,0.5
			c4,2.8,8.3,4.8,12.8,6.5c0.3,0.2,0.7,0.3,1,0.5c0.8,1,1.8,1.5,3,1.7c0.3,0.2,0.7,0.3,1,0.5c1.7,1.5,3.7,2.5,6,3
			c0.3,0.2,0.8,0.3,1.2,0.3c1.2,1.7,3,2.3,5,2.5c13.8,6.8,27.7,13.7,41.3,20.5c0.3,0.8,0.8,1.2,1.7,1
			C662.5,830.5,663,830.7,663.7,830.8z M714,863.8c-1,2.3-1.3,4.5,0.3,6.5c0,2.5,0.2,4.8,0.2,7.3c-0.5,0.3-0.5,0.7-0.2,1
			c0.3,0.3,0.8,0.3,1.2,0c1.2,0.5,2.2,0.3,2.7-0.8c0.5,0,0.8-0.2,1.3-0.2c2.5-0.2,3.8-0.5,3.5-4c-0.3-4.5-1.7-9-1.7-13.7
			c0-4.7,0-4.7-4.8-4.5c-0.8-0.3-1.8-0.3-2.7,0c-0.5,0-0.7,0.2-0.7,0.7c0,0.2,0,0.5,0,0.7c-0.7,1.3-1.2,2.7,0.7,3.7
			C713.8,861.7,713.8,862.8,714,863.8z M707.8,875.3c1.3-0.5,1.2-1.8,1.2-3c0.2-5.2-0.3-10.3,0.3-15.3c0.3-1.5-1-1.2-1.8-1.2
			c-1.2,0-2.2,0-3.3,0.2c-1.8-0.3-2.7,0.2-3.2,2.3c-1.3,5.8-0.8,11.8-1.5,17.7c-0.2,2.2,1.8,2.7,3.5,3.2c1.7,0.5,3.5,1.7,5-0.2
			c0.5-0.5,0.5-1.3-0.2-1.8C707.8,876.5,707.8,875.8,707.8,875.3z M355.7,859.3c-2.7-0.7-4.2-0.5-4.3,3.2c-0.2,4.5-0.8,9-1.8,13.3
			c-1,4.2-0.7,6.8,6.2,6.7c1.3,0.7,2.7,0.7,4,0.3c1.7,0.8,2-0.3,2-1.5c0.2-1.3,0-2.8,0-4.2c-0.2-4.5,0.5-9,1.3-13.3
			c2,5.2,2.8,10.2,1.5,15.7c-1,4.3,0.7,5.5,5.2,4.7c2.3-0.5,2.8-3,5-3.3c2-0.2,2-1.3,2.2-2.8c0.7-6-2.2-11.5-2.2-17.3
			c0-0.8-0.7-1.3-1.5-1.2c-1.8,0.3-3.5-1-5.5-0.5c-0.3,0-0.8,0-1.2,0c-2.2,0.2-4.2,0.8-6.3,0.3C358.8,858.8,357.2,858.7,355.7,859.3
			z M531.5,786.2c1-1.2,1-2.7,1.3-4.2c0.2-0.7,1-1.5-0.2-2c-0.8-0.3-1.7-0.2-2,0.7c-1.5,0-3.2-0.2-4.3,1.2c-1.8,0.8-4.5,1.3-1.7,4.2
			c1,1,0.7,2.8,1,4.3c0.8,3.7,0,7.5,1.5,11.2c0,2.5-0.3,5,0.3,7.5c-0.3,2.3-1.2,4.7,0.8,6.7c0,2.5,0,4.8,0.2,7.3
			c-1.2,2.5-0.5,5.2-0.3,7.8c0.2,1.5,1.3,2.3,2.8,1.8c4-1.8,8.3-1,12.5-1c0.8,0.3,1.7,0.3,2.5,0c2.7,1,4.8,0.2,5-2.8
			c0.2-8.2,0.5-16.3,0-24.5c-0.3-5.7-0.7-11.2,0-16.8c0.2-2,1.7-4.5-1.2-6.2c-1.8-2.8-4.5-2-7-1.8c-1.7-0.2-3.7-1-1.8,2.2
			c1.3,2.3,1.3,5,0.8,7.5c-2,8.7-1.3,17.5-2.5,26.2c-0.5,4-1.2,8-1.5,11.8c0,0.7-0.2,1.2-1,1.2c-0.7,0-1.2-0.3-1.3-0.8
			c-0.5-0.8-0.8-1.8-1-2.8c-0.3-5-0.8-10-0.7-15.2c0-1,0.5-2.3-0.8-3.2c0-0.7-0.2-1.3-0.2-2c0.3-3,0.8-6.2-0.5-9.2
			C532.3,792.2,531.5,789.2,531.5,786.2z M497.8,839.3c2,0.3,3.5-0.7,5-1.8c0.5,0,0.8-0.2,1.3-0.2c3.3,0,5.7-2,8.3-3.5
			c0.5-0.3,1.3-1,1.3-1.5c-0.5-4.8,0-9.7-1.8-14.3c0-1.3-0.2-2.7-0.2-4.2c0.3-1.5,0.7-3-0.5-4.2c0-1.2-0.2-2.3-0.2-3.3
			c0.3-4.8-1.5-9.3-2.3-14.2c-0.5-2.8-1.7-2.5-3.3-1.2c-4,2-8.2,4-12.2,6c-10.8,5.3-21.7,10.8-32.5,16.2c-1.2-1-1.3,0-1.7,0.8
			c-1.2,0.5-2,1.5-3.3,1.3l0,0c-4.3,3.2-9.7,5-14.3,7.7c-14.2,7.2-28.3,14.2-42.5,21.3c-5,2.5-9.8,5.8-15.2,7.3
			c-4,1.2-3.8,3.2-3.5,6c0.7,4.7,1.7,9.3,1.3,14.2c-0.2,1.5,0.2,3,2,3.2c2,0.2,1.8-1.7,2.2-2.8c1.5-4-1.7-7.7-0.7-11.5
			c0.3-1.3-1-3.5,1-3.8c2.2-0.3,3.2,1.7,3.5,3.5c0.3,1.7,0.7,3.5-1,5.2c-1.7,1.5-0.8,2.8,1.2,3.3c5.7,1.3,11.3,0.5,16.7-1.2
			c7.8-2.3,15.8-4.7,23.7-7.2c5.2-1.7,10.5-3.2,15.8-4.3c5.2-1.2,10.2-3.3,15.3-5.2c4.3-1.5,9.2-2,13.3-4.5c0.5-0.2,0.8-0.2,1.3-0.3
			c3.5-0.5,6.7-1.5,9.8-3.2c0.5-0.2,0.8-0.2,1.3-0.3c3.5-0.3,6.8-1,9.8-3.2C497,839.5,497.3,839.5,497.8,839.3z M577.3,795
			c-1.8,0.3-3.7-0.3-3.8,0.7c-0.3,1.5-0.5,3.8,0.8,4.8c2.5,1.8,2.5,4.3,1.8,6.5c-0.8,2.8-0.3,5.5,0.3,8.2c0.3,1.8,0.5,3.7,0.5,5.5
			c0,2.3-0.2,4.8,3.2,5c3.2,0.2,4.8-1.5,5.2-4.3c0.3-2.3,1.2-4.3,3.2-6c1.5-1.2,2.5-2.5,0.8-4.3c-0.7-0.8-0.3-1.7,0.5-2.3
			c3.5-3,3.3-3,0.3-6.3c-0.2-0.2-0.3-0.3-0.5-0.5C586.3,797.8,581.3,796.5,577.3,795z M556.2,823.3c2-1.5,2.7-2.7,3-4.2
			c1-5.2,2.5-10.3,2.5-15.7c0-5,1.3-10.2,0.3-15.2c-0.3-1.3-0.5-3-2.3-2.8c-1.7,0.2-1.3,1.8-1.5,3c-1.2,7-0.8,14.3-1.8,21.3
			C555.7,814,556.2,818.3,556.2,823.3z"/>
		<path display="inline" fill="#00CB00" d="M80.5,120.5c0.8,0.3,1.8,0.3,2,1.5c0.5,2.2,1.7,2.3,3,0.7c0.8-1.3,1.7-0.5,1.5,0.2
			c-0.8,6.2,3.2,10.3,6,15c2,3.5,3.7,7.3,6.7,10.3c0.2,0.3,0.3,0.8,0.3,1.2c0.5,2.3,1.8,4.5,3.5,6.3c0.2,0.5,0.5,0.8,0.7,1.3
			c0.3,1.7,0.7,3.5,2.3,4.5c0.2,0.8,0.2,1.8,1.2,2.3c-0.2,0.8,0.3,1.3,1,1.8c3.7,8.7,7.3,17.3,11,26c-0.2,0.7,0,1.2,0.7,1.5
			c0.2,0.7,0.3,1.3,0.5,2c0.2,3,1.5,5.7,3.3,8c0.2,0.8,0.3,1.7,0.3,2.5c0,0.5-0.2,1,0,1.3c4,7.5,5.2,16,8,24
			c0.8,2.2,2.3,4.3,2.3,6.7c0,3.3,1,6.3,1.8,9.5c3.2,11.7,5.7,23.5,8.3,35.2c1.2,5.7,3.7,11,4,18.2c1.3-5,2.8-2.3,4.2-1.3
			c0,2,0,3.8,0.2,5.8c-1.2,2,0.3,3,1.3,4.3c0,0.8,0,1.8,0,2.7c-4.5,3.2-2,7.8-2.5,11.8c-0.7,7.2,0.5,14.5-0.8,21.7
			c-1.3,6.8-1.2,13.8-2.2,20.8c-0.5,4.3,1.3,6,6,6.5c4.7,0.7,9.3,0.8,14.2,0.5c2-0.2,2.8,0.8,3.5,2.3c0,0.7,0.2,1.3,0.5,2
			c-0.3,0.7,0,1.2,0.7,1.3c0,0.5,0.2,1,0.2,1.5c-0.2,1.8,0.3,3.5,1.7,4.8c0.2,0.5,0.2,0.8,0.3,1.3c-0.7,1.5,0.2,2.3,1.2,3
			c0,2.5,1.3,4.5,2.2,6.7c-0.7,1.3,0.3,1.8,1.3,2.5c0,0.3,0.2,0.8,0.2,1.2c-2,2.8-4.3,4.2-7.8,2.8c-1.2-0.5-2.5-0.5-3.7-0.8
			c-2.3-0.5-4-1.7-4.7-4c-2-7.2-5.7-13.7-7.5-21c-0.2-1-0.8-1.3-1.8-1.3c-5.7,0-11.3,0.2-17-0.7c-2.8,0.3-3.5-2.2-5-3.7
			c0.3-3.2,0.2-6.2,1.3-9.2c0.3-1.2,0.3-2.5-0.3-3.7c-2-3.2-1.8-7-2.8-10.5c-1.5-5-2.2-10.2-3.5-15.3c-2.8-11.5-6.2-23-8.7-34.7
			c-2.3-10.5-5.2-20.7-7.8-31c-1.7-6.7-3.3-13.3-5-20c-1.5-6.2-2.5-12.3-4.8-18.2c-2.2-5.7-2.5-11.7-4.2-17.5
			c-2-7.3-3.3-14.7-5.5-22c-2.2-7.3-4-14.8-5.7-22.3c-2.5-11.5-5.8-22.8-9.5-34c-0.3-0.8-0.5-1.8-1.3-2.3c-0.8-1.7-1.5-3.5-2.3-5.2
			c-0.7-1.5-0.5-2.5,0.7-3.5c1.8,0.3,3.5-0.2,4.8-1.3C79.7,120.8,80,120.7,80.5,120.5z"/>
		<path display="inline" fill="#D6D6D4" d="M732.5,652.8c-1.8-2-3.8-2.2-5.8-0.5c-1.8,1.5-4,1.8-5.8,1.2c-3-1-5.2,0.2-6.3,2.3
			c-1.8,4.2-5.7,4.3-9,5c-6.2,1.2-12.2,3.7-18.3,4.8c-3.2,0.7-6.2,1.7-9.3,2.5c-0.7,0.2-1.5,0.3-1.3,1.2c0.2,0.8,1,0.8,1.7,0.8
			c3.8-0.7,7.5-1.8,11.3-2.7c6.2-1.2,12.2-3,18.2-5c5.5-1.8,11.3-2.8,16.2-6.3c1.3-0.8,2.8-0.8,4.2,0.2c1.3,1,1,2.2,0.2,3.3
			c-0.5,0.7-0.5,1.8-0.8,2.5c-0.7,1.2-2.3,2.3-3.2,1.5c-3.7-4-7.5-1-10.8-0.2c-20.7,5-41.3,10.2-62.2,15c-13.7,3.2-27.5,5.8-41,9.8
			c-2.7,0.8-6,0.3-8.8,1.5c-0.7,0.3-1.7,0-2-1.2c5.7-0.7,10.7-3,16.3-3.5c5.7-0.5,11.2-3.2,16.8-4c4.3-0.7,8.2-3.2,13-3
			c2.5,0.2,5.5-1,8.2-1.8c1.8-0.7,3.8-1.2,5.7-1.7c1.3-0.3,3.8,0.3,3.3-1.8c-0.3-1.5-2.3,0.3-3.7,0.3c-3.8,0-7.3,1.7-11.2,2.2
			c-5.7,0.8-11.2,2.7-16.7,4c-6.2,1.5-12.2,3-18.5,3.5c-0.2-1.7,0.8-2,1.8-2.3c8.5-2.3,17-4.7,25.7-6.5c10-2.2,19.8-4.8,29.8-7.3
			c8.5-2.2,17-4.2,25.5-6.3c4.3-1.2,8.7-2.5,13.2-2.8c1,0,1.8-0.7,1.5-1.8s-1.3-0.5-2-0.3c-15,2-30,4.5-45,6.7
			c-10.3,1.5-20.8,2-31.2,3.8c-1.5,0.3-4.2,1.2-4.3-0.8c-0.2-1.5,2.7-1.5,4.3-1.8c5.2-1,10.7-1.7,15.5-3.8c1.8-0.8,3.8-0.8,5.7-1.2
			c9.3-2.3,18.5-4.5,27.8-7c7.5-2,15-4.2,22.5-6.3c2.2-0.7,4.5-1.2,6.8-1c1.8,0.2,3.3-0.2,4.8-1.3c1.5-1.2,3.3-1.3,5.3-1.3
			c11.7-0.8,23.3-2.2,35.2-2.7c6.7-0.3,13.2-1.2,19.7-2c8-1,16-1.8,23.8-3.5c0.5-0.2,1.2-0.3,1.7,0.2c-0.8,2.2-2.7,2.5-4.5,3
			c-7.7,2.2-15.3,4-23,5.3c-7.5,1.3-14.5,4.3-22,5.8c-4.2,0.8-8.2,2-12.2,3.3C736.8,651.5,734,650.2,732.5,652.8z M674.8,670.3
			c-0.2-1-0.8-1-1.5-0.8c-2.3,0.3-4.5,0.7-6.8,1.2c-1,0.2-2.2,0.8-1.8,2.2c0.5,1.5,2,1,2.8,0.5c1.8-1.2,3.5-2,5.8-1.7
			C674,671.5,674.7,671.2,674.8,670.3z"/>
		<path display="inline" fill="#00CB00" d="M150,408c2.8-0.2,5-2,8.2-2.2c5,0,9.3,0.7,13.5,3.5c6.8,4.5,12.2,10.5,16.8,17.2
			c7.2,10,12.5,20.8,18.5,31.5c0.8,1.5,0.7,3.3,2.3,4.5c1.2,1-0.7,2-0.8,3c-0.8,0-1.8,0-2.7,0c-2.5-0.3-4.8-0.3-7,1.3
			c-1.7,0.3-3.2,0.5-4.8,0.8c-4.7-0.7-8.3,1.2-11.2,4.7c-0.8,1-1.8,1.8-2.5,0c-2.3-6-5.7-11.3-8.3-17c-1.3-3-3.5-5.7-4.3-8.8
			c-1.8-6.3-5.2-12-8.3-17.7c-3.7-6.7-6.3-13.8-9.5-20.7L150,408z"/>
		<path display="inline" fill="#00CB00" d="M780.5,486.8c1,1.5,1,2.8-1.2,3.2c-3.8,0.7-7.3,2.5-11,3.5c-8.5,2.3-17.3,3-25.5,6.3
			c-9,3.5-18.5,4.8-27.8,7.3c-13.2,3.7-26.7,6.5-40,9.8c-9.2,2.3-18.3,4.3-27.5,6.5c-0.8,0.2-1.5,0.2-2.3,0c-4-0.8-7.8-1.5-12-1.5
			c-0.7,0-1.5,0-1.7-0.8s0.7-1,1.3-1.2c13.5-3,26.5-7.5,40-10.5c13.7-3,27.3-6.3,41-9.8c10.7-2.7,21-5.7,31.3-9.5
			c4.7-1.7,9.3-3.7,14.3-4.8c0.2,1.2-2.2,3.5,1.3,3.3c1.2,0,1.2,0.5-1.2,3.8c5.2-1.8,8.8-4.8,11.7-9c1.2-1.7,2.3-2.3,4.3-2
			C777,483.8,778.5,485.7,780.5,486.8z"/>
		<path display="inline" fill="#00CB00" d="M286.7,364c0.2-3.2-2.3-2-4-2.2c-0.7-0.2-1.5,0.2-1.7-0.7s0.5-1.3,1.2-1.5
			c5-2.2,10.2-2.8,15.5-1.7c2.7,0.7,4.7-1.7,7.3-1.2c0.5,0.2,1.3-0.3,2,0.2c2.5,2.2,5.2,2.8,8,0.7c0.7-0.5,1.7-0.7,2.2,0.3
			s-0.5,1-1.2,1.3c-1,0.3-1.5,1-1.2,2.2c-0.2,1-0.3,2,0.7,2.7c0,0.5,0,1.2,0.7,1.5c0,0.7,0.2,1.3,0.2,2c0.8,4,2.2,8,4,11.7
			c1.8,4,1.5,5.2-2.7,5.7c-7,1-13.8,1.7-20.8,2.5c-2.3,0.3-3-0.8-3.8-2.8c-1.7-3.8-1.7-8.3-4.5-11.7c0-0.3,0-0.7-0.2-1.2
			c1-2,0.5-3.5-1.3-4.5C286.8,366,286.8,365,286.7,364z"/>
		<path display="inline" fill="#D6D6D4" d="M76,131c1,0.5,1.2,1.5,1.3,2.3c3.7,11.2,7,22.5,9.5,34c1.7,7.5,3.5,15,5.7,22.3
			c2.2,7.2,3.5,14.7,5.5,22c1.7,5.8,2,11.8,4.2,17.5c2.3,5.8,3.3,12.2,4.8,18.2c1.7,6.7,3.3,13.3,5,20c2.7,10.3,5.5,20.7,7.8,31
			c2.5,11.7,5.8,23,8.7,34.7c1.2,5.2,2,10.3,3.5,15.3c1,3.5,1,7.2,2.8,10.5c0.7,1.2,0.8,2.5,0.3,3.7c-1,3-1,6.2-1.3,9.2
			c-1-0.2-1.2-0.8-1.2-1.8c-0.3-9.5-4-18.3-5.8-27.5c-1.5-7.8-4-15.5-5.5-23.5c-1.2-6.5-3.3-12.8-5-19.3c-1.8-7.3-3.5-14.7-5.3-22.2
			c-1.8-7.2-3.5-14.5-5.3-21.7c-1.7-6.7-3.5-13.3-4.8-20c-2.3-11.2-5.3-22.2-8.2-33.2c-3.5-13.8-7-27.7-10.3-41.5
			c-2.2-9-4.3-18-6.5-27C75.8,133,75.7,132,76,131z"/>
		<path display="inline" fill="#D6D6D4" d="M519.5,775.3c-2,0.3-4,0.5-5.7,1.8c-0.3,0.3-1,0.5-1.2,0.3c-2.7-1.2-5.3-0.2-8,0
			c-0.7,0-1.3,0-1.8-0.7c2.3-1.2,5-1.5,7.7-1.5c1.8,0.2,3.7-0.5,5.5-0.8c1.2-0.3,2-1.3,1.2-2.3c-1.7-2.2-1.2-4.7-1-7
			c0.5-9.2-1.2-18.3-1.3-27.5c0-3.2-3.3-1.8-4.3-3.7c4.5-0.3,5.3,0.5,5.8,4.7c0.5,3.8,0.7,7.5,0.7,11.3c0,2,1.2,3.2,3.3,3.2
			c3.7-0.2,7.3,0,11-0.7c4.5-0.8,6.3,0.7,6.3,5.2c0,2.8,0,5.8,0,8.7c0,1.3,0.2,2.5-1.5,3c-0.7,0.2-1.2,0.8-0.7,1.7
			c1.2,1.5,7.3,0,8.2-2c2.3,1.2,3.2,0.2,3-2.2c0-4.7,0-9.2,0.2-13.8c6-0.5,6-0.5,6,6c0,3.5,0.5,7-0.3,10.3c-0.3,1.5,0.2,1.8,1.5,2
			c3.2,0.3,5-1.5,4.8-4.7c-0.3-12.5,0.2-24.8,2.5-37c0.2-0.7,0.3-1.2,1-1.2c0.5,0,0.8,0.3,1,0.8c0.3,0.8,0.5,1.7,0.8,2.7
			c-2.5,3.3-2.3,7.2-2.8,11c-0.8,7-0.8,14-0.7,21c0,3.5,0.8,7,0,10.5c-2.3,0.2-4.7,0.2-7,0.3c0-1.3,2.3-0.7,2.2-2
			c-5.5-1.7-10.8-0.3-16.2-0.2c-6.2,0-12.3-0.8-18.5-0.2C518.5,773.2,519.2,774.2,519.5,775.3z M518,762.7L518,762.7
			c0,2,0,3.8,0,5.8c0,1.5,0.8,2.5,2,2.8c1.7,0.5,3.3,0.2,4.5-1c0.8-1-0.2-2.2-0.8-3c-1.3-1.8-0.8-3.8-0.8-5.7c0-2.2-0.7-4-2-5.7
			c-0.7-0.7-1.2-1-2-0.8c-0.8,0.3-0.8,1-0.8,1.7C518,758.7,518,760.7,518,762.7z"/>
		<path display="inline" fill="#FFFFFF" d="M334.8,737c2.8-2,6.2-2,9.2-2.2c4-0.2,7.8-0.7,11.7-2.2c7.2-2.8,14.8-4,22.2-6.3
			c5.2-1.7,10.8-2,15.8-4.5c2.7-1.3,6-0.2,8.8-2.2c1.3-1,3.7,1.5,3.8,4.2c0,1-0.2,2.2,0,3.2c0.3,1.3,1.8,2.3,2.5,1.3
			c2.5-4.5,6.5-3,10.2-2.8c0,0.8-0.3,1.7,0.7,2.2c1,0.3,1.5-0.3,1.8-1c0.3-0.5,0.8-0.8,1.3-0.8c0.3,2.2-1.2,3.5-2.8,3.7
			c-3.3,0.5-6.3,2.8-9.8,1.3c-0.5-0.2-1.5,0.3-2.2,0.5c-2.7-3.8-6.5-1.5-9.3-1c-10.5,1.7-21,2.3-31.3,4c-6.2,1-12.3,1.3-18.5,2.2
			C344,737.2,339.3,737.5,334.8,737z"/>
		<path display="inline" fill="#D6D6D4" d="M149.7,408.2c3.2,6.8,5.8,14,9.5,20.7c3.2,5.7,6.5,11.2,8.3,17.7c0.8,3.2,3,5.8,4.3,8.8
			c2.5,5.8,6,11.2,8.3,17c0.7,1.8,1.7,1,2.5,0c3-3.5,6.5-5.3,11.2-4.7c-0.8,1.8-2.5,1.3-3.8,1.7c-4.3,1.3-5.7,2.8-6,7.3
			c-0.2,1.3-0.2,3.2-1.7,3.5c-1.8,0.5-1.7-1.5-2.2-2.5c-5.8-12.8-12.3-25.3-18.2-38.2c-3.3-7.2-6.5-14.5-10.5-21.3
			c-1.3-2.2-1.8-4.7-3.2-6.8C147.3,410,148,408.7,149.7,408.2z"/>
		<path display="inline" fill="#00CB00" d="M524.7,441.8c0.2,1.3,0,2.7-0.8,3.5c-1.5,1.5-2.7,3.2-2.5,5.3c0,0.7-0.2,1.8-1.2,1.8
			c-1.2,0.2-1.7-1-1.7-1.8c-0.2-2.2-2.8-4.7,1-6.5c1.2-0.5,0.3-2-0.2-3.2c-3.3-8-7.8-15.3-11.7-23c-0.8-1.8-1.8-3.5-3-5.7
			c2.3,0.2,2.3,2.7,4,2.8c0,0.2,0.2,0.3,0.2,0.5c0,0.8,0.5,1.3,1.3,1.5c0,0.3,0.2,0.8,0.2,1.2c0.2,0.3,0.3,0.5,0.5,0.8
			C515.5,427,520.2,434.5,524.7,441.8z"/>
		<path display="inline" fill="#D6D6D4" d="M265.2,666c0.8,0.5,1,1.3,1,2.2c-1.2,5.3-0.2,10.8,0.2,16.2c0.2,4.2,1.8,8.2,2.8,12.3
			c-1.8-0.5-1.8-2.2-2.2-3.5c-2.3-8.3-2.8-16.7-2.5-25.2C264.5,667.2,264.5,666.5,265.2,666z"/>
		<path display="inline" fill="#D6D6D4" d="M716,668.2c0.7-1.2,1.8-1.2,3-1.3c1.3-0.2,2.7-0.3,4-0.7c7-1.3,8.8-3.5,9.7-11.3
			c1.7,1.7,0.8,7.5-1.3,9C726.7,666.8,721.7,668.7,716,668.2z"/>
		<path display="inline" fill="#D6D6D4" d="M913.2,602.8c3.3-4.8,7.8-8.8,11.8-13C922.3,595.3,919.2,600.3,913.2,602.8z"/>
		<path display="inline" fill="#D6D6D4" d="M625.3,707.2c3.2-2.5,6.8-3.7,10.5-4.7c0.8,1.7,1.5,2.8-1.3,3.2c-2,0.2-4,0.7-5.5,2.3
			C627.7,709.7,626.3,708.5,625.3,707.2z"/>
		<path display="inline" fill="#D6D6D4" d="M895.8,610.7c4-2.3,8.2-3.7,12.5-4.8C904.7,608.5,900.7,610.7,895.8,610.7z"/>
		<path display="inline" fill="#D6D6D4" d="M430.5,731.8c3.7-0.8,7.5-1,11.2,0.3C437.8,732.8,434.2,733.3,430.5,731.8z"/>
		<path display="inline" fill="#D6D6D4" d="M465.2,733c3.8-0.3,7.8-1.2,11.5,0.8c-3.3,0.5-6.7,0.2-9.8,0.2
			C466,734,465.5,733.7,465.2,733z"/>
		<path display="inline" fill="#D6D6D4" d="M642.3,699.5c1.8-2.2,4.7-1.8,6.8-3C649,699,644.5,701,642.3,699.5z"/>
		<path display="inline" fill="#D6D6D4" d="M449.8,732.5c3.3-0.5,6.5-0.8,9.8,0.3C456.3,733.5,453.2,734,449.8,732.5z"/>
		<path display="inline" fill="#D6D6D4" d="M320.7,737.3c3.3-0.5,6.7-0.7,9.8-0.2C327.3,739,324,738.7,320.7,737.3z"/>
		<path display="inline" fill="#D6D6D4" d="M659,692.3c1.8-1.3,3.7-2.3,6-2.3c0.2,1.2,0.5,2.5-1.5,2c-1.3-0.3-1.7,0.5-2.3,1.3
			C659.5,695.5,659.2,694,659,692.3z"/>
		<path display="inline" fill="#D6D6D4" d="M613.8,711.7c1.7-1.5,3.7-2.2,6-2.2c0.2,1.2,0.7,3-1.7,1.8c-1.3-0.7-1.7,0.5-2.2,1
			C614.8,713.7,614.2,713.2,613.8,711.7z"/>
		<path display="inline" fill="#D6D6D4" d="M198.7,466.8c2.2-1.7,4.5-1.7,7-1.3C203.8,468.8,201.2,467.3,198.7,466.8z"/>
		<path display="inline" fill="#D6D6D4" d="M500.7,777c-2.2,1.2-4.2,3.5-7,1.3C496,777.7,498,776,500.7,777z"/>
		<path display="inline" fill="#D6D6D4" d="M594.8,719.8c1.5-1.7,3.8-2,5.8-2.7C600.5,721.8,597,719.7,594.8,719.8z"/>
		<path display="inline" fill="#D6D6D4" d="M484,734c2.5-0.8,5.2-0.7,7.7,0.2C489.2,735,486.5,735.2,484,734z"/>
		<path display="inline" fill="#D6D6D4" d="M807.7,631.8c2.2-1,4.5-1.2,7-1.3C812.7,633,810.3,633.2,807.7,631.8z"/>
		<path display="inline" fill="#D6D6D4" d="M313.8,736c2-0.3,4-0.3,5.5,1.2C317.3,737.8,315.3,737.8,313.8,736z"/>
		<path display="inline" fill="#D6D6D4" d="M675,685.5c1.5-0.7,2.8-2.7,4.8-1.7c-1.2,0.8-2.3,1.8-3.5,2.7
			C675,687.7,675.2,686.3,675,685.5z"/>
		<path display="inline" fill="#D6D6D4" d="M603.3,716.3c1.5-1.8,3.7-2,5.7-2.7C608,716.5,606,717.2,603.3,716.3z"/>
		<path display="inline" fill="#D6D6D4" d="M589.5,721.8c1.2-1.5,3-2,4.8-1.8c-0.8,1.7-2.8,2-4,3.2
			C590,723.5,589.7,722.3,589.5,721.8z"/>
		<path display="inline" fill="#D6D6D4" d="M417.2,733.8c1.5-2.7,4.3-1.7,6.5-2.2C421.8,733.5,419.5,733.3,417.2,733.8z"/>
		<path display="inline" fill="#D6D6D4" d="M889,612.7c1.7-1.3,3.5-2,5.7-1.8C893,612.5,891.2,613.5,889,612.7z"/>
		<path display="inline" fill="#D6D6D4" d="M79.2,121c-1.5,1.2-3,1.7-4.8,1.3C75.5,120.2,77.2,119.7,79.2,121z"/>
		<path display="inline" fill="#D6D6D4" d="M620.3,709.2c1.2-1.5,2.8-1,4.2-1.5c1,1,1,1.8-0.7,1.8
			C622.8,709.7,621.5,709.8,620.3,709.2z"/>
		<path display="inline" fill="#D6D6D4" d="M638.3,701.2c1-0.3,1.5-1.5,2.8-1.5c-0.3,1,0.5,2.7-1.5,3
			C638.7,702.8,638.3,702,638.3,701.2z"/>
		<path display="inline" fill="#D6D6D4" d="M610,713.5c0.8-0.3,1.7-0.8,2.3-1.2c0.2,1.5,0.2,3.2-1.7,3.3
			C609.3,715.7,610,714.3,610,713.5z"/>
		<path display="inline" fill="#D6D6D4" d="M876.3,616.7c1.3-1.7,3-2,5-1.8C880.2,616.8,878,616.3,876.3,616.7z"/>
		<path display="inline" fill="#D6D6D4" d="M671,687.2c1-0.7,2-1.5,3.3-1.3c-0.3,1.3-0.7,2.7-2.3,2.8C671,688.8,671,688,671,687.2z"
			/>
		<path display="inline" fill="#D6D6D4" d="M884.3,614.3c0.8-1,1.7-2.2,3.2-1.3C887,614.5,885.8,614.8,884.3,614.3z"/>
		<path display="inline" fill="#D6D6D4" d="M820.2,629.8c0.7-0.8,1.7-1.5,2.8-1.2C822.3,630,821.7,631,820.2,629.8z"/>
		<path display="inline" fill="#D6D6D4" d="M584.7,723.8c0.7-0.2,1.2-0.3,1.8-0.7c0.2,0.7,0.5,1.7-0.3,2
			C585.2,725.5,585,724.7,584.7,723.8z"/>
		<path display="inline" fill="#D6D6D4" d="M601.3,716.8c0.7-0.2,1.2-0.3,1.8-0.5c0.2,0.5,0.2,1.2-0.3,1.3
			C602,718,601.5,717.7,601.3,716.8z"/>
		<path display="inline" fill="#D6D6D4" d="M581.7,725.3c0.5-1,1.2-1.2,2.2-1.2C583.8,725.8,583,725.8,581.7,725.3z"/>
		<path display="inline" fill="#D6D6D4" d="M579.3,726.3c0.5-1,1.3-1.2,2.2-1C581.7,727.7,580.5,727,579.3,726.3z"/>
		<path display="inline" fill="#D6D6D4" d="M801.8,633.2c0.7-1.2,1.5-1.3,2.5-0.5C803.7,633.7,802.7,633.5,801.8,633.2z"/>
		<path display="inline" fill="#D6D6D4" d="M486.2,779.8c0,1.7-1.2,1.5-2.2,1.3C484.2,779.7,485.2,779.7,486.2,779.8z"/>
		<path display="inline" fill="#D6D6D4" d="M927.3,586.2c-0.2-1,0-2,1.2-2.2C928.5,585,928.5,586,927.3,586.2z"/>
		<path display="inline" fill="#D6D6D4" d="M310.3,735.2c0.8-0.3,1.7-0.3,2.2,0.5C311.5,736.3,310.8,736.2,310.3,735.2z"/>
		<path display="inline" fill="#D6D6D4" d="M910.3,604.8c0.3-1,1-1.5,2.2-1.3C912.5,604.8,911.5,604.8,910.3,604.8z"/>
		<path display="inline" fill="#D6D6D4" d="M926,588.3c-0.3-1,0-1.8,1.2-2C927.2,587.2,927.2,588,926,588.3z"/>
		<path display="inline" fill="#D6D6D4" d="M316,365.3c-0.7-0.2-0.7-0.8-0.7-1.5C316.2,364,317,364.2,316,365.3z"/>
		<path display="inline" fill="#D6D6D4" d="M565.3,732c0.3-0.7,0.8-0.8,1.5-0.7C566.5,732.3,566.2,733,565.3,732z"/>
		<path display="inline" fill="#D6D6D4" d="M408.2,733.5c0.7-0.2,1.2,0,1.5,0.5C408.8,735.2,408.5,734.5,408.2,733.5z"/>
		<path display="inline" fill="#D6D6D4" d="M655.2,694c0.5-0.7,1-1.2,1.8-1C656.8,694.3,656.2,694.5,655.2,694z"/>
		<path display="inline" fill="#D6D6D4" d="M650.5,696c0.3-0.7,1-1,1.7-0.8C652,696.3,651.5,696.7,650.5,696z"/>
		<path display="inline" fill="#D6D6D4" d="M666.7,689c0.5-0.2,0.8-0.2,1.3-0.3c-0.2,0.3-0.2,1-0.5,1.2
			C667,690,666.7,689.5,666.7,689z"/>
		<path display="inline" fill="#D6D6D4" d="M490.7,778.8c-0.5,0.7-0.8,1.5-1.8,0.7C489.2,778.5,489.8,778.5,490.7,778.8z"/>
		<path display="inline" fill="#D6D6D4" d="M510.2,417.7c-0.8-0.2-1.3-0.7-1.3-1.5C510,416,510.5,416.5,510.2,417.7z"/>
		<path display="inline" fill="#D6D6D4" d="M414.5,734c0.5-0.7,1-0.7,1.3,0C415.5,734.8,415,734.8,414.5,734z"/>
		<path display="inline" fill="#D6D6D4" d="M650.2,696.2L650.2,696.2L650.2,696.2z"/>
		<path display="inline" fill="#D6D6D4" d="M511,419.7c-0.2-0.3-0.3-0.5-0.5-0.8C510.7,419,510.8,419.3,511,419.7z"/>
		<path display="inline" fill="#000033" d="M602.5,800.8c-0.3-0.2-0.7-0.3-1-0.5c-3.8-3.2-8.3-4.8-12.8-6.5
			c-0.3-0.2-0.7-0.3-1.2-0.5c-0.3-1.3-1.7-1.3-2.5-1.7c-4.5-1.3-5-5-5-8.7c0-1.8,0.3-3.2,3.3-2.7c5.7,1,11.5,1.8,17.2,2.3
			c5,0.5,9.5,2.3,14.5,2.7c5.8,0.3,11.7,1.8,17.7,3c5.3,1,10.5,1.3,15.8,3c3.8,1.2,8.2,0.8,12.2,1.7c7,1.3,14,2.8,21,3.3
			c5.8,0.3,11.2,2.3,17,2.7c3.3,0.2,6.3,2.3,10,2.3c-1.7,1.2-3.3,2-5.5,1.5c-1.8-0.3-4.3-1.2-2.7,2.5c0,0.2,0.2,0.3,0.2,0.3
			c-3.7,3.2,0.2,4.5,1.7,6.5c1.5,2.3,1,4.8-1,6.7c-2,1.8-1.3,3.2-0.5,5.2c1.8,3.7,4.2,5.8,8.7,4.8c2.2-0.5,4.3,0.3,6.5,0.7
			c0.7,0.2,1.5,0.3,1.2,1.3c-0.2,1-1,0.7-1.7,0.5c-9.8-1-19.8-0.2-29.8-0.3c-0.5,0-0.8,0.2-1.3,0.3c-2.2-0.2-4.3-0.2-6.5-0.3
			c-2-1.3-4.2-1.3-6.3-0.2c-0.7,0-1.3,0-2,0c-2-1.8-3.8-0.5-5.8,0.2c-0.5-0.2-1.2-0.3-1.7-0.5c-0.2-0.8-0.8-1.2-1.7-1
			c-13.8-6.8-27.7-13.7-41.3-20.5c-1.2-1.8-3.2-2.2-5-2.5c-0.3-0.2-0.8-0.3-1.2-0.3c-1.5-1.8-3.5-2.8-6-3c-0.3-0.2-0.7-0.3-1-0.5
			C605.2,800.8,604,800.5,602.5,800.8z"/>
		<path display="inline" fill="#00CB00" d="M817.2,835.3c3.2,0.7,4.3,0,4.2-3c-0.5-5.7-1.5-11.3-2-17.2c-0.2-1.2-1.7-1.3-1.5-2.7
			c1.2-0.3,2.5-0.7,3.7-0.7c1.3-0.2,2,0.5,2.3,2c0.8,5.2,1.2,10.5,2.5,15.7c1.2,4.3-1.8,8.8-6.2,9c-6.2,0.2-12.2,0.2-18.3,0.3
			c-3.3,0.2-7-2.3-10.5-3.5c0.8-7.2,0.2-14.3,0.3-21.5c1.5-2.2,3.7-2.3,6-2.2c1.5,0.2,2,0.7,1.7,2.2l0,0c-1.8,0.3-1.5,1.8-1.3,3
			c0.5,5.5,1,11.2,0.7,16.7c0,1,0.2,1.8,1.3,2.2c1.5,1,3.2,0.5,4.7,0.7c2.7,0.3,4.2-0.7,3.8-3.7c-0.2-3-0.2-6-0.2-9
			c1-2.5,0.8-5,0-7.7c0.2-0.7,0.3-1.3-0.2-2c1.7-3,3.5-1.8,5.3-0.2c-0.8,6.3-0.2,12.5-0.2,18.8C813.2,836.3,813.5,836.5,817.2,835.3
			z"/>
		<path display="inline" fill="#00CB00" d="M273.3,834c-1,2-0.5,4-0.5,6.2c0,2.5,2,2.3,3.7,2.3c1.8,0,3.3-0.3,3.2-2.7
			c-0.2-5.8,0.3-11.8,0.7-17.7c0.2-1.2-0.8-3,1.3-3.3c2.2-0.2,2.3,1.7,2.5,3.2c0.3,4.2,0.3,8.3,0,12.5c-0.3,3.5-0.7,7-2.3,10.3
			c-0.2,0.3-0.3,0.8-0.7,1.2c-3.2,2.5-6-0.8-9.2-0.3c-1.3,0.2-2.2-1-2-2.7c0-7.2,0-14.3,0-21.5c0-1.2,0-2.7,1.5-2.7
			c2.3,0.2,0.3,1.7,0.7,2.5c0.8,3-1,6.3,1.2,9.2C273.3,831.8,273.3,832.8,273.3,834z"/>
		<path display="inline" fill="#F8F8FA" d="M808.2,814c0.3,0.7,0.3,1.3,0.2,2c-1,2.5-1,5,0,7.7c0,3,0,6,0.2,9c0.2,3-1.2,4-3.8,3.7
			c-1.5-0.2-3.2,0.3-4.7-0.7c0.3-7.3,0.2-14.5-0.7-21.8l0,0c2.8-0.2,4.2,0.3,3.7,3.8c-0.5,4,0.5,8.3,1.2,12.5
			c1.3-4.3,2-8.8,1.3-13.2C805.2,814.2,805.8,813.7,808.2,814z"/>
		<path display="inline" fill="#F8F8FA" d="M791.5,813.8c0,7.2,0.5,14.3-0.3,21.5c-4-0.3-4.7-1.3-4.5-5.2c0.2-5,0-9.8,0-14.8
			c0-1.2-0.2-2.3,1.7-2.8C790.2,811.8,791,812.5,791.5,813.8z"/>
		<path display="inline" fill="#000033" d="M273.3,834c0-1,0-2.2,0-3.2c0.7-2.7,0.2-5.3,0.3-8c0-1.8,0.5-3.3,2.8-3
			c2,0.3,2.7,1.2,2.3,3.5c-0.5,4.2-0.3,8.3-0.3,12.5c0,1,0.2,2.2-0.5,3c-0.5,0.8-1.3,1.3-2.3,1.3c-1.3-0.2-1.2-1.2-1.3-2
			C274.2,836.7,275,835,273.3,834z"/>
		<path display="inline" fill="#F8F8FA" d="M817.2,835.3c-3.7,1.3-4,1-4-2.7c0.2-6.3-0.7-12.7,0.2-18.8c1.3-0.5,2.3-0.2,2.3,1.3
			C816.2,821.8,818,828.5,817.2,835.3z"/>
		<path display="inline" fill="#00CB00" d="M256.3,830.2c3.2,2.7,2.2,5.7,2.3,8c0.3,3,1.5,4.5,4.3,5.2c1,0.2,2.2,0.8,3,2.3
			c-3.5-0.3-6.7,0.7-9.5-2c-2-1.8-3-3.2-1.8-5.8C255.7,835.5,256.5,833.3,256.3,830.2z"/>
		<path display="inline" fill="#000033" d="M266.5,820.8c1.8,0.8,1.5,1.7,1.5,2.3c0,5.3,0,10.8,0,16.2c0,0.8,0.2,1.7-1,2
			c-0.7,0.2-1-0.3-1.2-1C265.5,834,267.3,827.7,266.5,820.8z"/>
		<path display="inline" fill="#00CB00" d="M722,833.8c-5.3,0-10.5,0-15.8,0c-0.7,0-1.8,0.2-1.7-1c0.2-0.8,1-0.8,1.7-0.7
			c5.3,0.3,10.5,0.8,15.8,1.3C722,833.5,722,833.7,722,833.8z"/>
		<path display="inline" fill="#00CB00" d="M677.8,830.7c2.2,0.2,4.3,0.2,6.5,0.3c0.3,1,0,1.7-1,1.7c-4.3,0-8.7,0.3-13-0.5
			c-1-0.2-1-0.7-0.8-1.3c0.7,0,1.3,0,2,0C673.7,831.7,675.7,831.3,677.8,830.7z"/>
		<path display="inline" fill="#00CB00" d="M784.8,835.5c-3.7,0.3-7.5,0.8-11.3-0.2C776.2,833.7,782,833.7,784.8,835.5z"/>
		<path display="inline" fill="#000033" d="M288.3,371.5c0,0.3,0,0.7,0.2,1.2c-0.3,3.7,1.3,7,2.5,10.2c0.8,2.2,0.5,3-1.7,3.3
			c-6.5,0.7-13,1.7-19.5,2c-10.3,0.5-20.5,2-30.7,3.8c-1.7,0.3-3.2,0.3-4.8,0.3c-4.5-0.2-9,0.2-13.3,1.5c-2.5,0.8-5,0.8-7.5,0.2
			c-2.2-0.7-4.5,0.2-6.5,0.7c-6.7,1.8-13.7,2.3-20,5.8c-1.8,1-3.8,0.2-5.7-0.5c0-0.3-0.2-0.8-0.2-1.2c0.3-1.2-0.2-2-1.3-2.5
			c-0.8-2.2-2.2-4.2-2.2-6.7c0.2-1.3-0.3-2.3-1.2-3c-0.2-0.5-0.2-0.8-0.3-1.3c0.3-2-0.5-3.5-1.7-4.8c0-0.5-0.2-1-0.2-1.5
			c0.5-0.7,0-1.2-0.7-1.3c-0.5-0.5-0.7-1.2-0.5-2c2.8-2.3,6.3-1.5,9.5-1.8c8.3-1.2,16.7-2.2,25-2.2c5.8,0,11.7-0.2,17.3-0.2
			c7.2,0,14.3-1.2,21.5-2.2c6.8-0.8,13.8-2,20.7-3.3c5-1,10.3-0.2,15.3-2.3c1.5-0.7,3,0.2,4.3,0.5c0.2,1,0.2,2,0.3,3.2
			C286.7,368.8,287,370.3,288.3,371.5z"/>
		<path display="inline" fill="#000033" d="M669.7,596.5c-0.3-0.3-0.5-0.5-0.8-0.8c0-0.8-0.5-1.2-1.3-1.2
			c-8.8-9.8-18.3-19.2-28.7-27.5c0-0.2-0.2-0.2-0.3-0.3c-1-0.8-2.2-1.7-3.2-2.5c-3.2-3.8-7.5-6.2-11.5-8.7
			c-5.3-3.2-10.7-6.7-16.5-8.3c-8.5-2.5-17-4.8-25.7-6.2c-7.8-1.2-15.5-0.5-23.3-0.7c-4.7,0-9.3,0.3-14,1.2
			c-1.7,0.3-3.5,0.3-5.2,0.2c-3-0.3-5.8,0.3-8.7,0.5c-9.2,0.5-18.7,2-27.5-2.5c-1-0.5-1.8-0.8-1.8-2.2c1.2-0.5,2,0.2,3,0.5
			c1.2,0.3,1.8,0.3,2.3-1c0.7-2,2.2-2.5,4.2-1.7c1.8,0.7,3.2,0.5,4.2-1.7c1.5-3,4.8-2.2,7.3-2.7c1.8-0.3,3.5-0.7,5.2-1.5
			c2.2-1.2,4.5-1.7,7-1.3c4.7,0.5,5.8-0.8,4.5-5c1.7-0.2,3.3-0.5,4.8-0.7c0.3,2.3,3,1.5,4,2.7c1.7,2.2,2.5,0.5,3.8-0.3
			c0.7-0.5,1.8-0.2,2.7-0.2c7.5,0,15-0.3,22.5,0.2c6.8,0.5,13.7,1.5,20.3,2.8c5,1,9,3.5,13.5,5.3c2.7,1,5.5,0.8,8,1.5
			c2.7,0.7,4.3,1.8,6.3,3.2c3,2,6.2,3.5,8.8,5.8c2.3,2,3.8,4.3,5.2,6.7c1.8,3.5,3.7,6.8,5.8,10c1,1.5,0.8,2.8,0,3.7
			c-1,0.8-1.8-0.5-2.8-1.2c-3.7-2.7-7.5-5.2-11.3-7.5c-0.5-0.3-1.5-1-2.2,0c-0.5,1,0.5,1.3,1.2,1.8c7.5,4.8,14,11.2,21.2,16.7
			c3.8,3,7.2,6.3,10.7,9.5c1.8,1.7,2.8,3.7,4.7,5.2c5.3,4.3,9.5,10,14.8,14.5c3.7,3.2,7.5,6.8,10.5,10.8c-7-2.8-11.5-9.2-17.8-12.8
			c-0.2,0-0.3-0.2-0.3-0.3C672.8,598.5,671.7,597,669.7,596.5z M611.3,544.7c-0.3,0.2-0.7,0.3-0.8,0.5c-0.2,0.5,0,1,0.5,1.2
			c5,2.5,9.8,5,14.8,7.5c0.7,0.3,1.3,0.3,1.7-0.5c0.2-0.7-0.3-1-0.8-1.2c-2.3-1.3-4.7-2.5-6.8-3.7
			C617.2,547,614.2,546.2,611.3,544.7z M543.7,525c-0.3-0.3-0.5-0.5-0.8-0.7c-0.3,0-0.7,0.2-0.8,0.3c-0.2,0.5,0.2,0.8,0.7,0.8
			C543,525.5,543.2,525.3,543.7,525z"/>
		<path display="inline" fill="#000033" d="M492.5,508c-0.3,2.8-0.7,5.2-0.8,7.5c-0.2,1-0.5,1.8-1.7,1.8s-1-1-1-1.8
			c-0.2-1.3,0.7-3.5-1.2-3.8c-1.7-0.3-2.7,1.2-3.8,2.5c-2.5,3.2-5,2.7-7-0.7c-2.2-3.8-4.2-8-7-11.3c-1.2-1.3,0.3-2.7-0.2-4
			c-2.2-4.3-2-8.5,0.8-12.5c-1.7-5.7,1.7-5.8,6-5.8c3.7-0.2,4.8-3,3.5-6.7c-0.3-0.8-0.8-2,0.2-2.5c1.2-0.7,1.5,0.5,2.3,1.3
			c4.5,5.2,5.2,11.8,7,18.2C491.5,496,491.2,502.3,492.5,508z"/>
		<path display="inline" fill="#000033" d="M231.3,491.3c1,0.2,1.7,0.5,2,0.3c5.5-2.3,11.5-1.2,16.8-2.5c5-1.2,10-2.3,14.8-2.7
			c7.5-0.5,14.8-1.7,22.3-1.8c5.7-0.2,11.2-0.8,16.8-0.3c0.7,0,1.5-0.3,1.7,0.5c0.2,1.2-0.8,1.3-1.5,1.2c-5.3-1-9.8,2.7-15.2,2.5
			c-2.2,0-5.2,0.7-7.5,1.7c-1.3,0.5-2.5,1-4,0.3c-1-0.5-2.3-0.3-3.2,0.7c-0.3,0.3-0.8,1-1.3,1c-6.8,0.3-13.2,3.7-19.8,3.3
			c-5.5-0.3-10.5,2-15.7,2.3c-8.3,0.7-16.5,2.5-24.8,1.7c-1.5-0.2-3.2,0.8-4.2,0.8c-4.2-0.2-8.2-0.2-12.2,0.3c-0.3,0-0.8-0.5-1-0.8
			c-0.2-0.7,0.5-0.8,1.2-1c5.3-1.5,10.7-2.7,16-3.7c4.3-0.8,8.7-1.7,13-2.7C227.7,491.8,229.8,491.8,231.3,491.3z"/>
		<path display="inline" fill="#00CB00" d="M543.8,522.2c-1.7,0.2-3.3,0.5-4.8,0.7c-2-1-4-0.7-6.2-0.3c-1.8,0.3-2.5-0.7-2.2-2.2
			c0.5-1.7,0-3.7,0.8-5c2-3.8,0.7-7.8,0-11.3c-0.7-4-1.8-8-3.5-11.8c-0.7-1.5-1.2-4.2,0.5-4.8c1.2-0.5,2,2.2,2.5,3.5
			c3.5,9,8.3,17.2,14,24.8c0.3,0.5,1,1,1.3,1.7c0.5,1.2,3,1.3,2,3C547.5,521.8,545.8,522.7,543.8,522.2z"/>
		<path display="inline" fill="#000033" d="M505.5,492c-4.2-6.2-4.3-13.7-7.5-20c-3.7-7-5-15.2-10.5-21.3c-1.8-2-4.5-3.3-6-6
			c-0.3-0.7-1-1.2-0.5-1.8c0.5-0.8,1.3-0.2,1.8,0c4,2,7.2,5,9.3,8.8c7,11.7,11.7,24.2,14,37.7C506.2,490.3,506.7,491.2,505.5,492z"
			/>
		<path display="inline" fill="#00CB00" d="M914.3,581.7c0.5-4.5,3.5-7.7,4.8-11.7c1.3-4,2-8.3,2.3-12.5c0.5-4.7,2.8-9,2.7-13.8
			c0-0.5,0.3-1,0.8-1c0.8,0.2,1.2,0.8,1,1.5c-0.8,6.3-0.7,12.8-2,19.2c-1.5,6.3-4.5,11.8-8.2,17C915.7,581,915.3,581.7,914.3,581.7z
			"/>
		<path display="inline" fill="#FFFFFF" d="M529.8,733.2c-5.5-0.3-11-0.3-16.5-2c-5.2-1.7-10.8-1.3-16.5-1c-9.7,0.3-19.5,0-29-0.7
			c-6.8-0.5-13.3,0.8-20,0.3c-4.2-0.3-8.3,0-13.3,0c2.3-2.5,4.7-2,6.7-2.3c10.7-2,21.3-3.5,32-5.3c11-1.8,21.7-5,32.7-5.8
			c1.5-0.2,3.2-0.7,3.7,1.3c0.3,1.7,1.2,3.2,3,2.3c2.2-1-0.5-2.3-0.2-3.7c3.3-0.7,3.8,2.2,4.8,4.2c0.2,0.3,0,0.8,0.2,1.3
			c0.3,1.7-0.8,4.5,0.7,4.7c2.2,0.2,1.3-2.8,2.2-4.3c0.5-0.8,0.7-1.8,0.7-2.7c-1-5.8,4.7-5.3,7.3-7.8c0.5-0.5,1.8-0.7,2.5,0.3
			c-1.5,0.7-2.2,1.7-2,3.5c0.2,3.2,0,6.2,0,9.3C528.7,727.7,528.2,730.5,529.8,733.2z"/>
		<path display="inline" fill="#FFFFFF" d="M334.2,585.2c-0.2,0.5-0.3,0.8-0.7,1.2c-3.8,3.3-6.7,7.7-11.7,9.7
			c-2.5,1-3.3,3.8-5.3,5.3c-9.3,7-18.5,14-27.2,21.8c-3.2,2.8-5.8,6.2-8.7,9.3c-0.5,0.5-0.8,1.7-1.8,1.2c-1-0.5-0.7-1.7-0.2-2.5
			c2.5-4.3,4.3-9.2,7.5-13.2c7.7-9,16.7-16.5,26.7-22.7c6-3.7,12-7.2,18-10.7C332,584.2,333.2,583.3,334.2,585.2z"/>
		<path display="inline" fill="#D6D6D4" d="M576.5,717.7c1-1.5,2.7-0.3,3.2-1.8c0.2-0.5-0.2-1-0.7-1c-1.3-0.3-2.5-0.2-3.5,1
			c-1,1.2-2.5,1.7-3.7,2.5c-2.2,1.7-4.5,3.3-2.5,6.8c1,1.7-1.2,1.8-2,2.3c-1.2,0.7-1.8,0-2-1.5c0-3.2,0.2-5.8,3.3-8.3
			c6.3-5.2,12.3-11.2,18.2-17c3.7-3.7,8.2-3.8,12.8-3.8c1.7,0,3.2,0.2,4.7-0.7c2.7-1.5,6-1.3,8.8-2.8c0.5-0.3,1.5-0.5,1.8,0.5
			c0.3,0.8-0.5,1.5-1,1.5c-2.2,0.5-2.7,1.3-2.2,3.8c0.5,2.2-2.3,3-3.7,2.7c-4-0.8-7.7,1.3-11.5,1c-0.8-0.2-1.5,0.2-2,1
			c-1.3,2.3-4.2,4.3-5,6.3c-1.7,4-6.8,3.5-8.2,7.7C580.7,719.8,578.3,718.2,576.5,717.7z M590.7,705c-0.2-0.2-0.2-0.5-0.3-0.5
			c-0.2,0-0.3,0.2-0.5,0.2c0.2,0.2,0.2,0.5,0.3,0.7C590.5,705.2,590.5,705,590.7,705z"/>
		<path display="inline" fill="#D6D6D4" d="M427.3,720.8c0.2-1.2-0.2-2.2-0.8-3c8-2.3,16.2-3.3,24.2-4.5c15.3-2.5,30.3-5.8,45.5-9.5
			c0.5-0.2,1.5-0.2,1.2-1.2c-11.2,0.3-22.2,2-33,5c-0.3,0.2-0.8-0.3-1.2-0.5c3-2.3,6.8-2.2,10.3-3c7.5-1.7,15-3.2,22.7-3.3
			c1.5,0,3.2-0.3,3.7,1.7c0.3,1.8-1.2,2.2-2.5,2.5c-0.5,0.2-1.3,0.2-1,1c0.3,0.8,1,0.8,1.7,0.7c2.7-1,3,0.3,2.5,2.5
			c-9.8,2-19.8,1.2-29.7,3.8c-9.5,2.5-19.3,3.5-29.2,5.2C437,719,432.2,720,427.3,720.8z"/>
		<path display="inline" fill="#000033" d="M427.3,720.8c4.8-1,9.7-2,14.5-2.8c9.7-1.7,19.7-2.7,29.2-5.2c9.8-2.7,19.8-1.8,29.7-3.8
			c0.3,0.7,2,0.5,1.3,1.5c-0.7,1.2-2.2,1-3.3,0.8c-0.8-0.5-1.5-0.3-2,0.5c-0.5,0.2-0.8,0.2-1.3,0.3c-0.8-0.7-1.5-0.5-2.2,0.3
			c-0.7,0.2-1.3,0.3-2,0.5c-0.7-0.5-1-0.2-1.3,0.3c-0.5,0.2-1,0.2-1.3,0.3c-0.7-0.5-1-0.2-1.3,0.3c-0.5,0.2-1,0.2-1.5,0.3
			c-0.7-0.5-1-0.2-1.3,0.5c-0.5,0.2-1,0.2-1.3,0.3c-0.7-0.2-1.3-0.3-2-0.3c-6.5,1.2-13.2,2.5-19.7,3.5c-6.5,1.2-13,2-19.3,3.3
			c-5,1.2-10.3,1.2-15,3.3c-1.2,0.3-2.5,0.5-3.7,0.8c-0.7,0-1,0.3-1.3,0.8c-0.5,0.7-1,1.5-1.8,1c-1-0.3-0.5-1.3-0.7-2.2
			c0.7-2.3,2-3.7,4.7-3.2C425,722.7,426.2,721.5,427.3,720.8z"/>
		<path display="inline" fill="#000033" d="M463.2,707.2c0.3,0.2,0.8,0.5,1.2,0.5c10.8-3,21.8-4.5,33-5c0.2,1-0.7,1.2-1.2,1.2
			c-15,3.5-30.2,7-45.5,9.5c-8.2,1.3-16.3,2.3-24.2,4.5c-1.2,0-2.3,0.2-3.5,0.2c-0.8-0.3-1.8,0.3-2.5-1c3-1.8,6.3-1.7,9.3-2.5
			c3-0.8,6.5-0.5,9.2-2.7c1.2-0.5,2.5-0.5,3.8-0.5c1.7,0,3.5,0.2,4.7-1.5c0.5,0,0.8-0.2,1.3-0.2c1.7,0.7,3.2,0.3,4.2-1.2
			c0.5,0,0.8-0.2,1.3-0.2c1,0.8,1.7,0.7,2.2-0.5c0.8-0.2,1.8-0.2,2.7-0.3c1.2,0.8,2.2,1,2.8-0.5
			C462.3,707.2,462.8,707.2,463.2,707.2z"/>
		<path display="inline" fill="#FFFFFF" d="M532,712c2.7-0.8,5.2-0.5,6.8,1.8c1.2-0.7,0.8-2.3,2.2-2.8c2.7,6.8,2,14,3,21
			c0.2,0.7-0.5,1.5-0.8,1.2c-3.2-2-5.5,1.7-8.5,0.8c-0.7-0.2-1.7,0.2-2.2-0.7c1.7-2.2,2.2-4.3,1.7-7C533.3,721.5,534,716.5,532,712z
			"/>
		<path display="inline" fill="#D6D6D4" d="M547.2,737.8c0.8,0,1.8-0.2,2.7-0.2c3.2-0.3,4,1,3,3.8c-0.2,0.5-0.3,1-0.2,1.3
			c0.8,4-0.8,6.5-5,7c-2,0.3-1,2-1.3,3c-1.2-0.2-2,0.5-3,0.7c0.7-4.2,0.5-4.3-4-4.3c-1.7,0-3.2,0.3-4.8,0.3c0-4,0-7.8,0-11.8
			c3,0,6.2,0,9.2-0.2c0,3,0,6,0,9c0,1.3,0.2,2.5,1.8,2.3c1.3-0.2,1.5-1.2,1.5-2.3C547.2,743.8,547.2,740.8,547.2,737.8z"/>
		<path display="inline" fill="#D6D6D4" d="M333.8,568.5c0-0.2,0-0.7,0-0.7c-4.3-2.7-1.2-4.5,0.8-6.5c3.7-3.7,7.3-7.2,10.5-11.3
			c0.8-1,1.8-2.3,3.3-1.8s1.2,2.2,1,3.3c-1,5.7-2.3,11.2-5.3,16c-0.8-2.2-2.3-1.8-3.8-1C338.2,567.5,336.2,568.5,333.8,568.5z"/>
		<path display="inline" fill="#000033" d="M532,712c2,4.5,1.3,9.5,2.3,14.2c0.5,2.7,0,5-1.7,7c-1,0.2-1.8,0.3-2.8,0
			c-1.7-2.7-1.2-5.5-1.2-8.3c0-3.2,0.2-6.2,0-9.3c-0.2-1.8,0.5-2.8,2-3.5C531,712,531.5,712,532,712z"/>
		<path display="inline" fill="#D6D6D4" d="M530.7,749.2c-3.5,0.7-6.7-0.3-10.3-0.8c2.8-2.3,2.3-4.8,0.8-7.3s-0.5-3.3,2-3.2
			c2,0.2,4.2-0.5,6.2,0.3C530.5,741.7,530.8,745.3,530.7,749.2z"/>
		<path display="inline" fill="#D6D6D4" d="M426.5,724.8c4.8-2,10-2.2,15-3.3c6.3-1.5,12.8-2.2,19.3-3.3c6.5-1.2,13.2-2.5,19.7-3.5
			c0.7-0.2,1.3,0.2,2,0.3c-4.5,1.8-9.2,2.7-13.8,3.7c-7,1.3-14.2,2.5-21.3,3.7c-6.7,1.2-13.5,2.2-20.2,3.2
			C427,725.3,426.7,725,426.5,724.8z"/>
		<path display="inline" fill="#F8F8FA" d="M543.3,753.5c1-0.2,1.8-1,3-0.7c0.2,0.2,0.3,0.3,0.3,0.5c0,4.7-0.2,9.2-0.2,13.8
			c0,2.3-0.7,3.3-3,2.2C543,764.2,543,758.8,543.3,753.5z"/>
		<path display="inline" fill="#000033" d="M530.7,749.2c0.2-3.8-0.2-7.5-1.3-11.2c1.8-0.5,3.5-0.3,5.3-0.2c0,4,0,7.8,0,11.8
			c-0.2,0.7-0.7,1-1.3,0.8c-0.5-0.7-1.2-0.5-1.8-0.7C531.2,749.7,530.8,749.3,530.7,749.2z"/>
		<path display="inline" fill="#D6D6D4" d="M700.5,671.8c-3.5,1.5-6.8,3.3-10.5,4.3c-1.8,0.5-3.3,1.3-5.2,1.8
			c-1.7,0.5-3,1.3-4.8,0.5c-0.7-0.2-1.3-0.2-2,0.5c-0.5,0.5-0.3,1.8-1.7,1.2c-0.3-0.2-0.5-0.8-0.5-1.2c0-1,1-1.3,1.7-1.5
			c3.7-1,7.5-2,11.2-3.2C692.5,673.2,696.2,671.7,700.5,671.8z"/>
		<path display="inline" fill="#F8F8FA" d="M333.8,568.5c2.3,0,4.3-1,6.3-2c1.7-0.7,3-1,3.8,1c-0.2,0.7-0.3,1.2-0.5,1.8
			c-1.2,0.2-2.7-0.2-3.7,0.3c-3,1.3-6.3,2-9.5,2.8c-1.2,0.3-2.7,1.2-3.3-1c0.3-0.2,0.7-0.2,1-0.3c1,0.3,1.7,0,1.7-1.2
			c0.3-0.2,0.7-0.2,1-0.3c1,0.3,1.5,0.2,1.8-0.8C333,568.8,333.5,568.7,333.8,568.5z"/>
		<path display="inline" fill="#000033" d="M547.2,737.8c0,3,0,6,0,9c0,1.2-0.2,2.2-1.5,2.3c-1.7,0.2-1.8-1.2-1.8-2.3c0-3,0-6,0-9
			C545,737.7,546,737.8,547.2,737.8z"/>
		<path display="inline" fill="#D6D6D4" d="M439,712c-2.7,2.2-6.2,1.7-9.2,2.7c-3,0.8-6.5,0.7-9.3,2.5c0.7,1.3,1.8,0.7,2.5,1
			c-2.5,2.3-3.7,1.8-4.8-2.2l0,0c5-1.8,10.3-2.3,15.5-3.7C435.3,711.8,437.2,711.7,439,712z"/>
		<path display="inline" fill="#D6D6D4" d="M455.7,489.7c-3.2-1.2-4.7-4.3-7.5-5.3c-0.2,0-0.3-0.3-0.3-0.5c-0.3-0.7,0.3-1.3,0.8-1.2
			c2.3,1.3,4-3,5.3-1C455.2,483.8,455,486.8,455.7,489.7z"/>
		<path display="inline" fill="#D6D6D4" d="M524,687c1.5,0.7,4.2,0.5,4,3.2c0,1.5-1,2.8-2.7,3.2c-1.3,0.2-3.8-2.7-3.7-4.3
			C521.8,687.7,522.5,687,524,687z"/>
		<path display="inline" fill="#000033" d="M327.2,571.7c0.7,2,2.2,1.3,3.3,1c3.2-0.8,6.3-1.5,9.5-2.8c1-0.5,2.5-0.2,3.7-0.3
			c-0.8,2.2-3.2,2.2-4.8,2.7c-3.8,1.2-8,1.8-12,2.8c-1.2,0.3-3,0.8-3.5-0.3c-0.7-1.7,1.3-2,2.5-2.7
			C326.2,571.7,326.7,571.7,327.2,571.7z"/>
		<path display="inline" fill="#D6D6D4" d="M599.7,680.5c0.8,0.2,2.5-0.7,2.2,1.5c-0.3,1.7-0.7,3.5-3,3.3c-1,0-2.5-0.3-2-2
			C597.2,681.8,597,679.8,599.7,680.5z"/>
		<path display="inline" fill="#D6D6D4" d="M607.3,671.5c-0.3,1.2-1.2,1.8-2.2,2c-1.8,0.2-1.8-1.3-2.2-2.5c-0.2-1,0.3-1.8,1.3-2
			C606,669,606.3,670.7,607.3,671.5z"/>
		<path display="inline" fill="#F8F8FA" d="M605.2,679.5c0.7-1-0.5-4,2.7-2.7c0,0.7,0.2,1.3,0.2,2c0,0.3,0,0.7,0,1
			c-0.3,0.3-0.7,0.5-0.8,1c-0.3,0.7,0,1.8-1.2,1.7c-1.3-0.3-0.3-1.3-0.3-2C605.3,680.2,605.2,679.8,605.2,679.5z"/>
		<path display="inline" fill="#D6D6D4" d="M605.2,679.5c0.2,0.3,0.2,0.7,0.3,1c0.2,0.7-1,1.7,0.3,2c1.2,0.2,1-1,1.2-1.7
			c0.2-0.3,0.7-0.7,0.8-1c1,1.8,0.5,3-1.3,3.8c-1,0.5-2,0.8-2.5-0.7C603.3,681.5,603.3,680.2,605.2,679.5z"/>
		<path display="inline" fill="#D6D6D4" d="M413.7,717.7c0,1-0.3,1.5-1.3,1.5c-0.8,0-1.5-0.3-1.7-1.3c-0.2-1.2,0.5-1.8,1.5-1.8
			C413.2,716.2,413.7,716.8,413.7,717.7z"/>
		<path display="inline" fill="#D6D6D4" d="M504.2,705.3c1.7-1.5,3.7-1.2,6.3-0.8C508.2,706,506.2,705.5,504.2,705.3z"/>
		<path display="inline" fill="#D6D6D4" d="M669.7,596.5c2,0.7,3.2,2,4.2,3.8C671.3,600.2,670,598.8,669.7,596.5z"/>
		<path display="inline" fill="#D6D6D4" d="M452.8,708.7c-1.2,1.5-2.5,1.7-4.2,1.2C449.5,707.7,451.3,708.3,452.8,708.7z"/>
		<path display="inline" fill="#D6D6D4" d="M447.3,710c-1.2,1.7-2.8,1.5-4.7,1.5C443.8,710,445.5,709.5,447.3,710z"/>
		<path display="inline" fill="#D6D6D4" d="M461.8,707.3c-0.7,1.5-1.7,1.3-2.8,0.5C459.8,706.5,460.8,707,461.8,707.3z"/>
		<path display="inline" fill="#D6D6D4" d="M493,712.5c0.7-0.8,1.3-1,2.2-0.3C494.5,713,493.7,713,493,712.5z"/>
		<path display="inline" fill="#D6D6D4" d="M496.3,711.8c0.5-0.8,1.2-1,2-0.5C498,712.3,497.2,712.3,496.3,711.8z"/>
		<path display="inline" fill="#D6D6D4" d="M456.3,708c-0.5,1.2-1.2,1.3-2.2,0.5C454.7,707.3,455.5,707.7,456.3,708z"/>
		<path display="inline" fill="#D6D6D4" d="M531.5,749.8c0.7,0,1.3,0,1.8,0.7C532.2,752,531.8,751,531.5,749.8z"/>
		<path display="inline" fill="#D6D6D4" d="M486.7,713.8c0.3-0.5,0.8-0.8,1.3-0.3C487.8,714.2,487.3,714.3,486.7,713.8z"/>
		<path display="inline" fill="#D6D6D4" d="M667.5,594.3c0.8,0,1.2,0.5,1.3,1.2C667.8,595.8,667.3,595.3,667.5,594.3z"/>
		<path display="inline" fill="#D6D6D4" d="M489.5,713.2c0.3-0.7,0.8-1,1.3-0.3C490.5,713.5,490.2,713.7,489.5,713.2z"/>
		<path display="inline" fill="#D6D6D4" d="M329.8,570.2c0,1.2-0.7,1.5-1.7,1.2C328.5,570.5,329,570,329.8,570.2z"/>
		<path display="inline" fill="#D6D6D4" d="M608,678.8c0-0.7-0.2-1.3-0.2-2C609.5,677.3,609.3,678,608,678.8z"/>
		<path display="inline" fill="#D6D6D4" d="M418,716c-0.3-0.2-0.7-0.3-1-0.7c0.2-0.2,0.2-0.2,0.3-0.3
			C417.7,715.3,417.8,715.7,418,716L418,716z"/>
		<path display="inline" fill="#D6D6D4" d="M483.8,714.7c0.3-0.5,0.7-0.8,1.3-0.5C485,714.8,484.5,715,483.8,714.7z"/>
		<path display="inline" fill="#D6D6D4" d="M332.7,569c-0.2,1-0.8,1.2-1.8,0.8C331.3,569.2,331.8,568.5,332.7,569z"/>
		<path display="inline" fill="#D6D6D4" d="M638.7,566.7c0.2,0,0.2,0.2,0.3,0.3C638.5,567.2,638.5,567,638.7,566.7z"/>
		<path display="inline" fill="#000033" d="M165,274c1.2,0.5,2.3-1.8,3.7-0.2c1.2,1.5,0.3,2.7,0,4c-0.8,3.7-3.2,7-2.7,11
			c0.2,1.5-0.5,2.5-1.5,3.3c-1,0.8-1.3,2.2-1.7,3.3c-0.2,0.7,0.2,1.3,0.7,1.8c0.8,0.7,1.3,0,1.7-0.5c0.5-0.8,1.2-1.2,2-0.7
			c1,0.7,0.8,1.5,0.7,2.5c-0.5,2.5-2.5,4-3.8,5.7c-1.2,1.3-2.2,0.8-2.8-1.2c-1.3-4.5-1.8-9.3-1.8-13.8c0-4.7-2.7-8-4-11.8
			c-0.7-2-0.7-4.3-1.3-6.3c-3-9.8-5.8-19.7-8.8-29.5c-3.7-11.8-7.3-23.5-12-35c-3.2-7.7-5.3-15.8-9-23.3c-3.2-6.5-6.2-13-9.5-19.5
			c-1.3-2.7-2.3-5.7-4.3-8.3c2.2-0.8,2.8,0.7,3.5,1.7c1.2,2,2.2,4.2,4,5.8c0.5,0.5,0.8,1.2,1.7,0.8s0.5-1.2,0.3-1.8
			c-0.2-0.7-0.3-1.3-0.2-2c0.2-1,0.5-2.2,1.7-2.5c1-0.3,1.7,0.7,2.2,1.3c2.5,3.3,4.8,7,7.5,10.2c2.2,2.7,2.7,6,4.8,8.3
			c1.8,2,3.2,4,4.3,6.5c1.3,2.8,2.8,5.8,6.3,7.5c2.3,1,4.3,3.7,2.5,7c-0.2,0.3-0.5,1-0.3,1.3c3.2,4,2.8,10.2,8.3,12.7
			c3.3,1.5,2.5,5.2,2.5,7.7c0,9.2,1.3,18.5,0.8,27.7c-0.2,2.8,0.7,5.2,3.3,6.7c1.7,0.8,2.5,2.3,2.3,4.3c-0.2,1.3,0.2,2.3,0.8,3.7
			c1.8,3.5-1,6.3-1.5,9.5C165.2,272.2,164.3,272.8,165,274z"/>
		<path display="inline" fill="#000033" d="M119.7,191.7c-3.7-8.7-7.3-17.3-11-26c0.3-1,0.2-1.7-1-1.8c-0.8-0.5-1-1.5-1.2-2.3
			c0.2-2-0.7-3.5-2.3-4.5c-0.2-0.5-0.5-0.8-0.7-1.3c1.2-3.3-1.8-4.5-3.5-6.3c-0.2-0.3-0.3-0.8-0.3-1.2c0.5-0.5,1.5-1.5,2-0.5
			c0.8,1.8,3.2,2.8,3.7,4.5c1.7,5.5,5,10.3,7.7,15.2c3.5,6,6.2,12.2,9,18.3c3.7,7.8,6.3,16.2,9.3,24.3c2,5.8,4.7,11.3,6,17.3
			c1.3,5.8,4.2,11.2,5.3,17c0.7,4,2.7,7.8,3.7,11.8c1.8,7.5,4,14.8,5.8,22.3c1.2,4.5,2,9,3.2,13.3c1,3.5,0.5,7.2,1.2,10.7
			c1.8,8,2.2,16.2,1.8,24.3c-0.2,5.2-0.5,10.3-1.2,15.5c0.2-3-3.3-5.2-1.2-8.5c0.5-0.7,0.5-1.8,0.3-2.7c-1-5.7-0.7-11.3-0.7-16.8
			c0-0.8,0-1.7-0.8-2.2c0-0.8,0-1.8,0-2.7c2.2-2.3-0.3-3-1.3-4.3c0-2,0-3.8-0.2-5.8c0.7-2-1-3.7-1.2-5.7c-0.7-8.3-4.2-16.2-5.8-24.3
			c-0.8-4.2-2.8-8-3.7-12.2c-1.3-7-4.5-13.5-5.8-20.3c-0.8-4-2.8-7.3-4.3-11c-1.5-3.7-2-7.8-3.7-11.5c-1.3-2.8-1.7-6.2-4-8.5
			c-0.2-0.8-0.3-1.7-0.3-2.5c-0.5-2.8-1.5-5.7-3.3-8c-0.2-0.7-0.3-1.3-0.5-2C121.2,192,120.5,191.8,119.7,191.7z"/>
		<path display="inline" fill="#000033" d="M164.3,330.2c3.8-2.3,6-6.5,10.7-8c-1.3,2-2.7,4.2-4.2,6c-2.2,2.8-5.5,4.7-7,8.2
			c-0.2,0.5-0.7,1-1.3,0.8c-0.7-0.3-0.7-1-0.5-1.5c1-4.7,0.2-9.5,0.8-14.2c0.2-1.7,1.8-3.3,3-4.8c3-3.3,6.2-6.7,9-10
			c1-1,1.8-1.5,3-0.7c1.3,1,0.2,1.8-0.3,2.7c-1.3,1.8-2.3,3.7-2.7,6c-0.2,1.3-1.2,2.3-2.3,3.2c-2.8,2.2-5.3,4.8-7.2,7.8
			C164.3,327,163.5,328.5,164.3,330.2z"/>
		<path display="inline" fill="#000033" d="M504.2,837.3c-0.5,0-0.8,0.2-1.3,0.2c-2.3-1.5-3.7,0.3-5,1.8c-0.5,0.2-0.8,0.2-1.3,0.3
			c-3.7,0-7.2,0-9.8,3.2c-0.5,0.2-0.8,0.2-1.3,0.3c-3.8-0.7-7.2,0.3-9.8,3.2c-0.5,0.2-0.8,0.2-1.3,0.3c-3.7-1.7-7.8-2.2-10.3-6
			c-0.5-0.7-2-1.2-3-2c-2.5-2-5.5-1.3-7,1.3c-1.2,2.2-2.3,4.2-3.5,6.3c-0.5,1-1.3,1.7-2.5,1.7c-1.3,0-1.7-1-2-2
			c-1.3-4.3-3.7-8.2-5.8-12c-0.8-1.5-1.2-3.3,0.5-4.7c0.7-0.7,1.5-1.5,0.7-2.3c-1.5-1.3-0.3-2.5-0.3-3.8c4.7-2.7,9.8-4.3,14.3-7.7
			l0,0c1.3,0.2,2.3-0.8,3.3-1.3c0.7,0,1.3,0,1.7-0.8c10.8-5.3,21.7-10.8,32.5-16.2c4-2,8.2-4,12.2-6c0.7,0.5,1.7,0.7,1.8,1.8
			c0.3,3.8,2.3,7.3,2.2,11.2c-0.2,1.3,0.3,2.2,2,2.2c0,1.2,0.2,2.3,0.2,3.3c-1.2,1.5-1.7,3,0.5,4.2c0,1.3,0.2,2.7,0.2,4.2
			c-1.5,1.3-0.8,3-0.7,4.5c0.8,6.2-1,10-6.3,13.3C504.5,836.2,504.3,836.8,504.2,837.3z"/>
		<path display="inline" fill="#FFFFFF" d="M441,823c-0.2,1.3-1.2,2.5,0.3,3.8c0.8,0.8,0,1.7-0.7,2.3c-1.7,1.3-1.3,3.2-0.5,4.7
			c2.2,3.8,4.5,7.7,5.8,12c0.3,1,0.7,2,2,2c1.2,0,1.8-0.7,2.5-1.7c1.2-2,2.3-4.2,3.5-6.3c1.5-2.7,4.5-3.3,7-1.3c1,0.8,2.5,1.3,3,2
			c2.5,3.8,6.7,4.3,10.3,6c-4.2,2.5-8.8,3-13.3,4.5c-5.2,1.8-10.2,4-15.3,5.2c-5.3,1.2-10.7,2.7-15.8,4.3
			c-7.8,2.3-15.8,4.7-23.7,7.2c-5.3,1.7-11,2.5-16.7,1.2c-2.2-0.5-2.8-1.8-1.2-3.3c1.7-1.7,1.5-3.3,1-5.2c-0.5-1.8-1.3-3.8-3.5-3.5
			c-2,0.3-0.7,2.5-1,3.8c-0.8,3.8,2.2,7.5,0.7,11.5c-0.5,1.3-0.3,3-2.2,2.8c-1.7-0.2-2-1.7-2-3.2c0.3-4.8-0.7-9.3-1.3-14.2
			c-0.3-2.7-0.5-4.8,3.5-6c5.3-1.5,10.2-4.8,15.2-7.3C412.7,837.2,426.8,830.2,441,823z"/>
		<path display="inline" fill="#D6D6D4" d="M577.3,795c4,1.5,8.8,2.8,12.5,6.8c0.2,0.2,0.3,0.3,0.5,0.5c3.2,3.3,3.2,3.3-0.3,6.3
			c-0.8,0.7-1.3,1.5-0.5,2.3c1.7,1.8,0.7,3.2-0.8,4.3c-1.8,1.5-2.7,3.5-3.2,6c-0.5,2.8-2.2,4.7-5.2,4.3c-3.3-0.2-3.2-2.7-3.2-5
			c0-1.8-0.2-3.7-0.5-5.5c-0.7-2.7-1.2-5.3-0.3-8.2c0.7-2.2,0.7-4.7-1.8-6.5c-1.3-1-1.2-3.3-0.8-4.8
			C573.7,794.5,575.5,795.2,577.3,795z"/>
		<path display="inline" fill="#F8F8FA" d="M542.5,779.3c2.5-0.3,5.2-1,7,1.8c-2.3,6.5-1.8,13.3-2,19.8c-0.2,8,0.8,16.2,1.3,24.2
			c0.2,3.2-0.5,5-3,6.3c-0.8,0.3-1.7,0.3-2.5,0c-2.3-1.3-1.5-3.3-1.5-5.3c0.2-6.5,0-12.8,0.2-19.3
			C542.2,797.7,543.8,788.5,542.5,779.3z"/>
		<path display="inline" fill="#D6D6D4" d="M360.3,859c2.2,0.5,4.2-0.2,6.3-0.3c-0.8,1.5-0.8,3-0.5,4.7c1,5.7,0.7,11.2,0.2,16.8
			c0,0.8-0.7,1.8,0.7,2.2s2.3-0.5,2.3-1.8c0.2-7.3-0.3-14.7-1.5-22c1.8-0.5,3.5,0.8,5.5,0.5c0.8-0.2,1.5,0.3,1.5,1.2
			c0,5.8,3,11.3,2.2,17.3c-0.2,1.5-0.3,2.7-2.2,2.8c-2.2,0.2-2.7,2.8-5,3.3c-4.5,1-6.2-0.2-5.2-4.7c1.3-5.5,0.5-10.5-1.5-15.7
			c-1,4.5-1.5,8.8-1.3,13.3c0,1.3,0.2,2.8,0,4.2c0,1.2-0.3,2.3-2,1.5c1.3-2.2-0.5-4.5,0-6.7C360.8,870.3,360.2,864.7,360.3,859z"/>
		<path display="inline" fill="#F8F8FA" d="M527.5,809c-0.7-2.5-0.3-5-0.3-7.5c1-1,0.7-2.2,0.7-3.2c0-5.5-0.7-11-1.5-16.3
			c1.2-1.3,2.8-1,4.3-1.2c1.8,1.5-1.2,4,0.8,5.5c0,3,0.8,6,0.3,9c-0.8,3.2-1.7,6.2,0.5,9.2c0,0.7,0.2,1.3,0.2,2
			c-0.8,0.7-0.7,1.7-0.7,2.5c-0.3,6.5,0.7,12.8,1,19.2c0.2,1.8-0.2,2.8-1.8,3c-1.8,0.2-1.7-1.3-1.8-2.7c-0.3-1.8,0.8-4-0.8-5.5
			c0-2.5,0-4.8-0.2-7.3C528.3,813.3,529.5,811,527.5,809z"/>
		<path display="inline" fill="#D6D6D4" d="M528.3,822.8c1.7,1.7,0.7,3.7,0.8,5.5c0.2,1.3,0.2,2.8,1.8,2.7c1.5-0.2,1.8-1.2,1.8-3
			c-0.3-6.3-1.3-12.8-1-19.2c0-0.8-0.2-1.8,0.7-2.5c1.3,0.8,0.8,2,0.8,3.2c-0.2,5,0.3,10.2,0.7,15.2c0,1.2,0.3,2,1,2.8
			c0.3,0.5,0.8,0.8,1.3,0.8c0.7-0.2,0.8-0.7,1-1.2c0.3-4,1-8,1.5-11.8c1.2-8.7,0.5-17.5,2.5-26.2c0.5-2.5,0.5-5.2-0.8-7.5
			c-1.8-3.2,0.2-2.3,1.8-2.2c1.3,9.2-0.3,18.3-0.5,27.3c-0.2,6.5-0.2,12.8-0.2,19.3c0,2-0.8,4,1.5,5.3c-4.2,0-8.3-0.8-12.5,1
			c-1.3,0.7-2.7-0.3-2.8-1.8C527.8,828,527.2,825.3,528.3,822.8z"/>
		<path display="inline" fill="#D6D6D4" d="M556.2,823.3c0-5-0.5-9.2,0.2-13.3c1-7.2,0.7-14.3,1.8-21.3c0.2-1.2-0.2-2.8,1.5-3
			c1.8-0.2,2.2,1.3,2.3,2.8c1,5-0.5,10.2-0.3,15.2c0,5.3-1.5,10.5-2.5,15.7C558.8,820.7,558.3,821.8,556.2,823.3z"/>
		<path display="inline" fill="#D6D6D4" d="M355.7,882.3c-7,0.2-7.2-2.5-6.2-6.7c1-4.3,1.7-8.8,1.8-13.3c0.2-3.5,1.7-3.8,4.3-3.2
			C355.7,867,356.7,874.7,355.7,882.3z"/>
		<path display="inline" fill="#D6D6D4" d="M545.7,831.5c2.7-1.3,3.2-3.2,3-6.3c-0.5-8-1.5-16.2-1.3-24.2c0.2-6.7-0.3-13.3,2-19.8
			c2.8,1.5,1.3,4.2,1.2,6.2c-0.7,5.7-0.3,11.2,0,16.8c0.5,8.2,0.3,16.3,0,24.5C550.5,831.5,548.5,832.3,545.7,831.5z"/>
		<path display="inline" fill="#D6D6D4" d="M716.7,855.7c4.8-0.2,4.8-0.2,4.8,4.5c0,4.7,1.2,9,1.7,13.7c0.3,3.5-1,3.8-3.5,4
			c-0.5,0-0.8,0-1.3,0.2C716.8,870.5,716.3,863.2,716.7,855.7z"/>
		<path display="inline" fill="#F8F8FA" d="M519.5,775.3c-0.3-1.2-1-2.2,1.3-2.5c6.2-0.7,12.3,0.3,18.5,0.2c5.3,0,10.8-1.3,16.2,0.2
			c0.2,1.3-2.2,0.7-2.2,2c-1.8,0.5-3.7,0.3-5.5,0.3c-4-0.3-7.8,0.7-11.7,1.3c-1.7-0.2-3.3-0.2-4.8-0.3c-2-1.2-4-2-6.2-1
			c-1.8,0-3.5,0-5.3,0l0,0L519.5,775.3z"/>
		<path display="inline" fill="#000033" d="M355.7,882.3c1-7.7,0-15.3,0-23c1.5-0.7,3.2-0.5,4.8-0.2c-0.2,5.7,0.5,11.3-0.7,16.8
			c-0.5,2.2,1.3,4.5,0,6.7C358.3,883,357,883,355.7,882.3z"/>
		<path display="inline" fill="#D6D6D4" d="M707.8,877c0.7,0.5,0.7,1.3,0.2,1.8c-1.5,1.8-3.3,0.8-5,0.2c-1.7-0.5-3.7-1-3.5-3.2
			c0.7-5.8,0.2-11.8,1.5-17.7c0.5-2.2,1.3-2.7,3.2-2.3c0.3,2,1,4,0.5,6.2c-1,4.5-0.3,9-0.7,13.5c0,1-0.5,2.2,0.7,2.8
			C706.3,879,706.8,877.3,707.8,877z"/>
		<path display="inline" fill="#F8F8FA" d="M707.8,877c-1,0.3-1.5,2-3,1.2c-1.2-0.7-0.7-1.8-0.7-2.8c0.2-4.5-0.5-9,0.7-13.5
			c0.5-2-0.3-4.2-0.5-6.2c1.2,0,2.2,0,3.3-0.2c0,6.5,0.2,13,0.2,19.5C707.8,875.8,707.8,876.5,707.8,877z"/>
		<path display="inline" fill="#F8F8FA" d="M716.7,855.7c-0.3,7.5,0.2,14.8,1.5,22.3c-0.7,1.3-1.5,1.3-2.7,0.8c-0.2-0.5-0.3-0.8-1-1
			c0-2.5-0.2-4.8-0.2-7.3c0.3-2.2,0.8-4.5-0.3-6.5c0-1.2-0.2-2.2-0.2-3.3c0.2-1.3,0.7-2.7-0.7-3.7c0-0.2,0-0.5,0-0.7
			c0.2-0.2,0.5-0.3,0.7-0.7C714.8,855.3,715.7,855.3,716.7,855.7z"/>
		<path display="inline" fill="#000033" d="M368,858.7c1.2,7.3,1.7,14.7,1.5,22c0,1.3-1,2.2-2.3,1.8c-1.3-0.3-0.7-1.3-0.7-2.2
			c0.3-5.7,0.7-11.3-0.2-16.8c-0.3-1.7-0.2-3.2,0.5-4.7C367.2,858.7,367.5,858.7,368,858.7z"/>
		<path display="inline" fill="#D6D6D4" d="M504.2,837.3c0.3-0.5,0.3-1.2,0.8-1.5c5.3-3.3,7.2-7.2,6.3-13.3
			c-0.2-1.5-0.8-3.2,0.7-4.5c1.8,4.7,1.3,9.5,1.8,14.3c0,0.5-0.7,1.2-1.3,1.5C509.8,835.3,507.3,837.3,504.2,837.3z"/>
		<path display="inline" fill="#D6D6D4" d="M526.3,781.8c0.8,5.5,1.5,10.8,1.5,16.3c0,1.2,0.3,2.3-0.7,3.2
			c-1.5-3.5-0.7-7.5-1.5-11.2c-0.3-1.5,0-3.3-1-4.3C521.8,783.2,524.5,782.7,526.3,781.8z"/>
		<path display="inline" fill="#D6D6D4" d="M511,806.3c-1.5,0-2-0.7-2-2.2c0.3-3.8-1.8-7.3-2.2-11.2c-0.2-1.2-1-1.3-1.8-1.8
			c1.7-1.5,2.8-1.7,3.3,1.2C509.3,797,511.3,801.5,511,806.3z"/>
		<path display="inline" fill="#D6D6D4" d="M707.8,875.3c0-6.5-0.2-13-0.2-19.5c0.8,0,2-0.3,1.8,1.2c-0.8,5.2-0.2,10.3-0.3,15.3
			C709,873.3,709.2,874.7,707.8,875.3z"/>
		<path display="inline" fill="#D6D6D4" d="M588.7,793.8c4.5,1.7,9,3.3,12.8,6.5C597,798.8,592.7,796.8,588.7,793.8z"/>
		<path display="inline" fill="#D6D6D4" d="M536.2,776.8c3.8-0.5,7.7-1.5,11.7-1.3C544.2,777.2,540.3,778.7,536.2,776.8z"/>
		<path display="inline" fill="#D6D6D4" d="M486.7,842.8c2.7-3.2,6.2-3.3,9.8-3.2C493.7,841.8,490.2,842.5,486.7,842.8z"/>
		<path display="inline" fill="#D6D6D4" d="M475.7,846.3c2.7-2.8,6-3.8,9.8-3.2C482.3,844.8,479,845.7,475.7,846.3z"/>
		<path display="inline" fill="#D6D6D4" d="M532.3,804.2c-2.2-3-1.3-6-0.5-9.2C533.3,798.2,532.7,801.2,532.3,804.2z"/>
		<path display="inline" fill="#D6D6D4" d="M531.5,786.2c-2.2-1.5,1-3.8-0.8-5.5c0.5-0.8,1.2-1,2-0.7c1.2,0.5,0.3,1.3,0.2,2
			C532.5,783.5,532.3,785,531.5,786.2z"/>
		<path display="inline" fill="#D6D6D4" d="M714,863.8c1.3,2.2,0.7,4.3,0.3,6.5C712.7,868.3,712.8,866.2,714,863.8z"/>
		<path display="inline" fill="#D6D6D4" d="M527.5,809c2,2,0.8,4.5,0.8,6.7C526.3,813.5,527.2,811.2,527.5,809z"/>
		<path display="inline" fill="#D6D6D4" d="M525,775.5c2.3-1,4.3-0.2,6.2,1C529,777.5,527,776.7,525,775.5z"/>
		<path display="inline" fill="#D6D6D4" d="M606.7,803c2.3,0.2,4.3,1,6,3C610.3,805.5,608.3,804.5,606.7,803z"/>
		<path display="inline" fill="#D6D6D4" d="M613.8,806.3c1.8,0.3,3.8,0.8,5,2.5C616.8,808.5,615,808,613.8,806.3z"/>
		<path display="inline" fill="#D6D6D4" d="M497.8,839.3c1.3-1.5,2.5-3.3,5-1.8C501.3,838.7,499.8,839.7,497.8,839.3z"/>
		<path display="inline" fill="#D6D6D4" d="M511.7,814c-2.2-1.2-1.7-2.7-0.5-4.2C512.3,811,512,812.5,511.7,814z"/>
		<path display="inline" fill="#D6D6D4" d="M713.2,857c1.3,1,0.8,2.3,0.7,3.7C712,859.7,712.5,858.3,713.2,857z"/>
		<path display="inline" fill="#D6D6D4" d="M602.5,800.8c1.5-0.3,2.7,0,3,1.7C604.3,802.3,603.3,801.8,602.5,800.8z"/>
		<path display="inline" fill="#D6D6D4" d="M460.3,813.2c-0.3,0.8-1,0.8-1.7,0.8C459,813.3,459.3,812.2,460.3,813.2z"/>
		<path display="inline" fill="#D6D6D4" d="M714.5,877.7c0.5,0.2,0.8,0.5,1,1c-0.3,0.3-0.8,0.3-1.2,0
			C713.8,878.3,714,878,714.5,877.7z"/>
		<path display="inline" fill="#D6D6D4" d="M519.8,775.5L519.8,775.5c0,0.2,0,0.3,0,0.5l-0.2-0.2
			C519.7,775.7,519.7,775.7,519.8,775.5z"/>
		<path display="inline" fill="#D6D6D4" d="M713.8,855.7c-0.2,0.2-0.5,0.3-0.7,0.7C713.2,855.8,713.5,855.7,713.8,855.7z"/>
		<path display="inline" fill="#D6D6D4" d="M455.3,815.3L455.3,815.3L455.3,815.3z"/>
		<path display="inline" fill="#D6D6D4" d="M124.5,205.5c2.3,2.3,2.8,5.7,4,8.5c1.7,3.7,2.2,7.8,3.7,11.5c1.5,3.7,3.7,7.2,4.3,11
			c1.5,7,4.7,13.3,5.8,20.3c0.7,4.2,2.8,8,3.7,12.2c1.7,8.2,5.2,16,5.8,24.3c0.2,2,1.8,3.5,1.2,5.7c-1.3-1-2.8-3.7-4.2,1.3
			c-0.3-7.2-2.7-12.5-4-18.2c-2.7-11.8-5.2-23.5-8.3-35.2c-0.8-3-1.8-6.2-1.8-9.5c0-2.3-1.5-4.5-2.3-6.7c-2.8-8-4.2-16.5-8-24
			C124.3,206.5,124.5,206,124.5,205.5z"/>
		<path display="inline" fill="#D6D6D4" d="M100,149.3c1.7,1.8,4.5,3,3.5,6.3C101.8,153.7,100.7,151.7,100,149.3z"/>
		<path display="inline" fill="#D6D6D4" d="M120.8,195c2,2.3,2.8,5,3.3,8C122.2,200.7,121,198,120.8,195z"/>
		<path display="inline" fill="#D6D6D4" d="M153.3,304.8c1,1.2,3.7,2,1.3,4.3C153.7,307.8,152,306.8,153.3,304.8z"/>
		<path display="inline" fill="#D6D6D4" d="M174.3,380.5c1.2,1.3,2,3,1.7,4.8C174.7,384,174.2,382.3,174.3,380.5z"/>
		<path display="inline" fill="#D6D6D4" d="M104.3,156.8c1.7,1,2.5,2.5,2.3,4.5C105,160.3,104.7,158.7,104.3,156.8z"/>
		<path display="inline" fill="#D6D6D4" d="M176.3,386.7c1,0.8,1.5,1.8,1.2,3C176.5,389,175.7,388.2,176.3,386.7z"/>
		<path display="inline" fill="#D6D6D4" d="M179.8,396.3c1,0.5,1.7,1.2,1.3,2.5C180.2,398.3,179.2,397.8,179.8,396.3z"/>
		<path display="inline" fill="#D6D6D4" d="M107.7,163.8c1.2,0.2,1.3,0.8,1,1.8C108.2,165.2,107.7,164.7,107.7,163.8z"/>
		<path display="inline" fill="#D6D6D4" d="M119.7,191.7c0.8,0.2,1.5,0.5,0.7,1.5C119.7,192.7,119.5,192.2,119.7,191.7z"/>
		<path display="inline" fill="#D6D6D4" d="M173.5,377.7c0.7,0.3,1,0.7,0.7,1.3C173.5,378.8,173.2,378.3,173.5,377.7z"/>
		<path display="inline" fill="#00CB00" d="M674.8,670.3c-0.2,0.8-0.8,1.2-1.5,1.2c-2.2-0.2-4,0.7-5.8,1.7c-1,0.5-2.5,1-2.8-0.5
			c-0.3-1.2,0.8-1.8,1.8-2.2c2.2-0.5,4.5-0.8,6.8-1.2C673.8,669.3,674.7,669.3,674.8,670.3z"/>
		<path display="inline" fill="#D6D6D4" d="M288.3,371.5c-1.3-1.2-1.7-2.7-1.3-4.5C288.8,368.2,289.3,369.7,288.3,371.5z"/>
		<path display="inline" fill="#00CB00" d="M518,762.7c0-2,0-3.8,0-5.8c0-0.7,0-1.5,0.8-1.7c0.8-0.3,1.5,0.2,2,0.8
			c1.3,1.7,2,3.5,2,5.7c0,1.8-0.5,3.8,0.8,5.7c0.7,0.8,1.8,2.2,0.8,3c-1.2,1.2-2.8,1.5-4.5,1c-1.3-0.3-2-1.3-2-2.8
			C518,766.5,518,764.5,518,762.7L518,762.7z"/>
		<path display="inline" fill="#D6D6D4" d="M677.8,830.7c-2.2,0.7-4.2,1-6.3-0.2C673.7,829.3,675.7,829.5,677.8,830.7z"/>
		<path display="inline" fill="#D6D6D4" d="M799.2,813.8c0.8,7.2,1,14.5,0.7,21.8c-1.2-0.3-1.3-1.2-1.3-2.2
			c0.2-5.7-0.3-11.2-0.7-16.7C797.8,815.7,797.3,814.2,799.2,813.8z"/>
		<path display="inline" fill="#D6D6D4" d="M808.2,823.7c-1-2.5-1-5,0-7.7C809.2,818.5,809.3,821,808.2,823.7z"/>
		<path display="inline" fill="#D6D6D4" d="M611.3,544.7c2.7,1.5,5.8,2.3,8.3,3.8c2.3,1.2,4.7,2.3,6.8,3.7c0.5,0.3,1,0.5,0.8,1.2
			c-0.2,1-1,0.8-1.7,0.5c-5-2.5-10-5-14.8-7.5c-0.5-0.2-0.7-0.7-0.5-1.2C610.7,545,611.2,544.8,611.3,544.7z"/>
		<path display="inline" fill="#D6D6D4" d="M543.7,525c-0.3,0.2-0.7,0.5-0.8,0.5c-0.5,0-0.8-0.2-0.7-0.8c0-0.2,0.5-0.3,0.8-0.3
			C543,524.5,543.3,524.8,543.7,525z"/>
		<path display="inline" fill="#92765D" d="M590.7,705c-0.2,0.2-0.3,0.2-0.5,0.3c-0.2-0.2-0.2-0.5-0.3-0.7c0.2,0,0.3-0.2,0.5-0.2
			C590.7,704.5,590.7,704.8,590.7,705z"/>
	</g>
	<g>
		<path d="M314.7,664.6c-7.5,0-9.6-0.7-10.2-1c-15-7.9-40.2-21.1-45.4-53.5c-0.7-4.2,0.5-8.2,3.6-12.4
			c27.3-36.9,187.4-59.6,255.8-69.3c14.2-2,24.5-3.5,30-4.5c19.3-3.7,34.7-5.4,47-5.4c12.6,0,19.8,1.9,26.1,3.5
			c4.9,1.3,9.5,2.5,15.6,2.5c0,0,0,0,0,0c3.6,0,7.4-0.4,11.7-1.3c12.8-2.5,30.1-6.9,50.2-12c45.8-11.7,102.9-26.3,140.9-26.3
			c9.1,0,16.8,0.9,22.8,2.6c32.2,9.2,45.5,22.3,56.3,34.9c7.5,8.7,10.5,25.6,7.4,41.9c-2.8,14.8-10.1,26.4-20,31.8
			c-21.8,11.8-104.5,39.3-165.7,39.3c-12.9,0-24-1.3-33.3-3.7c-7.1-1.9-17.9-2.8-32.8-2.8c-51.8,0-142.3,11.4-222.2,21.4
			C391,658,338,664.6,314.7,664.6C314.7,664.6,314.7,664.6,314.7,664.6z"/>
		<path fill="#FFFFFF" d="M839.9,482.5v5c8.9,0,16.3,0.8,22.1,2.5c31.6,9,44.5,21.8,55.1,34.1c6.9,8.1,9.7,24.4,6.9,39.8
			c-2.6,14.1-9.5,25-18.8,30c-9.9,5.3-35.2,15-67.3,23.7c-25.9,7-63.8,15.3-97.3,15.3c-12.6,0-23.6-1.2-32.6-3.6
			c-7.3-2-18.3-2.9-33.5-2.9c-51.9,0-142.5,11.4-222.5,21.4c-61.3,7.7-114.2,14.3-137.3,14.3c-7.2,0-8.9-0.7-9.1-0.7
			c-14.6-7.7-39-20.6-44.1-51.7c-0.6-3.5,0.5-6.9,3.1-10.5c7.7-10.5,33.1-26.6,109.7-43.6c51.8-11.5,109.8-19.7,144.4-24.6
			c14.3-2,24.6-3.5,30.1-4.5c19.1-3.6,34.4-5.4,46.5-5.4c12.3,0,19.3,1.8,25.5,3.4c5,1.3,9.8,2.6,16.2,2.6c3.7,0,7.7-0.4,12.2-1.3
			c12.9-2.5,30.2-6.9,50.3-12c45.7-11.7,102.6-26.2,140.3-26.2L839.9,482.5 M839.9,482.5c-54.9,0-149.3,30.2-191.5,38.3
			c-4.4,0.9-8.1,1.2-11.3,1.2c-13.3,0-18.8-6-41.7-6c-10.9,0-25.8,1.4-47.4,5.5c-36,6.8-300,34.3-291.3,89
			c5.3,33.2,30.8,47,46.7,55.3c1.7,0.9,5.6,1.3,11.4,1.3c53.9,0,268.5-35.7,359.8-35.7c13.9,0,25,0.8,32.1,2.8
			c9.9,2.7,21.5,3.8,33.9,3.8c61.7,0,145.6-28.1,166.9-39.6c25.7-13.8,28.3-60,13.3-77.5c-10-11.7-23.7-26-57.5-35.7
			C856.8,483.3,848.9,482.5,839.9,482.5L839.9,482.5z"/>
	</g>
	<path stroke="#FFFFFF" stroke-width="5" stroke-linecap="round" stroke-linejoin="round" stroke-miterlimit="10" d="M183.3,468.8
		c29.3-9.2,256.7-33.3,285.5-32.2s37.5,58.3,36.7,72.2c-0.7,11-12.8,17.8-34.5,22.2c-21.7,4.5-186.2,51.7-200,47.8
		c-13.8-3.8-26.8-56.2-39-64.2c-9-5.8-40-13.3-48.8-14.8C177.7,499.2,177.3,470.8,183.3,468.8z"/>
	<path stroke="#FFFFFF" stroke-width="5" stroke-linecap="round" stroke-linejoin="round" stroke-miterlimit="10" d="M149.7,411.3
		c-3.8-14.7,22.5-4.2,37.2,12.5c17.5,20,27.8,72.3,50.5,80c28,9.7,56.8-3.8,84.2-3.8c20.5,0,31.7,22.7,21.7,40.5
		c-5.7,9.8-60.5,58-68,70.5s-14.2,18.7-5.8,29.2c8.5,10.7,35.5,5,35.5,5s-45.3,11.5-47.5-2.2C254.2,624.7,152.7,423,149.7,411.3z"/>
	<path stroke="#FFFFFF" stroke-width="5" stroke-linecap="round" stroke-linejoin="round" stroke-miterlimit="10" d="M183.3,468.8
		c29.3-9.2,256.7-33.3,285.5-32.2s37.5,58.3,36.7,72.2c-1.2,18-33.5,23.3-28.8,21c22.5-11.2,17.7-59.3-7.8-65.3
		c-14-3.3-173.2,16.2-195.5,19.5c-10.5,1.7-81.7,16-90,16C177.5,500,177.3,470.8,183.3,468.8z"/>
	<path stroke="#FFFFFF" stroke-width="5" stroke-linecap="round" stroke-linejoin="round" stroke-miterlimit="10" d="M337.8,576.5
		c16.8-24.3,11.2-56.2,19.7-66.5c13.3-16.5,74.2-31.7,91.7-21.7s30,41.7,50.8,49.5c26.2,9.8,72.5-7.8,118,17.2
		c40.7,22.3,62.3,60.7,92,73.3c25.8,11,178.2-21.3,197.3-34c36.8-24.2,5.7-79.3,13.5-73.5c22.5,16.7,19.2,65.8-5.8,80
		c-55.5,31.5-160.7,45.2-184.2,50c-86.8,17.7-305.8,79.2-405,85c-39.8,2.3-81.8-53.2-55.8-89.2C299.7,605.7,321.2,600.7,337.8,576.5
		z"/>
	<path stroke="#FFFFFF" stroke-width="5" stroke-linecap="round" stroke-linejoin="round" stroke-miterlimit="10" d="M172.2,606.7"
		/>
	<g>
		<path d="M177.9,371.4c-25.1,0-32.9-3.2-33.6-4.4c-5.2-8.4-2.5-15.2,0.8-23.8c3.2-8.2,6.8-17.5,4-29.9
			c-4.6-20.6-57.6-180.1-67.5-188.1c-0.9-0.7-1-1.1-1-1.1c0.5-2.3,12.5-5.6,16.1-5.6c1.5,0,170.4-5.9,184-9.4
			c5-1.3,16.2-2.6,29.9-2.6c13.9,0,40.3,1.4,61.3,10.8c17.6,7.9,47.7,49.4,62.8,96.3c9.3,28.9,16.4,70.2-2.7,103
			c-18,30.9-66.7,34.5-113.7,37.9c-20.5,1.5-39.9,2.9-56.7,6.6c0,0-0.1,0-0.1,0C232.7,368.7,199.4,371.4,177.9,371.4z"/>
		<path fill="#FFFFFF" d="M310.5,109c13.7,0,39.7,1.4,60.3,10.6c8.3,3.7,19.9,15.8,31.1,32.4c12.6,18.6,23.3,40.7,30.3,62.4
			c6.1,18.9,9.2,36.8,9.2,53.2c0,18.4-3.9,34.4-11.7,47.8c-17.4,29.8-65.4,33.3-111.8,36.7c-20.6,1.5-40.1,2.9-57,6.6
			c-0.1,0-0.1,0-0.2,0.1c-28.4,7.5-61.4,10.2-82.8,10.2c-21.6,0-30-2.4-31.7-3.5c-4.1-6.8-2.4-12,1.2-21.2
			c3.2-8.1,7.1-18.2,4.1-31.4c-2.7-12.1-17-56.3-32.4-100.6c-8.1-23.2-15.5-43.4-21.3-58.3c-8.4-21.5-11.7-27.4-13.5-29.5
			c3.3-1.6,10.1-3.3,12.4-3.4c1.5,0,170.9-5.9,184.6-9.5C286.1,110.2,297,109,310.5,109L310.5,109 M310.5,104
			c-13.8,0-25.2,1.3-30.5,2.7C267.2,110,100,116,96.7,116c-3.3,0-25,4.5-16.7,11.2c8.3,6.7,61.2,162.2,66.7,186.7
			s-15.7,36.5-4.5,54.5c2.2,3.5,16.4,5.5,35.7,5.5c24.3,0,56.8-3.2,84.1-10.4c55.5-12,145.4,0,172-45.7
			c40.5-69.7-28.8-188.3-61.2-202.8C354,106.5,329.9,104,310.5,104L310.5,104z"/>
	</g>
	<path stroke="#FFFFFF" stroke-width="5" stroke-linecap="round" stroke-linejoin="round" stroke-miterlimit="10" d="M72.2,122.7
		c-2.7,9.3,57.5,194.8,60.3,247.3c0.5,8.3,47.7,7,56.7,2.7c8.2-4-44.9,3.3-43.4-7.2c1.2-8.2,8.3-15.8,5.3-51.2
		c-3.7-40.8-43-169.5-61.5-183c-7.2-7.3,3.8-10.8-2-13.2C80.4,115.3,73.5,118,72.2,122.7z"/>
	<g>
		<path d="M363.6,884.1c-7.3,0-14-2.3-15.5-4.5c-2.2-3.1-1.2-14.3,0.1-21.3l25.6-4.3c0.2,0,0.3-0.1,0.4-0.1L517,779.7
			c2.5,1.2,6.9,1.7,13.5,1.7c10.6,0,23.7-1.6,26.3-1.9l140.6,70.3c0.1,0.1,0.3,0.1,0.4,0.1l24.1,4.3c3,10.3,4.4,20.4,2.9,21.4
			c-2.9,1.8-6.6,2.8-10.8,2.8c-6.2,0-13.3-2-21.2-5.8c-0.1,0-0.2-0.1-0.2-0.1l-132-39.5c-0.1,0-0.3-0.1-0.4-0.1
			c-0.2,0-0.5,0.1-0.7,0.2c-5.1,2.6-11.2,3.9-18.3,3.9c-12.9,0-24.4-4.4-24.5-4.5c-0.2-0.1-0.4-0.1-0.5-0.1c-0.1,0-0.3,0-0.4,0.1
			c-5.2,1.6-127.9,38.2-137.1,46.8C375.2,882.5,370,884.1,363.6,884.1z"/>
		<path fill="#FFFFFF" d="M556.5,781.1l140.2,70.1c0.3,0.1,0.5,0.2,0.8,0.3l23.2,4.2c2.4,8.5,3.7,16.9,3,19
			c-2.6,1.6-5.9,2.4-9.7,2.4c-6,0-12.9-1.9-20.6-5.7c-0.1-0.1-0.3-0.1-0.5-0.2l-132-39.5c-0.3-0.1-0.6-0.1-0.9-0.1
			c-0.5,0-0.9,0.1-1.4,0.3c-4.9,2.5-10.8,3.8-17.6,3.8c-12.6,0-23.8-4.3-23.9-4.4c-0.4-0.1-0.7-0.2-1.1-0.2c-0.3,0-0.6,0-0.9,0.1
			c-0.3,0.1-32.3,9.6-64.9,20.1c-66.6,21.3-71.1,25.5-72.8,27.1c-3,2.8-7.9,4.3-13.8,4.3c-7.1,0-13.1-2.3-14.3-3.9
			c-1.6-2.2-1.2-11.3,0.1-19.1l24.5-4.1c0.3-0.1,0.6-0.2,0.9-0.3l142.2-73.8c2.1,0.8,5.9,1.6,13.4,1.6
			C540.8,782.9,553,781.5,556.5,781.1 M557,778c0,0-14.7,1.9-26.5,1.9c-5.9,0-11.1-0.5-13.5-1.9l-143.5,74.5l-26.6,4.5
			c0,0-3.6,18.5,0,23.5c2,2.8,9.2,5.1,16.8,5.1c5.9,0,11.9-1.4,15.9-5.1C388.5,872,516,834,516,834s11.7,4.6,25,4.6
			c6.3,0,13-1,19-4.1L692,874c8.4,4.1,15.8,6,21.9,6c4.6,0,8.5-1.1,11.6-3c3.9-2.4-2.5-24-2.5-24l-25-4.5L557,778L557,778z"/>
	</g>
</g>
</svg>
