<?xml version="1.0" encoding="utf-8"?>
<!-- Generator: Adobe Illustrator 15.1.0, SVG Export Plug-In . SVG Version: 6.00 Build 0)  -->
<!DOCTYPE svg PUBLIC "-//W3C//DTD SVG 1.1//EN" "http://www.w3.org/Graphics/SVG/1.1/DTD/svg11.dtd">
<svg version="1.1" id="Layer_1" xmlns="http://www.w3.org/2000/svg" xmlns:xlink="http://www.w3.org/1999/xlink" x="0px" y="0px"
	 width="400px" height="400px" viewBox="0 0 400 400" enable-background="new 0 0 400 400" xml:space="preserve">
<g>
	<polygon fill="#00CC00" points="151.136,207.013 177.197,207.013 177.197,207.138 204.071,207.138 197.558,339.089 
		248.079,196.958 217.918,196.958 204.577,196.958 195.132,196.958 201.655,64.881 	"/>
</g>
<g>
	<path fill="#00CC00" d="M60.637,62.51C21.242,101.906,2.133,153.905,3.306,205.528c2.741-42.066,20.178-83.353,52.329-115.504
		c57.018-57.017,142.771-67.785,210.642-32.304c16.206,7.585,31.396,18.063,44.78,31.448l26.657-26.657
		C261.199-14.003,137.15-14.003,60.637,62.51z"/>
	<path fill="#00CC00" d="M132.852,345.154c-16.207-7.585-31.395-18.065-44.781-31.448l-26.656,26.656
		c76.514,76.514,200.564,76.516,277.078,0.002c39.396-39.396,58.503-91.396,57.33-143.02
		c-2.742,42.067-20.177,83.354-52.328,115.505C286.477,369.867,200.724,380.634,132.852,345.154z"/>
</g>
</svg>
