<?xml version="1.0" encoding="utf-8"?>
<!-- Generator: Adobe Illustrator 15.1.0, SVG Export Plug-In . SVG Version: 6.00 Build 0)  -->
<!DOCTYPE svg PUBLIC "-//W3C//DTD SVG 1.1//EN" "http://www.w3.org/Graphics/SVG/1.1/DTD/svg11.dtd">
<svg version="1.1" id="Layer_1" xmlns="http://www.w3.org/2000/svg" xmlns:xlink="http://www.w3.org/1999/xlink" x="0px" y="0px"
	 width="400px" height="400px" viewBox="0 0 400 400" enable-background="new 0 0 400 400" xml:space="preserve">
<g>
	<path fill="#00CC00" d="M171.06,316.584v25.629c-23.468-10.919-39.745-34.691-39.745-62.28c0-37.935,30.751-68.686,68.684-68.686
		c1.719,0,3.416,0.089,5.099,0.224c0.403-0.14,0.854-0.224,1.357-0.224c0.114,0,0.223,0.009,0.332,0.016
		c0.014-0.007,0.024-0.016,0.042-0.02c-0.65-0.084-1.305-0.158-1.963-0.218c14.308-0.757,27.748-4.772,39.603-11.314
		c0.014,0.006,0.026,0.015,0.04,0.024c0.051-0.056,0.1-0.108,0.153-0.159c-0.048-0.028-0.09-0.053-0.137-0.078
		c28.265-15.682,47.4-45.82,47.4-80.436c0-47.166-35.526-86.025-81.275-91.305V2.545l-38.211,38.211l38.211,38.208V51.221
		c32.873,5.118,58.035,33.532,58.035,67.842c0,37.934-30.752,68.686-68.687,68.686c-1.953,0-3.887-0.087-5.8-0.246
		c-13.604,1.292-26.321,5.514-37.526,12.03c-0.266-0.146-0.526-0.299-0.786-0.451c-0.204,0.108-0.424,0.202-0.659,0.273
		c0.083,0.046,0.164,0.097,0.248,0.143c-28.265,15.68-47.401,45.821-47.401,80.434c0,40.651,26.399,75.12,62.985,87.244V396.2h0.349
		l40.096-40.097l-39.517-39.52H171.06z"/>
	<polygon fill="#00CC00" points="108.168,429.524 108.168,429.336 108.075,429.429 	"/>
	<path fill="#00CC00" d="M144.569,192.382c0.472-0.9,1.296-1.604,2.474-1.822c5.864-4.63,12.306-8.562,19.21-11.663
		c-20.857-11.791-34.938-34.167-34.938-59.834c0-26.86,15.418-50.114,37.886-61.407l-10.626-20.673
		c-29.958,15.147-50.5,46.213-50.5,82.08C108.075,149.012,122.403,175.601,144.569,192.382z"/>
	<path fill="#00CC00" d="M255.702,206.854c-0.095,0.059-0.195,0.108-0.299,0.159c-0.02,0.018-0.037,0.037-0.059,0.056
		c0.155,0.118,0.312,0.236,0.463,0.354c-6.568,5.23-13.873,9.574-21.731,12.861c20.679,11.838,34.609,34.114,34.609,59.648
		c0,31.512-21.227,58.047-50.157,66.135l4.72,22.819c39.511-10.299,68.678-46.22,68.678-88.954
		C291.926,250.115,277.706,223.647,255.702,206.854z"/>
</g>
</svg>
