<?xml version="1.0" encoding="utf-8"?>
<!-- Generator: Adobe Illustrator 15.1.0, SVG Export Plug-In . SVG Version: 6.00 Build 0)  -->
<!DOCTYPE svg PUBLIC "-//W3C//DTD SVG 1.1//EN" "http://www.w3.org/Graphics/SVG/1.1/DTD/svg11.dtd">
<svg version="1.1" id="Layer_1" xmlns="http://www.w3.org/2000/svg" xmlns:xlink="http://www.w3.org/1999/xlink" x="0px" y="0px"
	 width="400px" height="400px" viewBox="0 0 400 400" enable-background="new 0 0 400 400" xml:space="preserve">
<circle fill="#00CC00" cx="184.84" cy="70.108" r="64.259"/>
<path fill="#00CC00" d="M316.383,299.453h-63.787c0-40.203,0-93.06,0-93.06c-0.041,0-0.083,0-0.123,0
	c-1.985-33.705-29.934-60.428-64.139-60.428c-35.488,0-64.259,28.768-64.259,64.257c0,1.983,0.104,3.943,0.282,5.88
	c-2.393,14.881,12.451,43.006,13.005,59.86c0.672,20.413-9.33,40.788-11.846,61.428c-1.968,16.152,1.466,53.739,24.261,53.739
	h166.606c10.964,0,19.852-9.852,19.852-22.001v-47.671C336.235,309.304,327.348,299.453,316.383,299.453z"/>
<path fill="#00CC00" d="M113.316,368.329c0.579,4.033,0.931,8.236,0.415,13.011c-1.709,15.805-15.958,12.53-28.555,12.53
	c-7.661,0-13.873-8.904-13.873-19.89V193.846c0-10.985,6.211-19.891,13.873-19.891c0,0,8.826,0,8.996,0
	c19.075,0,15.674,49.577,18.683,66.429c3.273,18.331,8.73,30.955,7.772,51.342c-0.821,17.472-4.496,33.986-8.308,50.961
	C110.062,352.744,112.15,360.193,113.316,368.329z"/>
</svg>
