<?xml version="1.0" encoding="utf-8"?>
<!-- Generator: Adobe Illustrator 15.1.0, SVG Export Plug-In . SVG Version: 6.00 Build 0)  -->
<!DOCTYPE svg PUBLIC "-//W3C//DTD SVG 1.1//EN" "http://www.w3.org/Graphics/SVG/1.1/DTD/svg11.dtd">
<svg version="1.1" id="Layer_1" xmlns="http://www.w3.org/2000/svg" xmlns:xlink="http://www.w3.org/1999/xlink" x="0px" y="0px"
	 width="400px" height="400px" viewBox="0 0 400 400" enable-background="new 0 0 400 400" xml:space="preserve">
<path fill="#00CC00" d="M340.681,139.987c-16.408-41.617-50.166-68.748-82.412-69.677l0.007-0.923l-40.835-0.181v-0.148
	l-16.877,0.076l-16.875-0.076v0.148l-40.834,0.181l0.005,0.923c-32.244,0.929-66.002,28.06-82.41,69.677
	c-14.808,37.554-11.402,76.538,6.045,100.985c14.017,21.437,37.952,35.567,65.134,35.567c29.862,0,55.761-17.079,68.936-42.142
	c13.175,25.061,39.076,42.142,68.938,42.142c27.181,0,51.115-14.132,65.133-35.567C352.079,216.525,355.489,177.542,340.681,139.987
	z"/>
<path fill="#00CC00" d="M368.975,254.723c-2.825,6.281-6.436,12.066-10.806,17.199c-16.479,21.119-44.613,35.043-76.566,35.043
	c-29.961,0-56.518-12.265-73.288-31.203h-0.1c-1.708-1.932-4.131-3.199-6.855-3.411v-0.012h-0.19
	c-0.2-0.014-0.398-0.031-0.604-0.031h-0.001c-0.205,0-0.404,0.018-0.604,0.031h-0.062v0.002c-2.775,0.181-5.249,1.461-6.984,3.421
	h-0.099c-16.771,18.938-43.328,31.203-73.287,31.203c-31.954,0-60.089-13.924-76.566-35.043
	c-4.371-5.133-7.982-10.918-10.807-17.199H3.356c2.315,15.934,8.962,30.341,19.458,41.682
	c18.582,21.917,50.317,36.368,86.353,36.368c30.738,0,58.304-10.533,77.271-27.233c4.125-2.044,8.747-3.227,13.645-3.299h0.964
	c4.897,0.072,9.521,1.255,13.646,3.299c18.967,16.7,46.532,27.233,77.27,27.233c36.036,0,67.77-14.451,86.354-36.368
	c10.495-11.341,17.142-25.748,19.457-41.682H368.975z"/>
</svg>
