<?xml version="1.0" encoding="utf-8"?>
<!-- Generator: Adobe Illustrator 18.1.1, SVG Export Plug-In . SVG Version: 6.00 Build 0)  -->
<svg version="1.1" xmlns="http://www.w3.org/2000/svg" xmlns:xlink="http://www.w3.org/1999/xlink" x="0px" y="0px"
	 viewBox="0 0 1000 1000" enable-background="new 0 0 1000 1000" xml:space="preserve">
<g id="Layer_1" display="none">
	<path display="inline" fill="#00cc00" d="M785.8,469c110.5,110.5,409.7,340.1-283.1,340.1c-707.2,0-393.6-229.5-283.1-340.1
		c112.5-112.5,126.7-283.1,283.1-283.1S689,372.2,785.8,469z"/>
	<path display="inline" fill="#00FFFF" d="M747.3,507.1c95.6,95.6,354.5,301.9-244.9,301.9c-611.9,0-340.6-206.3-244.9-301.9
		c97.3-97.3,109.7-244.9,244.9-244.9S663.5,423.4,747.3,507.1z"/>
	<path display="inline" fill="#00FF00" d="M706.3,547.7c79.8,79.8,295.8,261.3-204.3,261.3c-510.5,0-284.1-181.5-204.3-261.3
		c81.2-81.2,91.5-204.3,204.3-204.3S636.4,477.8,706.3,547.7z"/>
	<path display="inline" fill="#FFFF00" d="M666,587.6c64.2,64.2,238,221.4-164.4,221.4c-410.8,0-228.6-157.2-164.4-221.4
		c65.3-65.3,73.6-164.4,164.4-164.4S609.8,531.4,666,587.6z"/>
	<path display="inline" fill="#FF0000" d="M636.9,616.5c53,53,196.3,192.6-135.6,192.6c-338.8,0-188.5-139.6-135.6-192.6
		c53.9-53.9,60.7-135.6,135.6-135.6S590.5,570.1,636.9,616.5z"/>
</g>
<g id="Layer_1_copy" display="none">
	<path display="inline" fill="#33FF33" d="M785.8,469c110.5,110.5,409.7,340.1-283.1,340.1c-707.2,0-393.6-229.5-283.1-340.1
		c112.5-112.5,126.7-283.1,283.1-283.1S689,372.2,785.8,469z"/>
	<path display="inline" fill="#00CC00" d="M747.3,507.1c95.6,95.6,354.5,301.9-244.9,301.9c-611.9,0-340.6-206.3-244.9-301.9
		c97.3-97.3,109.7-244.9,244.9-244.9S663.5,423.4,747.3,507.1z"/>
	<path display="inline" fill="#006600" d="M706.3,547.7c79.8,79.8,295.8,261.3-204.3,261.3c-510.5,0-284.1-181.5-204.3-261.3
		c81.2-81.2,91.5-204.3,204.3-204.3S636.4,477.8,706.3,547.7z"/>
	<path display="inline" fill="#003300" d="M666,587.6c64.2,64.2,238,221.4-164.4,221.4c-410.8,0-228.6-157.2-164.4-221.4
		c65.3-65.3,73.6-164.4,164.4-164.4S609.8,531.4,666,587.6z"/>
	<path display="inline" d="M636.9,616.5c53,53,196.3,192.6-135.6,192.6c-338.8,0-188.5-139.6-135.6-192.6
		c53.9-53.9,60.7-135.6,135.6-135.6S590.5,570.1,636.9,616.5z"/>
</g>
<g id="Layer_1_copy_2">
	<radialGradient id="SVGID_1_" cx="488.5417" cy="913.2894" r="724.53" gradientUnits="userSpaceOnUse">
		<stop  offset="0" style="stop-color:#000000"/>
		<stop  offset="8.511200e-002" style="stop-color:#080808"/>
		<stop  offset="0.2209" style="stop-color:#202020"/>
		<stop  offset="0.3903" style="stop-color:#464646"/>
		<stop  offset="0.5868" style="stop-color:#7A7A7A"/>
		<stop  offset="0.803" style="stop-color:#BCBCBC"/>
		<stop  offset="1" style="stop-color:#FFFFFF"/>
	</radialGradient>
	<path fill="url(#SVGID_1_)" d="M815.2,468.5c121.7,121.7,451.2,374.5-311.7,374.5c-778.8,0-433.4-252.7-311.7-374.5
		c123.9-123.9,139.5-311.7,311.7-311.7S708.6,361.9,815.2,468.5z"/>
</g>
</svg>
