<?xml version="1.0" encoding="utf-8"?>
<!-- Generator: Adobe Illustrator 18.1.1, SVG Export Plug-In . SVG Version: 6.00 Build 0)  -->
<svg version="1.1" xmlns="http://www.w3.org/2000/svg" xmlns:xlink="http://www.w3.org/1999/xlink" x="0px" y="0px"
	 viewBox="0 0 600 600" enable-background="new 0 0 600 600" xml:space="preserve">
<g id="Layer_5" display="none">
	<g display="inline">
		<path d="M483.5,336.7c-61.2-8.1-102.2,4.1-133.7,6.8c3.6-6.4,5.6-13.7,5.6-21.6c0-7.8-2-15.1-5.6-21.5c3.3-1.2,7-2.1,11.1-2.5
			c25.3-2.3,117-0.4,131.6-81.3S404.4,50.3,310.3,46.2c-63.4-2.8-101.5,50.7-73,119.6c23.5,56.8,54.3,86.2,72.5,111.9
			c-15.5,0.5-28.9,8.8-36.5,21.2c-2.8-2.3-5.5-5.1-8-8.6c-14.6-20.8-58.9-101.1-136.2-73.3c-77.3,27.9-100,159.5-56.5,243.1
			c29.3,56.4,94.7,62.6,140.1,3.4c37.3-48.6,47.4-89.9,60.6-118.5c7.7,12.6,21.6,21.1,37.4,21.3c-0.6,3.7-1.6,7.5-3.5,11.5
			c-10.7,23.1-58.2,101.5,4.6,154.6s188.1,6.8,238.8-72.6C584.7,406.2,557.5,346.5,483.5,336.7z"/>
	</g>
</g>
<g id="Layer_6" display="none">
	<g display="inline">
		<path fill="#FFFFFF" d="M169.1,498.1c21.6-17.8,36-39.3,42.9-64c4.3-15.5,6.2-31.6,7.9-45.8c2.4-19.8,4.5-37,11.7-46.1
			c24-30.1,35.1-34.6,39.5-34.6c0.6,0,1.2-0.4,1.4-0.9c6.4-16,21.7-26.4,38.9-26.6c0.6,0,1.1-0.3,1.3-0.8c0.2-0.5,0.2-1.1-0.2-1.6
			c-5.5-7.2-11.7-15.4-20.3-26.2c-66.9-84.2-66.8-122.9-63-141.7c4.6,27.6,16,50.8,34,69.1c11.3,11.4,24.3,21.2,35.7,29.8
			c16,12,29.8,22.3,34,33.2c13,33.1,12.9,46,10.5,51c-0.3,0.5-0.2,1.2,0.2,1.6c6.8,7.7,10.5,17.6,10.5,27.9c0,7.4-2,14.8-5.7,21.2
			c-0.3,0.5-0.3,1.1,0,1.6c0.3,0.4,0.8,0.7,1.3,0.7c0.1,0,0.1,0,0.2,0c8.3-1,18.5-2.4,32.1-4.4c26.6-4,50.5-6,71-6
			c52.2,0,72.6,12.7,83.2,22.3c-8.9-3.4-25.9-8.9-47-8.9c-10.1,0-20.2,1.3-29.8,3.8c-15.5,4-30.5,10.4-43.7,16
			c-16.5,7.1-30.8,13.1-41.9,13.1c0,0,0,0,0,0c-1.3,0-2.6-0.1-3.8-0.3c-35.6-5.3-46.6-12-49.6-16.7c-0.3-0.4-0.8-0.7-1.3-0.7
			c-0.1,0-0.2,0-0.2,0c-2.4,0.4-4.8,0.6-7.1,0.6c-15.3,0-29.4-8.3-37-21.6c-0.3-0.5-0.8-0.8-1.3-0.8c0,0-0.1,0-0.1,0
			c-0.6,0-1.1,0.4-1.3,0.9c-3.1,7.5-7,16.8-12,29.3C220.9,472.8,187.3,492.1,169.1,498.1z M311.9,299.3c-12.7,0-23.1,10.3-23.1,23.1
			c0,12.7,10.3,23.1,23.1,23.1c12.7,0,23.1-10.3,23.1-23.1C335,309.7,324.6,299.3,311.9,299.3z"/>
		<path d="M229.6,118.7c5.4,24.1,16.4,44.6,32.7,61.2c11.3,11.5,24.4,21.3,35.9,29.9c15.8,11.9,29.4,22.1,33.5,32.6
			c13.5,34.3,12.4,46,10.5,49.8c-0.5,1.1-0.3,2.4,0.4,3.3c6.5,7.5,10.1,17,10.1,26.9c0,7.2-1.9,14.2-5.5,20.4
			c-0.6,1-0.5,2.2,0.1,3.2c0.6,0.8,1.5,1.3,2.5,1.3c0.1,0,0.2,0,0.4,0c8.7-1.1,18.6-2.4,32.1-4.4c26.6-4,50.4-6,70.7-6
			c26.3,0,47.5,3.3,63.1,9.9c4.9,2.1,8.8,4.3,12.1,6.4c-9.6-3-23.2-6-39-6c-10.3,0-20.4,1.3-30.2,3.8c-15.6,4.1-30.6,10.5-43.9,16.1
			c-16.4,7-30.5,13-41.4,13c-1.3,0-2.5-0.1-3.6-0.3c-36.9-5.5-46.3-12.4-48.5-16c-0.6-0.9-1.5-1.4-2.5-1.4c-0.2,0-0.3,0-0.5,0
			c-2.3,0.4-4.6,0.6-6.8,0.6c-14.7,0-28.4-8-35.6-20.8c-0.5-0.9-1.5-1.5-2.6-1.5c-0.1,0-0.1,0-0.2,0c-1.1,0.1-2.1,0.8-2.6,1.8
			c-3.1,7.5-7,16.8-12,29.4c-19.1,48.5-39.1,83.6-59.3,104.1c-8.7,8.9-16.4,14-22.8,17.1c18.2-16.8,30.5-36.5,36.6-58.9
			c4.3-15.6,6.2-31.8,8-46c2.4-19.6,4.4-36.5,11.4-45.3c23.6-29.6,34.2-34.1,38.4-34.1c1.2,0,2.3-0.7,2.8-1.9
			c6.2-15.4,20.9-25.5,37.5-25.7c1.1,0,2.2-0.7,2.7-1.7c0.5-1,0.4-2.2-0.3-3.1c-5.5-7.2-11.7-15.4-20.3-26.2
			c-32.5-40.8-52.8-75.6-60.5-103.4C229.7,135.1,229.1,125.9,229.6,118.7 M311.9,347c13.5,0,24.6-11,24.6-24.6s-11-24.6-24.6-24.6
			s-24.6,11-24.6,24.6S298.4,347,311.9,347 M229.7,102.3c0,0-0.1,0-0.1,0.2c-4.4,16.2-15.4,53.1,61.6,149.9
			c9.1,11.5,15.6,19.9,20.3,26.2c-18.3,0.2-33.9,11.5-40.3,27.5c-6.8,0-19.2,8.1-40.7,35.2c-13,16.3-9.8,55.7-19.9,92.5
			c-12.7,46.1-49.5,67.9-48,67.9c0,0,0.1,0,0.1,0c16.2-4.3,53.7-13.2,99-128.2c5.1-12.8,9-22.2,12-29.3
			c7.5,13.3,21.8,22.4,38.3,22.4c2.5,0,4.9-0.2,7.3-0.6c3.7,5.8,17.1,12.3,50.6,17.3c1.3,0.2,2.7,0.3,4.1,0.3
			c20.7,0,51.4-20.3,86-29.2c10.4-2.7,20.3-3.7,29.5-3.7c30.3,0,52.1,11.4,53.3,11.4c0.1,0,0.1-0.1,0-0.2
			c-9.1-9.1-26.7-27.6-89.4-27.6c-19.2,0-42.5,1.7-71.2,6c-14.1,2.1-24.4,3.4-32.1,4.4c3.7-6.5,5.9-13.9,5.9-21.9
			c0-11.1-4.1-21.2-10.8-28.9c3-6.3,1.8-21.1-10.4-52.2c-7.6-19.4-43.3-36.4-70.1-63.5C231.4,144.3,230.5,102.3,229.7,102.3
			L229.7,102.3z M311.9,344c-11.9,0-21.6-9.7-21.6-21.6c0-11.9,9.7-21.6,21.6-21.6c11.9,0,21.6,9.7,21.6,21.6
			C333.5,334.3,323.8,344,311.9,344L311.9,344z"/>
	</g>
</g>
<g id="Layer_4" display="none">
	<rect display="inline" fill="#000033" width="600" height="600"/>
</g>
<g id="Layer_3" display="none">
	<path display="inline" fill="#D6D6D4" d="M282.8,577.2c-0.1-0.7-0.7-0.6-1.2-0.6 M400.3,499.8c-1.6,1.2-3.5,0.7-4.5-1.4
		c1.3-0.2,5.2-0.1,5.8,0c2.6,0.5,6.5,0.9,8.3,1.1c0.6,0,0.8-0.4,0.6-1c0.3-0.1,0.5-0.2,0.8-0.2c6,0.1,11.9-0.4,17.9,0.2
		c0.4,0,0.9,0.2,1-0.3c0.1-0.6-0.3-0.7-0.7-0.8c-1.3-0.2-2.6-0.7-3.9-0.4c-2.7,0.6-4.1-0.7-5.2-2.9c-0.6-1.1-0.9-2,0.3-3.1
		c1.2-1.1,1.5-2.6,0.6-4c-0.8-1.2-3.1-2-1-3.9c0,0,0-0.1-0.1-0.2c-0.9-2.1,0.5-1.7,1.6-1.5c1.3,0.3,2.3-0.2,3.3-0.9
		c-2.1,0-4-1.3-6-1.4c-3.5-0.1-6.7-1.3-10.2-1.6c-4.2-0.3-8.4-1.1-12.6-2c-2.5-0.5-5.1-0.3-7.3-1c-3.1-1-6.3-1.2-9.5-1.8
		c-3.5-0.6-7-1.6-10.6-1.8c-3-0.2-5.7-1.3-8.7-1.6c-3.5-0.3-6.9-0.8-10.3-1.4c-1.8-0.3-2,0.5-2,1.6c0.1,2.2,0.3,4.4,3,5.2
		c0.5,0.2,1.3,0.2,1.5,1c-2.8-0.4-5-2.3-7.5-3.4c-1.6-0.7-2.4-3.5-1.4-4.8c0.1-0.2,0.5-0.2,0.8-0.2c0.5,0,1,0,1.5,0
		c0.4,0,0.9,0.1,1-0.4c0.1-0.7-0.6-0.8-1-0.8c-1.4-0.1-2.8-0.1-4.1-0.2c-1-0.1-2.1-0.8-2.8-0.1c-1.5,1.2-1.9,0.3-2.4-0.9
		c3.7-0.2,7.3,0.1,11,0.5c3.8,0.4,7.4,1.3,11.2,1.7c2.6,0.3,5.7-0.1,8.1,1.6c0.3,0.2,0.8,0.3,1.2,0.3c4.4,0.2,8.7,1.4,13,1.9
		c2.6,0.3,5.2,0.6,7.7,1.2c4.2,1,8.7,0.6,12.7,2.5c1.4,0.7,3.1,0.3,4.5,0.4c5.6,0.5,11,1.7,16.5,2.5c5.4,0.8,10.9,1.7,16.3,2.8
		c2.7,0.6,5.4,0.9,8.1,1.3c3.8,0.6,7.7,1.1,11.6,1.8c2.6,0.5,5.3,0.7,8,1c3.5,0.4,7,0.6,10.6,0.9c2.1,0.2,4.2,0,6.2-0.3
		c0.7-0.1,1.2-0.3,1.5,0.5c0.4,0.8,1.1,1.1,1.7,0.8c1.9-0.7,3.9-0.2,5.9-0.4c2.2-0.2,3.4,0.7,3.2,3c-0.2,3.1,1.3,5.9,1,9
		c0,0.4,0.4,3.6-4.5,5.7c0,0-12.6,0.2-17.3-1.2S400.3,499.8,400.3,499.8z M164,508.7c-3.2-0.2-5.4,0-6,0c-2,0-4.6-1.9-5-2.1
		c-2.1-1-1.6-2.7-1.5-4.6c0.2-3.4,1.1-6.7,1.4-10c0.1-1.4,0.8-2,2.1-2c4.4,0.1,8.8-0.5,13.2,0c1.2,0.1,2.4,0,3.3-0.9
		c0.3-0.2,0.6-0.3,0.9-0.1c0.3,0.2,0.5,0.6,0.2,0.9c-1.7,2.2-0.4,4.8-0.9,7.2c-0.4,1.9,0.1,4-0.4,6c-0.2,0.8-0.1,1.8,1.1,1.8
		c1.1,0.1,1.4-0.7,1.4-1.7c0-3.1,0-6.1,0-9.2c0-4.5,0.5-4.8,4.8-5.4c4.3-0.7,8.7-0.9,12.9-2.3c1.1-0.4,2.3-0.5,3.5-0.5
		c3.4-0.2,6.7-0.8,9.9-2c0.3-0.1,0.7-0.2,1-0.1c3.2,0.5,6.1-0.9,9.1-1.5c5-0.9,10-1.8,15-2.7c3.3-0.6,6.6-1.3,9.9-2
		c4-0.8,7.9-1.6,11.9-2.2c2.9-0.5,5.7-1.4,8.7-1.7c4.4-0.5,8.7-1.8,13-2.6c2.9-0.5,5.8-1,8.7-1.4c-0.2,1.4,0.4,1.9,1.6,1.2
		c1.8-1,4.2,0.4,5.7-1.6c2.6,0.8,5-0.9,7.5-1c0.6,0,1.1-0.1,1.5,0.4c1,1.3-0.6,2.7,0.3,4.1c0.2,0.3-0.8,0.9-1.3,1.1
		c-2.4,1.3-5,2.5-7.4,3.8c-9.6,5.3-42.6,22.1-52.4,27.1 M164,500.4c1,0.7,0.4,1.6,0.6,2.5c0.1,0.5,0,1.2,0.8,1.2
		c0.6,0.1,1-0.3,1.4-0.8c0.4-0.6,0.3-1.2,0.3-1.8c0.1-2.5-0.1-5,0.2-7.5c0.2-1.4-0.2-2-1.4-2.1c-1.3-0.2-1.6,0.7-1.7,1.8
		c-0.1,1.6,0.2,3.2-0.2,4.8c-1.4-1.7-0.3-3.7-0.7-5.5c-0.1-0.5,1.1-1.5-0.4-1.5c-1,0-0.9,0.8-0.9,1.6c0,4.3,0.1,8.6,0,12.9
		c0,1,0.5,1.7,1.2,1.6c1.9-0.3,3.7,1.7,5.5,0.2c0.2-0.2,0.3-0.5,0.4-0.7c1-1.9,1.1-4.1,1.4-6.2c0.3-2.5,0.3-5,0-7.5
		c-0.1-0.8-0.2-2-1.5-1.9c-1.3,0.1-0.8,1.2-0.8,2c-0.3,3.5-0.6,7-0.4,10.6c0.1,1.4-0.8,1.6-1.9,1.6c-1.1,0-2.2,0.1-2.2-1.4
		C163.8,502.8,163.4,501.5,164,500.4z M488.1,488.3c-1.1-1-2.2-1.7-3.2,0.1c-1.4-0.2-1.8,0.1-1.6,1.8c0.3,2.6,0,5.3-0.8,7.9
		c-0.4-2.5-0.9-5-0.7-7.5c0.2-2.1-0.5-2.4-2.2-2.3c0.2-0.8-0.1-1.2-1-1.3c-1.4-0.1-2.7,0-3.6,1.3c-0.4-0.8-0.8-1.2-1.9-0.9
		c-1.1,0.3-1,1-1,1.7c0,3,0,5.9,0,8.9c-0.1,2.3,0.3,2.9,2.7,3.1c2.1,0.8,4.2,2.2,6.3,2.1c3.7-0.2,7.3-0.1,11-0.2
		c2.6-0.1,4.5-2.9,3.7-5.4c-0.9-3.1-1-6.3-1.5-9.4c-0.2-0.9-0.6-1.2-1.4-1.2c-0.7,0.1-1.5,0.3-2.2,0.4c0,0.8,0.8,0.9,0.9,1.6
		c0.4,3.4,0.9,6.8,1.2,10.3c0.2,1.7-0.6,2.2-2.5,1.8c0.4-4.1-0.7-8-0.8-12.1C489.5,488.2,488.9,488,488.1,488.3z M153.8,498.1
		c0,1.9-0.4,3.2-1,4.5c-0.7,1.5-0.1,2.4,1.1,3.5c1.7,1.6,3.6,1.1,5.7,1.2c-0.5-0.9-1.2-1.2-1.8-1.4c-1.7-0.4-2.4-1.3-2.6-3.1
		C155.1,501.5,155.7,499.7,153.8,498.1z M159.9,492.5c0.5,4.1-0.6,7.9-0.3,11.7c0,0.4,0.3,0.7,0.7,0.6c0.7-0.1,0.6-0.7,0.6-1.2
		c0-3.2,0-6.5,0-9.7C160.8,493.6,161,493,159.9,492.5z M433.2,500.3c0-0.1,0-0.2,0-0.3c-3.2-0.3-6.3-0.5-9.5-0.8c-0.4,0-1-0.1-1,0.4
		c-0.1,0.7,0.6,0.6,1,0.6C426.9,500.4,430.1,500.3,433.2,500.3z M470.9,501.3c-1.7-1.1-5.1-1.1-6.8-0.1
		C466.4,501.9,468.6,501.5,470.9,501.3z"/>
	<path display="inline" fill="#FFFFFF" d="M302.1,245c1.7,1,2.8,2.4,3.1,4.4c-1-0.2-1-1.6-2.4-1.7c0.7,1.3,1.2,2.3,1.8,3.4
		c2.4,4.6,5,9.1,7,13.8c0.3,0.6,0.8,1.5,0.1,1.9c-2.3,1-0.7,2.6-0.6,3.9c0,0.5,0.3,1.2,1,1.1c0.6-0.1,0.7-0.7,0.7-1.1
		c-0.1-1.4,0.6-2.3,1.5-3.2c0.5-0.6,0.7-1.4,0.5-2.1c0.3-0.1,0.6-0.1,0.8-0.3c1.9-2.2,4.4-3.3,7.2-4.2c3.1-0.9,5.7-2.9,8.9-3.8
		c3.1-0.9,6.3-1.7,9.4-2.2c4.2-0.7,8.3-1.8,12.6-2.4c2.9-0.4,5.8-0.7,8.6-1.2c2.4-0.5,5-0.8,7.4-1.3c3.4-0.6,6.8-1.1,10.2-1.5
		c4-0.5,7.9-1,11.8-1.8c3.4-0.7,7-0.8,10.4-1.5c4.3-0.9,8.7-1,13-1.9c2.9-0.6,5.9-0.5,8.8-1c6.7-1.1,13.4-2.4,20.2-3.2
		c7.1-0.8,14.2-2.3,21.4-2.3c2.7,0,5.4-0.3,8.1-0.3c2.4,0,3.5,0.9,4,3.3c0.5,2.4,2.1,4.4,2.1,6.9c0,2,0.8,3.8,1.4,5.6
		c0.5,1.6,0,2.6-1.5,3.2c-1.2,0.5-2.4,1.2-3.7,1.3c-3.1,0.3-4.2,2.5-5,4.9c-1.5,4.7-2.1,9.6-2.7,14.5c-0.4,3.1-0.8,6.3-2.1,9.2
		c-0.6,1.3-0.8,2.6-0.7,4c-1.2-0.3-1.9,0.1-2.6,1.2c-1.7,2.5-3.9,4.3-7,5.4c1.4-2,1.3-2.3,0.7-2.3c-2.1,0.1-0.7-1.3-0.8-2
		c-3.1,0.8-5.9,1.9-8.6,2.9c-6.2,2.3-12.4,4.1-18.8,5.7c-8.2,2-16.4,4.1-24.6,5.9c-8.1,1.8-15.9,4.5-24,6.3
		c-0.4,0.1-0.9,0.2-0.8,0.7c0.1,0.5,0.6,0.5,1,0.5c2.4,0,4.8,0.4,7.2,0.9c0.5,0.1,0.9,0.1,1.4,0c5.5-1.3,11-2.5,16.5-3.9
		c8-2,16-3.7,24-5.9c5.5-1.5,11.3-2.3,16.7-4.4c4.9-2,10.2-2.4,15.3-3.8c2.2-0.6,4.3-1.7,6.6-2.1c1.3-0.2,1.3-1,0.7-1.9
		c0.1,0,0.2,0,0.2,0c2.3,2.5,4.8,0.7,7.3,0.4c5.6-0.7,11.2-1.5,16.8-2.2c5.1-0.7,10.2-0.3,15.3-0.6c4.9-0.3,9.8,0.9,14.6,2.4
		c2.6,0.8,5.3,1.5,7.8,2.6c5.3,2.3,10.2,5.1,14.2,9.3c2.3,2.4,4.7,4.7,7.5,6.7c2.3,1.6,3.7,4.4,5.1,6.9c5.9,10.6,5.1,21.3,0.8,32.1
		c-0.2,0.4-0.4,0.5-0.8,0.5c-0.1-0.7,0.1-1.2,0.4-1.8c1.6-3.7,2.3-7.6,2.9-11.5c0.5-2.8-0.1-5.6-0.5-8.4c-0.4-3.3-1.6-6.1-2.9-9
		c-0.4-0.9-0.8-2-1.8-2.6c-0.1,0.2-0.3,0.3-0.3,0.4c0.2,1.2,0.2,2.5,0.6,3.7c2.2,6.2,1.8,12.7,0.4,18.8c-2.6,10.9-9.7,18-20.5,21.3
		c-4,1.2-8.1,2.2-12.1,3.5c-3.3,1.1-6.7,2.1-10.1,2.6c-6.6,1-13.1,2.7-19.7,3.7c-4.9,0.8-9.8,2-14.7,2.8c-3.1,0.5-6.3,0.5-9.4,1.4
		c-2.3,0.7-4.6,1.3-7,1.4c-4.3,0.2-8.5,1.6-12.9,0.9c-0.1,0-0.1,0-0.2,0c-5,0.9-9.9-0.4-14.9-0.3c-0.5,0-1-0.2-1.4-0.3
		c-2.4-0.8-4.9-1.4-7.5-0.4c-0.5,0.2-1.1,0.2-1.6,0c-1.9-0.7-3.8-1.4-5.5-2.4c-5-3-9.6-6.6-13.5-10.9c-0.8-0.9-1-1.7-0.6-2.8
		c3.8,2.2,6.5,6.1,10.7,7.7c-1.9-2.4-4.1-4.6-6.3-6.5c-3.2-2.7-5.7-6.1-8.9-8.7c-1.1-0.9-1.8-2.2-2.8-3.1c-2.1-2-4.1-4-6.4-5.7
		c-4.3-3.2-8.2-7-12.7-10c-0.4-0.3-1-0.5-0.7-1.1c0.3-0.6,1-0.2,1.3,0c2.3,1.5,4.6,2.9,6.8,4.5c0.6,0.4,1.1,1.2,1.7,0.7
		c0.6-0.5,0.6-1.4,0-2.2c-1.3-1.9-2.4-4-3.5-6c-0.7-1.4-1.7-2.9-3.1-4c-1.7-1.4-3.5-2.4-5.3-3.5c-1.2-0.8-2.3-1.6-3.8-1.9
		c-1.6-0.4-3.2-0.3-4.8-0.9c-2.7-1.1-5.2-2.6-8.1-3.2c-4.1-0.8-8.1-1.4-12.2-1.7c-4.5-0.3-9-0.1-13.5-0.1c-0.6,0-1.2-0.1-1.6,0.1
		c-0.8,0.5-1.3,1.5-2.3,0.2c-0.6-0.7-2.2-0.1-2.4-1.6c1.2,0.3,2.2-0.2,2.7-1.2c0.5-1-1-1.1-1.2-1.8c-0.2-0.4-0.5-0.6-0.8-1
		c-3.4-4.6-6.4-9.5-8.4-14.9c-0.3-0.8-0.7-2.4-1.5-2.1c-1,0.4-0.7,2-0.3,2.9c1,2.3,1.7,4.7,2.1,7.1c0.4,2.2,1.2,4.5,0,6.8
		c-0.4,0.8-0.2,2-0.5,3c-0.2,0.8,0.1,1.5,1.3,1.3c1.2-0.2,2.5-0.4,3.7,0.2c0.8,2.5,0.1,3.3-2.7,3c-1.5-0.2-2.9,0.2-4.2,0.8
		c-1,0.5-2,0.7-3.1,0.9c-1.5,0.3-3.6-0.1-4.4,1.6c-0.6,1.3-1.5,1.4-2.5,1c-1.2-0.4-2.1-0.1-2.5,1c-0.3,0.8-0.7,0.8-1.4,0.6
		c-0.6-0.2-1.1-0.6-1.8-0.3c0,0.8,0.6,1,1.1,1.3c5.3,2.7,11,1.8,16.5,1.5c1.7-0.1,3.4-0.5,5.2-0.3c1,0.1,2.1,0.1,3.1-0.1
		c2.8-0.5,5.6-0.8,8.4-0.7c4.7,0.1,9.3-0.3,14,0.4c5.3,0.8,10.4,2.2,15.4,3.7c3.5,1.1,6.8,3.1,9.9,5c2.4,1.5,5,2.9,6.9,5.2
		c-1.8,1.1-0.1,1.7,0.4,2.2c1.7,1.6,3.6,3,5.3,4.6c5.2,5,9.6,10.7,14.4,16.1c6.5,7.2,13.2,14.3,23,17.3c3.2,1,6.5,1.8,9.9,1.7
		c1.9-0.1,3.7-1,5.7-0.7c2.1,0.3,4.1,0.7,6.5,0.1c3.2-0.8,6.7-0.4,10-0.5c0.8,0,1.6,0.4,2.5,0.6c-2.1,0.7-4.2,0.6-6.3,0.9
		c-2.9,0.5-5.9,0.3-8.8,0.7c-5.2,0.6-10.4,0.2-15.6,0.5c-2.6,0.1-5.2-1.3-7.7-2.1c-4.7-1.5-8.2-4.9-11.6-8.1
		c-6.7-6.3-12.3-13.5-18.4-20.3c-3.5-3.9-7.1-7.9-11.1-11.2c-4.9-3.9-10.3-7.1-16.3-9.3c-2.9-1.1-5.7-2.3-8.6-3.3
		c-5.3-1.8-10.7-2-16.1-2.2c-4.3-0.2-8.7,0-13,0.6c-5.5,0.7-11.1,0.2-16.6,0.4c-3.2,0.1-6-0.7-8.9-1.9c-1.2-0.5-2.8-1-3-2.8
		c-0.1-0.9,0.1-2.3-0.4-2.6c-0.6-0.4-1.8,0.1-2.8,0.2c-0.2,0-0.4,0.1-0.6,0.1c-1.2,0.3-1.8,0-1.1-1.3c0.4-0.7,0.7-1.5-0.5-1.7
		c-1.2-0.1-1.7-0.7-1.7-1.9c0-0.6-0.4-1-1-1.1c-2.3-0.4-3.5-2.1-4.6-3.8c-3.4-4.8-4.8-10.8-8.8-15.3c-0.6-0.7,0-3.4,0.7-3.9
		c2.2-1.5,3.2-5.3,1.5-7.4c-0.9-1.1-2.1-2.8-3.7-2.5c-3.1,0.5-6.3,0.7-9.3,1.8c-3.4,1.3-7,2.1-10.6,2.8c-2.5,0.5-5.1-0.3-7.4,1.1
		c-0.7,0.4-1.5,0.7-2.3,0.8c-3.7,0.4-7.1,1.5-10.1,3.6c-0.9,0.6-1.8,1.6-2.5,2.6c-0.5,0.6-0.3,1.4,0.4,1.5c2.3,0.2,4.6,1.2,6.9,0.3
		c0.4-0.2,1-0.6,1.3-0.1c0.3,0.6-0.3,0.8-0.8,0.9c-3.1,1-6.2,1.9-9.3,3c-3.3,1.1-6.6,2.3-9.8,3.6c-4.5,1.8-9.9,10.9-9.1,15.7
		c0.5,2.9-0.7,5.3-1,8c-0.1,1.2-1.7,1.2-2.6,1c-1.2-0.3-0.5-1.2-0.1-1.8c1.3-2.6,1.6-5.5,1.5-8.3c-0.2-5.6-2.3-10.3-6.5-14.2
		c-0.7-0.6-1.8-1.2-1.7-2.4c0.1-1.7-1.3-2.9-1.5-4.5c0-0.4-1-0.7-0.7-1.3c0.5-0.8,1.2-0.4,1.9-0.2c1.5,0.4,2.9,0.1,4.1-0.9
		c0.5-0.4,1.1-1,0.8-1.8c-0.3-0.8-1.1-0.5-1.6-0.5c-2.3,0-4.6,0.6-6.9,1c-3.3,0.6-6.7,1.2-10,1.4c-7.2,0.5-14.1,2.7-21.2,3.6
		c-3.9,0.5-7.9,1-11.8,1.4c-1.5,0.1-2.1,0.6-2.1,2.1c0.1,1.8-1.4,2.7-2.7,2.7c-1.9,0-3.9-0.1-5.6-1.2c0-0.7,1.6-0.5,1-1.4
		c-0.5-0.8-1.5-0.6-2.2-0.2c-1,0.6-2.1,0.8-3.2,0.9c-3.8,0.1-7.7,0.1-11.5,0.9c-2.7,0.6-5.5,0.6-8.2,0.7c-1.3,0.1-1.3,0.6-1,1.6
		c0.4,1.4,1.7,2.2,2.1,3.5c1.6,4.6,4.3,8.7,6.1,13.2c2.1,5.1,4.7,9.9,7.1,14.8c0.7,1.4,0.9,3,1.7,4.4c1.7,3.3,3.5,6.6,5,9.9
		c2.7,5.7,4.9,11.7,7.9,17.2c2.2,4.1,3.5,8.6,6.1,12.5c0.2,0.3,0.2,0.7,0.2,1c0.1,4.3,1.7,7.4,6.3,8.2c0.7,0.1,1.4,0.6,1,1.2
		c-1.2,2.2-1,5-2.6,7.1c-0.2-2.1,1.1-4,1.2-6.1c0-0.9,0-1.4-0.9-1.6c-3.6-1-5-3.8-5.9-7.3c-0.7-2.5-2-4.9-3.3-7.3
		c-2.7-5-4.9-10.3-7.5-15.4c-3-6-6-12-8.6-18.1c-2.3-5.5-5.4-10.5-7.7-16c-1.9-4.7-4.4-9.1-6.7-13.7c-1.3-2.6-2.5-5.2-3.6-7.8
		c-0.8-1.8-2-3-3.9-3.4c-0.8-0.2-1.5-0.4-2.1-0.8c-0.8-0.5-0.7-1.3-0.5-2c0.2-0.8,0.9-0.4,1.4-0.2c2,0.7,3.8-0.5,5.6-0.9
		c6.3-1.5,12.7-2.5,19.1-3.8c4.8-1,9.9-1,14.7-1.9c4.7-0.9,9.5-0.9,14.2-1.8c3.5-0.6,7-0.7,10.5-1.1c5.8-0.7,11.7-0.3,17.5-1.6
		c0.2,0,0.4,0,0.6,0c8.5-0.1,17-1.4,25.5-2.2c7.2-0.7,14.3-2.1,21.5-2.7c7.6-0.6,15.1-1.9,22.7-1.3c2.5,0.2,4.6-1.2,7-1.4
		c0.2,0,0.5-0.3,0.6-0.5c0.1-0.5-0.3-0.5-0.7-0.6c-2.3-0.2-2.1-0.9-0.6-2.1c0.9-0.7,1.3-2,2.4-2.6c0.4-0.2,0.3-0.7,0.1-1.1
		c-1.7-3.9-2.1-5.9-7.7-5.8c-0.9,0-1.8,0.2-2.9-0.4c1.9-1.3,4.1-0.8,6-1.4c1.9-0.6,3.9-0.7,6.2-0.7c-0.7-1.2-1.5-1.2-2.3-1.2
		c-7.1-0.2-14.1,0.5-21,1.6c-2.9,0.4-5.9,0.4-8.9,0.5c-6,0.3-11.9,1.1-17.9,1.8c-4.3,0.5-8.6,1.2-12.9,1.6
		c-3.8,0.4-7.6,1.1-11.4,1.6c-3.8,0.5-7.7,0.8-11.5,1.2c-1.8,0.2-3.6,0.6-5.4,0.4c-1-0.1-1.4-0.2-0.8-1.4c0.9-1.8-0.2-3.7-0.7-5.4
		c-0.9-2.9-1.8-5.8-3.7-8.4c-1.8-2.5-3.1-5.3-5-7.8c-1.7-2.3-3.5-4.7-6.9-5.1c1,1.4,1.9,3,3.1,4.2c1.3,1.3,1.9,3,2.8,4.5
		c2.7,4.6,4.5,9.4,5.5,14.6c0.3,1.4,0,2.8,0.8,4.2c0.6,1-0.8,1.6-1.6,1.6c-3.8,0-7.5,1.1-11.3,1.4c-4.4,0.3-8.7,1.2-13.1,1.8
		c-6.1,0.8-12,2.3-18.2,2.5c-1.5,0.1-3.4,0.4-4.7,1.7c-0.3,0.3-0.9,0.3-0.9,0.1c-0.4-1.4-1.8-0.4-2.5-1c0.1-0.6,1.3-1.2,0.5-1.8
		c-0.9-0.7-0.9-1.8-1.4-2.7c-3.6-6.3-6.8-12.9-11.1-18.9c-2.8-4-6-7.6-10.1-10.3c-2.5-1.7-5.2-2.1-8.1-2.1c-1.8,0-3.2,1.2-4.9,1.3
		c1.1-1.3,0.8-2.4,0.2-3.9c-1.7-4.3-3-8.8-3.9-13.4c-0.2-0.8-0.4-1.3-1.2-1.3c-0.8,0-1.5-0.1-1.7-1.1c3.4,0.5,6.8,0.4,10.2,0.4
		c0.5,0,0.9,0.2,1.1,0.8c1.1,4.3,3.3,8.3,4.5,12.6c0.4,1.5,1.4,2.2,2.8,2.4c0.7,0.1,1.5,0.2,2.2,0.5c2.1,0.8,3.5-0.1,4.7-1.7
		c1.1,0.3,2.4,0.8,3.4,0.3c3.7-2.1,8-2.4,12-3.5c1.2-0.3,2.5-0.8,3.9-0.4c1.5,0.5,3,0.4,4.5-0.1c2.6-0.8,5.3-1,8-0.9
		c1,0,1.9,0,2.9-0.2c6.1-1.1,12.2-2,18.4-2.3c3.9-0.2,7.8-0.8,11.7-1.2c1.3-0.1,1.5-0.7,1-2c-0.7-2-1.7-3.9-1.5-6.1
		c1.7,2,1.7,4.7,2.7,7c0.5,1.2,0.9,1.9,2.3,1.7c4.2-0.5,8.3-0.9,12.5-1.5c2.6-0.4,2.8-1,1.6-3.4c-1.1-2.3-1.9-4.6-2.4-7
		c1.8,1.1,1.6,3.2,2.3,4.8c0.5,1.1,1.3,2.1,1.3,3.4c0,0.5,1.1,0.6,1.8,0.6c4.1,0.1,8.1-0.8,12.2-1.1c4.6-0.3,9.2-0.9,13.8-1.5
		c2.5-0.3,5-0.8,7.5-1.2c7.6-1.3,15.3-2.1,23.1-1.6c2.7,0.2,5.3-0.8,7.9-1.3c5.3-1,10.5-0.7,15.6,0.7c5.9,1.6,11,4.7,15.7,8.7
		c3.9,3.4,7.4,7,10.5,11.1C301.9,243.6,302.2,244.2,302.1,245 M295.5,304.8c-0.8-3.3-0.6-7.1-1.7-10.8c-1.1-3.8-1.5-7.7-4.2-10.9
		c-0.4-0.5-0.6-1.2-1.4-0.8c-0.6,0.3-0.3,1-0.1,1.5c0.8,2.2,0,3.9-2.1,4c-2.6,0.1-4.6,0.1-3.6,3.5c-1.7,2.4-1.8,4.9-0.5,7.5
		c0.4,0.7-0.6,1.5,0.1,2.4c1.7,2.1,2.9,4.5,4.2,6.8c1.2,2.1,2.7,2.3,4.2,0.4c0.6-0.8,1.2-1.8,2.3-1.5c1.2,0.3,0.6,1.5,0.7,2.3
		c0.1,0.5,0,1.1,0.6,1.1c0.7,0,0.9-0.5,1-1.1C295.1,307.9,295.3,306.5,295.5,304.8z M138.8,294.8c-0.9,0.4-2.2,0.3-3.4,0.6
		c-2.6,0.7-5.2,1.2-7.8,1.6c-3.3,0.6-6.5,1.2-9.6,2.2c-0.3,0.1-0.7,0.2-0.7,0.6c0,0.2,0.4,0.5,0.6,0.5c2.4-0.4,4.9-0.3,7.3-0.2
		c0.7,0,1.7-0.5,2.5-0.5c5,0.5,9.9-0.6,14.9-1c3.1-0.2,6.1-1.6,9.4-1.4c4.1,0.2,7.9-1.8,11.9-2c0.3,0,0.6-0.3,0.8-0.6
		c0.6-0.5,1.3-0.6,1.9-0.4c0.9,0.3,1.6,0.1,2.4-0.2c1.5-0.5,3.2-1,4.5-1c3.2,0.1,5.9-2,9.1-1.5c0.5,0.1,1.1,0,0.9-0.7
		c-0.1-0.5-0.6-0.3-1-0.3c-3.4-0.3-6.7,0.1-10.1,0.2c-4.5,0.2-8.9,0.8-13.4,1.1c-2.9,0.2-5.9,0.9-8.9,1.6c-3.3,0.8-6.9,0.1-10.1,1.5
		C139.8,295.1,139.4,294.9,138.8,294.8z M303.3,295.2c0.7-0.5,0.4-1.1,0.3-1.6c-1.4-8.1-4.2-15.6-8.4-22.6c-1.3-2.2-3.2-4.1-5.6-5.3
		c-0.3-0.2-0.8-0.5-1.1,0c-0.3,0.4,0.1,0.7,0.3,1.1c0.8,1.6,2.4,2.3,3.6,3.6c3.4,3.6,4.2,8.5,6.3,12.8
		C300.7,287,300.8,291.5,303.3,295.2z M548.6,349c0.6,0.1,0.7-0.4,1-0.7c2.2-3.1,4-6.4,4.9-10.2c0.9-3.8,0.7-7.7,1.2-11.5
		c0.1-0.4-0.2-0.8-0.6-0.9c-0.3,0-0.5,0.2-0.5,0.6c0.1,2.9-1.3,5.5-1.6,8.3c-0.3,2.5-0.6,5-1.4,7.5C550.7,344.3,549,346.3,548.6,349
		z"/>
	<path display="inline" fill="#00CB00" d="M404.5,360.3c-0.4,1.1-0.2,1.9,0.6,2.8c3.9,4.4,8.5,8,13.5,10.9c1.7,1,3.6,1.6,5.5,2.4
		c0.5,0.2,1.1,0.2,1.6,0c2.6-1,5-0.4,7.5,0.4c0.5,0.1,0.9,0.3,1.4,0.3c5-0.1,9.9,1.3,14.9,0.3c0.1,0,0.1,0,0.2,0
		c4.4,0.8,8.6-0.6,12.9-0.9c2.4-0.1,4.7-0.7,7-1.4c3.1-1,6.3-0.9,9.4-1.4c4.9-0.8,9.8-2,14.7-2.8c6.6-1,13.1-2.7,19.7-3.7
		c3.4-0.5,6.8-1.5,10.1-2.6c4-1.3,8.1-2.3,12.1-3.5c10.8-3.3,17.9-10.4,20.5-21.3c1.5-6.2,1.9-12.6-0.4-18.8
		c-0.4-1.2-0.4-2.4-0.6-3.7c0-0.1,0.1-0.2,0.3-0.4c1,0.6,1.4,1.7,1.8,2.6c1.3,2.9,2.5,5.7,2.9,9c0.3,2.8,0.9,5.7,0.5,8.4
		c-0.7,3.9-1.4,7.8-2.9,11.5c-0.2,0.6-0.5,1.1-0.4,1.8c0,0,0,0,0,0c-0.7,0.2-0.8,0.7-0.7,1.3c0,0,0,0,0,0c-0.7,0.1-0.9,0.5-0.7,1.2
		c-0.2,0.3-0.4,0.6-0.6,0.9c-2.5,2.5-5.1,4.9-7.1,7.8c-0.1,0.1-0.3,0.3-0.4,0.4c-0.6,0-1.1,0.2-1.3,0.8c-0.4,0.2-0.8,0.4-1.2,0.6
		c-2.6,0.7-5.2,1.5-7.5,2.9c-0.3,0.1-0.5,0.1-0.8,0.2c-1.3-0.1-2.4,0.3-3.4,1.1c-0.3,0-0.5,0.1-0.8,0.1c-1-0.5-1.4,0.2-1.9,0.8
		c-0.6,0-1.3,0-1.8,0.3c-1.2-0.1-2.2,0.1-3,1.1c-2.9,0.3-5.6,1.6-8.5,2.3c-1.7,0.4-3.3,0.8-5,1.2c-6.2,1.4-12.2,3.1-18.5,3.8
		c-0.7-0.2-1.3,0.2-1.7,0.7c-1.1,0.2-2.3-0.3-3.3,0.5c-1.4,0.1-2.9,0.1-4.2,0.8c-0.7,0-1.4,0-2,0.4c-0.6-0.5-1.1-0.4-1.5,0.3
		c-0.2,0-0.4,0-0.7,0c-0.3-0.3-0.6-0.1-1-0.1c-4.7,1-9.5,1.5-14.3,2.1c-3.9,0.5-7.8,1-11.8,1.2c-7,0.3-14.1,1.1-21.1,1.6
		c-1.1,0.1-2.2,0.1-3.2,0.8c-0.9,0.7-1.9,0.9-2.9,0.8c-1.4-0.1-2.7,0.2-4.1,0.6c-4.5,1.3-9,2.6-13.5,3.8c-5.5,1.5-11.1,2.8-16.7,4.2
		c-1.1,0.3-2.3,0.2-3.4,0.7c-3,1.4-6.2,1.7-9.3,2.3c-1,0.2-2.7,0.2-2.6,1.1c0.1,1.2,1.8,0.7,2.6,0.5c6.2-1.1,12.4-1.4,18.7-2.3
		c9-1.3,18-2.8,27-4c0.5-0.1,1-0.4,1.2,0.2c0.2,0.7-0.3,1-0.9,1.1c-2.7,0.2-5.3,1.1-7.9,1.7c-5.1,1.3-10.2,2.6-15.3,3.8
		c-6,1.5-11.9,3.2-17.9,4.4c-5.2,1.1-10.3,2.5-15.4,3.9c-0.6,0.2-1.1,0.4-1.1,1.4c3.9-0.2,7.5-1.2,11.1-2.1c3.3-0.8,6.6-1.9,10-2.4
		c2.2-0.4,4.4-1.3,6.7-1.3c0.7,0,1.9-1.1,2.2-0.2c0.3,1.3-1.2,0.8-2,1.1c-1.1,0.4-2.3,0.6-3.4,1c-1.6,0.5-3.4,1.2-4.9,1.1
		c-2.8-0.1-5.1,1.4-7.8,1.8c-3.4,0.5-6.7,2.1-10.1,2.4c-3.4,0.3-6.4,1.8-9.8,2.1c0.3,0.8,0.8,0.9,1.2,0.7c1.7-0.7,3.6-0.4,5.3-0.9
		c8.1-2.4,16.4-4.1,24.6-5.9c12.5-2.9,24.8-6,37.3-9c2-0.5,4.3-2.3,6.5,0.1c0.5,0.5,1.5-0.1,1.9-0.9c0.3-0.5,0.3-1.1,0.5-1.5
		c0.5-0.7,0.7-1.4-0.1-2c-0.8-0.6-1.8-0.7-2.5-0.1c-2.9,2.1-6.4,2.7-9.7,3.8c-3.6,1.2-7.2,2.3-10.9,3c-2.3,0.5-4.5,1.2-6.8,1.6
		c-0.4,0.1-0.9,0.1-1-0.5c-0.1-0.5,0.4-0.6,0.8-0.7c1.9-0.5,3.7-1.1,5.6-1.5c3.7-0.7,7.2-2.2,11-2.9c2-0.4,4.3-0.6,5.4-3
		c0.6-1.4,2-2,3.8-1.4c1.1,0.4,2.4,0.2,3.5-0.7c1.2-1,2.4-0.9,3.5,0.3c0,0.4,0.1,0.8,0.1,1.2c-0.6,4.7-1.7,6-5.8,6.8
		c-0.8,0.2-1.6,0.3-2.4,0.4c-0.7,0.1-1.4,0.1-1.8,0.8c-7.2,3.2-14.4,6.3-21.6,9.5c-1.3-0.6-2,0.6-2.9,1c-0.2,0.1-0.3,0.1-0.5,0.2
		c-0.8,0-1.4,0.4-2,0.8c-0.7,0-1.3,0.4-1.8,0.9c-0.3,0.1-0.5,0.1-0.8,0.2c-0.3,0.2-0.6,0.4-1,0.6c-1.4,0-2.5,0.6-3.6,1.4
		c-0.4,0.2-0.8,0.3-1.2,0.5c-0.5-0.1-0.8,0.2-1.1,0.6c-0.6,0.2-1.4,0.1-1.8,0.7c-0.4-0.1-0.8,0.1-1,0.5c0,0-0.1,0.1-0.1,0.1
		c0,0,0,0,0,0c-0.2,0-0.4,0.1-0.6,0.1c-1.3,0.7-3,0.6-4.1,1.8c-0.3,0-0.5,0.1-0.8,0.1c-0.7,0-1.1,0.6-1.7,0.9
		c-0.5,0.3-1,0.6-1.5,0.8c-2.2,0.6-4.4,1.4-6.3,2.8c-0.2,0.1-0.3,0.2-0.5,0.3c-0.9,0.3-1.9,0-2.5,0.9c-0.1,0-0.2,0-0.3,0.1
		c-1.4,0-2.5,0.5-3.6,1.3c-0.3,0.1-0.6,0.3-0.9,0.4c-0.5,0.2-1,0.5-1.4,0.7c-0.2,0.1-0.4,0.1-0.6,0.2c-1.2,0.3-2.5,0.5-3.4,1.6
		c0,0-0.1,0-0.1,0c-0.4,0.1-0.7,0.2-1.1,0.3c-0.2,0.1-0.3,0.1-0.5,0.2c-1.2,0.4-2.5,0.6-3.5,1.6l-0.1,0c0,0-0.1,0.1-0.1,0.1
		c-1.1,0-2.1,0.2-2.9,1.1c-0.7,0.1-1.4,0.2-1.8,0.8c-0.4,0.1-0.7,0.2-1.1,0.4c-0.2,0.1-0.3,0.1-0.5,0.2c-0.6,0-1.1,0.1-1.3,0.7
		c0,0-0.1,0-0.1,0c-0.6-0.1-1.1,0-1.3,0.6c-2.7,0.6-5.1,2-7.6,3c-0.4-0.1-0.7,0-0.9,0.4c-0.3,0-0.6,0.1-0.8,0.1
		c-0.2-0.5-0.3-1-0.5-1.6c-0.1-0.3-0.2-0.5-0.6-0.5c-0.5,0-0.5,0.3-0.6,0.7c-1.4,7.4-1.7,14.8-1.5,22.2c0,1.9-1,3-2.9,2.8
		c-0.8-0.1-1.1-0.3-0.9-1.2c0.5-2,0.2-4.1,0.2-6.2c0-3.8,0-3.8-3.6-3.6c0-0.1-0.1-0.2-0.2-0.3c0.1-0.7-0.4-1.7,0.8-1.8
		c2.5-0.4,3.4-1.8,3-4.2c0-0.3,0-0.6,0.1-0.8c0.7-1.7,0.1-2.5-1.8-2.3c-0.5,0.1-1.1,0.1-1.6,0.1c-0.7,0-1.3,0-2,0
		c-1.8,0-3.7,0-5.5,0.1c-1.1-0.2-2.1-0.3-3.2,0.1c-1.2-0.5-2.5-0.2-3.7-0.2c-1.6-0.1-2.1,0.4-1.2,1.9c0.9,1.5,1.2,3-0.5,4.4
		c2.2,0.4,4.1,1,6.2,0.5c0.2,0.2,0.3,0.3,0.5,0.5c0.2,0.7,0.4,1.2,1.1,0.4c0.4,0.1,0.7-0.1,0.8-0.5c1-0.1,1.9-0.2,2.9-0.2
		c2.6,0,2.7,0.1,2.4,2.6c-0.2,3.2-0.2,6.3,0.1,9.5c-0.5,1.2-4.2,2.1-4.9,1.2c-0.4-0.5,0-0.8,0.4-1c1-0.3,0.9-1,0.9-1.8
		c0-1.7,0-3.5,0-5.2c0-2.7-1.1-3.6-3.8-3.1c-2.2,0.4-4.4,0.3-6.6,0.4c-1.3,0-2-0.7-2-1.9c0-2.3-0.1-4.5-0.4-6.8
		c-0.3-2.5-0.8-3-3.5-2.8c-3.7-0.3-7.5-0.2-11.2-0.2c-1.5-0.4-3.1-0.5-4.6-0.1c-1.5,0-2.9-0.1-4.4-0.1c-2.2-1.2-4.6-0.7-6.9-0.5
		c-1.1,0-2.2,0-3.3-0.1c-1.9-0.7-3.9-0.6-5.9-0.2c-1.6-0.4-3.3-0.3-5-0.2c-2.2-0.8-4.4-0.7-6.7-0.2c-1.4,0-2.7-0.6-4.1-0.1
		c-1.4,0.3-3-0.2-3.9,1.3c-0.2,0-0.5,0.1-0.7,0.1c-0.3-0.4-0.6-0.3-0.8,0c-1-0.1-1.9-0.2-2.9,0c-0.2-0.3-0.5-0.4-0.9-0.3
		c-0.1-0.5-0.2-0.9-0.3-1.4c0.5-0.1,1-0.5,1.3-0.3c2.2,0.9,4-0.5,5.9-0.8c1-0.2,1.9-0.9,1.7-2.2c0.7-0.2,1.5-0.3,2.2-0.5
		c0.2,0.1,0.4,0.3,0.5,0.3c4-0.6,8.1-1.2,12.1-1.9c4.3-0.7,8.5-1.4,12.8-2.2c2.8-0.5,5.6-1.1,8.3-2.2c0.3-0.1,0.6-0.1,0.8-0.2
		c0.4,0.3,0.7,0.2,0.8-0.3c0.3-0.1,0.6-0.1,0.9-0.2c0.3,0.3,0.6,0.2,0.8-0.2c0.3-0.1,0.6-0.1,0.8-0.2c0.4,0.3,0.7,0.2,0.8-0.2
		c0.4-0.1,0.8-0.2,1.2-0.3c0.5,0.3,0.9,0.4,1.3-0.2c0.3-0.1,0.5-0.1,0.8-0.2c0.5,0.3,0.9,0.3,1.2-0.3c0.7,0.1,1.6,0.2,2-0.5
		c0.4-0.6-0.6-0.5-0.8-0.9c0.3-1.3,0.1-2.1-1.5-1.5c-0.4,0.2-0.9,0.1-1-0.4c-0.2-0.5,0.3-0.5,0.6-0.6c0.9-0.1,1.7-0.4,1.5-1.5
		c-0.2-1.2-1.3-1-2.2-1c-4.6,0.1-9.1,1-13.6,2c-2.1,0.5-4.4,0.4-6.2,1.8c-0.3,0-0.5,0.1-0.8,0.1c-0.6-0.2-1.3-0.5-1.7,0.3
		c-0.5,0.1-1.1,0.1-1.6,0.2c-0.5-0.2-1-0.4-1.3,0.3c-0.3,0-0.5,0.1-0.8,0.1c-1-0.2-2-0.6-2.5,0.7c-0.3,0-0.5,0.1-0.8,0.1
		c-1.1-0.3-2,0-2.8,0.9c-0.8,0-1.5,0-2.3,0.3c-1.1-0.2-2.2-0.1-3.2,0.2c-3.1,0.8-6.3,1.1-9.3,2.2c-0.1-0.2-0.2-0.4-0.4-0.6
		c-0.1,0.1-0.1,0.1-0.2,0.2c0.2,0.1,0.4,0.2,0.6,0.4c0.8,2.4,1.4,2.7,2.9,1.3c0.7,0,1.4-0.1,2.1-0.1c0.4,0.5,0.6,1.1,0.5,1.8
		c-0.7,0.4-1.3,1-2.2,0.8c-1.6-0.3-2.4,0.4-2.8,1.9c-2.2,0-4.6-1-6.1,1.7c-0.3,0.6-1.3,0-1.5-0.8c-0.1-0.6,0-1.2,0-1.9
		c-0.1-1.6-1.4-3.1-2.3-2.5c-1.6,1.2-3.6,0.5-5.3,1.3c-3,1.5-6.3,1.7-9.5,2.7c-4.4,1.4-9,2.1-13.3,3.8c-2.3,0.9-4.6,1.2-7,1.3
		c-1.9,0.1-3.9,0.1-5.5,1.3c-0.8,0-1.6,0.1-2.5,0.1c-2-0.2-4-0.2-5.9,0.1c-0.3,0-0.6-0.1-0.8-0.1c-1-0.9-2.1-0.9-3.3-0.7
		c-0.3-0.1-0.5-0.1-0.8-0.2c-0.3-0.5-0.8-0.5-1.3-0.3c-3.1-1.3-6.1-2.7-8.9-4.6c-6.9-4.8-12.2-10.8-15.7-18.5
		c-0.6-2.5-1.6-4.9-1.7-7.4c-0.2-3.2-0.8-6.5-0.1-9.7c0.1-0.4-0.1-1-0.6-1.3c0-0.5,0.1-1.1,0.1-1.6c1.6-2.1,1.4-4.8,2.6-7.1
		c0.3-0.6-0.3-1.1-1-1.2c-4.6-0.8-6.2-3.9-6.3-8.2c0-0.3,0-0.7-0.2-1c-2.6-3.9-3.9-8.4-6.1-12.5c-3-5.6-5.3-11.5-7.9-17.2
		c-1.6-3.4-3.3-6.7-5-9.9c-0.8-1.4-1-3-1.7-4.4c-2.4-4.9-5.1-9.7-7.1-14.8c-1.8-4.5-4.5-8.6-6.1-13.2c-0.5-1.3-1.7-2.2-2.1-3.5
		c-0.3-1-0.3-1.5,1-1.6c2.7-0.2,5.6-0.2,8.2-0.7c3.8-0.8,7.6-0.8,11.5-0.9c1.1,0,2.2-0.3,3.2-0.9c0.7-0.5,1.7-0.7,2.2,0.2
		c0.6,0.9-1,0.7-1,1.4c1.7,1,3.8,1.1,5.6,1.2c1.3,0,2.8-0.9,2.7-2.7c-0.1-1.5,0.6-2,2.1-2.1c4-0.3,7.9-0.8,11.8-1.4
		c7.1-1,14-3.1,21.2-3.6c3.4-0.2,6.7-0.8,10-1.4c2.3-0.4,4.5-1,6.9-1c0.6,0,1.3-0.2,1.6,0.5c0.3,0.8-0.3,1.3-0.8,1.8
		c-1.2,1-2.6,1.3-4.1,0.9c-0.6-0.2-1.4-0.6-1.9,0.2c-0.4,0.6,0.6,0.9,0.7,1.3c0.2,1.6,1.5,2.8,1.5,4.5c0,1.2,1.1,1.7,1.7,2.4
		c4.2,3.8,6.3,8.6,6.5,14.2c0.1,2.8-0.2,5.7-1.5,8.3c-0.3,0.6-1,1.5,0.1,1.8c0.9,0.2,2.5,0.2,2.6-1c0.3-2.7,1.5-5.1,1-8
		c-0.8-4.8,4.6-13.9,9.1-15.7c3.2-1.3,6.5-2.5,9.8-3.6c3.1-1.1,6.2-2,9.3-3c0.5-0.2,1.1-0.4,0.8-0.9c-0.3-0.5-0.8-0.1-1.3,0.1
		c-2.3,0.9-4.6-0.1-6.9-0.3c-0.8-0.1-0.9-0.9-0.4-1.5c0.7-1,1.6-2,2.5-2.6c3-2,6.4-3.2,10.1-3.6c0.8-0.1,1.6-0.4,2.3-0.8
		c2.3-1.4,5-0.6,7.4-1.1c3.6-0.7,7.1-1.6,10.6-2.8c3-1.1,6.2-1.2,9.3-1.8c1.7-0.3,2.8,1.5,3.7,2.5c1.7,2.1,0.7,5.9-1.5,7.4
		c-0.8,0.5-1.4,3.2-0.7,3.9c4,4.5,5.4,10.4,8.8,15.3c1.2,1.7,2.4,3.5,4.6,3.8c0.7,0.1,1,0.4,1,1.1c0,1.2,0.5,1.8,1.7,1.9
		c1.3,0.1,0.9,0.9,0.5,1.7c-0.7,1.4-0.1,1.6,1.1,1.3c0.2,0,0.4-0.1,0.6-0.1c1-0.1,2.1-0.6,2.8-0.2c0.5,0.3,0.4,1.7,0.4,2.6
		c0.2,1.8,1.8,2.3,3,2.8c2.8,1.1,5.7,2,8.9,1.9c5.5-0.2,11.2,0.3,16.6-0.4c4.4-0.6,8.7-0.8,13-0.6c5.4,0.2,10.8,0.4,16.1,2.2
		c2.9,1,5.7,2.2,8.6,3.3c6,2.2,11.4,5.4,16.3,9.3c4.1,3.3,7.6,7.3,11.1,11.2c6.1,6.8,11.7,14.1,18.4,20.3c3.5,3.2,6.9,6.6,11.6,8.1
		c2.6,0.8,5.1,2.2,7.7,2.1c5.2-0.3,10.4,0.1,15.6-0.5c2.9-0.3,5.9-0.2,8.8-0.7c2.1-0.3,4.2-0.2,6.3-0.9c-0.8-0.2-1.6-0.6-2.5-0.6
		c-3.4,0-6.8-0.3-10,0.5c-2.3,0.6-4.3,0.2-6.5-0.1c-2-0.3-3.8,0.7-5.7,0.7c-3.4,0.1-6.7-0.8-9.9-1.7c-9.8-2.9-16.4-10.1-23-17.3
		c-4.8-5.3-9.3-11-14.4-16.1c-1.7-1.6-3.6-3-5.3-4.6c-0.6-0.5-2.3-1.1-0.4-2.2c0.6,0.5,1.3,1,1.9,1.5c-0.1,0.2-0.1,0.3,0.2,0.2
		c6.2,5,11.8,10.6,17.2,16.5c-0.1,0.6,0.2,0.9,0.8,0.7c0.2,0.2,0.3,0.3,0.5,0.5c0.2,1.4,0.9,2.3,2.5,2.3
		C404.3,360.3,404.3,360.3,404.5,360.3z M364.7,406.1c-1.9-0.9-1.1,0.9-1.6,1.6c-1.1,0.4-1.1,1.2-0.7,2.2c0.4,0.8,1,0.6,1.5,0.4
		c1.1-0.5,1.4-1.2,0.8-2.3c0-0.2,0-0.4,0-0.6C365.6,406.8,365.7,406.4,364.7,406.1z M196.9,342.8c-0.2,0.1-0.4,0.1-0.6,0.2
		c-0.3,0-0.6,0-0.8,0.1c-0.7,0.4-1.8,0.7-1.5,1.6c0.3,0.7,1.4,0.3,2.1,0.2c2.4-0.5,4.8-0.9,7.2-1.7c1-0.3,2.4-0.3,2.9-1.6
		c0.1-0.4,0.2-0.7,0.3-1.1c1.8-3,2.6-6.3,3.2-9.6c0.1-0.7,0.4-1.7-0.6-2c-0.9-0.3-1.5,0.5-2,1.1c-1.9,2.5-4.1,4.6-6.3,6.8
		c-1.1,1.2-3.1,2.2-0.5,3.9c0.1,0,0,0.3,0,0.4c-0.2,0.1-0.4,0.2-0.6,0.3c-0.6-0.2-0.8,0.1-1.1,0.5c-0.2,0.1-0.4,0.1-0.6,0.2
		C197.4,342,197.1,342.3,196.9,342.8z M319.6,440c0.3,0.5,0.9,0.3,1.3,0.4c1.8,0.6,3.3-1.7,5.1-0.5c0.2,0.2,0.6-0.3,0.5-0.7
		c-0.6-4.2-0.3-8.5-1.8-12.6c-0.9,0.4-0.6,1.3-1.3,1.7c-1.1-1.4-2.5-1.6-4.1-1.1c-0.3,0-0.6,0-0.9,0c-0.4-0.6-1.2-0.5-1.5-0.2
		c-1.5,1.5-4.9,1.2-4.4,4.7c0.1,0.5-0.1,1.1-0.4,1.6c-0.5,0.9,0,2.8-1.3,2.6c-1-0.1-0.2-1.8-0.4-2.8c-0.1-0.3,0-0.6-0.1-0.8
		c-0.7-1.2-0.9-2.8-2.9-2.5c-0.1,0.8,1.4,1.6,0.1,2.2c-1.1,0.5-1.5-0.4-1.8-1.4c-0.3-1.3-1.4-0.9-2.2-0.8
		c-6.7,0.5-13.1,2.4-19.6,3.5c-6.4,1.1-12.8,2.1-19.2,3.2c-1.2,0.2-2.6-0.1-4,1.4c3,0,5.5-0.1,8,0c4,0.3,8-0.6,12-0.2
		c5.8,0.5,11.6,0.6,17.4,0.4c3.3-0.1,6.7-0.3,9.9,0.6c3.3,1,6.6,1,9.9,1.2C318.5,440.1,319,440.1,319.6,440z M200.5,351.1
		c-0.5-1.1-1.3-0.6-1.9-0.3c-3.6,2.1-7.3,4.2-10.8,6.4c-6,3.7-11.4,8.2-16,13.6c-2,2.3-3,5.2-4.5,7.9c-0.3,0.5-0.4,1.2,0.1,1.5
		c0.6,0.3,0.8-0.4,1.1-0.7c1.7-1.9,3.3-3.9,5.2-5.6c5.2-4.7,10.8-8.9,16.3-13.1c1.2-0.9,1.7-2.6,3.2-3.2c2.9-1.2,4.7-3.8,7-5.8
		C200.2,351.7,200.3,351.4,200.5,351.1z M345.9,430.6c1.1,0.2,2.5,1.3,2.9,0.1c0.8-2.5,3.8-2.2,4.9-4.6c0.5-1.2,2.2-2.4,3-3.8
		c0.3-0.5,0.7-0.7,1.2-0.6c2.3,0.3,4.5-1,6.9-0.6c0.8,0.2,2.4-0.3,2.2-1.6c-0.3-1.4,0-2,1.3-2.3c0.3-0.1,0.8-0.5,0.6-0.9
		c-0.2-0.5-0.7-0.4-1.1-0.3c-1.6,0.9-3.6,0.8-5.3,1.7c-0.9,0.5-1.8,0.4-2.8,0.4c-2.7,0-5.5,0.1-7.7,2.3c-3.5,3.5-7.1,7-10.9,10.2
		c-1.8,1.5-2,3.1-2,5c0,0.8,0.5,1.3,1.2,0.9c0.5-0.3,1.8-0.4,1.2-1.4c-1.2-2.1,0.2-3.1,1.5-4.1c0.7-0.5,1.6-0.8,2.2-1.5
		c0.6-0.6,1.3-0.8,2.1-0.6c0.3,0.1,0.4,0.3,0.4,0.6C347.6,430.4,346.5,429.7,345.9,430.6z M420.3,403.1c-2.5-0.1-4.7,0.8-7,1.5
		c-2.2,0.6-4.5,1.2-6.7,1.9c-0.4,0.1-1,0.3-1,0.9c0,0.2,0.1,0.6,0.3,0.7c0.7,0.4,0.7-0.3,1-0.7c0.3-0.4,0.8-0.4,1.2-0.3
		c1.1,0.4,1.9,0,2.9-0.3c1-0.3,2-0.8,3.1-1.1C416.1,405,418.2,404,420.3,403.1z M273.4,293.8c-0.4-1.8-0.3-3.6-1.1-4.8
		c-0.8-1.2-1.9,1.4-3.2,0.6c-0.3-0.2-0.6,0.2-0.5,0.7c0,0.1,0.1,0.3,0.2,0.3C270.6,291.2,271.5,293.1,273.4,293.8z M314.4,412.2
		c-0.9,0-1.3,0.4-1.4,1.2c-0.1,1,1.4,2.7,2.2,2.6c1-0.2,1.6-1.1,1.6-1.9C316.9,412.5,315.3,412.7,314.4,412.2z M359.8,408.3
		c-1.6-0.4-1.5,0.8-1.7,1.7c-0.2,1,0.6,1.1,1.2,1.2c1.4,0.1,1.6-1,1.8-2C361.3,407.9,360.3,408.4,359.8,408.3z M364.4,402.9
		c-0.6-0.5-0.8-1.5-1.8-1.5c-0.7,0-1,0.6-0.8,1.2c0.2,0.7,0.2,1.7,1.3,1.5C363.7,404,364.2,403.6,364.4,402.9z M248.2,430.6
		c-0.1-0.5-0.4-0.9-0.9-0.9c-0.6,0-1,0.4-0.9,1.1c0.1,0.6,0.5,0.8,1,0.8C248.1,431.5,248.3,431.2,248.2,430.6z M302.5,423.2
		c1.2,0.1,2.4,0.4,3.8-0.5C304.7,422.5,303.5,422.3,302.5,423.2z"/>
	<path display="inline" fill="#FFFFFF" d="M48.3,72.3c0.3-0.9,1.1-0.8,1.7-0.6c1.7,0.6,3.1,0.3,4.5-0.7c1.6-1.1,3.5-0.8,5.2-1
		c3.7-0.5,7.4-0.5,11.1-0.9c4.8-0.6,9.6-0.1,14.3-0.4c4.3-0.3,8.5-0.9,12.7-1.3c3-0.3,6.1-0.5,9.1-0.8c7.8-0.7,15.6-0.5,23.3-1.6
		c0.2,0,0.4,0,0.6,0c7.3,0.2,14.5-0.6,21.8-0.5c6.7,0.2,13.3-1.2,20-1.9c8-0.8,16-1.7,24-0.9c8,0.8,16.1,2.2,23.5,5.6
		c5,2.3,9.6,5.2,14,8.7c5.7,4.5,9.3,10.5,13,16.5c3.7,5.9,6.8,12.1,9.2,18.7c1.5,4.2,2.6,8.6,4.1,12.7c1.6,4.2,2.5,8.6,3.5,12.9
		c1.3,5.8,2.8,11.5,3.6,17.4c0.8,5.8,1.8,11.7,0.9,17.5c-0.8,4.8-1.7,9.6-3.7,14.3c-2.8,6.7-7.5,11.5-13.2,15.6
		c-3.2,2.3-7,3.8-10.8,5c-5.2,1.6-10.6,2.5-15.8,4c-4.1,1.2-8.3,1.8-12.5,2.4c-7.5,1.1-15,2-22.4,3.2c-0.5,0.1-0.9,0.3-1.4,0.4
		c-0.2-0.7,0.1-1.1,0.7-1.3c0.4-0.1,0.9-0.2,0.7-0.8c-0.3-0.5-0.9-0.5-1.3-0.2c-1.8,1.4-3.3,1-4.8-0.4c-0.4-0.3-0.8,0-1.2-0.1
		c-1.6-0.3-2.7,1-4.4,0.7c-3.2-0.7-6.3-0.3-9.3,1c-0.4,0.2-0.8,0.5-0.7,0.9c0.1,0.6,0.7,0.3,1,0.4c1,0.1,2.4-0.6,2.4,1.3
		c-0.9-0.2-1.7-0.7-2.6-0.3c-2.9,1.2-6.1,0.8-9.2,1.4c-4.1,0.8-8.2,1.5-12.4,2c-4.3,0.6-8.6,1.3-12.9,1.3c-3.5,0-7,0.1-10.4,0.1
		c-5,0-10,0.7-15,1.3c-1.9,0.3-4-0.3-5.7,1.1c-0.4-1-0.9-1.5-2.1-1.4c-2.8,0.2-5.6,0.1-8.5-0.3c-2.8-0.4-3.9-1.4-3.6-3.9
		c0.5-4.2,0.5-8.4,1.3-12.5c0.8-4.3,0.1-8.7,0.5-13c0.2-2.4-1.2-5.2,1.5-7.1c0.5,0.3,0.5,0.8,0.5,1.3c0,3.4-0.2,6.8,0.4,10.1
		c0.1,0.5,0.1,1.2-0.2,1.6c-1.3,2,0.8,3.3,0.7,5.1c0.4-3.1,0.5-6.2,0.7-9.3c0.2-4.9,0-9.7-1.1-14.6c-0.5-2-0.1-4.2-0.7-6.4
		c-0.8-2.6-1.2-5.4-1.9-8c-1.2-4.5-2.4-8.9-3.5-13.4c-0.6-2.4-1.7-4.7-2.2-7.1c-0.6-3.6-2.4-6.7-3.2-10.2c-0.8-3.6-2.3-6.9-3.6-10.4
		c-1.8-4.9-3.4-9.8-5.6-14.6c-1.7-3.7-3.3-7.4-5.4-11c-1.7-2.9-3.6-5.8-4.6-9.1c-0.3-1-1.6-1.6-2.2-2.7c-0.3-0.6-0.8,0-1.2,0.3
		c-1.8-1.7-2.8-4-4-6.2c-1.6-2.8-4-5.3-3.6-9c0.1-0.4-0.4-0.9-0.9-0.1c-0.8,1.1-1.5,1-1.8-0.4C49.4,72.5,48.8,72.6,48.3,72.3z
		 M99,164.4c-0.4-0.6,0.2-1.1,0.2-1.6c0.2-1.9,2-3.6,0.9-5.7c-0.4-0.7-0.6-1.4-0.5-2.2c0.1-1.2-0.4-2.1-1.4-2.6
		c-1.6-0.9-2.1-2.3-2-4c0.3-5.5-0.5-11.1-0.5-16.6c0-1.5,0.5-3.7-1.5-4.6c-3.3-1.5-3.1-5.2-5-7.6c-0.1-0.1,0-0.5,0.2-0.8
		c1.1-2-0.1-3.5-1.5-4.2c-2.1-1-3-2.7-3.8-4.5c-0.7-1.5-1.5-2.7-2.6-3.9c-1.3-1.4-1.6-3.4-2.9-5c-1.6-1.9-3-4.1-4.5-6.1
		c-0.3-0.4-0.7-1-1.3-0.8c-0.6,0.2-0.8,0.9-1,1.5c-0.1,0.4,0,0.8,0.1,1.2c0.1,0.4,0.3,0.8-0.2,1.1c-0.5,0.2-0.7-0.2-1-0.5
		c-1.1-1-1.6-2.3-2.4-3.5c-0.4-0.7-0.8-1.5-2.1-1c1.2,1.6,1.8,3.3,2.6,5c1.9,3.9,3.8,7.8,5.7,11.7c2.2,4.5,3.5,9.4,5.4,14
		c2.8,6.9,4.9,14,7.2,21c1.8,5.9,3.5,11.8,5.3,17.7c0.4,1.3,0.4,2.6,0.8,3.8c0.8,2.4,2.5,4.3,2.4,7.1c0,2.7,0.3,5.6,1.1,8.3
		c0.3,1.2,1,1.5,1.7,0.7c0.9-1,2-1.9,2.3-3.4c0.1-0.6,0.2-1.1-0.4-1.5c-0.5-0.3-0.9-0.1-1.2,0.4c-0.2,0.3-0.5,0.7-1,0.3
		c-0.3-0.3-0.6-0.7-0.4-1.1c0.2-0.7,0.4-1.5,1-2c0.6-0.5,1-1.1,0.9-2c-0.3-2.4,1.1-4.4,1.6-6.6c0.2-0.9,0.7-1.5,0-2.4
		C100.4,163.3,99.7,164.6,99,164.4z M98.6,198.1c-0.5-1,0-2,0.5-2.7c1.2-1.8,2.6-3.4,4.3-4.7c0.7-0.6,1.2-1.1,1.4-1.9
		c0.2-1.3,0.8-2.5,1.6-3.6c0.3-0.5,1-1,0.2-1.6c-0.7-0.5-1.2-0.2-1.8,0.4c-1.8,2-3.7,3.9-5.4,6c-0.7,0.9-1.7,1.9-1.8,2.9
		c-0.4,2.8,0.1,5.7-0.5,8.5c-0.1,0.3-0.1,0.7,0.3,0.9c0.4,0.2,0.7-0.2,0.8-0.5c0.9-2.1,2.8-3.2,4.2-4.9c0.9-1.1,1.7-2.4,2.5-3.6
		C102.2,194.2,100.9,196.7,98.6,198.1z"/>
	<path display="inline" fill="#00CB00" d="M398.2,498.5c4.3,2.9,9.2,4.7,13.8,7.1c1.8,0.9,3.6,1.8,5.4,2.7c0.9,0.5,2,0.8,1.4,2.3
		c-0.3,0.7,0.5,0.8,1.1,0.9c2.4,0.4,4.8,0.4,7.2,0.1c2-0.2,4-0.2,6-0.2c1.1,0,1.8,0.5,1.8,1.6c0,2.5,0.9,4.9,0.6,7.4
		c-0.1,0.7,0.1,1.3,0.4,2c1.4,3.7-0.4,6.4-4.4,6.4c-3.1,0-6.3-0.1-9.4,0c-2.8,0.1-4.7-1-5.9-3.5c-0.2-0.3-0.4-0.5-0.7-0.6
		c-7.9-1.6-15.4-4.7-23.2-6.8c-5.2-1.4-10.2-3.2-15.4-4.8c-8-2.4-16-4.8-24.1-7.1c-5.3-1.5-10.6-3-15.9-4.5
		c-1.5-0.4-2.2-0.1-2.3,1.6c-0.1,3-0.8,6-1.7,8.9c-0.1,0.4-0.4,0.8-0.7,1c-3.7,1.8-2.7,5.2-2.7,8.2c0,2.2,0.4,4.4-0.2,6.6
		c-0.2,0.6-0.3,1.3-1.1,1.3c-2.2,0.1-4.3,1-6.5,1.3c-1.5,0.2-2-0.8-2-1.8c0.2-2.2-0.1-4.4,0.4-6.5c0.5-2,0.7-4.1-0.3-6.1
		c-0.1-0.1-0.2-0.3-0.1-0.4c1.5-3.8-1.9-6.5-2.3-10c-0.1-1.4,0.1-1.8,1.4-1.8c2.1,0,4.3,0.1,6.4-0.8c-1.4-0.6-3-0.6-4.4-0.2
		c-2.3,0.6-4.5,0.2-6.8,0.3c-0.1,0-0.2,0-0.2,0c-4.1-3.5-7.4,0.6-10.9,1.4c-6.3,1.4-12.4,3.7-18.6,5.6c-8.6,2.7-17.1,5.4-25.7,8
		c-5,1.5-10.1,2.9-15.1,4.5c-5.1,1.6-10.2,3.4-15.3,5.3c-1,0.4-2,1.3-2.7,2.2c-1.2,1.4-2.7,1.9-4.5,1.8c-3.4-0.3-6.8,0.5-10.2-0.4
		c-2.7-0.7-4-2.7-3.6-5.4c0.4-3.1,1.2-6.3,1.2-9.5c0-1.5,0.7-2,2.1-2.2c3.6-0.5,7.2-0.2,10.8-0.4c1.5-0.1,3.6,0.6,3.7-2.3
		c0-0.6,1.8-1.2,2.9-1.7c11.2-5.3,22-11.1,33-16.7c9.8-5,19.6-9.9,29.2-15.2c2.4-1.3,5-2.5,7.4-3.8c0.5-0.3,1.5-0.8,1.3-1.1
		c-0.9-1.4,0.7-2.9-0.3-4.1c-0.4-0.5-1-0.4-1.5-0.4c-2.5,0-4.9,1.8-7.5,1c-1.5,1.9-3.9,0.5-5.7,1.6c-1.2,0.7-1.8,0.3-1.6-1.2
		c2.8,0.2,5.4-1.3,8.2-1c0.7,0.1,1.3,0.2,1.3-0.8c0.5-0.1,1.1-0.2,1.6-0.3c0.6,0.6,0.8,0.1,1.1-0.4c0.6-0.1,1.2-0.2,1.8-0.3
		c1.7,1.3,2.9-0.2,4.2-0.8c0.4,0,0.8,0,1.2,0c0.3,0.4,0.7,0.4,1.1,0.4c1.6-0.2,3.2-0.7,4.8,0c0.2,0.1,0.5-0.1,0.7-0.2
		c1-0.8,2.2-0.9,3.4-1.1l0.1,0.1c0,0.1-0.1,0.1-0.1,0.2c0,0,0.1,0.1,0.1,0.1c0-0.1,0-0.2,0-0.3c1.1,0,2.1,0,3.2,0
		c1.2,0.7,2.4,1.1,3.7,0.6c1,0.1,2,0.1,2.9,0.2c2.5,1.1,4.8,0.2,7-0.8c1.1,0.1,2.2,0.1,3.3-0.2c1.4-0.1,2.8-0.1,4.2-0.2
		c0.1,0.1,0.2,0.1,0.3,0.1c0.5,1.1,0.9,2.1,2.4,0.9c0.8-0.6,1.9,0,2.8,0.1c1.4,0.2,2.8,0.1,4.1,0.2c0.4,0,1.1,0.2,1,0.8
		c-0.1,0.5-0.6,0.4-1,0.4c-0.5,0-1-0.1-1.5,0c-0.3,0-0.6,0.1-0.8,0.2c-1,1.4-0.3,4.1,1.4,4.8c2.5,1.1,4.7,2.9,7.5,3.4
		c0.2,0.1,0.4,0.2,0.7,0.3c2.4,1.7,5,2.9,7.7,3.9c0.2,0.1,0.4,0.2,0.6,0.3c0.5,0.6,1.1,0.9,1.8,1c0.2,0.1,0.4,0.2,0.6,0.3
		c1,0.9,2.2,1.5,3.6,1.8c0.2,0.1,0.5,0.2,0.7,0.2c0.7,1,1.8,1.4,3,1.5c8.3,4.1,16.6,8.2,24.8,12.3c0.2,0.5,0.5,0.7,1,0.6
		C397.5,498.3,397.8,498.4,398.2,498.5z M428.4,518.3c-0.6,1.4-0.8,2.7,0.2,3.9c0,1.5,0.1,2.9,0.1,4.4c-0.3,0.2-0.3,0.4-0.1,0.6
		c0.2,0.2,0.5,0.2,0.7,0c0.7,0.3,1.3,0.2,1.6-0.5c0.3,0,0.5-0.1,0.8-0.1c1.5-0.1,2.3-0.3,2.1-2.4c-0.2-2.7-1-5.4-1-8.2
		c0-2.8,0-2.8-2.9-2.7c-0.5-0.2-1.1-0.2-1.6,0c-0.3,0-0.4,0.1-0.4,0.4c0,0.1,0,0.3,0,0.4c-0.4,0.8-0.7,1.6,0.4,2.2
		C428.3,517,428.3,517.7,428.4,518.3z M424.7,525.2c0.8-0.3,0.7-1.1,0.7-1.8c0.1-3.1-0.2-6.2,0.2-9.2c0.2-0.9-0.6-0.7-1.1-0.7
		c-0.7,0-1.3,0-2,0.1c-1.1-0.2-1.6,0.1-1.9,1.4c-0.8,3.5-0.5,7.1-0.9,10.6c-0.1,1.3,1.1,1.6,2.1,1.9c1,0.3,2.1,1,3-0.1
		c0.3-0.3,0.3-0.8-0.1-1.1C424.7,525.9,424.7,525.5,424.7,525.2z M213.4,515.6c-1.6-0.4-2.5-0.3-2.6,1.9c-0.1,2.7-0.5,5.4-1.1,8
		c-0.6,2.5-0.4,4.1,3.7,4c0.8,0.4,1.6,0.4,2.4,0.2c1,0.5,1.2-0.2,1.2-0.9c0.1-0.8,0-1.7,0-2.5c-0.1-2.7,0.3-5.4,0.8-8
		c1.2,3.1,1.7,6.1,0.9,9.4c-0.6,2.6,0.4,3.3,3.1,2.8c1.4-0.3,1.7-1.8,3-2c1.2-0.1,1.2-0.8,1.3-1.7c0.4-3.6-1.3-6.9-1.3-10.4
		c0-0.5-0.4-0.8-0.9-0.7c-1.1,0.2-2.1-0.6-3.3-0.3c-0.2,0-0.5,0-0.7,0c-1.3,0.1-2.5,0.5-3.8,0.2
		C215.3,515.3,214.3,515.2,213.4,515.6z M318.9,471.7c0.6-0.7,0.6-1.6,0.8-2.5c0.1-0.4,0.6-0.9-0.1-1.2c-0.5-0.2-1-0.1-1.2,0.4
		c-0.9,0-1.9-0.1-2.6,0.7c-1.1,0.5-2.7,0.8-1,2.5c0.6,0.6,0.4,1.7,0.6,2.6c0.5,2.2,0,4.5,0.9,6.7c0,1.5-0.2,3,0.2,4.5
		c-0.2,1.4-0.7,2.8,0.5,4c0,1.5,0,2.9,0.1,4.4c-0.7,1.5-0.3,3.1-0.2,4.7c0.1,0.9,0.8,1.4,1.7,1.1c2.4-1.1,5-0.6,7.5-0.6
		c0.5,0.2,1,0.2,1.5,0c1.6,0.6,2.9,0.1,3-1.7c0.1-4.9,0.3-9.8,0-14.7c-0.2-3.4-0.4-6.7,0-10.1c0.1-1.2,1-2.7-0.7-3.7
		c-1.1-1.7-2.7-1.2-4.2-1.1c-1-0.1-2.2-0.6-1.1,1.3c0.8,1.4,0.8,3,0.5,4.5c-1.2,5.2-0.8,10.5-1.5,15.7c-0.3,2.4-0.7,4.8-0.9,7.1
		c0,0.4-0.1,0.7-0.6,0.7c-0.4,0-0.7-0.2-0.8-0.5c-0.3-0.5-0.5-1.1-0.6-1.7c-0.2-3-0.5-6-0.4-9.1c0-0.6,0.3-1.4-0.5-1.9
		c0-0.4-0.1-0.8-0.1-1.2c0.2-1.8,0.5-3.7-0.3-5.5C319.4,475.3,318.9,473.5,318.9,471.7z M298.7,503.6c1.2,0.2,2.1-0.4,3-1.1
		c0.3,0,0.5-0.1,0.8-0.1c2,0,3.4-1.2,5-2.1c0.3-0.2,0.8-0.6,0.8-0.9c-0.3-2.9,0-5.8-1.1-8.6c0-0.8-0.1-1.6-0.1-2.5
		c0.2-0.9,0.4-1.8-0.3-2.5c0-0.7-0.1-1.4-0.1-2c0.2-2.9-0.9-5.6-1.4-8.5c-0.3-1.7-1-1.5-2-0.7c-2.4,1.2-4.9,2.4-7.3,3.6
		c-6.5,3.2-13,6.5-19.5,9.7c-0.7-0.6-0.8,0-1,0.5c-0.7,0.3-1.2,0.9-2,0.8c0,0,0,0,0,0c-2.6,1.9-5.8,3-8.6,4.6
		c-8.5,4.3-17,8.5-25.5,12.8c-3,1.5-5.9,3.5-9.1,4.4c-2.4,0.7-2.3,1.9-2.1,3.6c0.4,2.8,1,5.6,0.8,8.5c-0.1,0.9,0.1,1.8,1.2,1.9
		c1.2,0.1,1.1-1,1.3-1.7c0.9-2.4-1-4.6-0.4-6.9c0.2-0.8-0.6-2.1,0.6-2.3c1.3-0.2,1.9,1,2.1,2.1c0.2,1,0.4,2.1-0.6,3.1
		c-1,0.9-0.5,1.7,0.7,2c3.4,0.8,6.8,0.3,10-0.7c4.7-1.4,9.5-2.8,14.2-4.3c3.1-1,6.3-1.9,9.5-2.6c3.1-0.7,6.1-2,9.2-3.1
		c2.6-0.9,5.5-1.2,8-2.7c0.3-0.1,0.5-0.1,0.8-0.2c2.1-0.3,4-0.9,5.9-1.9c0.3-0.1,0.5-0.1,0.8-0.2c2.1-0.2,4.1-0.6,5.9-1.9
		C298.2,503.7,298.4,503.7,298.7,503.6z M346.4,477c-1.1,0.2-2.2-0.2-2.3,0.4c-0.2,0.9-0.3,2.3,0.5,2.9c1.5,1.1,1.5,2.6,1.1,3.9
		c-0.5,1.7-0.2,3.3,0.2,4.9c0.2,1.1,0.3,2.2,0.3,3.3c0,1.4-0.1,2.9,1.9,3c1.9,0.1,2.9-0.9,3.1-2.6c0.2-1.4,0.7-2.6,1.9-3.6
		c0.9-0.7,1.5-1.5,0.5-2.6c-0.4-0.5-0.2-1,0.3-1.4c2.1-1.8,2-1.8,0.2-3.8c-0.1-0.1-0.2-0.2-0.3-0.3
		C351.8,478.7,348.8,477.9,346.4,477z M333.7,494c1.2-0.9,1.6-1.6,1.8-2.5c0.6-3.1,1.5-6.2,1.5-9.4c0-3,0.8-6.1,0.2-9.1
		c-0.2-0.8-0.3-1.8-1.4-1.7c-1,0.1-0.8,1.1-0.9,1.8c-0.7,4.2-0.5,8.6-1.1,12.8C333.4,488.4,333.7,491,333.7,494z"/>
	<path display="inline" fill="#00CB00" d="M48.3,72.3c0.5,0.2,1.1,0.2,1.2,0.9c0.3,1.3,1,1.4,1.8,0.4c0.5-0.8,1-0.3,0.9,0.1
		c-0.5,3.7,1.9,6.2,3.6,9c1.2,2.1,2.2,4.4,4,6.2c0.1,0.2,0.2,0.5,0.2,0.7c0.3,1.4,1.1,2.7,2.1,3.8c0.1,0.3,0.3,0.5,0.4,0.8
		c0.2,1,0.4,2.1,1.4,2.7c0.1,0.5,0.1,1.1,0.7,1.4c-0.1,0.5,0.2,0.8,0.6,1.1c2.2,5.2,4.4,10.4,6.6,15.6c-0.1,0.4,0,0.7,0.4,0.9
		c0.1,0.4,0.2,0.8,0.3,1.2c0.1,1.8,0.9,3.4,2,4.8c0.1,0.5,0.2,1,0.2,1.5c0,0.3-0.1,0.6,0,0.8c2.4,4.5,3.1,9.6,4.8,14.4
		c0.5,1.3,1.4,2.6,1.4,4c0,2,0.6,3.8,1.1,5.7c1.9,7,3.4,14.1,5,21.1c0.7,3.4,2.2,6.6,2.4,10.9c0.8-3,1.7-1.4,2.5-0.8
		c0,1.2,0,2.3,0.1,3.5c-0.7,1.2,0.2,1.8,0.8,2.6c0,0.5,0,1.1,0,1.6c-2.7,1.9-1.2,4.7-1.5,7.1c-0.4,4.3,0.3,8.7-0.5,13
		c-0.8,4.1-0.7,8.3-1.3,12.5c-0.3,2.6,0.8,3.6,3.6,3.9c2.8,0.4,5.6,0.5,8.5,0.3c1.2-0.1,1.7,0.5,2.1,1.4c0,0.4,0.1,0.8,0.3,1.2
		c-0.2,0.4,0,0.7,0.4,0.8c0,0.3,0.1,0.6,0.1,0.9c-0.1,1.1,0.2,2.1,1,2.9c0.1,0.3,0.1,0.5,0.2,0.8c-0.4,0.9,0.1,1.4,0.7,1.8
		c0,1.5,0.8,2.7,1.3,4c-0.4,0.8,0.2,1.1,0.8,1.5c0,0.2,0.1,0.5,0.1,0.7c-1.2,1.7-2.6,2.5-4.7,1.7c-0.7-0.3-1.5-0.3-2.2-0.5
		c-1.4-0.3-2.4-1-2.8-2.4c-1.2-4.3-3.4-8.2-4.5-12.6c-0.1-0.6-0.5-0.8-1.1-0.8c-3.4,0-6.8,0.1-10.2-0.4c-1.7,0.2-2.1-1.3-3-2.2
		c0.2-1.9,0.1-3.7,0.8-5.5c0.2-0.7,0.2-1.5-0.2-2.2c-1.2-1.9-1.1-4.2-1.7-6.3c-0.9-3-1.3-6.1-2.1-9.2c-1.7-6.9-3.7-13.8-5.2-20.8
		c-1.4-6.3-3.1-12.4-4.7-18.6c-1-4-2-8-3-12c-0.9-3.7-1.5-7.4-2.9-10.9c-1.3-3.4-1.5-7-2.5-10.5c-1.2-4.4-2-8.8-3.3-13.2
		c-1.3-4.4-2.4-8.9-3.4-13.4c-1.5-6.9-3.5-13.7-5.7-20.4c-0.2-0.5-0.3-1.1-0.8-1.4c-0.5-1-0.9-2.1-1.4-3.1c-0.4-0.9-0.3-1.5,0.4-2.1
		c1.1,0.2,2.1-0.1,2.9-0.8C47.8,72.5,48,72.4,48.3,72.3z"/>
	<path display="inline" fill="#D6D6D4" d="M439.5,391.7c-1.1-1.2-2.3-1.3-3.5-0.3c-1.1,0.9-2.4,1.1-3.5,0.7
		c-1.8-0.6-3.1,0.1-3.8,1.4c-1.1,2.5-3.4,2.6-5.4,3c-3.7,0.7-7.3,2.2-11,2.9c-1.9,0.4-3.7,1-5.6,1.5c-0.4,0.1-0.9,0.2-0.8,0.7
		c0.1,0.5,0.6,0.5,1,0.5c2.3-0.4,4.5-1.1,6.8-1.6c3.7-0.7,7.3-1.8,10.9-3c3.3-1.1,6.8-1.7,9.7-3.8c0.8-0.5,1.7-0.5,2.5,0.1
		c0.8,0.6,0.6,1.3,0.1,2c-0.3,0.4-0.3,1.1-0.5,1.5c-0.4,0.7-1.4,1.4-1.9,0.9c-2.2-2.4-4.5-0.6-6.5-0.1c-12.4,3-24.8,6.1-37.3,9
		c-8.2,1.9-16.5,3.5-24.6,5.9c-1.6,0.5-3.6,0.2-5.3,0.9c-0.4,0.2-1,0-1.2-0.7c3.4-0.4,6.4-1.8,9.8-2.1c3.4-0.3,6.7-1.9,10.1-2.4
		c2.6-0.4,4.9-1.9,7.8-1.8c1.5,0.1,3.3-0.6,4.9-1.1c1.1-0.4,2.3-0.7,3.4-1c0.8-0.2,2.3,0.2,2-1.1c-0.2-0.9-1.4,0.2-2.2,0.2
		c-2.3,0-4.4,1-6.7,1.3c-3.4,0.5-6.7,1.6-10,2.4c-3.7,0.9-7.3,1.8-11.1,2.1c-0.1-1,0.5-1.2,1.1-1.4c5.1-1.4,10.2-2.8,15.4-3.9
		c6-1.3,11.9-2.9,17.9-4.4c5.1-1.3,10.2-2.5,15.3-3.8c2.6-0.7,5.2-1.5,7.9-1.7c0.6,0,1.1-0.4,0.9-1.1c-0.2-0.7-0.8-0.3-1.2-0.2
		c-9,1.2-18,2.7-27,4c-6.2,0.9-12.5,1.2-18.7,2.3c-0.9,0.2-2.5,0.7-2.6-0.5c-0.1-0.9,1.6-0.9,2.6-1.1c3.1-0.6,6.4-1,9.3-2.3
		c1.1-0.5,2.3-0.5,3.4-0.7c5.6-1.4,11.1-2.7,16.7-4.2c4.5-1.2,9-2.5,13.5-3.8c1.3-0.4,2.7-0.7,4.1-0.6c1.1,0.1,2-0.1,2.9-0.8
		c0.9-0.7,2-0.8,3.2-0.8c7-0.5,14-1.3,21.1-1.6c4-0.2,7.9-0.7,11.8-1.2c4.8-0.6,9.6-1.1,14.3-2.1c0.3-0.1,0.7-0.2,1,0.1
		c-0.5,1.3-1.6,1.5-2.7,1.8c-4.6,1.3-9.2,2.4-13.8,3.2c-4.5,0.8-8.7,2.6-13.2,3.5c-2.5,0.5-4.9,1.2-7.3,2
		C442.1,390.9,440.4,390.1,439.5,391.7z M404.9,402.2c-0.1-0.6-0.5-0.6-0.9-0.5c-1.4,0.2-2.7,0.4-4.1,0.7c-0.6,0.1-1.3,0.5-1.1,1.3
		c0.3,0.9,1.2,0.6,1.7,0.3c1.1-0.7,2.1-1.2,3.5-1C404.4,402.9,404.8,402.7,404.9,402.2z"/>
	<path display="inline" fill="#00CB00" d="M90,244.8c1.7-0.1,3-1.2,4.9-1.3c3,0,5.6,0.4,8.1,2.1c4.1,2.7,7.3,6.3,10.1,10.3
		c4.3,6,7.5,12.5,11.1,18.9c0.5,0.9,0.4,2,1.4,2.7c0.7,0.6-0.4,1.2-0.5,1.8c-0.5,0-1.1,0-1.6,0c-1.5-0.2-2.9-0.2-4.2,0.8
		c-1,0.2-1.9,0.3-2.9,0.5c-2.8-0.4-5,0.7-6.7,2.8c-0.5,0.6-1.1,1.1-1.5,0c-1.4-3.6-3.4-6.8-5-10.2c-0.8-1.8-2.1-3.4-2.6-5.3
		c-1.1-3.8-3.1-7.2-5-10.6c-2.2-4-3.8-8.3-5.7-12.4L90,244.8z"/>
	<path display="inline" fill="#00CB00" d="M468.3,292.1c0.6,0.9,0.6,1.7-0.7,1.9c-2.3,0.4-4.4,1.5-6.6,2.1
		c-5.1,1.4-10.4,1.8-15.3,3.8c-5.4,2.1-11.1,2.9-16.7,4.4c-7.9,2.2-16,3.9-24,5.9c-5.5,1.4-11,2.6-16.5,3.9c-0.5,0.1-0.9,0.1-1.4,0
		c-2.4-0.5-4.7-0.9-7.2-0.9c-0.4,0-0.9,0-1-0.5c-0.1-0.5,0.4-0.6,0.8-0.7c8.1-1.8,15.9-4.5,24-6.3c8.2-1.8,16.4-3.8,24.6-5.9
		c6.4-1.6,12.6-3.4,18.8-5.7c2.8-1,5.6-2.2,8.6-2.9c0.1,0.7-1.3,2.1,0.8,2c0.7,0,0.7,0.3-0.7,2.3c3.1-1.1,5.3-2.9,7-5.4
		c0.7-1,1.4-1.4,2.6-1.2C466.2,290.3,467.1,291.4,468.3,292.1z"/>
	<path display="inline" fill="#00CB00" d="M172,218.4c0.1-1.9-1.4-1.2-2.4-1.3c-0.4-0.1-0.9,0.1-1-0.4c-0.1-0.5,0.3-0.8,0.7-0.9
		c3-1.3,6.1-1.7,9.3-1c1.6,0.4,2.8-1,4.4-0.7c0.3,0.1,0.8-0.2,1.2,0.1c1.5,1.3,3.1,1.7,4.8,0.4c0.4-0.3,1-0.4,1.3,0.2
		c0.3,0.6-0.3,0.6-0.7,0.8c-0.6,0.2-0.9,0.6-0.7,1.3c-0.1,0.6-0.2,1.2,0.4,1.6c0,0.3,0,0.7,0.4,0.9c0,0.4,0.1,0.8,0.1,1.2
		c0.5,2.4,1.3,4.8,2.4,7c1.1,2.4,0.9,3.1-1.6,3.4c-4.2,0.6-8.3,1-12.5,1.5c-1.4,0.2-1.8-0.5-2.3-1.7c-1-2.3-1-5-2.7-7
		c0-0.2,0-0.4-0.1-0.7c0.6-1.2,0.3-2.1-0.8-2.7C172.1,219.6,172.1,219,172,218.4z"/>
	<path display="inline" fill="#D6D6D4" d="M45.6,78.6c0.6,0.3,0.7,0.9,0.8,1.4c2.2,6.7,4.2,13.5,5.7,20.4c1,4.5,2.1,9,3.4,13.4
		c1.3,4.3,2.1,8.8,3.3,13.2c1,3.5,1.2,7.1,2.5,10.5c1.4,3.5,2,7.3,2.9,10.9c1,4,2,8,3,12c1.6,6.2,3.3,12.4,4.7,18.6
		c1.5,7,3.5,13.8,5.2,20.8c0.7,3.1,1.2,6.2,2.1,9.2c0.6,2.1,0.6,4.3,1.7,6.3c0.4,0.7,0.5,1.5,0.2,2.2c-0.6,1.8-0.6,3.7-0.8,5.5
		c-0.6-0.1-0.7-0.5-0.7-1.1c-0.2-5.7-2.4-11-3.5-16.5c-0.9-4.7-2.4-9.3-3.3-14.1c-0.7-3.9-2-7.7-3-11.6c-1.1-4.4-2.1-8.8-3.2-13.3
		c-1.1-4.3-2.1-8.7-3.2-13c-1-4-2.1-8-2.9-12c-1.4-6.7-3.2-13.3-4.9-19.9c-2.1-8.3-4.2-16.6-6.2-24.9c-1.3-5.4-2.6-10.8-3.9-16.2
		C45.5,79.8,45.4,79.2,45.6,78.6z"/>
	<path display="inline" fill="#D6D6D4" d="M311.7,465.2c-1.2,0.2-2.4,0.3-3.4,1.1c-0.2,0.2-0.6,0.3-0.7,0.2c-1.6-0.7-3.2-0.1-4.8,0
		c-0.4,0-0.8,0-1.1-0.4c1.4-0.7,3-0.9,4.6-0.9c1.1,0.1,2.2-0.3,3.3-0.5c0.7-0.2,1.2-0.8,0.7-1.4c-1-1.3-0.7-2.8-0.6-4.2
		c0.3-5.5-0.7-11-0.8-16.5c0-1.9-2-1.1-2.6-2.2c2.7-0.2,3.2,0.3,3.5,2.8c0.3,2.3,0.4,4.5,0.4,6.8c0,1.2,0.7,1.9,2,1.9
		c2.2-0.1,4.4,0,6.6-0.4c2.7-0.5,3.8,0.4,3.8,3.1c0,1.7,0,3.5,0,5.2c0,0.8,0.1,1.5-0.9,1.8c-0.4,0.1-0.7,0.5-0.4,1
		c0.7,0.9,4.4,0,4.9-1.2c1.4,0.7,1.9,0.1,1.8-1.3c0-2.8,0-5.5,0.1-8.3c3.6-0.3,3.6-0.3,3.6,3.6c0,2.1,0.3,4.2-0.2,6.2
		c-0.2,0.9,0.1,1.1,0.9,1.2c1.9,0.2,3-0.9,2.9-2.8c-0.2-7.5,0.1-14.9,1.5-22.2c0.1-0.4,0.2-0.7,0.6-0.7c0.3,0,0.5,0.2,0.6,0.5
		c0.2,0.5,0.3,1,0.5,1.6c-1.5,2-1.4,4.3-1.7,6.6c-0.5,4.2-0.5,8.4-0.4,12.6c0,2.1,0.5,4.2,0,6.3c-1.4,0.1-2.8,0.1-4.2,0.2
		c0-0.8,1.4-0.4,1.3-1.2c-3.3-1-6.5-0.2-9.7-0.1c-3.7,0-7.4-0.5-11.1-0.1C311.1,463.9,311.5,464.5,311.7,465.2z M310.8,457.6
		C310.8,457.6,310.8,457.6,310.8,457.6c0,1.2,0,2.3,0,3.5c0,0.9,0.5,1.5,1.2,1.7c1,0.3,2,0.1,2.7-0.6c0.5-0.6-0.1-1.3-0.5-1.8
		c-0.8-1.1-0.5-2.3-0.5-3.4c0-1.3-0.4-2.4-1.2-3.4c-0.4-0.4-0.7-0.6-1.2-0.5c-0.5,0.2-0.5,0.6-0.5,1
		C310.8,455.2,310.8,456.4,310.8,457.6z"/>
	<path display="inline" fill="#FFFFFF" d="M200.9,442.2c1.7-1.2,3.7-1.2,5.5-1.3c2.4-0.1,4.7-0.4,7-1.3c4.3-1.7,8.9-2.4,13.3-3.8
		c3.1-1,6.5-1.2,9.5-2.7c1.6-0.8,3.6-0.1,5.3-1.3c0.8-0.6,2.2,0.9,2.3,2.5c0,0.6-0.1,1.3,0,1.9c0.2,0.8,1.1,1.4,1.5,0.8
		c1.5-2.7,3.9-1.8,6.1-1.7c0,0.5-0.2,1,0.4,1.3c0.6,0.2,0.9-0.2,1.1-0.6c0.2-0.3,0.5-0.5,0.8-0.5c0.2,1.3-0.7,2.1-1.7,2.2
		c-2,0.3-3.8,1.7-5.9,0.8c-0.3-0.1-0.9,0.2-1.3,0.3c-1.6-2.3-3.9-0.9-5.6-0.6c-6.3,1-12.6,1.4-18.8,2.4c-3.7,0.6-7.4,0.8-11.1,1.3
		C206.4,442.3,203.6,442.5,200.9,442.2z"/>
	<path display="inline" fill="#D6D6D4" d="M89.8,244.9c1.9,4.1,3.5,8.4,5.7,12.4c1.9,3.4,3.9,6.7,5,10.6c0.5,1.9,1.8,3.5,2.6,5.3
		c1.5,3.5,3.6,6.7,5,10.2c0.4,1.1,1,0.6,1.5,0c1.8-2.1,3.9-3.2,6.7-2.8c-0.5,1.1-1.5,0.8-2.3,1c-2.6,0.8-3.4,1.7-3.6,4.4
		c-0.1,0.8-0.1,1.9-1,2.1c-1.1,0.3-1-0.9-1.3-1.5c-3.5-7.7-7.4-15.2-10.9-22.9c-2-4.3-3.9-8.7-6.3-12.8c-0.8-1.3-1.1-2.8-1.9-4.1
		C88.4,246,88.8,245.2,89.8,244.9z"/>
	<path display="inline" fill="#00CB00" d="M314.8,265.1c0.1,0.8,0,1.6-0.5,2.1c-0.9,0.9-1.6,1.9-1.5,3.2c0,0.4-0.1,1.1-0.7,1.1
		c-0.7,0.1-1-0.6-1-1.1c-0.1-1.3-1.7-2.8,0.6-3.9c0.7-0.3,0.2-1.2-0.1-1.9c-2-4.8-4.7-9.2-7-13.8c-0.5-1.1-1.1-2.1-1.8-3.4
		c1.4,0.1,1.4,1.6,2.4,1.7c0,0.1,0.1,0.2,0.1,0.3c0,0.5,0.3,0.8,0.8,0.9c0,0.2,0.1,0.5,0.1,0.7c0.1,0.2,0.2,0.3,0.3,0.5
		C309.3,256.2,312.1,260.7,314.8,265.1z"/>
	<path display="inline" fill="#D6D6D4" d="M159.1,399.6c0.5,0.3,0.6,0.8,0.6,1.3c-0.7,3.2-0.1,6.5,0.1,9.7c0.1,2.5,1.1,4.9,1.7,7.4
		c-1.1-0.3-1.1-1.3-1.3-2.1c-1.4-5-1.7-10-1.5-15.1C158.7,400.3,158.7,399.9,159.1,399.6z"/>
	<path display="inline" fill="#D6D6D4" d="M429.6,400.9c0.4-0.7,1.1-0.7,1.8-0.8c0.8-0.1,1.6-0.2,2.4-0.4c4.2-0.8,5.3-2.1,5.8-6.8
		c1,1,0.5,4.5-0.8,5.4C436,400.1,433,401.2,429.6,400.9z"/>
	<path display="inline" fill="#D6D6D4" d="M547.9,361.7c2-2.9,4.7-5.3,7.1-7.8C553.4,357.2,551.5,360.2,547.9,361.7z"/>
	<path display="inline" fill="#D6D6D4" d="M375.2,424.3c1.9-1.5,4.1-2.2,6.3-2.8c0.5,1,0.9,1.7-0.8,1.9c-1.2,0.1-2.4,0.4-3.3,1.4
		C376.6,425.8,375.8,425.1,375.2,424.3z"/>
	<path display="inline" fill="#D6D6D4" d="M537.5,366.4c2.4-1.4,4.9-2.2,7.5-2.9C542.8,365.1,540.4,366.4,537.5,366.4z"/>
	<path display="inline" fill="#D6D6D4" d="M258.3,439.1c2.2-0.5,4.5-0.6,6.7,0.2C262.7,439.7,260.5,440,258.3,439.1z"/>
	<path display="inline" fill="#D6D6D4" d="M279.1,439.8c2.3-0.2,4.7-0.7,6.9,0.5c-2,0.3-4,0.1-5.9,0.1
		C279.6,440.4,279.3,440.2,279.1,439.8z"/>
	<path display="inline" fill="#D6D6D4" d="M385.4,419.7c1.1-1.3,2.8-1.1,4.1-1.8C389.4,419.4,386.7,420.6,385.4,419.7z"/>
	<path display="inline" fill="#D6D6D4" d="M269.9,439.5c2-0.3,3.9-0.5,5.9,0.2C273.8,440.1,271.9,440.4,269.9,439.5z"/>
	<path display="inline" fill="#D6D6D4" d="M192.4,442.4c2-0.3,4-0.4,5.9-0.1C196.4,443.4,194.4,443.2,192.4,442.4z"/>
	<path display="inline" fill="#D6D6D4" d="M395.4,415.4c1.1-0.8,2.2-1.4,3.6-1.4c0.1,0.7,0.3,1.5-0.9,1.2c-0.8-0.2-1,0.3-1.4,0.8
		C395.7,417.3,395.5,416.4,395.4,415.4z"/>
	<path display="inline" fill="#D6D6D4" d="M368.3,427c1-0.9,2.2-1.3,3.6-1.3c0.1,0.7,0.4,1.8-1,1.1c-0.8-0.4-1,0.3-1.3,0.6
		C368.9,428.2,368.5,427.9,368.3,427z"/>
	<path display="inline" fill="#D6D6D4" d="M119.2,280.1c1.3-1,2.7-1,4.2-0.8C122.3,281.3,120.7,280.4,119.2,280.1z"/>
	<path display="inline" fill="#D6D6D4" d="M300.4,466.2c-1.3,0.7-2.5,2.1-4.2,0.8C297.6,466.6,298.8,465.6,300.4,466.2z"/>
	<path display="inline" fill="#D6D6D4" d="M356.9,431.9c0.9-1,2.3-1.2,3.5-1.6C360.3,433.1,358.2,431.8,356.9,431.9z"/>
	<path display="inline" fill="#D6D6D4" d="M290.4,440.4c1.5-0.5,3.1-0.4,4.6,0.1C293.5,441,291.9,441.1,290.4,440.4z"/>
	<path display="inline" fill="#D6D6D4" d="M484.6,379.1c1.3-0.6,2.7-0.7,4.2-0.8C487.6,379.8,486.2,379.9,484.6,379.1z"/>
	<path display="inline" fill="#D6D6D4" d="M188.3,441.6c1.2-0.2,2.4-0.2,3.3,0.7C190.4,442.7,189.2,442.7,188.3,441.6z"/>
	<path display="inline" fill="#D6D6D4" d="M405,411.3c0.9-0.4,1.7-1.6,2.9-1c-0.7,0.5-1.4,1.1-2.1,1.6
		C405,412.6,405.1,411.8,405,411.3z"/>
	<path display="inline" fill="#D6D6D4" d="M362,429.8c0.9-1.1,2.2-1.2,3.4-1.6C364.8,429.9,363.6,430.3,362,429.8z"/>
	<path display="inline" fill="#D6D6D4" d="M353.7,433.1c0.7-0.9,1.8-1.2,2.9-1.1c-0.5,1-1.7,1.2-2.4,1.9
		C354,434.1,353.8,433.4,353.7,433.1z"/>
	<path display="inline" fill="#D6D6D4" d="M250.3,440.3c0.9-1.6,2.6-1,3.9-1.3C253.1,440.1,251.7,440,250.3,440.3z"/>
	<path display="inline" fill="#D6D6D4" d="M533.4,367.6c1-0.8,2.1-1.2,3.4-1.1C535.8,367.5,534.7,368.1,533.4,367.6z"/>
	<path display="inline" fill="#D6D6D4" d="M47.5,72.6c-0.9,0.7-1.8,1-2.9,0.8C45.3,72.1,46.3,71.8,47.5,72.6z"/>
	<path display="inline" fill="#D6D6D4" d="M372.2,425.5c0.7-0.9,1.7-0.6,2.5-0.9c0.6,0.6,0.6,1.1-0.4,1.1
		C373.7,425.8,372.9,425.9,372.2,425.5z"/>
	<path display="inline" fill="#D6D6D4" d="M383,420.7c0.6-0.2,0.9-0.9,1.7-0.9c-0.2,0.6,0.3,1.6-0.9,1.8
		C383.2,421.7,383,421.2,383,420.7z"/>
	<path display="inline" fill="#D6D6D4" d="M366,428.1c0.5-0.2,1-0.5,1.4-0.7c0.1,0.9,0.1,1.9-1,2C365.6,429.4,366,428.6,366,428.1z"
		/>
	<path display="inline" fill="#D6D6D4" d="M525.8,370c0.8-1,1.8-1.2,3-1.1C528.1,370.1,526.8,369.8,525.8,370z"/>
	<path display="inline" fill="#D6D6D4" d="M402.6,412.3c0.6-0.4,1.2-0.9,2-0.8c-0.2,0.8-0.4,1.6-1.4,1.7
		C402.6,413.3,402.6,412.8,402.6,412.3z"/>
	<path display="inline" fill="#D6D6D4" d="M530.6,368.6c0.5-0.6,1-1.3,1.9-0.8C532.2,368.7,531.5,368.9,530.6,368.6z"/>
	<path display="inline" fill="#D6D6D4" d="M492.1,377.9c0.4-0.5,1-0.9,1.7-0.7C493.4,378,493,378.6,492.1,377.9z"/>
	<path display="inline" fill="#D6D6D4" d="M350.8,434.3c0.4-0.1,0.7-0.2,1.1-0.4c0.1,0.4,0.3,1-0.2,1.2
		C351.1,435.3,351,434.8,350.8,434.3z"/>
	<path display="inline" fill="#D6D6D4" d="M360.8,430.1c0.4-0.1,0.7-0.2,1.1-0.3c0.1,0.3,0.1,0.7-0.2,0.8
		C361.2,430.8,360.9,430.6,360.8,430.1z"/>
	<path display="inline" fill="#D6D6D4" d="M349,435.2c0.3-0.6,0.7-0.7,1.3-0.7C350.3,435.5,349.8,435.5,349,435.2z"/>
	<path display="inline" fill="#D6D6D4" d="M347.6,435.8c0.3-0.6,0.8-0.7,1.3-0.6C349,436.6,348.3,436.2,347.6,435.8z"/>
	<path display="inline" fill="#D6D6D4" d="M481.1,379.9c0.4-0.7,0.9-0.8,1.5-0.3C482.2,380.2,481.6,380.1,481.1,379.9z"/>
	<path display="inline" fill="#D6D6D4" d="M291.7,467.9c0,1-0.7,0.9-1.3,0.8C290.5,467.8,291.1,467.8,291.7,467.9z"/>
	<path display="inline" fill="#D6D6D4" d="M556.4,351.7c-0.1-0.6,0-1.2,0.7-1.3C557.1,351,557.1,351.6,556.4,351.7z"/>
	<path display="inline" fill="#D6D6D4" d="M186.2,441.1c0.5-0.2,1-0.2,1.3,0.3C186.9,441.8,186.5,441.7,186.2,441.1z"/>
	<path display="inline" fill="#D6D6D4" d="M546.2,362.9c0.2-0.6,0.6-0.9,1.3-0.8C547.5,362.9,546.9,362.9,546.2,362.9z"/>
	<path display="inline" fill="#D6D6D4" d="M555.6,353c-0.2-0.6,0-1.1,0.7-1.2C556.3,352.3,556.3,352.8,555.6,353z"/>
	<path display="inline" fill="#D6D6D4" d="M189.6,219.2c-0.4-0.1-0.4-0.5-0.4-0.9C189.7,218.4,190.2,218.5,189.6,219.2z"/>
	<path display="inline" fill="#D6D6D4" d="M339.2,439.2c0.2-0.4,0.5-0.5,0.9-0.4C339.9,439.4,339.7,439.8,339.2,439.2z"/>
	<path display="inline" fill="#D6D6D4" d="M244.9,440.1c0.4-0.1,0.7,0,0.9,0.3C245.3,441.1,245.1,440.7,244.9,440.1z"/>
	<path display="inline" fill="#D6D6D4" d="M393.1,416.4c0.3-0.4,0.6-0.7,1.1-0.6C394.1,416.6,393.7,416.7,393.1,416.4z"/>
	<path display="inline" fill="#D6D6D4" d="M390.3,417.6c0.2-0.4,0.6-0.6,1-0.5C391.2,417.8,390.9,418,390.3,417.6z"/>
	<path display="inline" fill="#D6D6D4" d="M400,413.4c0.3-0.1,0.5-0.1,0.8-0.2c-0.1,0.2-0.1,0.6-0.3,0.7
		C400.2,414,400,413.7,400,413.4z"/>
	<path display="inline" fill="#D6D6D4" d="M294.4,467.3c-0.3,0.4-0.5,0.9-1.1,0.4C293.5,467.1,293.9,467.1,294.4,467.3z"/>
	<path display="inline" fill="#D6D6D4" d="M306.1,250.6c-0.5-0.1-0.8-0.4-0.8-0.9C306,249.6,306.3,249.9,306.1,250.6z"/>
	<path display="inline" fill="#D6D6D4" d="M248.7,440.4c0.3-0.4,0.6-0.4,0.8,0C249.3,440.9,249,440.9,248.7,440.4z"/>
	<path display="inline" fill="#D6D6D4" d="M390.1,417.7C390.1,417.7,390.1,417.7,390.1,417.7C390.1,417.7,390.1,417.7,390.1,417.7z"
		/>
	<path display="inline" fill="#D6D6D4" d="M306.6,251.8c-0.1-0.2-0.2-0.3-0.3-0.5C306.4,251.4,306.5,251.6,306.6,251.8z"/>
	<path display="inline" fill="#000033" d="M361.5,480.5c-0.2-0.1-0.4-0.2-0.6-0.3c-2.3-1.9-5-2.9-7.7-3.9c-0.2-0.1-0.4-0.2-0.7-0.3
		c-0.2-0.8-1-0.8-1.5-1c-2.7-0.8-3-3-3-5.2c0-1.1,0.2-1.9,2-1.6c3.4,0.6,6.9,1.1,10.3,1.4c3,0.3,5.7,1.4,8.7,1.6
		c3.5,0.2,7,1.1,10.6,1.8c3.2,0.6,6.3,0.8,9.5,1.8c2.3,0.7,4.9,0.5,7.3,1c4.2,0.8,8.4,1.7,12.6,2c3.5,0.2,6.7,1.4,10.2,1.6
		c2,0.1,3.8,1.4,6,1.4c-1,0.7-2,1.2-3.3,0.9c-1.1-0.2-2.6-0.7-1.6,1.5c0,0.1,0.1,0.2,0.1,0.2c-2.2,1.9,0.1,2.7,1,3.9
		c0.9,1.4,0.6,2.9-0.6,4c-1.2,1.1-0.8,1.9-0.3,3.1c1.1,2.2,2.5,3.5,5.2,2.9c1.3-0.3,2.6,0.2,3.9,0.4c0.4,0.1,0.9,0.2,0.7,0.8
		c-0.1,0.6-0.6,0.4-1,0.3c-5.9-0.6-11.9-0.1-17.9-0.2c-0.3,0-0.5,0.1-0.8,0.2c-1.3-0.1-2.6-0.1-3.9-0.2c-1.2-0.8-2.5-0.8-3.8-0.1
		c-0.4,0-0.8,0-1.2,0c-1.2-1.1-2.3-0.3-3.5,0.1c-0.3-0.1-0.7-0.2-1-0.3c-0.1-0.5-0.5-0.7-1-0.6c-8.3-4.1-16.6-8.2-24.8-12.3
		c-0.7-1.1-1.9-1.3-3-1.5c-0.2-0.1-0.5-0.2-0.7-0.2c-0.9-1.1-2.1-1.7-3.6-1.8c-0.2-0.1-0.4-0.2-0.6-0.3
		C363.1,480.5,362.4,480.3,361.5,480.5z"/>
	<path display="inline" fill="#00CB00" d="M490.3,501.2c1.9,0.4,2.6,0,2.5-1.8c-0.3-3.4-0.9-6.8-1.2-10.3c-0.1-0.7-1-0.8-0.9-1.6
		c0.7-0.2,1.5-0.4,2.2-0.4c0.8-0.1,1.2,0.3,1.4,1.2c0.5,3.1,0.7,6.3,1.5,9.4c0.7,2.6-1.1,5.3-3.7,5.4c-3.7,0.1-7.3,0.1-11,0.2
		c-2,0.1-4.2-1.4-6.3-2.1c0.5-4.3,0.1-8.6,0.2-12.9c0.9-1.3,2.2-1.4,3.6-1.3c0.9,0.1,1.2,0.4,1,1.3c0,0,0,0,0,0
		c-1.1,0.2-0.9,1.1-0.8,1.8c0.3,3.3,0.6,6.7,0.4,10c0,0.6,0.1,1.1,0.8,1.3c0.9,0.6,1.9,0.3,2.8,0.4c1.6,0.2,2.5-0.4,2.3-2.2
		c-0.1-1.8-0.1-3.6-0.1-5.4c0.6-1.5,0.5-3,0-4.6c0.1-0.4,0.2-0.8-0.1-1.2c1-1.8,2.1-1.1,3.2-0.1c-0.5,3.8-0.1,7.5-0.1,11.3
		C487.9,501.8,488.1,501.9,490.3,501.2z"/>
	<path display="inline" fill="#00CB00" d="M164,500.4c-0.6,1.2-0.3,2.4-0.3,3.7c0,1.5,1.2,1.4,2.2,1.4c1.1,0,2-0.2,1.9-1.6
		c-0.1-3.5,0.2-7.1,0.4-10.6c0.1-0.7-0.5-1.8,0.8-2c1.3-0.1,1.4,1,1.5,1.9c0.2,2.5,0.2,5,0,7.5c-0.2,2.1-0.4,4.2-1.4,6.2
		c-0.1,0.2-0.2,0.5-0.4,0.7c-1.9,1.5-3.6-0.5-5.5-0.2c-0.8,0.1-1.3-0.6-1.2-1.6c0-4.3,0-8.6,0-12.9c0-0.7,0-1.6,0.9-1.6
		c1.4,0.1,0.2,1,0.4,1.5c0.5,1.8-0.6,3.8,0.7,5.5C164,499.1,164,499.7,164,500.4z"/>
	<path display="inline" fill="#F8F8FA" d="M484.9,488.4c0.2,0.4,0.2,0.8,0.1,1.2c-0.6,1.5-0.6,3,0,4.6c0,1.8,0,3.6,0.1,5.4
		c0.1,1.8-0.7,2.4-2.3,2.2c-0.9-0.1-1.9,0.2-2.8-0.4c0.2-4.4,0.1-8.7-0.4-13.1c0,0,0,0,0,0c1.7-0.1,2.5,0.2,2.2,2.3
		c-0.3,2.4,0.3,5,0.7,7.5c0.8-2.6,1.2-5.3,0.8-7.9C483.1,488.5,483.5,488.2,484.9,488.4z"/>
	<path display="inline" fill="#F8F8FA" d="M474.9,488.3c0,4.3,0.3,8.6-0.2,12.9c-2.4-0.2-2.8-0.8-2.7-3.1c0.1-3,0-5.9,0-8.9
		c0-0.7-0.1-1.4,1-1.7C474.1,487.1,474.6,487.5,474.9,488.3z"/>
	<path display="inline" fill="#000033" d="M164,500.4c0-0.6,0-1.3,0-1.9c0.4-1.6,0.1-3.2,0.2-4.8c0-1.1,0.3-2,1.7-1.8
		c1.2,0.2,1.6,0.7,1.4,2.1c-0.3,2.5-0.2,5-0.2,7.5c0,0.6,0.1,1.3-0.3,1.8c-0.3,0.5-0.8,0.8-1.4,0.8c-0.8-0.1-0.7-0.7-0.8-1.2
		C164.5,502,165,501,164,500.4z"/>
	<path display="inline" fill="#F8F8FA" d="M490.3,501.2c-2.2,0.8-2.4,0.6-2.4-1.6c0.1-3.8-0.4-7.6,0.1-11.3c0.8-0.3,1.4-0.1,1.4,0.8
		C489.7,493.1,490.8,497.1,490.3,501.2z"/>
	<path display="inline" fill="#00CB00" d="M153.8,498.1c1.9,1.6,1.3,3.4,1.4,4.8c0.2,1.8,0.9,2.7,2.6,3.1c0.6,0.1,1.3,0.5,1.8,1.4
		c-2.1-0.2-4,0.4-5.7-1.2c-1.2-1.1-1.8-1.9-1.1-3.5C153.4,501.3,153.9,500,153.8,498.1z"/>
	<path display="inline" fill="#000033" d="M159.9,492.5c1.1,0.5,0.9,1,0.9,1.4c0,3.2,0,6.5,0,9.7c0,0.5,0.1,1-0.6,1.2
		c-0.4,0.1-0.6-0.2-0.7-0.6C159.3,500.4,160.4,496.6,159.9,492.5z"/>
	<path display="inline" fill="#00CB00" d="M433.2,500.3c-3.2,0-6.3,0-9.5,0c-0.4,0-1.1,0.1-1-0.6c0.1-0.5,0.6-0.5,1-0.4
		c3.2,0.2,6.3,0.5,9.5,0.8C433.2,500.1,433.2,500.2,433.2,500.3z"/>
	<path display="inline" fill="#00CB00" d="M406.7,498.4c1.3,0.1,2.6,0.1,3.9,0.2c0.2,0.6,0,1-0.6,1c-2.6,0-5.2,0.2-7.8-0.3
		c-0.6-0.1-0.6-0.4-0.5-0.8c0.4,0,0.8,0,1.2,0C404.2,499,405.4,498.8,406.7,498.4z"/>
	<path display="inline" fill="#00CB00" d="M470.9,501.3c-2.2,0.2-4.5,0.5-6.8-0.1C465.7,500.2,469.2,500.2,470.9,501.3z"/>
	<path display="inline" fill="#000033" d="M173,222.9c0,0.2,0,0.4,0.1,0.7c-0.2,2.2,0.8,4.2,1.5,6.1c0.5,1.3,0.3,1.8-1,2
		c-3.9,0.4-7.8,1-11.7,1.2c-6.2,0.3-12.3,1.2-18.4,2.3c-1,0.2-1.9,0.2-2.9,0.2c-2.7-0.1-5.4,0.1-8,0.9c-1.5,0.5-3,0.5-4.5,0.1
		c-1.3-0.4-2.7,0.1-3.9,0.4c-4,1.1-8.2,1.4-12,3.5c-1.1,0.6-2.3,0.1-3.4-0.3c0-0.2-0.1-0.5-0.1-0.7c0.2-0.7-0.1-1.2-0.8-1.5
		c-0.5-1.3-1.3-2.5-1.3-4c0.1-0.8-0.2-1.4-0.7-1.8c-0.1-0.3-0.1-0.5-0.2-0.8c0.2-1.2-0.3-2.1-1-2.9c0-0.3-0.1-0.6-0.1-0.9
		c0.3-0.4,0-0.7-0.4-0.8c-0.3-0.3-0.4-0.7-0.3-1.2c1.7-1.4,3.8-0.9,5.7-1.1c5-0.7,10-1.3,15-1.3c3.5,0,7-0.1,10.4-0.1
		c4.3,0,8.6-0.7,12.9-1.3c4.1-0.5,8.3-1.2,12.4-2c3-0.6,6.2-0.1,9.2-1.4c0.9-0.4,1.8,0.1,2.6,0.3c0.1,0.6,0.1,1.2,0.2,1.9
		C172,221.3,172.2,222.2,173,222.9z"/>
	<path display="inline" fill="#000033" d="M401.8,357.9c-0.2-0.2-0.3-0.3-0.5-0.5c0-0.5-0.3-0.7-0.8-0.7c-5.3-5.9-11-11.5-17.2-16.5
		c0-0.1-0.1-0.1-0.2-0.2c-0.6-0.5-1.3-1-1.9-1.5c-1.9-2.3-4.5-3.7-6.9-5.2c-3.2-1.9-6.4-4-9.9-5c-5.1-1.5-10.2-2.9-15.4-3.7
		c-4.7-0.7-9.3-0.3-14-0.4c-2.8,0-5.6,0.2-8.4,0.7c-1,0.2-2.1,0.2-3.1,0.1c-1.8-0.2-3.5,0.2-5.2,0.3c-5.5,0.3-11.2,1.2-16.5-1.5
		c-0.6-0.3-1.1-0.5-1.1-1.3c0.7-0.3,1.2,0.1,1.8,0.3c0.7,0.2,1.1,0.2,1.4-0.6c0.4-1.2,1.3-1.5,2.5-1c1.1,0.4,1.9,0.3,2.5-1
		c0.9-1.8,2.9-1.3,4.4-1.6c1.1-0.2,2.1-0.4,3.1-0.9c1.3-0.7,2.7-1,4.2-0.8c2.8,0.3,3.5-0.5,2.7-3c1-0.1,2-0.3,2.9-0.4
		c0.2,1.4,1.8,0.9,2.4,1.6c1,1.3,1.5,0.3,2.3-0.2c0.4-0.3,1.1-0.1,1.6-0.1c4.5,0,9-0.2,13.5,0.1c4.1,0.3,8.2,0.9,12.2,1.7
		c3,0.6,5.4,2.1,8.1,3.2c1.6,0.6,3.3,0.5,4.8,0.9c1.6,0.4,2.6,1.1,3.8,1.9c1.8,1.2,3.7,2.1,5.3,3.5c1.4,1.2,2.3,2.6,3.1,4
		c1.1,2.1,2.2,4.1,3.5,6c0.6,0.9,0.5,1.7,0,2.2c-0.6,0.5-1.1-0.3-1.7-0.7c-2.2-1.6-4.5-3.1-6.8-4.5c-0.3-0.2-0.9-0.6-1.3,0
		c-0.3,0.6,0.3,0.8,0.7,1.1c4.5,2.9,8.4,6.7,12.7,10c2.3,1.8,4.3,3.8,6.4,5.7c1.1,1,1.7,2.2,2.8,3.1c3.2,2.6,5.7,6,8.9,8.7
		c2.2,1.9,4.5,4.1,6.3,6.5c-4.2-1.7-6.9-5.5-10.7-7.7c-0.1,0-0.2-0.1-0.2-0.2C403.7,359.1,403,358.2,401.8,357.9z M366.8,326.8
		c-0.2,0.1-0.4,0.2-0.5,0.3c-0.1,0.3,0,0.6,0.3,0.7c3,1.5,5.9,3,8.9,4.5c0.4,0.2,0.8,0.2,1-0.3c0.1-0.4-0.2-0.6-0.5-0.7
		c-1.4-0.8-2.8-1.5-4.1-2.2C370.3,328.2,368.5,327.7,366.8,326.8z M326.2,315c-0.2-0.2-0.3-0.3-0.5-0.4c-0.2,0-0.4,0.1-0.5,0.2
		c-0.1,0.3,0.1,0.5,0.4,0.5C325.8,315.3,325.9,315.2,326.2,315z"/>
	<path display="inline" fill="#000033" d="M295.5,304.8c-0.2,1.7-0.4,3.1-0.5,4.5c-0.1,0.6-0.3,1.1-1,1.1c-0.7,0-0.6-0.6-0.6-1.1
		c-0.1-0.8,0.4-2.1-0.7-2.3c-1-0.2-1.6,0.7-2.3,1.5c-1.5,1.9-3,1.6-4.2-0.4c-1.3-2.3-2.5-4.8-4.2-6.8c-0.7-0.8,0.2-1.6-0.1-2.4
		c-1.3-2.6-1.2-5.1,0.5-7.5c-1-3.4,1-3.5,3.6-3.5c2.2-0.1,2.9-1.8,2.1-4c-0.2-0.5-0.5-1.2,0.1-1.5c0.7-0.4,0.9,0.3,1.4,0.8
		c2.7,3.1,3.1,7.1,4.2,10.9C294.9,297.6,294.7,301.4,295.5,304.8z"/>
	<path display="inline" fill="#000033" d="M138.8,294.8c0.6,0.1,1,0.3,1.2,0.2c3.3-1.4,6.9-0.7,10.1-1.5c3-0.7,6-1.4,8.9-1.6
		c4.5-0.3,8.9-1,13.4-1.1c3.4-0.1,6.7-0.5,10.1-0.2c0.4,0,0.9-0.2,1,0.3c0.1,0.7-0.5,0.8-0.9,0.7c-3.2-0.6-5.9,1.6-9.1,1.5
		c-1.3,0-3.1,0.4-4.5,1c-0.8,0.3-1.5,0.6-2.4,0.2c-0.6-0.3-1.4-0.2-1.9,0.4c-0.2,0.2-0.5,0.6-0.8,0.6c-4.1,0.2-7.9,2.2-11.9,2
		c-3.3-0.2-6.3,1.2-9.4,1.4c-5,0.4-9.9,1.5-14.9,1c-0.9-0.1-1.9,0.5-2.5,0.5c-2.5-0.1-4.9-0.1-7.3,0.2c-0.2,0-0.5-0.3-0.6-0.5
		c-0.1-0.4,0.3-0.5,0.7-0.6c3.2-0.9,6.4-1.6,9.6-2.2c2.6-0.5,5.2-1,7.8-1.6C136.6,295.1,137.9,295.1,138.8,294.8z"/>
	<path display="inline" fill="#00CB00" d="M326.3,313.3c-1,0.1-2,0.3-2.9,0.4c-1.2-0.6-2.4-0.4-3.7-0.2c-1.1,0.2-1.5-0.4-1.3-1.3
		c0.3-1,0-2.2,0.5-3c1.2-2.3,0.4-4.7,0-6.8c-0.4-2.4-1.1-4.8-2.1-7.1c-0.4-0.9-0.7-2.5,0.3-2.9c0.7-0.3,1.2,1.3,1.5,2.1
		c2.1,5.4,5,10.3,8.4,14.9c0.2,0.3,0.6,0.6,0.8,1c0.3,0.7,1.8,0.8,1.2,1.8C328.5,313.1,327.5,313.6,326.3,313.3z"/>
	<path display="inline" fill="#000033" d="M303.3,295.2c-2.5-3.7-2.6-8.2-4.5-12c-2.2-4.2-3-9.1-6.3-12.8c-1.1-1.2-2.7-2-3.6-3.6
		c-0.2-0.4-0.6-0.7-0.3-1.1c0.3-0.5,0.8-0.1,1.1,0c2.4,1.2,4.3,3,5.6,5.3c4.2,7,7,14.5,8.4,22.6C303.7,294.2,304,294.7,303.3,295.2z
		"/>
	<path display="inline" fill="#00CB00" d="M548.6,349c0.3-2.7,2.1-4.6,2.9-7c0.8-2.4,1.2-5,1.4-7.5c0.3-2.8,1.7-5.4,1.6-8.3
		c0-0.3,0.2-0.6,0.5-0.6c0.5,0.1,0.7,0.5,0.6,0.9c-0.5,3.8-0.4,7.7-1.2,11.5c-0.9,3.8-2.7,7.1-4.9,10.2
		C549.4,348.6,549.2,349,548.6,349z"/>
	<path display="inline" fill="#FFFFFF" d="M317.9,439.9c-3.3-0.2-6.6-0.2-9.9-1.2c-3.1-1-6.5-0.8-9.9-0.6c-5.8,0.2-11.7,0-17.4-0.4
		c-4.1-0.3-8,0.5-12,0.2c-2.5-0.2-5,0-8,0c1.4-1.5,2.8-1.2,4-1.4c6.4-1.2,12.8-2.1,19.2-3.2c6.6-1.1,13-3,19.6-3.5
		c0.9-0.1,1.9-0.4,2.2,0.8c0.2,1,0.7,1.9,1.8,1.4c1.3-0.6-0.3-1.4-0.1-2.2c2-0.4,2.3,1.3,2.9,2.5c0.1,0.2,0,0.5,0.1,0.8
		c0.2,1-0.5,2.7,0.4,2.8c1.3,0.1,0.8-1.7,1.3-2.6c0.3-0.5,0.4-1.1,0.4-1.6c-0.6-3.5,2.8-3.2,4.4-4.7c0.3-0.3,1.1-0.4,1.5,0.2
		c-0.9,0.4-1.3,1-1.2,2.1c0.1,1.9,0,3.7,0,5.6C317.2,436.6,316.9,438.3,317.9,439.9z"/>
	<path display="inline" fill="#FFFFFF" d="M200.5,351.1c-0.1,0.3-0.2,0.5-0.4,0.7c-2.3,2-4,4.6-7,5.8c-1.5,0.6-2,2.3-3.2,3.2
		c-5.6,4.2-11.1,8.4-16.3,13.1c-1.9,1.7-3.5,3.7-5.2,5.6c-0.3,0.3-0.5,1-1.1,0.7c-0.6-0.3-0.4-1-0.1-1.5c1.5-2.6,2.6-5.5,4.5-7.9
		c4.6-5.4,10-9.9,16-13.6c3.6-2.2,7.2-4.3,10.8-6.4C199.2,350.5,199.9,350,200.5,351.1z"/>
	<path display="inline" fill="#D6D6D4" d="M345.9,430.6c0.6-0.9,1.6-0.2,1.9-1.1c0.1-0.3-0.1-0.6-0.4-0.6c-0.8-0.2-1.5-0.1-2.1,0.6
		c-0.6,0.7-1.5,1-2.2,1.5c-1.3,1-2.7,2-1.5,4.1c0.6,1-0.7,1.1-1.2,1.4c-0.7,0.4-1.1,0-1.2-0.9c0-1.9,0.1-3.5,2-5
		c3.8-3.1,7.4-6.7,10.9-10.2c2.2-2.2,4.9-2.3,7.7-2.3c1,0,1.9,0.1,2.8-0.4c1.6-0.9,3.6-0.8,5.3-1.7c0.3-0.2,0.9-0.3,1.1,0.3
		c0.2,0.5-0.3,0.9-0.6,0.9c-1.3,0.3-1.6,0.8-1.3,2.3c0.3,1.3-1.4,1.8-2.2,1.6c-2.4-0.5-4.6,0.8-6.9,0.6c-0.5-0.1-0.9,0.1-1.2,0.6
		c-0.8,1.4-2.5,2.6-3,3.8c-1,2.4-4.1,2.1-4.9,4.6C348.4,431.9,347,430.9,345.9,430.6z M354.4,423c-0.1-0.1-0.1-0.3-0.2-0.3
		c-0.1,0-0.2,0.1-0.3,0.1c0.1,0.1,0.1,0.3,0.2,0.4C354.3,423.1,354.3,423,354.4,423z"/>
	<path display="inline" fill="#D6D6D4" d="M256.4,432.5c0.1-0.7-0.1-1.3-0.5-1.8c4.8-1.4,9.7-2,14.5-2.7c9.2-1.5,18.2-3.5,27.3-5.7
		c0.3-0.1,0.9-0.1,0.7-0.7c-6.7,0.2-13.3,1.2-19.8,3c-0.2,0.1-0.5-0.2-0.7-0.3c1.8-1.4,4.1-1.3,6.2-1.8c4.5-1,9-1.9,13.6-2
		c0.9,0,1.9-0.2,2.2,1c0.2,1.1-0.7,1.3-1.5,1.5c-0.3,0.1-0.8,0.1-0.6,0.6c0.2,0.5,0.6,0.5,1,0.4c1.6-0.6,1.8,0.2,1.5,1.5
		c-5.9,1.2-11.9,0.7-17.8,2.3c-5.7,1.5-11.6,2.1-17.5,3.1C262.2,431.4,259.3,432,256.4,432.5z"/>
	<path display="inline" fill="#000033" d="M256.4,432.5c2.9-0.6,5.8-1.2,8.7-1.7c5.8-1,11.8-1.6,17.5-3.1c5.9-1.6,11.9-1.1,17.8-2.3
		c0.2,0.4,1.2,0.3,0.8,0.9c-0.4,0.7-1.3,0.6-2,0.5c-0.5-0.3-0.9-0.2-1.2,0.3c-0.3,0.1-0.5,0.1-0.8,0.2c-0.5-0.4-0.9-0.3-1.3,0.2
		c-0.4,0.1-0.8,0.2-1.2,0.3c-0.4-0.3-0.6-0.1-0.8,0.2c-0.3,0.1-0.6,0.1-0.8,0.2c-0.4-0.3-0.6-0.1-0.8,0.2c-0.3,0.1-0.6,0.1-0.9,0.2
		c-0.4-0.3-0.6-0.1-0.8,0.3c-0.3,0.1-0.6,0.1-0.8,0.2c-0.4-0.1-0.8-0.2-1.2-0.2c-3.9,0.7-7.9,1.5-11.8,2.1c-3.9,0.7-7.8,1.2-11.6,2
		c-3,0.7-6.2,0.7-9,2c-0.7,0.2-1.5,0.3-2.2,0.5c-0.4,0-0.6,0.2-0.8,0.5c-0.3,0.4-0.6,0.9-1.1,0.6c-0.6-0.2-0.3-0.8-0.4-1.3
		c0.4-1.4,1.2-2.2,2.8-1.9C255,433.6,255.7,432.9,256.4,432.5z"/>
	<path display="inline" fill="#000033" d="M277.9,424.3c0.2,0.1,0.5,0.3,0.7,0.3c6.5-1.8,13.1-2.7,19.8-3c0.1,0.6-0.4,0.7-0.7,0.7
		c-9,2.1-18.1,4.2-27.3,5.7c-4.9,0.8-9.8,1.4-14.5,2.7c-0.7,0-1.4,0.1-2.1,0.1c-0.5-0.2-1.1,0.2-1.5-0.6c1.8-1.1,3.8-1,5.6-1.5
		c1.8-0.5,3.9-0.3,5.5-1.6c0.7-0.3,1.5-0.3,2.3-0.3c1,0,2.1,0.1,2.8-0.9c0.3,0,0.5-0.1,0.8-0.1c1,0.4,1.9,0.2,2.5-0.7
		c0.3,0,0.5-0.1,0.8-0.1c0.6,0.5,1,0.4,1.3-0.3c0.5-0.1,1.1-0.1,1.6-0.2c0.7,0.5,1.3,0.6,1.7-0.3
		C277.4,424.3,277.7,424.3,277.9,424.3z"/>
	<path display="inline" fill="#FFFFFF" d="M319.2,427.2c1.6-0.5,3.1-0.3,4.1,1.1c0.7-0.4,0.5-1.4,1.3-1.7c1.6,4.1,1.2,8.4,1.8,12.6
		c0.1,0.4-0.3,0.9-0.5,0.7c-1.9-1.2-3.3,1-5.1,0.5c-0.4-0.1-1,0.1-1.3-0.4c1-1.3,1.3-2.6,1-4.2C320,432.9,320.4,429.9,319.2,427.2z"
		/>
	<path display="inline" fill="#D6D6D4" d="M328.3,442.7c0.5,0,1.1-0.1,1.6-0.1c1.9-0.2,2.4,0.6,1.8,2.3c-0.1,0.3-0.2,0.6-0.1,0.8
		c0.5,2.4-0.5,3.9-3,4.2c-1.2,0.2-0.6,1.2-0.8,1.8c-0.7-0.1-1.2,0.3-1.8,0.4c0.4-2.5,0.3-2.6-2.4-2.6c-1,0-1.9,0.2-2.9,0.2
		c0-2.4,0-4.7,0-7.1c1.8,0,3.7,0,5.5-0.1c0,1.8,0,3.6,0,5.4c0,0.8,0.1,1.5,1.1,1.4c0.8-0.1,0.9-0.7,0.9-1.4
		C328.3,446.3,328.3,444.5,328.3,442.7z"/>
	<path display="inline" fill="#D6D6D4" d="M200.3,341.1c0-0.1,0-0.4,0-0.4c-2.6-1.6-0.7-2.7,0.5-3.9c2.2-2.2,4.4-4.3,6.3-6.8
		c0.5-0.6,1.1-1.4,2-1.1c0.9,0.3,0.7,1.3,0.6,2c-0.6,3.4-1.4,6.7-3.2,9.6c-0.5-1.3-1.4-1.1-2.3-0.6
		C202.9,340.5,201.7,341.1,200.3,341.1z"/>
	<path display="inline" fill="#000033" d="M319.2,427.2c1.2,2.7,0.8,5.7,1.4,8.5c0.3,1.6,0,3-1,4.2c-0.6,0.1-1.1,0.2-1.7,0
		c-1-1.6-0.7-3.3-0.7-5c0-1.9,0.1-3.7,0-5.6c-0.1-1.1,0.3-1.7,1.2-2.1C318.6,427.2,318.9,427.2,319.2,427.2z"/>
	<path display="inline" fill="#D6D6D4" d="M318.4,449.5c-2.1,0.4-4-0.2-6.2-0.5c1.7-1.4,1.4-2.9,0.5-4.4c-0.9-1.5-0.3-2,1.2-1.9
		c1.2,0.1,2.5-0.3,3.7,0.2C318.3,445,318.5,447.2,318.4,449.5z"/>
	<path display="inline" fill="#D6D6D4" d="M255.9,434.9c2.9-1.2,6-1.3,9-2c3.8-0.9,7.7-1.3,11.6-2c3.9-0.7,7.9-1.5,11.8-2.1
		c0.4-0.1,0.8,0.1,1.2,0.2c-2.7,1.1-5.5,1.6-8.3,2.2c-4.2,0.8-8.5,1.5-12.8,2.2c-4,0.7-8.1,1.3-12.1,1.9
		C256.2,435.2,256,435,255.9,434.9z"/>
	<path display="inline" fill="#F8F8FA" d="M326,452.1c0.6-0.1,1.1-0.6,1.8-0.4c0.1,0.1,0.2,0.2,0.2,0.3c0,2.8-0.1,5.5-0.1,8.3
		c0,1.4-0.4,2-1.8,1.3C325.8,458.5,325.8,455.3,326,452.1z"/>
	<path display="inline" fill="#000033" d="M318.4,449.5c0.1-2.3-0.1-4.5-0.8-6.7c1.1-0.3,2.1-0.2,3.2-0.1c0,2.4,0,4.7,0,7.1
		c-0.1,0.4-0.4,0.6-0.8,0.5c-0.3-0.4-0.7-0.3-1.1-0.4C318.7,449.8,318.5,449.6,318.4,449.5z"/>
	<path display="inline" fill="#D6D6D4" d="M420.3,403.1c-2.1,0.9-4.1,2-6.3,2.6c-1.1,0.3-2,0.8-3.1,1.1c-1,0.3-1.8,0.8-2.9,0.3
		c-0.4-0.1-0.8-0.1-1.2,0.3c-0.3,0.3-0.2,1.1-1,0.7c-0.2-0.1-0.3-0.5-0.3-0.7c0-0.6,0.6-0.8,1-0.9c2.2-0.6,4.5-1.2,6.7-1.9
		C415.5,403.9,417.7,403,420.3,403.1z"/>
	<path display="inline" fill="#F8F8FA" d="M200.3,341.1c1.4,0,2.6-0.6,3.8-1.2c1-0.4,1.8-0.6,2.3,0.6c-0.1,0.4-0.2,0.7-0.3,1.1
		c-0.7,0.1-1.6-0.1-2.2,0.2c-1.8,0.8-3.8,1.2-5.7,1.7c-0.7,0.2-1.6,0.7-2-0.6c0.2-0.1,0.4-0.1,0.6-0.2c0.6,0.2,1,0,1-0.7
		c0.2-0.1,0.4-0.1,0.6-0.2c0.6,0.2,0.9,0.1,1.1-0.5C199.8,341.3,200.1,341.2,200.3,341.1z"/>
	<path display="inline" fill="#000033" d="M328.3,442.7c0,1.8,0,3.6,0,5.4c0,0.7-0.1,1.3-0.9,1.4c-1,0.1-1.1-0.7-1.1-1.4
		c0-1.8,0-3.6,0-5.4C327,442.6,327.6,442.7,328.3,442.7z"/>
	<path display="inline" fill="#D6D6D4" d="M263.4,427.2c-1.6,1.3-3.7,1-5.5,1.6c-1.8,0.5-3.9,0.4-5.6,1.5c0.4,0.8,1.1,0.4,1.5,0.6
		c-1.5,1.4-2.2,1.1-2.9-1.3l0,0c3-1.1,6.2-1.4,9.3-2.2C261.2,427.1,262.3,427,263.4,427.2z"/>
	<path display="inline" fill="#D6D6D4" d="M273.4,293.8c-1.9-0.7-2.8-2.6-4.5-3.2c-0.1,0-0.2-0.2-0.2-0.3c-0.2-0.4,0.2-0.8,0.5-0.7
		c1.4,0.8,2.4-1.8,3.2-0.6C273.1,290.3,273,292.1,273.4,293.8z"/>
	<path display="inline" fill="#D6D6D4" d="M314.4,412.2c0.9,0.4,2.5,0.3,2.4,1.9c0,0.9-0.6,1.7-1.6,1.9c-0.8,0.1-2.3-1.6-2.2-2.6
		C313.1,412.6,313.5,412.2,314.4,412.2z"/>
	<path display="inline" fill="#000033" d="M196.3,343c0.4,1.2,1.3,0.8,2,0.6c1.9-0.5,3.8-0.9,5.7-1.7c0.6-0.3,1.5-0.1,2.2-0.2
		c-0.5,1.3-1.9,1.3-2.9,1.6c-2.3,0.7-4.8,1.1-7.2,1.7c-0.7,0.2-1.8,0.5-2.1-0.2c-0.4-1,0.8-1.2,1.5-1.6C195.7,343,196,343,196.3,343
		z"/>
	<path display="inline" fill="#D6D6D4" d="M359.8,408.3c0.5,0.1,1.5-0.4,1.3,0.9c-0.2,1-0.4,2.1-1.8,2c-0.6,0-1.5-0.2-1.2-1.2
		C358.3,409.1,358.2,407.9,359.8,408.3z"/>
	<path display="inline" fill="#D6D6D4" d="M364.4,402.9c-0.2,0.7-0.7,1.1-1.3,1.2c-1.1,0.1-1.1-0.8-1.3-1.5
		c-0.1-0.6,0.2-1.1,0.8-1.2C363.6,401.4,363.8,402.4,364.4,402.9z"/>
	<path display="inline" fill="#F8F8FA" d="M363.1,407.7c0.4-0.6-0.3-2.4,1.6-1.6c0,0.4,0.1,0.8,0.1,1.2c0,0.2,0,0.4,0,0.6
		c-0.2,0.2-0.4,0.3-0.5,0.6c-0.2,0.4,0,1.1-0.7,1c-0.8-0.2-0.2-0.8-0.2-1.2C363.2,408.1,363.1,407.9,363.1,407.7z"/>
	<path display="inline" fill="#D6D6D4" d="M363.1,407.7c0.1,0.2,0.1,0.4,0.2,0.6c0.1,0.4-0.6,1,0.2,1.2c0.7,0.1,0.6-0.6,0.7-1
		c0.1-0.2,0.4-0.4,0.5-0.6c0.6,1.1,0.3,1.8-0.8,2.3c-0.6,0.3-1.2,0.5-1.5-0.4C362,408.9,362,408.1,363.1,407.7z"/>
	<path display="inline" fill="#D6D6D4" d="M248.2,430.6c0,0.6-0.2,0.9-0.8,0.9c-0.5,0-0.9-0.2-1-0.8c-0.1-0.7,0.3-1.1,0.9-1.1
		C247.9,429.7,248.2,430.1,248.2,430.6z"/>
	<path display="inline" fill="#D6D6D4" d="M302.5,423.2c1-0.9,2.2-0.7,3.8-0.5C304.9,423.6,303.7,423.3,302.5,423.2z"/>
	<path display="inline" fill="#D6D6D4" d="M401.8,357.9c1.2,0.4,1.9,1.2,2.5,2.3C402.8,360.1,402,359.3,401.8,357.9z"/>
	<path display="inline" fill="#D6D6D4" d="M271.7,425.2c-0.7,0.9-1.5,1-2.5,0.7C269.7,424.6,270.8,425,271.7,425.2z"/>
	<path display="inline" fill="#D6D6D4" d="M268.4,426c-0.7,1-1.7,0.9-2.8,0.9C266.3,426,267.3,425.7,268.4,426z"/>
	<path display="inline" fill="#D6D6D4" d="M277.1,424.4c-0.4,0.9-1,0.8-1.7,0.3C275.9,423.9,276.5,424.2,277.1,424.4z"/>
	<path display="inline" fill="#D6D6D4" d="M295.8,427.5c0.4-0.5,0.8-0.6,1.3-0.2C296.7,427.8,296.2,427.8,295.8,427.5z"/>
	<path display="inline" fill="#D6D6D4" d="M297.8,427.1c0.3-0.5,0.7-0.6,1.2-0.3C298.8,427.4,298.3,427.4,297.8,427.1z"/>
	<path display="inline" fill="#D6D6D4" d="M273.8,424.8c-0.3,0.7-0.7,0.8-1.3,0.3C272.8,424.4,273.3,424.6,273.8,424.8z"/>
	<path display="inline" fill="#D6D6D4" d="M318.9,449.9c0.4,0,0.8,0,1.1,0.4C319.3,451.2,319.1,450.6,318.9,449.9z"/>
	<path display="inline" fill="#D6D6D4" d="M292,428.3c0.2-0.3,0.5-0.5,0.8-0.2C292.7,428.5,292.4,428.6,292,428.3z"/>
	<path display="inline" fill="#D6D6D4" d="M400.5,356.6c0.5,0,0.7,0.3,0.8,0.7C400.7,357.5,400.4,357.2,400.5,356.6z"/>
	<path display="inline" fill="#D6D6D4" d="M293.7,427.9c0.2-0.4,0.5-0.6,0.8-0.2C294.3,428.1,294.1,428.2,293.7,427.9z"/>
	<path display="inline" fill="#D6D6D4" d="M197.9,342.1c0,0.7-0.4,0.9-1,0.7C197.1,342.3,197.4,342,197.9,342.1z"/>
	<path display="inline" fill="#D6D6D4" d="M364.8,407.3c0-0.4-0.1-0.8-0.1-1.2C365.7,406.4,365.6,406.8,364.8,407.3z"/>
	<path display="inline" fill="#D6D6D4" d="M250.8,429.6c-0.2-0.1-0.4-0.2-0.6-0.4c0.1-0.1,0.1-0.1,0.2-0.2
		C250.6,429.2,250.7,429.4,250.8,429.6C250.8,429.6,250.8,429.6,250.8,429.6z"/>
	<path display="inline" fill="#D6D6D4" d="M290.3,428.8c0.2-0.3,0.4-0.5,0.8-0.3C291,428.9,290.7,429,290.3,428.8z"/>
	<path display="inline" fill="#D6D6D4" d="M199.6,341.4c-0.1,0.6-0.5,0.7-1.1,0.5C198.8,341.5,199.1,341.1,199.6,341.4z"/>
	<path display="inline" fill="#D6D6D4" d="M383.2,340c0.1,0,0.1,0.1,0.2,0.2C383.1,340.3,383.1,340.2,383.2,340z"/>
	<path display="inline" fill="#000033" d="M99,164.4c0.7,0.3,1.4-1.1,2.2-0.1c0.7,0.9,0.2,1.6,0,2.4c-0.5,2.2-1.9,4.2-1.6,6.6
		c0.1,0.9-0.3,1.5-0.9,2c-0.6,0.5-0.8,1.3-1,2c-0.1,0.4,0.1,0.8,0.4,1.1c0.5,0.4,0.8,0,1-0.3c0.3-0.5,0.7-0.7,1.2-0.4
		c0.6,0.4,0.5,0.9,0.4,1.5c-0.3,1.5-1.5,2.4-2.3,3.4c-0.7,0.8-1.3,0.5-1.7-0.7c-0.8-2.7-1.1-5.6-1.1-8.3c0-2.8-1.6-4.8-2.4-7.1
		c-0.4-1.2-0.4-2.6-0.8-3.8c-1.8-5.9-3.5-11.8-5.3-17.7c-2.2-7.1-4.4-14.1-7.2-21c-1.9-4.6-3.2-9.5-5.4-14
		c-1.9-3.9-3.7-7.8-5.7-11.7c-0.8-1.6-1.4-3.4-2.6-5c1.3-0.5,1.7,0.4,2.1,1c0.7,1.2,1.3,2.5,2.4,3.5c0.3,0.3,0.5,0.7,1,0.5
		c0.5-0.2,0.3-0.7,0.2-1.1c-0.1-0.4-0.2-0.8-0.1-1.2c0.1-0.6,0.3-1.3,1-1.5c0.6-0.2,1,0.4,1.3,0.8c1.5,2,2.9,4.2,4.5,6.1
		c1.3,1.6,1.6,3.6,2.9,5c1.1,1.2,1.9,2.4,2.6,3.9c0.8,1.7,1.7,3.5,3.8,4.5c1.4,0.6,2.6,2.2,1.5,4.2c-0.1,0.2-0.3,0.6-0.2,0.8
		c1.9,2.4,1.7,6.1,5,7.6c2,0.9,1.5,3.1,1.5,4.6c0,5.5,0.8,11.1,0.5,16.6c-0.1,1.7,0.4,3.1,2,4c1,0.5,1.5,1.4,1.4,2.6
		c-0.1,0.8,0.1,1.4,0.5,2.2c1.1,2.1-0.6,3.8-0.9,5.7C99.1,163.3,98.6,163.7,99,164.4z"/>
	<path display="inline" fill="#000033" d="M71.8,115c-2.2-5.2-4.4-10.4-6.6-15.6c0.2-0.6,0.1-1-0.6-1.1c-0.5-0.3-0.6-0.9-0.7-1.4
		c0.1-1.2-0.4-2.1-1.4-2.7c-0.1-0.3-0.3-0.5-0.4-0.8c0.7-2-1.1-2.7-2.1-3.8c-0.1-0.2-0.2-0.5-0.2-0.7c0.3-0.3,0.9-0.9,1.2-0.3
		c0.5,1.1,1.9,1.7,2.2,2.7c1,3.3,3,6.2,4.6,9.1c2.1,3.6,3.7,7.3,5.4,11c2.2,4.7,3.8,9.7,5.6,14.6c1.2,3.5,2.8,6.8,3.6,10.4
		c0.8,3.5,2.5,6.7,3.2,10.2c0.4,2.4,1.6,4.7,2.2,7.1c1.1,4.5,2.4,8.9,3.5,13.4c0.7,2.7,1.2,5.4,1.9,8c0.6,2.1,0.3,4.3,0.7,6.4
		c1.1,4.8,1.3,9.7,1.1,14.6c-0.1,3.1-0.3,6.2-0.7,9.3c0.1-1.8-2-3.1-0.7-5.1c0.3-0.4,0.3-1.1,0.2-1.6c-0.6-3.4-0.4-6.8-0.4-10.1
		c0-0.5,0-1-0.5-1.3c0-0.5,0-1.1,0-1.6c1.3-1.4-0.2-1.8-0.8-2.6c0-1.2,0-2.3-0.1-3.5c0.4-1.2-0.6-2.2-0.7-3.4
		c-0.4-5-2.5-9.7-3.5-14.6c-0.5-2.5-1.7-4.8-2.2-7.3c-0.8-4.2-2.7-8.1-3.5-12.2c-0.5-2.4-1.7-4.4-2.6-6.6c-0.9-2.2-1.2-4.7-2.2-6.9
		c-0.8-1.7-1-3.7-2.4-5.1c-0.1-0.5-0.2-1-0.2-1.5c-0.3-1.7-0.9-3.4-2-4.8c-0.1-0.4-0.2-0.8-0.3-1.2C72.7,115.2,72.3,115.1,71.8,115z
		"/>
	<path display="inline" fill="#000033" d="M98.6,198.1c2.3-1.4,3.6-3.9,6.4-4.8c-0.8,1.2-1.6,2.5-2.5,3.6c-1.3,1.7-3.3,2.8-4.2,4.9
		c-0.1,0.3-0.4,0.6-0.8,0.5c-0.4-0.2-0.4-0.6-0.3-0.9c0.6-2.8,0.1-5.7,0.5-8.5c0.1-1,1.1-2,1.8-2.9c1.8-2,3.7-4,5.4-6
		c0.6-0.6,1.1-0.9,1.8-0.4c0.8,0.6,0.1,1.1-0.2,1.6c-0.8,1.1-1.4,2.2-1.6,3.6c-0.1,0.8-0.7,1.4-1.4,1.9c-1.7,1.3-3.2,2.9-4.3,4.7
		C98.6,196.2,98.1,197.1,98.6,198.1z"/>
	<path display="inline" fill="#000033" d="M302.5,502.4c-0.3,0-0.5,0.1-0.8,0.1c-1.4-0.9-2.2,0.2-3,1.1c-0.3,0.1-0.5,0.1-0.8,0.2
		c-2.2,0-4.3,0-5.9,1.9c-0.3,0.1-0.5,0.1-0.8,0.2c-2.3-0.4-4.3,0.2-5.9,1.9c-0.3,0.1-0.5,0.1-0.8,0.2c-2.2-1-4.7-1.3-6.2-3.6
		c-0.3-0.4-1.2-0.7-1.8-1.2c-1.5-1.2-3.3-0.8-4.2,0.8c-0.7,1.3-1.4,2.5-2.1,3.8c-0.3,0.6-0.8,1-1.5,1c-0.8,0-1-0.6-1.2-1.2
		c-0.8-2.6-2.2-4.9-3.5-7.2c-0.5-0.9-0.7-2,0.3-2.8c0.4-0.4,0.9-0.9,0.4-1.4c-0.9-0.8-0.2-1.5-0.2-2.3c2.8-1.6,5.9-2.6,8.6-4.6
		c0,0,0,0,0,0c0.8,0.1,1.4-0.5,2-0.8c0.4,0,0.8,0,1-0.5c6.5-3.2,13-6.5,19.5-9.7c2.4-1.2,4.9-2.4,7.3-3.6c0.4,0.3,1,0.4,1.1,1.1
		c0.2,2.3,1.4,4.4,1.3,6.7c-0.1,0.8,0.2,1.3,1.2,1.3c0,0.7,0.1,1.4,0.1,2c-0.7,0.9-1,1.8,0.3,2.5c0,0.8,0.1,1.6,0.1,2.5
		c-0.9,0.8-0.5,1.8-0.4,2.7c0.5,3.7-0.6,6-3.8,8C302.7,501.7,302.6,502.1,302.5,502.4z"/>
	<path display="inline" fill="#FFFFFF" d="M264.6,493.8c-0.1,0.8-0.7,1.5,0.2,2.3c0.5,0.5,0,1-0.4,1.4c-1,0.8-0.8,1.9-0.3,2.8
		c1.3,2.3,2.7,4.6,3.5,7.2c0.2,0.6,0.4,1.2,1.2,1.2c0.7,0,1.1-0.4,1.5-1c0.7-1.2,1.4-2.5,2.1-3.8c0.9-1.6,2.7-2,4.2-0.8
		c0.6,0.5,1.5,0.8,1.8,1.2c1.5,2.3,4,2.6,6.2,3.6c-2.5,1.5-5.3,1.8-8,2.7c-3.1,1.1-6.1,2.4-9.2,3.1c-3.2,0.7-6.4,1.6-9.5,2.6
		c-4.7,1.4-9.5,2.8-14.2,4.3c-3.2,1-6.6,1.5-10,0.7c-1.3-0.3-1.7-1.1-0.7-2c1-1,0.9-2,0.6-3.1c-0.3-1.1-0.8-2.3-2.1-2.1
		c-1.2,0.2-0.4,1.5-0.6,2.3c-0.5,2.3,1.3,4.5,0.4,6.9c-0.3,0.8-0.2,1.8-1.3,1.7c-1-0.1-1.2-1-1.2-1.9c0.2-2.9-0.4-5.6-0.8-8.5
		c-0.2-1.6-0.3-2.9,2.1-3.6c3.2-0.9,6.1-2.9,9.1-4.4C247.6,502.3,256.1,498.1,264.6,493.8z"/>
	<path display="inline" fill="#D6D6D4" d="M346.4,477c2.4,0.9,5.3,1.7,7.5,4.1c0.1,0.1,0.2,0.2,0.3,0.3c1.9,2,1.9,2-0.2,3.8
		c-0.5,0.4-0.8,0.9-0.3,1.4c1,1.1,0.4,1.9-0.5,2.6c-1.1,0.9-1.6,2.1-1.9,3.6c-0.3,1.7-1.3,2.8-3.1,2.6c-2-0.1-1.9-1.6-1.9-3
		c0-1.1-0.1-2.2-0.3-3.3c-0.4-1.6-0.7-3.2-0.2-4.9c0.4-1.3,0.4-2.8-1.1-3.9c-0.8-0.6-0.7-2-0.5-2.9
		C344.2,476.7,345.3,477.1,346.4,477z"/>
	<path display="inline" fill="#F8F8FA" d="M325.5,467.6c1.5-0.2,3.1-0.6,4.2,1.1c-1.4,3.9-1.1,8-1.2,11.9c-0.1,4.8,0.5,9.7,0.8,14.5
		c0.1,1.9-0.3,3-1.8,3.8c-0.5,0.2-1,0.2-1.5,0c-1.4-0.8-0.9-2-0.9-3.2c0.1-3.9,0-7.7,0.1-11.6C325.3,478.6,326.3,473.1,325.5,467.6z
		"/>
	<path display="inline" fill="#D6D6D4" d="M216.2,515.4c1.3,0.3,2.5-0.1,3.8-0.2c-0.5,0.9-0.5,1.8-0.3,2.8c0.6,3.4,0.4,6.7,0.1,10.1
		c0,0.5-0.4,1.1,0.4,1.3c0.8,0.2,1.4-0.3,1.4-1.1c0.1-4.4-0.2-8.8-0.9-13.2c1.1-0.3,2.1,0.5,3.3,0.3c0.5-0.1,0.9,0.2,0.9,0.7
		c0,3.5,1.8,6.8,1.3,10.4c-0.1,0.9-0.2,1.6-1.3,1.7c-1.3,0.1-1.6,1.7-3,2c-2.7,0.6-3.7-0.1-3.1-2.8c0.8-3.3,0.3-6.3-0.9-9.4
		c-0.6,2.7-0.9,5.3-0.8,8c0,0.8,0.1,1.7,0,2.5c0,0.7-0.2,1.4-1.2,0.9c0.8-1.3-0.3-2.7,0-4C216.5,522.2,216.1,518.8,216.2,515.4z"/>
	<path display="inline" fill="#F8F8FA" d="M316.5,485.4c-0.4-1.5-0.2-3-0.2-4.5c0.6-0.6,0.4-1.3,0.4-1.9c0-3.3-0.4-6.6-0.9-9.8
		c0.7-0.8,1.7-0.6,2.6-0.7c1.1,0.9-0.7,2.4,0.5,3.3c0,1.8,0.5,3.6,0.2,5.4c-0.5,1.9-1,3.7,0.3,5.5c0,0.4,0.1,0.8,0.1,1.2
		c-0.5,0.4-0.4,1-0.4,1.5c-0.2,3.9,0.4,7.7,0.6,11.5c0.1,1.1-0.1,1.7-1.1,1.8c-1.1,0.1-1-0.8-1.1-1.6c-0.2-1.1,0.5-2.4-0.5-3.3
		c0-1.5,0-2.9-0.1-4.4C317,488,317.7,486.6,316.5,485.4z"/>
	<path display="inline" fill="#D6D6D4" d="M317,493.7c1,1,0.4,2.2,0.5,3.3c0.1,0.8,0.1,1.7,1.1,1.6c0.9-0.1,1.1-0.7,1.1-1.8
		c-0.2-3.8-0.8-7.7-0.6-11.5c0-0.5-0.1-1.1,0.4-1.5c0.8,0.5,0.5,1.2,0.5,1.9c-0.1,3,0.2,6.1,0.4,9.1c0,0.7,0.2,1.2,0.6,1.7
		c0.2,0.3,0.5,0.5,0.8,0.5c0.4-0.1,0.5-0.4,0.6-0.7c0.2-2.4,0.6-4.8,0.9-7.1c0.7-5.2,0.3-10.5,1.5-15.7c0.3-1.5,0.3-3.1-0.5-4.5
		c-1.1-1.9,0.1-1.4,1.1-1.3c0.8,5.5-0.2,11-0.3,16.4c-0.1,3.9-0.1,7.7-0.1,11.6c0,1.2-0.5,2.4,0.9,3.2c-2.5,0-5-0.5-7.5,0.6
		c-0.8,0.4-1.6-0.2-1.7-1.1C316.7,496.8,316.3,495.2,317,493.7z"/>
	<path display="inline" fill="#D6D6D4" d="M333.7,494c0-3-0.3-5.5,0.1-8c0.6-4.3,0.4-8.6,1.1-12.8c0.1-0.7-0.1-1.7,0.9-1.8
		c1.1-0.1,1.3,0.8,1.4,1.7c0.6,3-0.3,6.1-0.2,9.1c0,3.2-0.9,6.3-1.5,9.4C335.3,492.4,335,493.1,333.7,494z"/>
	<path display="inline" fill="#D6D6D4" d="M213.4,529.4c-4.2,0.1-4.3-1.5-3.7-4c0.6-2.6,1-5.3,1.1-8c0.1-2.1,1-2.3,2.6-1.9
		C213.4,520.2,214,524.8,213.4,529.4z"/>
	<path display="inline" fill="#D6D6D4" d="M327.4,498.9c1.6-0.8,1.9-1.9,1.8-3.8c-0.3-4.8-0.9-9.7-0.8-14.5c0.1-4-0.2-8,1.2-11.9
		c1.7,0.9,0.8,2.5,0.7,3.7c-0.4,3.4-0.2,6.7,0,10.1c0.3,4.9,0.2,9.8,0,14.7C330.3,498.9,329.1,499.4,327.4,498.9z"/>
	<path display="inline" fill="#D6D6D4" d="M430,513.4c2.9-0.1,2.9-0.1,2.9,2.7c0,2.8,0.7,5.4,1,8.2c0.2,2.1-0.6,2.3-2.1,2.4
		c-0.3,0-0.5,0-0.8,0.1C430.1,522.3,429.8,517.9,430,513.4z"/>
	<path display="inline" fill="#F8F8FA" d="M311.7,465.2c-0.2-0.7-0.6-1.3,0.8-1.5c3.7-0.4,7.4,0.2,11.1,0.1c3.2,0,6.5-0.8,9.7,0.1
		c0.1,0.8-1.3,0.4-1.3,1.2c-1.1,0.3-2.2,0.2-3.3,0.2c-2.4-0.2-4.7,0.4-7,0.8c-1-0.1-2-0.1-2.9-0.2c-1.2-0.7-2.4-1.2-3.7-0.6
		c-1.1,0-2.1,0-3.2,0c0,0,0,0,0,0L311.7,465.2z"/>
	<path display="inline" fill="#000033" d="M213.4,529.4c0.6-4.6,0-9.2,0-13.8c0.9-0.4,1.9-0.3,2.9-0.1c-0.1,3.4,0.3,6.8-0.4,10.1
		c-0.3,1.3,0.8,2.7,0,4C215,529.8,214.2,529.8,213.4,529.4z"/>
	<path display="inline" fill="#D6D6D4" d="M424.7,526.2c0.4,0.3,0.4,0.8,0.1,1.1c-0.9,1.1-2,0.5-3,0.1c-1-0.3-2.2-0.6-2.1-1.9
		c0.4-3.5,0.1-7.1,0.9-10.6c0.3-1.3,0.8-1.6,1.9-1.4c0.2,1.2,0.6,2.4,0.3,3.7c-0.6,2.7-0.2,5.4-0.4,8.1c0,0.6-0.3,1.3,0.4,1.7
		C423.8,527.4,424.1,526.4,424.7,526.2z"/>
	<path display="inline" fill="#F8F8FA" d="M424.7,526.2c-0.6,0.2-0.9,1.2-1.8,0.7c-0.7-0.4-0.4-1.1-0.4-1.7c0.1-2.7-0.3-5.4,0.4-8.1
		c0.3-1.2-0.2-2.5-0.3-3.7c0.7,0,1.3,0,2-0.1c0,3.9,0.1,7.8,0.1,11.7C424.7,525.5,424.7,525.9,424.7,526.2z"/>
	<path display="inline" fill="#F8F8FA" d="M430,513.4c-0.2,4.5,0.1,8.9,0.9,13.4c-0.4,0.8-0.9,0.8-1.6,0.5c-0.1-0.3-0.2-0.5-0.6-0.6
		c0-1.5-0.1-2.9-0.1-4.4c0.2-1.3,0.5-2.7-0.2-3.9c0-0.7-0.1-1.3-0.1-2c0.1-0.8,0.4-1.6-0.4-2.2c0-0.1,0-0.3,0-0.4
		c0.1-0.1,0.3-0.2,0.4-0.4C428.9,513.2,429.4,513.2,430,513.4z"/>
	<path display="inline" fill="#000033" d="M220.8,515.2c0.7,4.4,1,8.8,0.9,13.2c0,0.8-0.6,1.3-1.4,1.1c-0.8-0.2-0.4-0.8-0.4-1.3
		c0.2-3.4,0.4-6.8-0.1-10.1c-0.2-1-0.1-1.9,0.3-2.8C220.3,515.2,220.5,515.2,220.8,515.2z"/>
	<path display="inline" fill="#D6D6D4" d="M302.5,502.4c0.2-0.3,0.2-0.7,0.5-0.9c3.2-2,4.3-4.3,3.8-8c-0.1-0.9-0.5-1.9,0.4-2.7
		c1.1,2.8,0.8,5.7,1.1,8.6c0,0.3-0.4,0.7-0.8,0.9C305.9,501.2,304.4,502.4,302.5,502.4z"/>
	<path display="inline" fill="#D6D6D4" d="M315.8,469.1c0.5,3.3,0.9,6.5,0.9,9.8c0,0.7,0.2,1.4-0.4,1.9c-0.9-2.1-0.4-4.5-0.9-6.7
		c-0.2-0.9,0-2-0.6-2.6C313.1,469.9,314.7,469.6,315.8,469.1z"/>
	<path display="inline" fill="#D6D6D4" d="M306.6,483.8c-0.9,0-1.2-0.4-1.2-1.3c0.2-2.3-1.1-4.4-1.3-6.7c-0.1-0.7-0.6-0.8-1.1-1.1
		c1-0.9,1.7-1,2,0.7C305.6,478.2,306.8,480.9,306.6,483.8z"/>
	<path display="inline" fill="#D6D6D4" d="M424.7,525.2c0-3.9-0.1-7.8-0.1-11.7c0.5,0,1.2-0.2,1.1,0.7c-0.5,3.1-0.1,6.2-0.2,9.2
		C425.4,524,425.5,524.8,424.7,525.2z"/>
	<path display="inline" fill="#D6D6D4" d="M353.2,476.3c2.7,1,5.4,2,7.7,3.9C358.2,479.3,355.6,478.1,353.2,476.3z"/>
	<path display="inline" fill="#D6D6D4" d="M321.7,466.1c2.3-0.3,4.6-0.9,7-0.8C326.5,466.3,324.2,467.2,321.7,466.1z"/>
	<path display="inline" fill="#D6D6D4" d="M292,505.7c1.6-1.9,3.7-2,5.9-1.9C296.2,505.1,294.1,505.5,292,505.7z"/>
	<path display="inline" fill="#D6D6D4" d="M285.4,507.8c1.6-1.7,3.6-2.3,5.9-1.9C289.4,506.9,287.4,507.4,285.4,507.8z"/>
	<path display="inline" fill="#D6D6D4" d="M319.4,482.5c-1.3-1.8-0.8-3.6-0.3-5.5C320,478.9,319.6,480.7,319.4,482.5z"/>
	<path display="inline" fill="#D6D6D4" d="M318.9,471.7c-1.3-0.9,0.6-2.3-0.5-3.3c0.3-0.5,0.7-0.6,1.2-0.4c0.7,0.3,0.2,0.8,0.1,1.2
		C319.5,470.1,319.4,471,318.9,471.7z"/>
	<path display="inline" fill="#D6D6D4" d="M428.4,518.3c0.8,1.3,0.4,2.6,0.2,3.9C427.6,521,427.7,519.7,428.4,518.3z"/>
	<path display="inline" fill="#D6D6D4" d="M316.5,485.4c1.2,1.2,0.5,2.7,0.5,4C315.8,488.1,316.3,486.7,316.5,485.4z"/>
	<path display="inline" fill="#D6D6D4" d="M315,465.3c1.4-0.6,2.6-0.1,3.7,0.6C317.4,466.5,316.2,466,315,465.3z"/>
	<path display="inline" fill="#D6D6D4" d="M364,481.8c1.4,0.1,2.6,0.6,3.6,1.8C366.2,483.3,365,482.7,364,481.8z"/>
	<path display="inline" fill="#D6D6D4" d="M368.3,483.8c1.1,0.2,2.3,0.5,3,1.5C370.1,485.1,369,484.8,368.3,483.8z"/>
	<path display="inline" fill="#D6D6D4" d="M298.7,503.6c0.8-0.9,1.5-2,3-1.1C300.8,503.2,299.9,503.8,298.7,503.6z"/>
	<path display="inline" fill="#D6D6D4" d="M307,488.4c-1.3-0.7-1-1.6-0.3-2.5C307.4,486.6,307.2,487.5,307,488.4z"/>
	<path display="inline" fill="#D6D6D4" d="M427.9,514.2c0.8,0.6,0.5,1.4,0.4,2.2C427.2,515.8,427.5,515,427.9,514.2z"/>
	<path display="inline" fill="#D6D6D4" d="M361.5,480.5c0.9-0.2,1.6,0,1.8,1C362.6,481.4,362,481.1,361.5,480.5z"/>
	<path display="inline" fill="#D6D6D4" d="M276.2,487.9c-0.2,0.5-0.6,0.5-1,0.5C275.4,488,275.6,487.3,276.2,487.9z"/>
	<path display="inline" fill="#D6D6D4" d="M428.7,526.6c0.3,0.1,0.5,0.3,0.6,0.6c-0.2,0.2-0.5,0.2-0.7,0
		C428.3,527,428.4,526.8,428.7,526.6z"/>
	<path display="inline" fill="#D6D6D4" d="M311.9,465.3C311.9,465.3,311.9,465.3,311.9,465.3c0,0.1,0,0.2,0,0.3c0,0-0.1-0.1-0.1-0.1
		C311.8,465.4,311.8,465.4,311.9,465.3z"/>
	<path display="inline" fill="#D6D6D4" d="M428.3,513.4c-0.1,0.1-0.3,0.2-0.4,0.4C427.9,513.5,428.1,513.4,428.3,513.4z"/>
	<path display="inline" fill="#D6D6D4" d="M273.2,489.2C273.2,489.2,273.2,489.2,273.2,489.2C273.2,489.2,273.2,489.2,273.2,489.2z"
		/>
	<path display="inline" fill="#D6D6D4" d="M74.7,123.3c1.4,1.4,1.7,3.4,2.4,5.1c1,2.2,1.3,4.7,2.2,6.9c0.9,2.2,2.2,4.3,2.6,6.6
		c0.9,4.2,2.8,8,3.5,12.2c0.4,2.5,1.7,4.8,2.2,7.3c1,4.9,3.1,9.6,3.5,14.6c0.1,1.2,1.1,2.1,0.7,3.4c-0.8-0.6-1.7-2.2-2.5,0.8
		c-0.2-4.3-1.6-7.5-2.4-10.9c-1.6-7.1-3.1-14.1-5-21.1c-0.5-1.8-1.1-3.7-1.1-5.7c0-1.4-0.9-2.7-1.4-4c-1.7-4.8-2.5-9.9-4.8-14.4
		C74.6,123.9,74.7,123.6,74.7,123.3z"/>
	<path display="inline" fill="#D6D6D4" d="M60,89.6c1,1.1,2.7,1.8,2.1,3.8C61.1,92.2,60.4,91,60,89.6z"/>
	<path display="inline" fill="#D6D6D4" d="M72.5,117c1.2,1.4,1.7,3,2,4.8C73.3,120.4,72.6,118.8,72.5,117z"/>
	<path display="inline" fill="#D6D6D4" d="M92,182.9c0.6,0.7,2.2,1.2,0.8,2.6C92.2,184.7,91.2,184.1,92,182.9z"/>
	<path display="inline" fill="#D6D6D4" d="M104.6,228.3c0.7,0.8,1.2,1.8,1,2.9C104.8,230.4,104.5,229.4,104.6,228.3z"/>
	<path display="inline" fill="#D6D6D4" d="M62.6,94.1c1,0.6,1.5,1.5,1.4,2.7C63,96.2,62.8,95.2,62.6,94.1z"/>
	<path display="inline" fill="#D6D6D4" d="M105.8,232c0.6,0.5,0.9,1.1,0.7,1.8C105.9,233.4,105.4,232.9,105.8,232z"/>
	<path display="inline" fill="#D6D6D4" d="M107.9,237.8c0.6,0.3,1,0.7,0.8,1.5C108.1,239,107.5,238.7,107.9,237.8z"/>
	<path display="inline" fill="#D6D6D4" d="M64.6,98.3c0.7,0.1,0.8,0.5,0.6,1.1C64.9,99.1,64.6,98.8,64.6,98.3z"/>
	<path display="inline" fill="#D6D6D4" d="M71.8,115c0.5,0.1,0.9,0.3,0.4,0.9C71.8,115.6,71.7,115.3,71.8,115z"/>
	<path display="inline" fill="#D6D6D4" d="M104.1,226.6c0.4,0.2,0.6,0.4,0.4,0.8C104.1,227.3,103.9,227,104.1,226.6z"/>
	<path display="inline" fill="#00CB00" d="M404.9,402.2c-0.1,0.5-0.5,0.7-0.9,0.7c-1.3-0.1-2.4,0.4-3.5,1c-0.6,0.3-1.5,0.6-1.7-0.3
		c-0.2-0.7,0.5-1.1,1.1-1.3c1.3-0.3,2.7-0.5,4.1-0.7C404.3,401.6,404.8,401.6,404.9,402.2z"/>
	<path display="inline" fill="#D6D6D4" d="M173,222.9c-0.8-0.7-1-1.6-0.8-2.7C173.3,220.9,173.6,221.8,173,222.9z"/>
	<path display="inline" fill="#00CB00" d="M310.8,457.6c0-1.2,0-2.3,0-3.5c0-0.4,0-0.9,0.5-1c0.5-0.2,0.9,0.1,1.2,0.5
		c0.8,1,1.2,2.1,1.2,3.4c0,1.1-0.3,2.3,0.5,3.4c0.4,0.5,1.1,1.3,0.5,1.8c-0.7,0.7-1.7,0.9-2.7,0.6c-0.8-0.2-1.2-0.8-1.2-1.7
		C310.8,459.9,310.8,458.7,310.8,457.6C310.8,457.6,310.8,457.6,310.8,457.6z"/>
	<path display="inline" fill="#D6D6D4" d="M406.7,498.4c-1.3,0.4-2.5,0.6-3.8-0.1C404.2,497.6,405.4,497.7,406.7,498.4z"/>
	<path display="inline" fill="#D6D6D4" d="M479.5,488.3c0.5,4.3,0.6,8.7,0.4,13.1c-0.7-0.2-0.8-0.7-0.8-1.3c0.1-3.4-0.2-6.7-0.4-10
		C478.7,489.4,478.4,488.5,479.5,488.3z"/>
	<path display="inline" fill="#D6D6D4" d="M484.9,494.2c-0.6-1.5-0.6-3,0-4.6C485.5,491.1,485.6,492.6,484.9,494.2z"/>
	<path display="inline" fill="#D6D6D4" d="M366.8,326.8c1.6,0.9,3.5,1.4,5,2.3c1.4,0.7,2.8,1.4,4.1,2.2c0.3,0.2,0.6,0.3,0.5,0.7
		c-0.1,0.6-0.6,0.5-1,0.3c-3-1.5-6-3-8.9-4.5c-0.3-0.1-0.4-0.4-0.3-0.7C366.4,327,366.7,326.9,366.8,326.8z"/>
	<path display="inline" fill="#D6D6D4" d="M326.2,315c-0.2,0.1-0.4,0.3-0.5,0.3c-0.3,0-0.5-0.1-0.4-0.5c0-0.1,0.3-0.2,0.5-0.2
		C325.8,314.7,326,314.9,326.2,315z"/>
	<path display="inline" fill="#92765D" d="M354.4,423c-0.1,0.1-0.2,0.1-0.3,0.2c-0.1-0.1-0.1-0.3-0.2-0.4c0.1,0,0.2-0.1,0.3-0.1
		C354.4,422.7,354.4,422.9,354.4,423z"/>
</g>
<g id="Layer_7">
	
		<image overflow="visible" width="1440" height="1440" xlink:href="../../../../../../../Desktop/9880.jpg"  transform="matrix(0.4167 0 0 0.4167 0 0)">
	</image>
</g>
<g id="Layer_8">
	<path fill="#000033" stroke="#00CB00" stroke-miterlimit="10" d="M518,291.1c20.3,5.8,28.5,14.4,34.5,21.4c9,10.5,7.4,38.2-8,46.5
		s-85,31-120.5,21.5s-229.8,25.4-242,19c-9.5-5-24.8-13.3-28-33.2c-5.2-32.8,153.2-49.3,174.8-53.4c46.5-8.8,41.2,3.3,60.2-0.4
		C418.5,306.8,490.4,283.2,518,291.1z"/>
	<polygon fill="#00CB00" stroke="#000033" stroke-miterlimit="10" points="85.3,225.4 93.3,250.1 102,251.1 90.7,218.1 	"/>
	<polygon fill="#00CB00" stroke="#000033" stroke-miterlimit="10" points="102,222.8 110,243.4 99.9,245 92.8,224.2 	"/>
	<polygon fill="#00CB00" stroke="#000033" stroke-miterlimit="10" points="170,215 178,239.7 186.7,240.7 175.3,207.7 	"/>
	<polygon fill="#00CB00" stroke="#000033" stroke-miterlimit="10" points="186.7,212.3 194.7,233 184.6,234.6 177.4,213.8 	"/>
	<path fill="#00CB00" stroke="#000033" stroke-miterlimit="10" d="M110,281.3c17.6-5.5,154-20,171.3-19.3c17.3,0.7,22.5,35,22,43.3
		c-0.4,6.6-7.7,10.7-20.7,13.3c-13,2.7-111.7,31-120,28.7c-8.3-2.3-13.1-40.3-20.4-45.1c-5.4-3.5-27-1.4-32.3-2.3
		C106.6,299.5,106.4,282.5,110,281.3z"/>
	<path fill="#00CB00" stroke="#000033" stroke-miterlimit="10" d="M89.8,246.8c-2.3-8.8,13.5-2.5,22.3,7.5
		c10.5,12,16.7,43.4,30.3,48c16.8,5.8,34.1-2.3,50.5-2.3c12.3,0,19,13.6,13,24.3c-3.4,5.9-36.3,34.8-40.8,42.3
		c-4.5,7.5-8.5,11.2-3.5,17.5c5.1,6.4,21.3,3,21.3,3s-27.2,6.9-28.5-1.3C152.5,374.8,91.6,253.8,89.8,246.8z"/>
	<path fill="#000033" stroke="#00CB00" stroke-miterlimit="10" d="M110,281.3c17.6-5.5,154-20,171.3-19.3c17.3,0.7,22.5,35,22,43.3
		c-0.7,10.8-20.1,14-17.3,12.6c13.5-6.7,10.6-35.6-4.7-39.2c-8.4-2-103.9,9.7-117.3,11.7c-6.3,1-49,9.6-54,9.6
		C106.5,300,106.4,282.5,110,281.3z"/>
	<path fill="#00CB00" stroke="#000033" stroke-miterlimit="10" d="M202.7,345.9c10.1-14.6,6.7-33.7,11.8-39.9c8-9.9,44.5-19,55-13
		s18,25,30.5,29.7c15.7,5.9,43.5-4.7,70.8,10.3c24.4,13.4,37.4,36.4,55.2,44c15.5,6.6,106.9-12.8,118.4-20.4
		c22.1-14.5,3.4-47.6,8.1-44.1c13.5,10,11.5,39.5-3.5,48c-33.3,18.9-96.4,27.1-110.5,30c-52.1,10.6-183.5,47.5-243,51
		c-23.9,1.4-49.1-31.9-33.5-53.5C179.8,363.4,192.7,360.4,202.7,345.9z"/>
	<path fill="none" stroke="#000033" stroke-miterlimit="10" d="M103.3,364"/>
	<path fill="#000033" stroke="#00CB00" stroke-miterlimit="10" d="M85.3,221c-6.7-10.8,6-18,2.7-32.7c-3.3-14.7-35-108-40-112
		s8-6.7,10-6.7S160.3,66,168,64s36.3-3.7,55.7,5s61,79.9,36.7,121.7c-16,27.4-97.2,26.1-116.3,30.3C136,222.8,88.3,225.8,85.3,221z"
		/>
	<path fill="#00CB00" stroke="#000033" stroke-miterlimit="10" d="M44.5,73c-1.1,3.2,33.3,117.5,35,149c0.3,5,17.6,4.6,23,2
		c4.9-2.4-15.9,1.6-15-4.7c0.7-4.9,5-9.5,3.2-30.7C88.5,164.1,63.1,85.1,52,77c-3-2.2,1.3-5.5,0-5.5C48.2,71.5,45.1,71.3,44.5,73z"
		/>
</g>
</svg>
