<svg width="392" height="392" xmlns="http://www.w3.org/2000/svg">
 <style type="text/css">.st0{fill:#E6E7E8;stroke:#000000;stroke-width:2;stroke-miterlimit:10;}
	.st1{fill:#F15C2B;stroke:#000000;}
	.st2{fill:#ED1C24;stroke:#000000;stroke-width:1.1704;stroke-miterlimit:10;}
	.st3{stroke:#000000;stroke-width:1.1704;stroke-miterlimit:10;}
	.st4{fill:#FFFFFF;stroke:#000000;stroke-miterlimit:10;}
	.st5{fill:#ED1C24;stroke:#000000;stroke-miterlimit:10;}
	.st6{fill:#FDDD07;stroke:#000000;stroke-miterlimit:10;}
	.st7{fill:none;stroke:#FFFFFF;stroke-width:3;stroke-miterlimit:10;}</style>

 <g>
  <title>background</title>
  <rect fill="none" id="canvas_background" height="394" width="394" y="-1" x="-1"/>
 </g>
 <g>
  <title>Layer 1</title>
  <rect id="svg_1" height="392" width="392" class="st0" y="0.7" x="1.2"/>
  <path id="svg_2" d="m393.2,392.7l-197.5,0l0,-35.8l82.1,0c0,0 16.1,-12.2 52,-0.4c35.9,11.8 22.9,-14.8 63.3,0.4l0,35.8l0.1,0z" class="st1"/>
  <path id="svg_3" d="m270,290.2l-34.5,9.7c-4.5,1.3 -9.1,-1.4 -10.4,-5.8l0,0c-1.3,-4.5 1.4,-9.1 5.8,-10.4l34.5,-9.7c4.5,-1.3 9.1,1.4 10.4,5.8l0,0c1.3,4.5 -1.3,9.2 -5.8,10.4z" class="st2"/>
  <path id="svg_4" d="m241.8,316.4c11.1,-3.1 22.7,3.4 25.8,14.5c3.1,11.1 -3.4,22.7 -14.5,25.8c-11.1,3.1 -22.7,-3.4 -25.8,-14.5c-3.1,-11.1 3.3,-22.7 14.5,-25.8zm-6,23.4c1.8,6.4 8.5,10.1 14.9,8.3c6.4,-1.8 10.2,-8.5 8.4,-14.9c-1.8,-6.4 -8.5,-10.1 -14.9,-8.3c-6.4,1.9 -10.2,8.5 -8.4,14.9z" class="st3"/>
  <circle id="svg_5" r="22.6" cy="292.1" cx="112.4" class="st2"/>
  <g id="svg_6">
   <path id="svg_7" d="m219,232.7c-20.8,-25.5 -14.4,-41.9 -16.5,-40.3c-9.4,7.1 -28.5,6.8 -51.9,16.6c-21.6,9.1 -19,9.5 -24.7,9.6l-18.1,-0.7c-17.8,-5.5 -26.6,-27.7 -22.3,-46.8l8.5,-34.1l9.1,-36.4c3.1,-13.6 13,-23.2 24.8,-25.6c0,0 4.1,-4.7 5.8,-9s3.7,-19.6 3.7,-19.6c-4.8,-8.2 -7.2,-15.1 -5.2,-23.8c2.8,-12.6 15,-19.8 27.1,-16c12.2,3.7 20.3,11.9 17.5,24.4c-1,4.3 0,32.9 -17.1,33.5c0,0 -2.8,5 -3.2,9.3c-0.4,4.4 0.9,10.8 0.9,10.8c8.8,9 14.4,14.2 10.1,35.8s-23.8,44.1 -18.3,45.3l42.4,-3c29.7,-6.3 35.4,7 38.2,16.2c0,0 9.6,33.4 10.2,41c0.6,7.7 7.1,40.5 12.9,41.9s24.7,-1.1 25.7,5.2c0.7,4 -10.1,6.3 -21.5,9c-11.4,2.7 -19.5,5.2 -23.9,-5.2l-14.2,-38.1z" class="st4"/>
  </g>
  <g id="svg_8">
   <path id="svg_9" d="m248.3,315.6l-7.8,1.2l-0.6,-16.4c0,0 -0.5,-3.2 -1.5,-6.9c-1,-3.7 -6.7,-9.9 -6.7,-9.9l-49.2,-38.3c0,0 -3,-3.1 -6.1,-4.8c-3,-1.8 -5,-1.6 -5,-1.6l-67.4,17.8c0,0 -10.6,3.7 -17.9,-0.6c-7.3,-4.3 -12.5,-15 -12.5,-15l-31,-56c-2,-3.6 -0.7,-8.1 2.9,-10.1l0,0c3.6,-2 8.1,-0.7 10.1,2.9l31.3,56.5c0,0 1.7,4.6 6.2,7.3c4.5,2.6 6.5,0.8 6.5,0.8l70.2,-18.6c0,0 5.5,-1.9 11.3,1.5c5.8,3.4 8.3,6.2 8.3,6.2l50,39.3l7.1,8.2c0,0 4.4,7.5 6.8,16.7c1.1,4 1.7,12.9 2.1,21.6l-7.1,-1.8z" class="st5"/>
   <path id="svg_10" d="m186.4,208.8c-1.5,-5.5 -7.2,-8.8 -12.7,-7.4l-69.3,18.3c-5.5,1.5 -8.8,7.2 -7.4,12.7l0,0c1.5,5.5 7.1,8.8 12.7,7.4l69.3,-18.3c5.5,-1.5 8.8,-7.2 7.4,-12.7l0,0z" class="st6"/>
   <path id="svg_11" d="m56.4,157.7c-5,2.8 -6.8,9.1 -4,14.1l25.2,45.4c2.8,5 9.1,6.8 14.1,4l0,0c5,-2.8 6.8,-9.1 4,-14.1l-25.2,-45.4c-2.8,-5 -9.1,-6.8 -14.1,-4l0,0z" class="st6"/>
  </g>
  <path id="svg_12" d="m85.5,196.1c53,-14.9 108,16 122.9,69c14.9,53 -16,108 -69,122.9c-53,14.9 -108,-16 -122.9,-69c-14.9,-52.9 16,-108 69,-122.9zm-49.8,117.6c11.9,42.4 55.9,67.1 98.3,55.2c42.4,-11.9 67.1,-55.9 55.2,-98.3c-11.9,-42.4 -55.9,-67.1 -98.3,-55.2c-42.4,11.8 -67.2,55.9 -55.2,98.3z" class="st3"/>
  <path id="svg_13" d="m87.3,202.2c50.1,-14.1 102.1,15.1 116.2,65.2c14.1,50.1 -15.1,102.1 -65.2,116.2c-50.1,14.1 -102.1,-15.1 -116.2,-65.2c-14.1,-50.1 15.1,-102.1 65.2,-116.2z" class="st7"/>
  <g id="svg_14">
   <path id="svg_15" d="m158.3,199.6c2.1,2.8 6.9,5.7 8.1,10.3c2.7,10.3 1.1,20.1 -3.6,21.8c-4.7,1.7 -10.6,-5.3 -13.3,-15.7c-1.2,-4.6 -4.5,-8.1 -4.1,-11.8l0,0c-2.7,-5.2 -10.3,-9.2 -12.3,-17.1l-14.5,-22.7l-3.8,-21.8l-4,-20c-2,-5 -1.4,-12.2 -2.3,-17.8c-2.1,-13.2 9.6,-29.6 23.5,-30.9c13.9,-1.3 28.9,8.2 29,21.6c0.2,14.7 -6.6,21 -10.4,27.9l-6.7,18.4l-5.2,19.2l11.3,19.9c1.9,8.1 8,12.6 8.3,18.7l0,0z" class="st4"/>
  </g>
 </g>
</svg>