<?xml version="1.0" encoding="utf-8"?>
<!-- Generator: Adobe Illustrator 22.0.1, SVG Export Plug-In . SVG Version: 6.00 Build 0)  -->
<svg version="1.1" id="Layer_1" xmlns="http://www.w3.org/2000/svg" xmlns:xlink="http://www.w3.org/1999/xlink" x="0px" y="0px"
	 viewBox="0 0 576 576" style="enable-background:new 0 0 576 576;" xml:space="preserve">
<style type="text/css">
	.st0{fill:#E6E7E8;stroke:#000000;stroke-width:2;stroke-miterlimit:10;}
	.st1{fill:#F15C2B;stroke:#000000;}
	.st2{fill:#ED1C24;stroke:#000000;stroke-width:1.1704;stroke-miterlimit:10;}
	.st3{stroke:#000000;stroke-width:1.1704;stroke-miterlimit:10;}
	.st4{fill:#FFFFFF;stroke:#000000;stroke-miterlimit:10;}
	.st5{fill:#ED1C24;stroke:#000000;stroke-miterlimit:10;}
	.st6{fill:#FDDD07;stroke:#000000;stroke-miterlimit:10;}
	.st7{fill:none;stroke:#FFFFFF;stroke-width:3;stroke-miterlimit:10;}
</style>
<rect x="96.2" y="107.7" class="st0" width="392" height="392"/>
<path class="st1" d="M488.2,499.7H290.7v-35.8h82.1c0,0,16.1-12.2,52-0.4c35.9,11.8,22.9-14.8,63.3,0.4V499.7z"/>
<path class="st2" d="M365,397.2l-34.5,9.7c-4.5,1.3-9.1-1.4-10.4-5.8v0c-1.3-4.5,1.4-9.1,5.8-10.4l34.5-9.7
	c4.5-1.3,9.1,1.4,10.4,5.8l0,0C372.1,391.3,369.5,396,365,397.2z"/>
<path class="st3" d="M336.8,423.4c11.1-3.1,22.7,3.4,25.8,14.5c3.1,11.1-3.4,22.7-14.5,25.8c-11.1,3.1-22.7-3.4-25.8-14.5
	C319.2,438.1,325.6,426.5,336.8,423.4z M330.8,446.8c1.8,6.4,8.5,10.1,14.9,8.3c6.4-1.8,10.2-8.5,8.4-14.9
	c-1.8-6.4-8.5-10.1-14.9-8.3C332.8,433.8,329,440.4,330.8,446.8z"/>
<circle class="st2" cx="207.4" cy="399.1" r="22.6"/>
<g>
	<path class="st4" d="M314,339.7c-20.8-25.5-14.4-41.9-16.5-40.3c-9.4,7.1-28.5,6.8-51.9,16.6c-21.6,9.1-19,9.5-24.7,9.6l-18.1-0.7
		c-17.8-5.5-26.6-27.7-22.3-46.8l8.5-34.1l9.1-36.4c3.1-13.6,13-23.2,24.8-25.6c0,0,4.1-4.7,5.8-9s3.7-19.6,3.7-19.6
		c-4.8-8.2-7.2-15.1-5.2-23.8c2.8-12.6,15-19.8,27.1-16c12.2,3.7,20.3,11.9,17.5,24.4c-1,4.3,0,32.9-17.1,33.5c0,0-2.8,5-3.2,9.3
		c-0.4,4.4,0.9,10.8,0.9,10.8c8.8,9,14.4,14.2,10.1,35.8s-23.8,44.1-18.3,45.3l42.4-3c29.7-6.3,35.4,7,38.2,16.2
		c0,0,9.6,33.4,10.2,41c0.6,7.7,7.1,40.5,12.9,41.9s24.7-1.1,25.7,5.2c0.7,4-10.1,6.3-21.5,9c-11.4,2.7-19.5,5.2-23.9-5.2L314,339.7
		z"/>
</g>
<g>
	<path class="st5" d="M343.3,422.6l-7.8,1.2l-0.6-16.4c0,0-0.5-3.2-1.5-6.9c-1-3.7-6.7-9.9-6.7-9.9l-49.2-38.3c0,0-3-3.1-6.1-4.8
		c-3-1.8-5-1.6-5-1.6L199,363.7c0,0-10.6,3.7-17.9-0.6c-7.3-4.3-12.5-15-12.5-15l-31-56c-2-3.6-0.7-8.1,2.9-10.1l0,0
		c3.6-2,8.1-0.7,10.1,2.9l31.3,56.5c0,0,1.7,4.6,6.2,7.3c4.5,2.6,6.5,0.8,6.5,0.8l70.2-18.6c0,0,5.5-1.9,11.3,1.5
		c5.8,3.4,8.3,6.2,8.3,6.2l50,39.3l7.1,8.2c0,0,4.4,7.5,6.8,16.7c1.1,4,1.7,12.9,2.1,21.6L343.3,422.6z"/>
	<path class="st6" d="M281.4,315.8c-1.5-5.5-7.2-8.8-12.7-7.4l-69.3,18.3c-5.5,1.5-8.8,7.2-7.4,12.7l0,0c1.5,5.5,7.1,8.8,12.7,7.4
		l69.3-18.3C279.5,327,282.8,321.3,281.4,315.8L281.4,315.8z"/>
	<path class="st6" d="M151.4,264.7c-5,2.8-6.8,9.1-4,14.1l25.2,45.4c2.8,5,9.1,6.8,14.1,4l0,0c5-2.8,6.8-9.1,4-14.1l-25.2-45.4
		C162.7,263.7,156.4,261.9,151.4,264.7L151.4,264.7z"/>
</g>
<path class="st3" d="M180.5,303.1c53-14.9,108,16,122.9,69c14.9,53-16,108-69,122.9c-53,14.9-108-16-122.9-69
	C96.6,373.1,127.5,318,180.5,303.1z M130.7,420.7c11.9,42.4,55.9,67.1,98.3,55.2c42.4-11.9,67.1-55.9,55.2-98.3
	c-11.9-42.4-55.9-67.1-98.3-55.2C143.5,334.2,118.7,378.3,130.7,420.7z"/>
<path class="st7" d="M182.3,309.2c50.1-14.1,102.1,15.1,116.2,65.2c14.1,50.1-15.1,102.1-65.2,116.2
	c-50.1,14.1-102.1-15.1-116.2-65.2C103,375.3,132.2,323.3,182.3,309.2z"/>
<g>
	<path class="st4" d="M253.3,306.6c2.1,2.8,6.9,5.7,8.1,10.3c2.7,10.3,1.1,20.1-3.6,21.8c-4.7,1.7-10.6-5.3-13.3-15.7
		c-1.2-4.6-4.5-8.1-4.1-11.8l0,0c-2.7-5.2-10.3-9.2-12.3-17.1l-14.5-22.7l-3.8-21.8l-4-20c-2-5-1.4-12.2-2.3-17.8
		c-2.1-13.2,9.6-29.6,23.5-30.9c13.9-1.3,28.9,8.2,29,21.6c0.2,14.7-6.6,21-10.4,27.9l-6.7,18.4l-5.2,19.2l11.3,19.9
		C246.9,296,253,300.5,253.3,306.6L253.3,306.6z"/>
</g>
</svg>
